<svg xmlns="http://www.w3.org/2000/svg" xmlns:xlink="http://www.w3.org/1999/xlink" id="efR4aEi7Ncq1" width="735" height="604"><style>@keyframes efR4aEi7Ncq6__m{0%,to{d:path('M701.800000,241.300000C699.688244,278.513811,719,298.600000,723.400000,328.900000C725.700000,344.100000,726.900000,359.200000,726.600000,374.100000C725.400000,415,716.500000,455.300000,680.800000,484.100000C569.200000,572.300000,404.200000,635.600000,259.100000,587.700000C243.200000,583,229.200000,576.200000,216.900000,567.900000C204.600000,559.800000,194.100000,550.100000,184.900000,539.400000C168.800000,510.800000,148.700000,480.900000,130.800000,450.400000C121.800000,435.100000,113.300000,419.600000,106,404C69.500000,342.100000,82.800000,269.400000,152.200000,225.200000C241.400000,167.600000,304,102.500000,382.100000,41.100000C437.600000,-3.200000,513.500000,-8.900000,581.400000,10.900000C601.300000,17,620.700000,25.600000,638.400000,37.200000C651.700000,45.300000,662.300000,55.100000,670.400000,65.800000C678.500000,76.500000,684.400000,88.500000,688.300000,100.900000C696.300000,125.400000,698.600000,152.200000,699.600000,179.600000C701,199.100000,700.953212,217.346949,701.800000,241.300000Z')}31.25%{d:path('M701.800000,241.300000C701.287150,288.104255,715.464218,298.542456,723.400000,328.900000C727.244022,354.161232,726.900000,359.200000,726.600000,374.100000C725.400000,415,716.500000,455.300000,680.800000,484.100000C586.950549,588.211020,404.200000,635.600000,259.100000,587.700000C243.200000,583,229.200000,576.200000,216.900000,567.900000C195.304010,549.213431,188.502985,535.404087,180.100000,512.588703C164,483.988703,148.700000,480.900000,130.800000,450.400000C121.800000,435.100000,113.300000,419.600000,106,404C69.500000,342.100000,70.034041,277.948441,152.200000,225.200000C246.762242,171.102181,309.486053,133.446261,382.100000,41.100000C418.596195,1.122274,513.500000,-8.900000,581.400000,10.900000C601.300000,17,620.700000,25.600000,638.400000,37.200000C651.700000,45.300000,662.300000,55.100000,670.400000,65.800000C678.500000,76.500000,684.400000,88.500000,688.300000,100.900000C696.300000,125.400000,698.600000,152.200000,699.600000,179.600000C701,199.100000,701.500000,219.700000,701.800000,241.300000Z')}68.75%{d:path('M693.233938,241.400000C692.721088,288.204255,697.851837,287.977844,705.609176,319.100000C713.872927,346.283696,713.864686,350.921777,718.868359,369.500000C727.391760,416.633206,706.100000,450.757531,670.400000,479.557531C576.550549,583.668551,387.700000,622.464613,242.600000,574.564613C226.700000,569.864613,215.232445,563.076143,200.800000,550.661845C182.447317,531.660942,166.245247,486.874738,180.100000,512.588703C164,483.988703,148.700000,480.900000,130.800000,450.400000C121.800000,435.100000,113.300000,419.600000,106,404C95.379789,333.313069,98.665667,279.573481,150.700000,222.800000C276.051524,178.082772,309.298981,82.544671,382.100000,41.100000C430.201434,9.055571,530.700000,-0.353198,598.600000,19.446802C618.500000,25.546802,620.700000,25.600000,638.400000,37.200000C651.700000,45.300000,662.300000,55.100000,670.400000,65.800000C678.500000,76.500000,684.400000,88.500000,688.300000,100.900000C696.300000,125.400000,698.600000,152.200000,699.600000,179.600000C701,199.100000,692.933938,219.800000,693.233938,241.400000Z')}}@keyframes efR4aEi7Ncq23_s_do{0%,81.25%,to{stroke-dashoffset:727.95}25%,61.25%{stroke-dashoffset:0}}@keyframes efR4aEi7Ncq23_s_da{0%,25%,61.25%,81.25%,to{stroke-dasharray:727.95}}@keyframes efR4aEi7Ncq54_tr__tr{0%,50%,to{transform:translate(284.951027px,199.297325px) rotate(0deg)}25%,75%{transform:translate(284.951027px,199.297325px) rotate(-4.133048deg)}}@keyframes efR4aEi7Ncq55__m{0%,50%,to{d:path('M329.800000,173L325.700000,278.600000L272.800000,276.900000C272.200000,270.800000,271.500000,247,271.500000,247C271.500000,247,249.400000,244.600000,248.100000,222.700000C247.500000,212.100000,247.900000,190,248.600000,170.100000C249,159.500000,253.500000,149.400000,261.100000,142.100000C268.800000,134.800000,279,130.700000,289.600000,130.800000C295,130.900000,300.400000,132,305.400000,134.200000C310.400000,136.400000,314.900000,139.500000,318.600000,143.400000C322.300000,147.300000,325.300000,152,327.200000,157C329.100000,162.200000,330,167.600000,329.800000,173Z')}25%,75%{d:path('M329.800000,173L321.534343,278.298987L267.442790,274.390295C266.842790,268.290295,268.637515,246.246337,268.637515,246.246337C268.637515,246.246337,249.400000,244.600000,248.100000,222.700000C247.500000,212.100000,247.900000,190,248.600000,170.100000C249,159.500000,253.500000,149.400000,261.100000,142.100000C268.800000,134.800000,279,130.700000,289.600000,130.800000C295,130.900000,300.400000,132,305.400000,134.200000C310.400000,136.400000,314.900000,139.500000,318.600000,143.400000C322.300000,147.300000,325.300000,152,327.200000,157C329.100000,162.200000,330,167.600000,329.800000,173Z')}}@keyframes efR4aEi7Ncq56__m{0%,50%,to{d:path('M271.500000,247C281.600000,246.700000,291.400000,243.400000,299.700000,237.500000C299.700000,237.500000,293.700000,253.600000,271.700000,252.700000Q271.500000,247,271.500000,247Z')}25%,75%{d:path('M268.637515,246.246337C278.737515,245.946337,291.400000,243.400000,299.700000,237.500000C299.700000,237.500000,289.219004,254.311647,268.190664,252.430213Q268.557699,248.017057,268.637515,246.246337Z')}}@keyframes efR4aEi7Ncq114_tr__tr{0%,50%,to{transform:translate(493.996582px,259.527069px) rotate(0deg)}25%,75%{transform:translate(493.996582px,259.527069px) rotate(5.964624deg)}}@keyframes efR4aEi7Ncq126__m{0%,50%,to{d:path('M456.700000,279.600000C467.800000,279.600000,478.700000,276.500000,488.100000,270.600000C488.100000,270.600000,480,287.200000,456.400000,285.400000L456.700000,279.600000Z')}25%,75%{d:path('M457.022351,279.555873C468.122351,279.555873,478.700000,276.500000,488.100000,270.600000C488.100000,270.600000,482.706543,287.266005,459.106543,285.466005L457.022351,279.555873Z')}}@keyframes efR4aEi7Ncq160_tr__tr{0%,to{transform:translate(632.275024px,548.6px) rotate(0deg)}50%{transform:translate(632.275024px,548.6px) rotate(11.508219deg)}}@keyframes efR4aEi7Ncq168_to__to{0%,50%,to{transform:translate(596.800018px,115.599998px)}25%{transform:translate(596.800018px,127.5px)}75%{transform:translate(596.800018px,124.7px)}}</style><defs><linearGradient id="efR4aEi7Ncq6-fill" x1="86.181" y1="302.071" x2="726.705" y2="302.071" spreadMethod="pad" gradientUnits="userSpaceOnUse"><stop id="efR4aEi7Ncq6-fill-0" offset="0%" stop-color="#ffe3d9"></stop><stop id="efR4aEi7Ncq6-fill-1" offset="26.69%" stop-color="#ffa6a4"></stop><stop id="efR4aEi7Ncq6-fill-2" offset="47.83%" stop-color="#f7867e"></stop><stop id="efR4aEi7Ncq6-fill-3" offset="67.05%" stop-color="#fda99b"></stop><stop id="efR4aEi7Ncq6-fill-4" offset="85.02%" stop-color="#f97e84"></stop><stop id="efR4aEi7Ncq6-fill-5" offset="100%" stop-color="#fe694b"></stop></linearGradient><rect id="efR4aEi7Ncq2" width="677" height="604" rx="0" ry="0"></rect></defs><g id="efR4aEi7Ncq3"><g id="efR4aEi7Ncq4" clip-path="url(#efR4aEi7Ncq8)"><g id="efR4aEi7Ncq5"><path d="M701.8 241.3c-2.112 37.214 17.2 57.3 21.6 87.6 2.3 15.2 3.5 30.3 3.2 45.2-1.2 40.9-10.1 81.2-45.8 110-111.6 88.2-276.6 151.5-421.7 103.6-15.9-4.7-29.9-11.5-42.2-19.8-12.3-8.1-22.8-17.8-32-28.5-16.1-28.6-36.2-58.5-54.1-89-9-15.3-17.5-30.8-24.8-46.4-36.5-61.9-23.2-134.6 46.2-178.8C241.4 167.6 304 102.5 382.1 41.1c55.5-44.3 131.4-50 199.3-30.2 19.9 6.1 39.3 14.7 57 26.3 13.3 8.1 23.9 17.9 32 28.6 8.1 10.7 14 22.7 17.9 35.1 8 24.5 10.3 51.3 11.3 78.7 1.4 19.5 1.353 37.747 2.2 61.7z" fill="url(#efR4aEi7Ncq6-fill)" style="animation:efR4aEi7Ncq6__m 8000ms linear infinite normal forwards"></path><path id="efR4aEi7Ncq7" d="M264.8 552c-52 0-55.3 6-64 9-29.5 25 62.6 41.5 171 46.5 118.5 5.5 251-31.5 228-46.5-18.4-12-29-9-58-9h-277z" opacity=".2" fill="#FFF" stroke="none" stroke-width="1"></path></g><clipPath id="efR4aEi7Ncq8"><use id="efR4aEi7Ncq9" width="677" height="604" xlink:href="#efR4aEi7Ncq2" transform="translate(57.8)" fill="#000" stroke="none" stroke-width="1"></use></clipPath></g></g><path id="efR4aEi7Ncq10" d="M389.9 62.6c0 .2 0 .4-.1.5-.1.3-.2.9-.3 1.5-.3 2-.5 4-.6 6-.1 3.2.2 6.4.8 9.5.8 4.1 2.3 8.1 4.5 11.7 2.7 4.3 5.6 8.5 8.8 12.5 3.6 4.6 6.6 9.8 8.8 15.3 2.4 6.1 3.8 12.5 4.1 19 .6 14.2-4.4 28-14 38.5-4.4 4.8-9.7 8.8-15.6 11.6-5.6 2.8-11.1 4.8-16.1 7.2-4.6 2.2-8.8 5.2-12.3 8.9-5.1 5.4-8.6 12.1-10.2 19.3-.3 1.3-.4 2.4-.6 3.4-.2 1-.2 1.9-.2 2.5 0 .7 0 1.2-.1 1.6V230c0-.7.1-1.5.2-2.6.1-1 .3-2.2.6-3.4.6-3.1 1.7-6.2 3-9.1 1.8-3.8 4.2-7.4 7.1-10.5 3.6-3.7 7.8-6.8 12.4-9 4.9-2.5 10.5-4.5 16-7.3 5.8-2.8 11-6.7 15.3-11.4 9.5-10.4 14.4-24.1 13.8-38.1-.3-6.5-1.6-12.8-4-18.9-2.2-5.4-5.1-10.5-8.7-15.1-3.2-4-6.1-8.2-8.8-12.6-2.1-3.7-3.6-7.7-4.4-11.9-.6-3.2-.8-6.4-.7-9.6.1-2 .3-4 .7-6 .1-.7.3-1.2.3-1.5l.3-.4z" fill="#E0E0E0" stroke="none" stroke-width="1"></path><path id="efR4aEi7Ncq11" d="M440.2 71c-.7 2.7-1.5 5.3-2.5 7.9-1.1 3.1-2.4 6-4 8.9-2 3.8-4.7 7.3-7.9 10.2-.9.8-1.9 1.6-3 2.2-1.1.7-2.2 1.3-3.4 1.9l-7.2 3.7c-5 2.6-10.4 5.2-15.9 8.4-5.7 3.2-10.9 7.4-15.2 12.3-4.7 5.3-8.2 11.6-10.3 18.3-2.1 6.8-2.6 13.9-1.5 20.9 1 6.5 3.5 12.7 7.4 18.1 3.7 5.1 8 9.3 11.5 13.7 1.7 2.1 3.2 4.4 4.5 6.8 1.2 2.2 2.1 4.6 2.8 7 1.2 4.2 1.7 8.5 1.5 12.8-.1 3.2-.7 6.5-1.7 9.6-.6 2-1.4 3.9-2.3 5.7-.3.6-.6 1.1-.8 1.4-.2.3-.3.5-.3.5s.1-.2.2-.5c.2-.3.4-.8.7-1.4.9-1.9 1.6-3.8 2.2-5.7.9-3.1 1.4-6.3 1.5-9.6.1-4.2-.4-8.5-1.6-12.6-.7-2.4-1.7-4.7-2.8-6.9-1.3-2.4-2.8-4.6-4.5-6.7-3.5-4.4-7.8-8.6-11.6-13.7-3.9-5.4-6.5-11.7-7.5-18.3-1.1-7.1-.6-14.3 1.5-21.2 2.1-6.8 5.7-13.1 10.4-18.5 4.4-5 9.6-9.3 15.4-12.5 5.5-3.1 10.9-5.7 15.9-8.3l7.2-3.7c1.2-.6 2.3-1.2 3.4-1.8 1-.7 2-1.4 2.9-2.2 3.2-2.9 5.9-6.3 7.9-10 1.6-2.8 2.9-5.8 4.1-8.8 1-2.5 1.6-4.5 2-5.8l.5-1.5c.4-.4.5-.6.5-.6z" fill="#E0E0E0" stroke="none" stroke-width="1"></path><path id="efR4aEi7Ncq12" d="M421.3 100.9c0 .2-5.8-.9-12.9-2.4-7.1-1.5-12.8-2.8-12.8-2.9 0-.2 5.8.9 12.9 2.4 7.1 1.5 12.8 2.8 12.8 2.9z" fill="#E0E0E0" stroke="none" stroke-width="1"></path><path id="efR4aEi7Ncq13" d="M430 92.7c0 .2-8.9-2.3-19.9-5.5-10.9-3.2-19.7-6-19.7-6.1 0-.1 8.9 2.3 19.9 5.5 11 3.2 19.8 5.9 19.7 6.1z" fill="#E0E0E0" stroke="none" stroke-width="1"></path><path id="efR4aEi7Ncq14" d="M436.5 81.8c0 .2-10.7-2.9-23.8-6.8-13.1-3.9-23.7-7.3-23.6-7.4.1-.2 10.7 2.9 23.9 6.8 13 3.9 23.5 7.3 23.5 7.4z" fill="#E0E0E0" stroke="none" stroke-width="1"></path><path id="efR4aEi7Ncq15" d="M395.7 182.5c-.1.2-5.8-1.9-12.8-4.6-7-2.7-12.6-5-12.5-5.2.1-.2 5.8 1.9 12.8 4.6 6.9 2.7 12.5 5 12.5 5.2z" fill="#E0E0E0" stroke="none" stroke-width="1"></path><path id="efR4aEi7Ncq16" d="M406.9 169.6c-.5-.1-1-.2-1.5-.4-1-.3-2.4-.7-4.1-1.2-3.4-1.1-8.2-2.7-13.4-4.6-5.2-1.9-9.8-3.8-13.2-5.2-1.7-.7-3-1.3-3.9-1.7-.5-.2-1-.4-1.4-.7.5.1 1 .3 1.5.5l4 1.6c3.4 1.3 8 3.1 13.2 5.1 5.1 1.9 9.9 3.6 13.3 4.8l4 1.4c.5 0 1 .1 1.5.4z" fill="#E0E0E0" stroke="none" stroke-width="1"></path><path id="efR4aEi7Ncq17" d="M413.4 155.7c-.6-.2-1.1-.4-1.7-.6l-4.4-1.8c-3.7-1.6-8.9-3.7-14.7-5.8-5.8-2.2-11.1-3.9-14.9-5.2l-4.6-1.5c-.6-.2-1.1-.4-1.7-.6.6.1 1.2.2 1.7.4 1.1.3 2.7.7 4.6 1.3 3.9 1.2 9.2 2.9 15 5 5.8 2.2 11 4.3 14.7 6 1.8.8 3.3 1.5 4.3 2 .6.1 1.2.4 1.7.8z" fill="#E0E0E0" stroke="none" stroke-width="1"></path><path id="efR4aEi7Ncq18" d="M413.4 138.2c-.5-.1-.9-.2-1.3-.4l-3.5-1.2c-3-1-7-2.4-11.6-3.9-4.5-1.5-8.6-2.7-11.6-3.6l-3.6-1.1c-.4-.1-.9-.3-1.3-.5.5 0 .9.1 1.3.2.9.2 2.1.5 3.6.9 3 .8 7.2 2 11.7 3.5 4.5 1.5 8.6 3 11.5 4.1 1.4.6 2.6 1 3.4 1.4.6.2 1 .4 1.4.6z" fill="#E0E0E0" stroke="none" stroke-width="1"></path><path id="efR4aEi7Ncq19" d="M413.6 124.7c-3.8-1-7.5-2.1-11.1-3.5-3.7-1.2-7.4-2.5-10.9-4.1 3.8 1 7.5 2.1 11.1 3.5 3.7 1.2 7.3 2.6 10.9 4.1z" fill="#E0E0E0" stroke="none" stroke-width="1"></path><path id="efR4aEi7Ncq20" d="M394.9 208.7l-1.2-.3-3.2-1.1-10.4-3.6-10.4-3.5-3.2-1.1c-.4-.1-.8-.3-1.1-.5.4 0 .8.1 1.2.2.8.2 1.9.5 3.2.9 2.7.8 6.4 1.9 10.5 3.3s7.7 2.7 10.3 3.8c1.3.5 2.4.9 3.1 1.2.5.3.9.5 1.2.7z" fill="#E0E0E0" stroke="none" stroke-width="1"></path><path id="efR4aEi7Ncq21" d="M397.1 224.6c-.1.2-9.9-3-22-7.2s-21.8-7.5-21.8-7.7c.1-.2 9.9 3 22 7.2 12.1 4.1 21.9 7.5 21.8 7.7z" fill="#E0E0E0" stroke="none" stroke-width="1"></path><path id="efR4aEi7Ncq22" d="M396.9 236.3c0 .2-11-3.1-24.5-7.2s-24.4-7.6-24.3-7.8c0-.2 11 3.1 24.5 7.2s24.4 7.6 24.3 7.8z" fill="#E0E0E0" stroke="none" stroke-width="1"></path><path d="M198.5 136.8h-.9l-2.8.1c-2.4.1-6 .2-10.6.3h-7.7c-1.5 0-2.9-.1-4.4-.4-1.5-.6-2.9-1.3-4.3-2-1.5-.7-3.2-.9-4.9-.6-.4.1-.9.2-1.3.3-.4.1-.8.3-1.1.6-.7.6-1.3 1.2-1.8 2-2.1 3.3-3.8 6.8-5 10.5-1.5 3.8-2.8 7.9-4.3 12.2-.2.5-.4 1.1-.6 1.6l-.2.4c0 .1-.1.2-.1.2 0 .1-.1.1-.2.2-.1 0-.1.1-.2.1-.4-.1-.4-.3-.5-.5-.1-.1-.1-.3-.2-.4-.3-1.1-.5-2.3-.6-3.4-.3-2.3-.6-4.7-.8-7.1-.9-9.6-1.6-19.9-2.5-30.7-.5-5.4-.9-11-1.9-16.5-.1-.7-.3-1.4-.5-2.1l-.3-.9c-.2-.3-.3-.4-.5-.3-.5.4-.9.9-1.2 1.5-.3.6-.7 1.3-.9 1.9-1.1 2.7-2.2 5.5-3 8.3-1.8 5.6-3.3 11.4-4.8 17.3l-.6 2.2c-.2.8-.4 1.5-.6 2.3-.3.8-.9 1.4-1.5 1.9s-1.5.8-2.3.9c-1.6.1-3.1.1-4.7.1-1.6-.1-3.2-.3-4.7-.7-1.9-.5-3.8-1.3-5.6-2.2-.8-.5-1.7-1-2.6-1.3-.4-.2-.8-.2-1.3-.1-.4.1-.8.3-1.1.6-.6.8-1 1.6-1.2 2.5-.3.9-.6 1.9-.8 2.8-.5 1.9-1 3.7-1.4 5.6-1 3.7-1.9 7.4-3.1 11.1 0 .1-.1.3-.2.4-.1.1-.2.2-.3.2-.1 0-.3 0-.4-.1-.2-.2-.4-.4-.5-.7-.2-.4-.3-.9-.5-1.4-.3-.9-.5-1.8-.6-2.8-.4-1.8-.7-3.7-1-5.5-1.2-7.3-2.2-14.4-3.2-21.3-.5-3.4-1-6.8-1.7-10.1-.2-.8-.4-1.6-.7-2.4-.2-.7-1 .1-1.4.7-.9 1.3-1.8 2.7-2.5 4.2-3 5.8-5.3 11.6-8 16.9-.6 1.4-1.4 2.6-2.2 3.9-.2.4-.6.6-1 .7-.4.1-.8.1-1.2 0-.7-.3-1.4-.7-1.8-1.3-.5-.5-1-.9-1.6-1.2-.6-.3-1.2-.4-1.9-.4-1.3.3-2.5 1-3.4 1.9-.5.5-1.2.8-1.9 1-.4.1-.7 0-1.1-.1-.3-.1-.6-.3-.9-.6-.9-.9-1.8-1.9-2.5-3-.8-1-1.5-2-2.2-3-.7-.9-1.5-1.7-2.5-2.4-1-.6-2.1.2-2.9.8-.9.7-1.7 1.4-2.4 2.2-1.4 1.5-2.8 3.1-4 4.8v.1h-.1l-21.9-.1h-7.8 7.8l21.9-.1-.1.1c1.3-1.7 2.6-3.3 4-4.9.8-.8 1.6-1.6 2.5-2.3.5-.4 1-.7 1.5-.9.3-.1.6-.2.9-.2.3 0 .6.1.9.3 1 .7 1.9 1.5 2.7 2.5.8 1 1.5 2 2.2 3 .7 1 1.5 2 2.4 2.9.2.2.5.4.8.5.3.1.6.1.8.1.6-.2 1.2-.5 1.7-.9 1-1 2.2-1.7 3.6-2 .7 0 1.5.1 2.1.4.7.3 1.3.7 1.8 1.3.4.5 1 1 1.6 1.2.3.1.7.1 1 0 .2 0 .5-.3.7-.6.8-1.2 1.6-2.5 2.2-3.8 2.6-5.3 5-11.1 8-17 .7-1.5 1.6-2.9 2.5-4.3.3-.4.6-.7.9-.9.1-.1.2-.2.4-.2s.3-.1.4 0c.1 0 .3.1.4.2l.3.3c.3.7.5 1.5.7 2.3.7 3.3 1.2 6.7 1.8 10.2 1.1 6.9 2 14 3.3 21.2.3 1.8.6 3.6 1 5.5l.6 2.7c.1.4.3.9.4 1.3.1.2.1.3.3.4-.1 0 0 .2 0 .1 0 0 0-.1 0 0 0-.1.1-.1.1-.2 1.2-3.6 2.1-7.3 3-11 .5-1.9.9-3.7 1.4-5.6.3-.9.5-1.9.8-2.8.1-.5.3-.9.5-1.4.2-.5.5-1 .8-1.4.4-.4.9-.7 1.4-.8.5-.1 1.1 0 1.6.1 1 .3 1.9.8 2.7 1.3 1.7.9 3.5 1.7 5.4 2.2 1.5.4 3 .6 4.6.7 1.5 0 3.1 0 4.6-.1.7-.1 1.4-.3 2-.8.6-.4 1-1 1.4-1.6.3-.7.5-1.4.6-2.2l.6-2.2c1.5-6 3.1-11.7 4.8-17.4.9-2.8 1.8-5.6 3-8.3.3-.7.6-1.3 1-2l.6-.9c.2-.3.6-.6.9-.8.1 0 .3-.1.4-.1.1 0 .3.1.4.1.2.1.3.3.4.5.2.3.3.7.4 1.1.2.7.3 1.4.5 2.1.9 5.6 1.4 11.2 1.9 16.6.9 10.8 1.6 21.1 2.4 30.8.2 2.4.5 4.8.8 7.1.1 1.1.3 2.3.6 3.4 0 .1.1.3.1.4 0 .1 0 .1.1.1 0 0-.1 0 0 .1s0-.1-.1-.1 0 0 0 0 .1-.1.1-.2l.2-.4c.2-.5.4-1 .6-1.6 1.5-4.2 2.8-8.3 4.3-12.1 1.3-3.7 3-7.3 5.1-10.6.5-.8 1.2-1.5 1.9-2 .4-.3.8-.5 1.2-.6.4-.1.9-.2 1.3-.3 1.7-.3 3.5 0 5 .7s2.8 1.6 4.2 2c1.4.3 2.9.4 4.3.4 2.8.1 5.3 0 7.6 0l10.6-.1h2.8c.7-.2 1-.2 1-.2z" transform="matrix(-1 0 0 1 213.178 0)" fill="none" stroke="#ff0000" stroke-dashoffset="727.95" stroke-dasharray="727.95" style="animation-name:efR4aEi7Ncq23_s_do,efR4aEi7Ncq23_s_da;animation-duration:8000ms;animation-fill-mode:forwards;animation-timing-function:linear;animation-direction:normal;animation-iteration-count:infinite"></path><g id="efR4aEi7Ncq24" stroke="none" stroke-width="1"><path id="efR4aEi7Ncq25" d="M596.6 242.1l19.9 4.1L591 370.6c-.2 1.2-1 2.3-2 2.9-1 .7-2.3.9-3.5.7l-10.9-2.2c-1.2-.2-2.3-1-2.9-2-.7-1-.9-2.3-.7-3.5l25.6-124.4z" opacity=".2" fill="#E0E0E0"></path><path id="efR4aEi7Ncq26" d="M592.1 263.8l19.9 4.1-18.3 89.4c-.2 1.2-1 2.3-2 2.9-1 .7-2.3.9-3.5.7l-10.9-2.2c-1.2-.2-2.3-1-2.9-2-.7-1-.9-2.3-.7-3.5l18.4-89.4z" opacity=".2" fill="#F5F5F5"></path><path id="efR4aEi7Ncq27" d="M614 258.7l-13.3-2.7-12.1 59.1 13.3 2.7 12.1-59.1z" opacity=".2" fill="#FFF"></path><path id="efR4aEi7Ncq28" d="M585.6 374.2c.9.1 1.8 0 2.6-.3 1-.4 1.8-1.1 2.3-2.1.3-.6.5-1.3.6-1.9.1-.7.3-1.5.5-2.3 1.3-6.6 3.2-16.1 5.6-27.9 4.8-23.7 11.5-56.6 19-93.6l.2.4-15.4-3.1-4.5-.9.4-.2c-8.1 39.6-15.4 75.2-20.7 100.9-1.3 6.4-2.5 12.2-3.6 17.3-.3 1.3-.5 2.5-.8 3.7-.1.6-.3 1.2-.4 1.7-.1.5-.2 1.1-.3 1.7 0 1 .3 2.1 1 2.9.6.7 1.4 1.3 2.3 1.5l8.2 1.8 2.1.5c.7-.2.9-.1.9-.1l-.7-.1-2.2-.4-8.3-1.7c-1-.3-1.9-.9-2.6-1.7-.6-.8-1-1.9-1-2.9 0-.6.1-1.2.3-1.7.1-.6.2-1.2.3-1.7.2-1.2.5-2.4.7-3.7 1-5.1 2.2-10.9 3.5-17.4 5.2-25.7 12.5-61.4 20.5-100.9v-.3l.3.1 4.6.9 15.4 3.1.3.1v.3c-7.6 37-14.4 69.9-19.2 93.6l-5.8 27.9c-.2.8-.3 1.6-.5 2.3-.1.7-.3 1.4-.6 2-.5 1-1.4 1.7-2.4 2.1-.6.2-1.3.3-2 .3-.2-.1-.4-.2-.6-.2z" opacity=".2" fill="#E0E0E0"></path><path id="efR4aEi7Ncq29" d="M602.3 216l19.6 4c.6.1 1.2.5 1.5 1 .3.5.5 1.2.3 1.8l-6 29.5-24.3-5 6-29.4c.1-.3.2-.6.4-.9.2-.3.4-.5.7-.7.3-.2.6-.3.9-.4.2.1.6.1.9.1z" opacity=".4" fill="#EBEBEB"></path><path id="efR4aEi7Ncq30" d="M618.2 249.3c0 .2-5.5-.8-12.3-2.2-6.7-1.4-12.2-2.6-12.1-2.8 0-.2 5.5.8 12.3 2.2 6.7 1.3 12.1 2.6 12.1 2.8z" opacity=".2" fill="#E0E0E0"></path><path id="efR4aEi7Ncq31" d="M596.1 244.5c-.2 0 1-6.3 2.5-14 1.6-7.7 3-13.9 3.2-13.9.2 0-1 6.3-2.5 14-1.6 7.7-3 13.9-3.2 13.9z" opacity=".2" fill="#E0E0E0"></path><path id="efR4aEi7Ncq32" d="M599.4 245.2c-.2 0 1-6.3 2.5-14 1.6-7.7 3-13.9 3.2-13.9.2 0-1 6.3-2.5 14-1.7 7.7-3.1 13.9-3.2 13.9z" opacity=".2" fill="#E0E0E0"></path><path id="efR4aEi7Ncq33" d="M602.7 245.9c-.2 0 1-6.3 2.5-14 1.6-7.7 3-13.9 3.2-13.9.2 0-1 6.3-2.5 14s-3 13.9-3.2 13.9z" opacity=".2" fill="#E0E0E0"></path><path id="efR4aEi7Ncq34" d="M606 246.5c-.2 0 1-6.3 2.5-14 1.6-7.7 3-13.9 3.2-13.9.2 0-1 6.3-2.5 14s-3 14-3.2 13.9z" opacity=".2" fill="#E0E0E0"></path><path id="efR4aEi7Ncq35" d="M609.4 247.2c-.2 0 1-6.3 2.5-14 1.6-7.7 3-13.9 3.2-13.9.2 0-1 6.3-2.5 14-1.7 7.7-3.1 14-3.2 13.9z" opacity=".2" fill="#E0E0E0"></path><path id="efR4aEi7Ncq36" d="M612.6 247.9c-.2 0 1-6.3 2.5-14 1.6-7.7 3-13.9 3.2-13.9.2 0-1 6.3-2.5 14-1.6 7.7-3 13.9-3.2 13.9z" opacity=".2" fill="#E0E0E0"></path><path id="efR4aEi7Ncq37" d="M616 248.6c-.2 0 1-6.3 2.5-14 1.6-7.7 3-13.9 3.2-13.9.2 0-1 6.3-2.5 14-1.6 7.7-3 13.9-3.2 13.9z" opacity=".2" fill="#E0E0E0"></path><path id="efR4aEi7Ncq38" d="M640 300.8l15.9-1.5L665 398c.1 1.2-.3 2.4-1.1 3.4-.8.9-1.9 1.5-3.1 1.7l-6.7.6c-1.2.1-2.4-.3-3.4-1.1-.9-.8-1.5-1.9-1.7-3.1l-9-98.7z" opacity=".2" fill="#E0E0E0"></path><path id="efR4aEi7Ncq39" d="M641.6 318.3l15.9-1.5 6.5 70.6c.1 1.2-.3 2.4-1.1 3.4-.8.9-1.9 1.5-3.1 1.7l-6.7.6c-1.2.1-2.4-.3-3.4-1.1-.9-.8-1.5-1.9-1.7-3.1l-6.4-70.6z" opacity=".2" fill="#F5F5F5"></path><path id="efR4aEi7Ncq40" d="M656.9 309.5l-10.6 1 4.4 47.3 10.6-1-4.4-47.3z" opacity=".2" fill="#FFF"></path><path id="efR4aEi7Ncq41" d="M660.8 403c.7-.1 1.4-.4 2-.7.7-.5 1.3-1.1 1.7-1.9.2-.5.4-1 .5-1.5 0-.6 0-1.2-.1-1.8-.5-5.3-1.2-13-2.2-22.5-1.8-19.1-4.3-45.5-7-75.3l.3.3-11.3 1-4.6.4.3-.3c2.8 31.3 5.4 59.5 7.2 79.8.5 5.1.9 9.7 1.2 13.7.2 2 .3 3.9.5 5.6.1.8.5 1.5 1 2 .5.6 1.1 1 1.9 1.3 1.2.3 2.5.4 3.7.1l2.8-.2 1.7-.1.4.1-.6.1-1.7.2-2.8.3-1.8.2c-.7.1-1.4 0-2-.3-.8-.3-1.4-.8-2-1.4-.5-.6-.9-1.4-1.1-2.2-.2-1.7-.4-3.6-.6-5.6-.4-4-.8-8.6-1.3-13.7-1.9-20.3-4.5-48.5-7.4-79.8v-.3h.3l4.6-.4 11.3-1h.3v.3c2.7 29.7 5.1 56.2 6.8 75.3.8 9.5 1.5 17.2 2 22.5.1.6.1 1.3.1 1.9-.1.7-.3 1.4-.7 2-.4.6-.9 1.1-1.5 1.5-.5.3-1 .5-1.5.6 0-.2-.2-.2-.4-.2z" opacity=".2" fill="#E0E0E0"></path><path id="efR4aEi7Ncq42" d="M638.8 279.9l14.7-1.4c.6-.1 1.3.1 1.7.5.5.4.8 1 .9 1.6l2.1 23-19.5 1.8-2.1-23c0-.3 0-.6.1-.9.1-.3.2-.6.4-.8.2-.2.5-.4.7-.6.4 0 .7-.1 1-.2z" opacity=".4" fill="#EBEBEB"></path><path id="efR4aEi7Ncq43" d="M657.9 301.4c-6.5 1-13 1.6-19.5 1.8 3.2-.6 6.5-1 9.7-1.2 3.2-.5 6.5-.7 9.8-.6z" opacity=".2" fill="#E0E0E0"></path><path id="efR4aEi7Ncq44" d="M640.2 302.8c-.7-3.7-1.1-7.4-1.3-11.1-.5-3.7-.7-7.5-.7-11.2.6 3.7 1.1 7.4 1.3 11.1.4 3.7.6 7.5.7 11.2z" opacity=".2" fill="#E0E0E0"></path><path id="efR4aEi7Ncq45" d="M642.8 302.6c-.7-3.7-1.1-7.4-1.3-11.1-.5-3.7-.7-7.5-.7-11.2.6 3.7 1.1 7.4 1.3 11.1.4 3.7.6 7.4.7 11.2z" opacity=".2" fill="#E0E0E0"></path><path id="efR4aEi7Ncq46" d="M645.5 302.3c-.6-3.7-1.1-7.4-1.3-11.1-.4-3.7-.7-7.5-.7-11.2.7 3.7 1.1 7.4 1.3 11.1.4 3.8.6 7.5.7 11.2z" opacity=".2" fill="#E0E0E0"></path><path id="efR4aEi7Ncq47" d="M648.1 302.1c-.6-3.7-1.1-7.4-1.3-11.1-.4-3.7-.7-7.5-.7-11.2.6 3.7 1.1 7.4 1.3 11.1.4 3.7.6 7.4.7 11.2z" opacity=".2" fill="#E0E0E0"></path><path id="efR4aEi7Ncq48" d="M650.8 301.8c-.7-3.7-1.1-7.4-1.3-11.1-.5-3.7-.7-7.5-.7-11.2.6 3.7 1.1 7.4 1.3 11.1.4 3.7.7 7.5.7 11.2z" opacity=".2" fill="#E0E0E0"></path><path id="efR4aEi7Ncq49" d="M653.4 301.6c-.6-3.7-1.1-7.4-1.3-11.2-.5-3.7-.7-7.5-.7-11.2.6 3.7 1.1 7.4 1.3 11.1.5 3.8.7 7.5.7 11.3z" opacity=".2" fill="#E0E0E0"></path><path id="efR4aEi7Ncq50" d="M656.1 301.3c-.6-3.7-1.1-7.4-1.3-11.1-.4-3.7-.7-7.5-.7-11.2.7 3.7 1.1 7.4 1.3 11.1.4 3.7.7 7.5.7 11.2z" opacity=".2" fill="#E0E0E0"></path></g><g id="efR4aEi7Ncq51" stroke="none" stroke-width="1"><path id="efR4aEi7Ncq52" d="M177.5 213.4c-2.1-9.4-11-17.4-20.5-16.4-5.6.6-10.8 4-14.2 8.5-1.2 1.5-2.3 3.1-3.3 4.8-1-1.7-2.1-3.3-3.3-4.8-3.4-4.5-8.5-8-14.1-8.5-9.6-.9-18.4 7.1-20.5 16.4-2.1 9.3 1.4 19.3 7.2 26.9 5.8 7.7 15.3 17.5 31.6 21.2 10.7-2.5 24.3-13.5 30-21.2 5.7-7.6 9.2-17.6 7.1-26.9z" fill="#fe694b"></path><path id="efR4aEi7Ncq53" d="M175.8 230.7H171l-13.1.1.2-.2c-1.2 4.2-2.5 9.2-4 14.6l-.2.9-.3-.9-7.6-21.9c-.8-2.4-1.7-4.8-2.5-7.2l.6.1-8.6 14.6-.1.1h-.2l-23-.1-6.5-.1h-2.3 2.3l6.5-.1 23-.1-.2.1 8.5-14.6.3-.6.2.6c.8 2.4 1.6 4.8 2.5 7.2l7.6 22h-.6c1.5-5.4 2.9-10.4 4.1-14.6v-.2h.2l13.1.1h4.5l.4.2z" fill="#FAFAFA"></path></g><g transform="translate(284.951 199.297)" style="animation:efR4aEi7Ncq54_tr__tr 8000ms linear infinite normal forwards"><g id="efR4aEi7Ncq54" transform="translate(-284.951 -199.297)"><path d="M329.8 173l-4.1 105.6-52.9-1.7c-.6-6.1-1.3-29.9-1.3-29.9s-22.1-2.4-23.4-24.3c-.6-10.6-.2-32.7.5-52.6.4-10.6 4.9-20.7 12.5-28 7.7-7.3 17.9-11.4 28.5-11.3 5.4.1 10.8 1.2 15.8 3.4s9.5 5.3 13.2 9.2c3.7 3.9 6.7 8.6 8.6 13.6 1.9 5.2 2.8 10.6 2.6 16z" fill="#FFBE9D" style="animation:efR4aEi7Ncq55__m 8000ms linear infinite normal forwards"></path><path d="M271.5 247c10.1-.3 19.9-3.6 28.2-9.5 0 0-6 16.1-28 15.2l-.2-5.7z" fill="#EB996E" style="animation:efR4aEi7Ncq56__m 8000ms linear infinite normal forwards"></path><path id="efR4aEi7Ncq57" d="M255.8 185.8c0 .8.4 1.6 1 2.2.6.6 1.4.9 2.2.9.4 0 .8-.1 1.2-.2.4-.1.7-.4 1-.6.3-.3.5-.6.7-1 .2-.4.2-.8.2-1.2 0-.8-.4-1.6-1-2.2-.6-.6-1.4-.9-2.2-.9-.4 0-.8.1-1.2.2-.4.1-.7.4-1 .6-.3.3-.5.6-.7 1-.1.4-.2.8-.2 1.2z" fill="#263238" stroke="none" stroke-width="1"></path><path id="efR4aEi7Ncq58" d="M253.9 181.3c.4.4 2.7-1.5 6.1-1.6 3.4-.2 5.9 1.4 6.3 1 .2-.2-.3-.9-1.4-1.7-1.5-.9-3.3-1.4-5-1.3-1.7.1-3.4.7-4.8 1.8-1.1.8-1.4 1.6-1.2 1.8z" fill="#263238" stroke="none" stroke-width="1"></path><path id="efR4aEi7Ncq59" d="M287.7 185.7c0 .8.4 1.6 1 2.1.6.6 1.4.9 2.2.9.4 0 .8-.1 1.2-.2.4-.1.7-.4 1-.6.3-.3.5-.6.7-1 .2-.4.2-.8.2-1.2 0-.8-.4-1.6-.9-2.1-.6-.6-1.3-.9-2.2-.9-.4 0-.8 0-1.2.2-.4.1-.7.4-1 .6-.3.3-.5.6-.7 1-.2.4-.3.8-.3 1.2z" fill="#263238" stroke="none" stroke-width="1"></path><path id="efR4aEi7Ncq60" d="M287 180.3c.4.4 2.7-1.5 6.1-1.6 3.4-.1 6 1.4 6.3 1 .2-.2-.3-.9-1.4-1.6-1.5-.9-3.3-1.4-5-1.3-1.7.1-3.4.7-4.8 1.8-1.1.8-1.4 1.6-1.2 1.7z" fill="#263238" stroke="none" stroke-width="1"></path><path id="efR4aEi7Ncq61" d="M276 205.9c0-.2-2.1-.5-5.5-.7-.9 0-1.7-.2-1.9-.8-.1-.9 0-1.8.5-2.6.7-2.1 1.4-4.3 2.2-6.7 3.1-9.5 5.3-17.3 4.9-17.4-.4-.1-3.2 7.5-6.3 16.9-.7 2.3-1.4 4.6-2.1 6.7-.5 1.1-.6 2.3-.3 3.4.1.3.3.6.6.8.3.2.6.4.9.4.5.1 1 .1 1.5.1 3.3.2 5.5.1 5.5-.1z" fill="#263238" stroke="none" stroke-width="1"></path><path id="efR4aEi7Ncq62" d="M286 207.8c-.5 0-.4 3.6-3.4 6.4-3 2.8-6.9 2.5-6.9 3 0 .2.9.7 2.5.6 2.1-.1 4.2-.9 5.8-2.3 1.5-1.4 2.5-3.3 2.6-5.3.1-1.6-.4-2.5-.6-2.4z" fill="#263238" stroke="none" stroke-width="1"></path><path id="efR4aEi7Ncq63" d="M285.5 167.2c.4.9 3.7.3 7.7.6s7.2 1.2 7.7.4c.2-.4-.4-1.2-1.7-2.1-1.8-1-3.7-1.6-5.8-1.7-2-.1-4.1.2-6 1-1.3.6-2 1.4-1.9 1.8z" fill="#263238" stroke="none" stroke-width="1"></path><path id="efR4aEi7Ncq64" d="M254.6 171.5c.6.7 2.9-.2 5.7-.3 2.8-.2 5.2.3 5.7-.6.2-.4-.2-1.2-1.3-1.8-1.4-.8-3.1-1.2-4.7-1-1.6.1-3.2.7-4.5 1.7-.8.8-1.1 1.6-.9 2z" fill="#263238" stroke="none" stroke-width="1"></path><path id="efR4aEi7Ncq65" d="M304.9 150.4l.1.1c3.6 2.6 6.1 6.5 6.9 10.8 0 .2 0 .3.1.4 1.2 6.2 1.3 12.6 2.5 18.8 1.2 6.2 3.7 12.5 8.5 16.5 2 1.7 5.4 2.7 6.9.6.5-.9.7-1.9.6-2.9.5-15.2 3.9-28.7 3.2-44.5-.1-2.1-.7-4.2-1.7-6-1.1-1.8-2.5-3.4-4.3-4.6-3.4-2.2-7.6-4.5-11.2-2.6-3.6 1.9-8 9-10.8 12.1" fill="#263238" stroke="none" stroke-width="1"></path><path id="efR4aEi7Ncq66" d="M322.9 183.6c.4-.2 14.8-5.2 15.1 9.8.2 15-14.9 12.1-14.9 11.7-.1-.3-.2-21.5-.2-21.5z" fill="#FFBE9D" stroke="none" stroke-width="1"></path><path id="efR4aEi7Ncq67" d="M327.6 199.5c.1 0 .3.2.7.4.6.3 1.3.3 2 0 1.6-.6 2.9-3.1 2.9-5.8 0-1.3-.3-2.6-.8-3.7-.1-.5-.4-.9-.8-1.2-.3-.3-.8-.6-1.2-.7-.3-.1-.6 0-.9.1-.3.1-.5.4-.6.6-.2.4-.1.7-.2.8-.1 0-.3-.3-.2-.9.1-.4.3-.7.6-.9.4-.3.9-.5 1.4-.4.6.1 1.2.4 1.7.8s.9.9 1.1 1.5c.7 1.3 1 2.7 1 4.2 0 3-1.6 5.9-3.7 6.5-.4.1-.8.2-1.2.1-.4-.1-.8-.2-1.2-.5-.6-.6-.7-.9-.6-.9z" fill="#EB996E" stroke="none" stroke-width="1"></path><path id="efR4aEi7Ncq68" d="M318.8 141.8c4.3-5.6-4.8-15.2-12-18.4-7.2-3.1-17.2-.6-24.8 1-4.8 1-9.6 2.7-14.5 1.9-3.2-.7-6.3-1.8-9.2-3.4-2.9-1.6-6.1-2.6-9.3-2.9-3.3-.1-6.8 1.2-8.4 4.1-1.6 2.9-.3 7.2 2.9 8-3.9-2.7-10.2-.4-11.4 4.2-1.2 4.6 3.2 9.7 7.9 9.2-1.9-1.8-5.5.5-5.5 3.1 0 2.7 2.2 4.9 4.5 6.2 6 3.4 13.3 3.3 19.9 1.9 6.7-1.5 13-4.2 19.7-5.8 6.7-1.6 17.8-4.6 23.9-1.7 4.5 2.2 7.2 8.2 10 7.2 1.3-.5 2.5-1.4 3.5-2.4.9-1.1 1.6-2.4 2-3.7.8-2.8 1-5.7.8-8.5" fill="#263238" stroke="none" stroke-width="1"></path><path id="efR4aEi7Ncq69" d="M244.4 133.3s-.3.1-.8.5c-.7.5-1.2 1.2-1.5 1.9-.5 1.2-.6 2.6-.3 3.9.2.9.6 1.7 1.1 2.4.5.7 1.2 1.3 1.9 1.7 1.9 1.1 3.9 1.6 6.1 1.7 2.5 0 4.9-.3 7.3-1.1 5-1.5 10-4.4 15.3-7.5 5.3-3.1 10.6-5.6 16-6.2 2.5-.3 5.1-.2 7.5.5 2.1.6 4.2 1.5 6 2.8 2.6 1.8 4.7 4.3 6.1 7.2.5 1 .9 2.1 1.2 3.3-.1 0-.4-1.2-1.4-3.2-1.5-2.8-3.6-5.1-6.2-6.9-1.8-1.2-3.7-2.1-5.8-2.7-2.4-.6-4.9-.7-7.3-.4-5.2.7-10.5 3.2-15.7 6.2-5.2 3-10.3 6-15.4 7.5-2.4.7-4.9 1.1-7.5 1-2.2 0-4.4-.7-6.3-1.8-.8-.5-1.5-1.2-2.1-2-.6-.9-1-2-1.1-3.1-.1-1.1.1-2.3.6-3.3.4-.8.9-1.5 1.7-2 .1-.2.4-.3.6-.4z" fill="#455A64" stroke="none" stroke-width="1"></path><path id="efR4aEi7Ncq70" d="M297.5 125.7c.3-.1.7-.1 1 0 .9.1 1.8.2 2.6.5 2.9.8 5.4 2.4 7.3 4.7 1.9 2.3 3.1 5.1 3.3 8 .1.9.1 1.8 0 2.7 0 .3-.1.6-.2.9-.1 0 .1-1.4-.2-3.6-.4-2.8-1.5-5.5-3.4-7.7-1.8-2.2-4.2-3.8-7-4.7-2.1-.6-3.4-.7-3.4-.8z" fill="#455A64" stroke="none" stroke-width="1"></path><path id="efR4aEi7Ncq71" d="M333.4 164.1c-.4.2-.8.3-1.2.3-1.2.1-2.4-.2-3.4-.7-1.5-.8-2.8-2.1-3.6-3.7-.9-1.9-1.6-3.9-2.1-5.9-.4-2-1.1-3.9-2-5.8-.7-1.5-1.9-2.7-3.4-3.5-1-.6-2.1-.8-3.2-.8-.8 0-1.2.2-1.2.1.4-.2.8-.4 1.2-.4 1.2-.1 2.4.1 3.4.6 1.6.8 2.8 2 3.7 3.6.9 1.9 1.6 3.9 2.1 5.9.4 2 1.1 3.9 2 5.8.7 1.5 1.9 2.7 3.3 3.6 1 .6 2 .9 3.2.9.8.1 1.2 0 1.2 0z" fill="#455A64" stroke="none" stroke-width="1"></path><path id="efR4aEi7Ncq72" d="M332.6 174.1s-.1 0-.4.1c-.4.1-.7.1-1.1.1-1.3.1-2.7 0-4-.3-4.4-1-8.2-3.7-10.8-7.4-2.5-3.7-4-7.9-4.4-12.4 0-.7-.2-1.5-.3-2.2-.1-.5-.5-1-.9-1.3-.4-.3-.8-.5-1.3-.5.2-.1.5-.1.8 0 .3.1.5.2.7.3.5.4.8.9 1 1.4.2.7.4 1.5.5 2.3.5 4.3 2.1 8.4 4.5 12.1 2.5 3.6 6.1 6.2 10.3 7.3 1.8.4 3.6.5 5.4.5z" fill="#455A64" stroke="none" stroke-width="1"></path></g></g><path id="efR4aEi7Ncq73" d="M227.7 552.9l169.9-1.1-17.1-102.7-3-176.5-33.9-10.4-16.7-9.4-55.1 7-7.1 9s-24.1 8.1-34.5 12.9l-.7.3c-7.4 3.4-13.7 8.8-18.1 15.7l-46 71.5L98.2 330l-23.7 34.5s82.5 68.7 97.5 67.3c15-1.4 20.2-1.4 25.3-8.4 4-5.4 19.5-23.7 26.9-36l7.6 84.6-4.1 80.9z" fill="#EBEBEB" stroke="none" stroke-width="1"></path><path id="efR4aEi7Ncq74" d="M281.5 553.1c-.2 0-1.5-37.6-3-84s-2.6-84-2.4-84c.2 0 1.5 37.6 3 84s2.6 84 2.4 84z" fill="#263238" stroke="none" stroke-width="1"></path><path id="efR4aEi7Ncq75" d="M271.9 259.2l4.3 128.4 50.6-134.7-54.9 6.3z" fill="#FFBE9D" stroke="none" stroke-width="1"></path><path id="efR4aEi7Ncq76" d="M276.5 394.8c-.1-.1-.1-.3-.2-.4-.1-.3-.3-.7-.4-1.2-.4-1.1-1-2.5-1.7-4.4-1.5-3.8-3.8-9.4-6.9-16.1-1.6-3.3-3.4-7-5.5-10.8-2.2-4-4.9-7.8-7.9-11.2-1.7-1.7-3.7-3.5-4.4-6.2-.3-1.3-.3-2.7.1-4 .3-1.3.8-2.5 1.2-3.8 1.7-5.1 3.4-10.3 5.2-15.6l.1-.3.3.4-20.3 1.8v-.6l10.8-21.5c3.3-6.6 6.4-12.3 8.9-17.1 2.6-4.8 4.8-8.5 6.3-11 .8-1.3 1.4-2.2 1.8-2.9l.5-.7c.1-.2.2-.3.2-.2l-.1.3-.5.7c-.4.7-1 1.7-1.7 2.9-1.5 2.6-3.6 6.3-6.1 11.1-2.5 4.8-5.5 10.6-8.8 17.2l-5.2 10.4-2.8 5.6-1.4 2.9-.8 1.4-.4.7-.2.4-.1.2c-.1.1-.2.2-.4.3v-.6l20.3-1.9h.5l-.1.5-.1.3c-1.8 5.3-3.5 10.6-5.2 15.6-.8 2.5-1.9 5-1.3 7.4.6 2.4 2.5 4.2 4.2 5.9 3.1 3.5 5.8 7.3 8 11.4 2.1 3.8 3.9 7.5 5.5 10.8 3.1 6.7 5.3 12.3 6.8 16.2.7 1.9 1.3 3.4 1.6 4.5.2.5.3.9.4 1.2-.2.1-.2.3-.2.4z" fill="#263238" stroke="none" stroke-width="1"></path><path id="efR4aEi7Ncq77" d="M276.4 396v-.4l.2-1.2c.3-1.6.7-3.1 1.3-4.6 2.2-5.5 4.9-10.7 8.2-15.5 2-3.1 4.4-6.5 7-10 2.8-3.8 5.8-7.3 9-10.8 3.5-3.8 7.4-7.4 11.6-10.5 2.2-1.6 4.5-3.2 6.9-4.6 2.4-1.4 4.9-2.8 7.3-4.4l-.1.4c-3.3-4.9-7.7-8.9-12.9-11.6l-.4-.2.4-.3c7.4-5.5 16-9.2 25.1-10.6l-.2.3 2.6-35.7c.3-4.3.6-7.7.8-10.1.1-1.2.2-2 .2-2.7l.1-.7v-.2V263.5c0 .6-.1 1.5-.1 2.7-.1 2.4-.4 5.8-.6 10.1-.6 8.7-1.4 21.1-2.4 35.7v.2h-.2c-9 1.5-17.5 5.1-24.9 10.6v-.5c5.3 2.8 9.8 6.8 13.1 11.8l.2.3-.3.2c-2.4 1.6-4.9 3-7.3 4.4-2.4 1.4-4.7 2.9-6.9 4.5-4.1 3.1-8 6.6-11.5 10.4-3.2 3.4-6.2 7-9 10.8-2.7 3.5-5 6.8-7.1 9.9-3.3 4.8-6.1 10-8.4 15.4-.6 1.5-1 3-1.4 4.5-.1.5-.2.9-.3 1.2v.3z" fill="#263238" stroke="none" stroke-width="1"></path><path id="efR4aEi7Ncq78" d="M340.7 356.9H305v6.9h35.7v-6.9z" fill="#263238" stroke="none" stroke-width="1"></path><path id="efR4aEi7Ncq79" d="M332.6 419.5c-.2.1-.4.1-.6.2l-1.8.4c-2.2.5-4.4.8-6.6.9-3.3.3-6.7-.1-9.8-1.2-3.9-1.4-7.2-4.2-9.1-7.9-1.7-3.7-2.5-7.8-2.5-11.9 0-3.7.1-7.1.1-9.9 0-2.8.1-5.1.2-6.7 0-.8.1-1.4.1-1.8 0-.2 0-.4.1-.6v19c0 4 .8 8 2.5 11.6 1.8 3.6 5 6.3 8.7 7.6 3.1 1.1 6.3 1.5 9.6 1.3 2.2-.1 4.4-.4 6.6-.7l1.8-.3c.2 0 .5-.1.7 0z" fill="#263238" stroke="none" stroke-width="1"></path><path id="efR4aEi7Ncq80" d="M339.1 380.2c0 .2-8.1.5-18.2.7-10 .2-18.2.3-18.2.1 0-.2 8.1-.5 18.2-.7 10-.2 18.2-.2 18.2-.1z" fill="#263238" stroke="none" stroke-width="1"></path><path id="efR4aEi7Ncq81" d="M321.4 380.5v-11.9c0-.9.4-1.8 1-2.5.7-.7 1.5-1 2.5-1 .9 0 1.8.4 2.5 1 .7.7 1 1.5 1 2.5v19.5c0 .2 0 .3-.1.5-.1.1-.1.3-.2.4-.2.2-.5.4-.8.4-.3 0-.6-.1-.9-.3-.2-.2-.4-.5-.4-.8v-.5c0-3-.3-7.5-.3-7.5l-4.3.2z" fill="#ed5562" stroke="none" stroke-width="1"></path><path id="efR4aEi7Ncq82" d="M320.8 400.9c-.3-2.8-.4-5.6-.3-8.4-.1-2.8 0-5.6.3-8.4.3 2.8.4 5.6.3 8.4.1 2.9 0 5.7-.3 8.4z" fill="#263238" stroke="none" stroke-width="1"></path><path id="efR4aEi7Ncq83" d="M327.5 416.4c-.2 0-.3-6-.3-13.3 0-7.3.1-13.3.3-13.3.2 0 .3 6 .3 13.3 0 7.3-.1 13.3-.3 13.3z" fill="#263238" stroke="none" stroke-width="1"></path><path id="efR4aEi7Ncq84" d="M272.8 286.2l16.6 20.3c11.7-11.8 20.2-23.5 27.5-28.7 0 0-40.7 111.6-40.8 109.8-.1-1.8-3.3-101.4-3.3-101.4z" fill="#ed5562" stroke="none" stroke-width="1"></path><path id="efR4aEi7Ncq85" d="M316.9 277.8c-.1.2-.3.3-.4.5l-1.3 1.2c-1.1 1.1-2.7 2.6-4.7 4.6-3.9 3.9-9.2 9.6-14.9 15.8-5.7 6.2-11 11.8-15 15.7-2 1.9-3.7 3.4-4.8 4.5l-1.4 1.2c-.2.1-.3.3-.5.4 0 0 .1-.2.4-.5l1.3-1.2c1.1-1.1 2.7-2.6 4.7-4.6 3.9-3.9 9.2-9.6 14.9-15.8 5.7-6.2 11-11.8 15-15.7 2-1.9 3.7-3.4 4.8-4.5l1.4-1.2c.4-.3.5-.4.5-.4z" fill="#263238" stroke="none" stroke-width="1"></path><path id="efR4aEi7Ncq86" d="M289.3 306.4c-.1.1-3.9-4.3-8.5-9.9-4.6-5.6-8.1-10.2-8-10.3.1-.1 3.9 4.3 8.5 9.9 4.5 5.6 8.1 10.2 8 10.3z" fill="#263238" stroke="none" stroke-width="1"></path><path id="efR4aEi7Ncq87" d="M218.7 325c.1.3.1.6.1.8.1.6.2 1.4.3 2.4.3 2.1.6 5.1 1 8.9.8 7.5 1.7 17.9 2.6 29.3.9 11.5 1.8 21.8 2.4 29.3.3 3.7.6 6.7.7 8.9.1 1 .1 1.8.2 2.4v.8c-.1-.3-.1-.6-.2-.8-.1-.6-.2-1.4-.3-2.4-.3-2.1-.6-5.1-.9-8.9-.8-7.5-1.7-17.9-2.6-29.3-.9-11.5-1.8-21.8-2.4-29.3-.3-3.7-.6-6.7-.8-8.9-.1-1-.1-1.8-.2-2.4 0-.3 0-.6.1-.8z" fill="#263238" stroke="none" stroke-width="1"></path><path id="efR4aEi7Ncq88" d="M375 272.4s26.6 0 33.3 51.2c6.7 51.2 21.4 145.2-5.3 163-26.7 17.8-150.3 16.6-150.3 16.6v-49.6l101.5-11.2s-.4-9.2 4.8-9.2l-5.8-117.1c-.1 0-1.3-41.4 21.8-43.7z" fill="#EBEBEB" stroke="none" stroke-width="1"></path><path id="efR4aEi7Ncq89" d="M353.3 355s0 .5.1 1.4c.1.9.1 2.4.2 4.2.2 3.7.5 9 .8 15.9.7 13.8 1.7 33.6 3 57.7v.3h-.3c-.9 0-1.7.3-2.3.9-.7.6-1.2 1.4-1.4 2.3-.6 1.8-.9 3.8-.8 5.7v.3h-.2L252.6 454l.3-.3v49.7l-.3-.3c43.2.5 80.9-1.2 107.5-4.6 6.7-.8 12.6-1.8 17.8-2.8 4.4-.9 8.8-2 13.1-3.3 1.7-.6 3.3-1.2 4.6-1.7 1.3-.5 2.4-1 3.2-1.5l1.9-1.1.7-.3s-.2.1-.6.4l-1.9 1.1c-.8.5-1.9.9-3.2 1.5-1.3.6-2.8 1.1-4.6 1.7-4.3 1.4-8.6 2.5-13.1 3.4-5.2 1.1-11.1 2-17.8 2.9-26.6 3.5-64.3 5.3-107.5 4.8h-.3v-.3-49.9h.3l99.8-10.2-.2.3c-.1-2 .2-4.1.8-6 .3-.9.8-1.8 1.6-2.5.7-.6 1.7-1 2.7-1l-.2.3c-1.2-24.1-2.1-43.9-2.7-57.7-.3-6.9-.6-12.2-.7-15.9-.1-1.8-.1-3.2-.2-4.2-.3-1-.3-1.5-.3-1.5z" fill="#263238" stroke="none" stroke-width="1"></path><path id="efR4aEi7Ncq90" d="M371.9 446.2c-.1 0-.5-1-1.4-2.6-1.2-2-2.7-3.8-4.5-5.3a20.6 20.6 0 00-6.1-3.5c-1.7-.6-2.8-.8-2.8-.9 1 0 2 .2 2.9.5 2.3.7 4.5 1.9 6.3 3.4 1.9 1.5 3.4 3.4 4.5 5.6.5.9.9 1.9 1.1 2.8z" fill="#263238" stroke="none" stroke-width="1"></path><path id="efR4aEi7Ncq91" d="M359.9 455.5c-1.4-4.7-4.1-9-7.7-12.4.7.3 1.3.8 1.8 1.3 1.3 1.2 2.5 2.6 3.4 4.1.9 1.5 1.7 3.1 2.2 4.9.2.6.4 1.3.3 2.1z" fill="#263238" stroke="none" stroke-width="1"></path><path id="efR4aEi7Ncq92" d="M9.4 309.9l72.7 193.4 154.3 3.1-63.6-195.2-163.4-1.3z" fill="#ed5562" stroke="none" stroke-width="1"></path><g id="efR4aEi7Ncq93" opacity=".5"><path id="efR4aEi7Ncq94" d="M106.5 503.6s-36.9-70.9-48.4-118.2c-6.5-26.8-12.4-75.2-12.4-75.2l96.3.8s31.9 50.8 50.3 101.6c11 30.3 19.1 61.6 24.1 93.4l-49.4-1.1-16.3-47.4s-5.1 2.7-12-.8l16.7 47.9-48.9-1z" opacity=".5" fill="#FFF" stroke="none" stroke-width="1"></path></g><path id="efR4aEi7Ncq95" d="M159.3 427.5c-.9-2.6-4.8-11.8-4.2-16.4.6-4.6 5.2-9.6 5.4-14.2.3-4.6.4-14.9-.8-19.9-1.2-4.4-2.7-8.8-4.5-13 0 0-7-11-14-11.3l-8.5-.3s-6.2 1.5-3.2 9.1 10 20.7 11.1 23c1 2.3 5.8 11 4.7 16.6-1.1 5.6-9.2 21.2-8.1 25l-4.4-.2s-4-7-9.7-9.9c-5.7-3-17.8-15.7-20.3-23.3-2.5-7.6-5.4-25.3-7.1-30.7-1.7-5.4-4.4-10.1-8.8-11.3-4.4-1.2-10.4.3-10.4.3s-8 2.7-4.4 14.7c3.6 12 5.6 12.7 9.8 19.7 4.2 7 5.3 9.1 8.6 12.1s11.2 6.4 14.6 13.7c3.4 7.3 5.2 15.8 11.2 26.2 6.1 10.5 8.4 14.4 13.2 14.4 4.8 0 6.3-5.4 6.5-8.7.1-1.7.1-3.4 0-5.1l5.8.2s6.5 12.2 13.4 14.5c6.9 2.3 6.4-3.9 6.7-6.3.4-2.3-1.7-16.3-2.6-18.9zm-33.9 14.1c-1.8-.9-5-7.1-8.1-12.4-2.4-4-2.1-6.1-1.9-6.9 0-.1.1-.3.2-.4l-.1.1c.2-1.4 2.6-.8 4.3-.1 1.3.5 7.2 2.8 9.2 11.5 1.9 8.7-1.7 9.1-3.6 8.2zm30 1.1c-1.2.8-5.2.2-9.2-8.6-4-8.7.5-10.7 1.4-11.1 1.3-.6 3.3-1 4.4.4l-.2-.1c.2.1.3.3.5.4 1.7 1.9 2.7 4.4 2.8 6.9.6 5.2 1.5 11.3.3 12.1z" fill="#FFF" stroke="none" stroke-width="1"></path><path id="efR4aEi7Ncq96" d="M134.8 423.2c1.4-.1.4-5.5.4-5.5.2-2.1.2-4.1 0-6.2-.3-2.6 1.1-4.9 2-7.3.9-2.4 0-8.7-1.2-12-1.2-3.2-.4-3.5-.4-3.5 3.7-1.2.3-8.9-2.2-16-2.5-7.2-4.9-6.7-4.9-6.7s-1.6-.1-2.6 5.8c-.9 5.8-2.6 7.9-6.1 7.9H118c-3.6 0-6.7-2.5-11.8-8.6-5-6.1-6.7-6.1-6.7-6.1s-2.9-.7-.4 6.5c2.4 7.2 4.3 14.7 8.9 16.3 0 0 1 .3 2 3.6 1.1 3.3 4.5 9.7 7.1 12.2 2.6 2.5 5.6 5 7.1 7.6 1.5 2.6 4.3 6.3 4.3 6.3s3.4 5.6 5 5.8l1.3-.1z" fill="#FFF" stroke="none" stroke-width="1"></path><path id="efR4aEi7Ncq97" d="M90.1 311.9s-1.9.5-.5 3.7c1.4 3.1 1.2 5 2 5.8.8.9 1.7 1.7 2.6 2.4 0 0-2.2.7-.6 4.1 1.6 3.4 2 6.7 2.7 8.1.7 1.5 2.3 1.9 3 2.8.7.8-2.4-.1-1.6 2.8.8 2.9 2.7 5 2.6 7.7 0 2.7 1.3 6.2 3.9 7.6 2.6 1.3 2.1 3.2 2.2 4.6.2 2 .6 3.9 1.2 5.8 1 3.7 6.8 9.6 10.3 9.2 3.5-.3 6.9-4.5 6.1-7-1.4-3.4-3.4-6.6-5.7-9.5-1.5-1.5-2.8-1.5-2.5-3.2.3-1.6 2.1.9 2-1.4.1-2.3-.5-4.7-1.7-6.7-1.4-2.1-1.9-4.2-3.2-6.9-1.4-2.7-4-3.2-3.8-3.9.2-.6 1.7-.3.5-3.1-1.2-2.7-1.3-.9-2.6-5-1.3-4.2-1.9-6.7-3.1-6.3-1.3.4-1.1-1.5-1.5-4.4-.4-2.9.6-1.8-1.2-5-2-2.9-11.1-2.2-11.1-2.2z" fill="#FFF" stroke="none" stroke-width="1"></path><path id="efR4aEi7Ncq98" d="M92.5 414.7l1.6-3.8-2.6-7.6s4.3-2.6 10.3 6.1c6 8.7 5.6 12.8 5.6 12.8l-7.1-.3c-1 2.5-1.1 5.3-.3 7.8 1.4 3.9 3.6 3.4 5.5 10.3 1 3.1 1.7 6.4 2.1 9.7l22.2 53.7-9.9-.4L96 446.1s-2.7-1.8-7.2-10.4-8.6-19.8-5.8-22.9c2.9-3 9.5 1.9 9.5 1.9z" fill="#FFF" stroke="none" stroke-width="1"></path><path id="efR4aEi7Ncq99" d="M171.5 417.5l-4.3-4-2.7-7.6s-6.2-3-6.4 5.5c-.1 8.5 3.2 12.7 3.2 12.7l7.1.3s4.4 4.1 5.7 8c1.2 3.9-1.2 3.3 1.5 10.2 1.3 3.4 2.8 6.6 4.5 9.7l14.5 53.4 9.9.4-14.9-56.6s1.6-1.6.1-10.1-4.9-19.7-9.9-23c-1.3-.9-2.9-1.4-4.4-1.1-1.5.1-3 1-3.9 2.2z" fill="#FFF" stroke="none" stroke-width="1"></path><path id="efR4aEi7Ncq100" d="M9.4 309.9l163.4 1.1h.2l.1.2c17.9 54.8 39.3 120.6 62.4 191.4l1.2 3.7.1.4h-.4l-154.3-3.1h-.2l-.1-.2L9.4 309.9c.9 2.3 29.7 78.7 73 193.3l-.3-.2 154.3 3.1-.3.4c-.4-1.2-.8-2.5-1.2-3.7l-62.3-191.5.2.2-163.4-1.6z" fill="#263238" stroke="none" stroke-width="1"></path><path id="efR4aEi7Ncq101" d="M252.8 457.6h-15.5s-7.9-7.6-10.1-8.7c-2.2-1.1-12.7-4.3-12.7-4.3l4.1 11.3c.6.2 1.3.4 1.9.7 2.7 1.1 1.9 3.4-.2 3.4h-15.6s-16-7.7-18.3-6.3c-2 1.2-2.7 3.3-.6 6.3 2 3 16 9.9 17.6 10.5l4.6 1.3-4.3 1.3-20.3-7.1c-1.3-.2-3.1-.5-3.7.3-.3.3-.5.6-.6.9-.1.3-.2.7-.2 1.1 0 .4.1.7.2 1.1l.6.9c2.9 2.6 6 5 9.2 7.2 0 0-3.2 4.8-.6 7.2 2.6 2.4 10.5 9.7 10.5 9.7s.8 4 3.2 5.9c2.4 1.9 29 1.9 30.9 1.9 1.9 0 12.6-6.2 12.6-6.2l7-.7.3-37.7z" fill="#FFBE9D" stroke="none" stroke-width="1"></path><path id="efR4aEi7Ncq102" d="M206.7 485.2c-.9.3-1.9.4-2.9.4-1.1 0-2.2-.2-3.2-.6-1.2-.5-2.4-1.1-3.5-1.8-2.3-1.5-4.4-2.9-5.9-3.9-.8-.5-1.6-1.1-2.3-1.8.9.4 1.8.8 2.6 1.4 1.5.9 3.6 2.3 6 3.8 1 .7 2.2 1.3 3.3 1.8 1 .4 2 .6 3 .7 1.8.1 2.9-.1 2.9 0z" fill="#EB996E" stroke="none" stroke-width="1"></path><path id="efR4aEi7Ncq103" d="M207.9 495.2c.1 0-.6.8-2 1.1-1.9.4-3.8.1-5.5-.9-1.6-.9-3.1-2-4.4-3.3-.6-.5-1.1-1.1-1.5-1.7.1-.2 2.6 2.4 6.3 4.5 1.5.9 3.3 1.3 5.1 1 .7-.2 1.4-.4 2-.7z" fill="#EB996E" stroke="none" stroke-width="1"></path><path id="efR4aEi7Ncq104" d="M215.5 473.2c-1.4.2-2.8.1-4.2-.3-1.4-.2-2.8-.6-4-1.4 1.4.1 2.8.4 4.1.8 1.4.1 2.8.4 4.1.9z" fill="#EB996E" stroke="none" stroke-width="1"></path><path id="efR4aEi7Ncq105" d="M3.4 344.9c-.8-.4-1.4-1-1.9-1.7s-.9-1.5-1.1-2.3c-.2-.8-.3-1.7-.1-2.6.1-.9.4-1.7.9-2.4.6-1.1 1.4-1.9 2.4-2.6 2.6-1.4 25.6-5.7 28-6 2.5-.3 2.9 4.4-.3 6.7-3.3 2.3-27.9 10.9-27.9 10.9z" fill="#FFBE9D" stroke="none" stroke-width="1"></path><path id="efR4aEi7Ncq106" d="M8.7 361.5c-.8-.4-1.4-1-1.9-1.7s-.9-1.5-1.1-2.3c-.2-.8-.3-1.7-.1-2.6.1-.9.4-1.7.9-2.4.6-1.1 1.4-1.9 2.4-2.6 2.6-1.4 26-7.5 28-6 2.4 1.8 2.9 4.4-.3 6.7-3.3 2.4-27.8 11-27.9 10.9z" fill="#FFBE9D" stroke="none" stroke-width="1"></path><path id="efR4aEi7Ncq107" d="M13.4 358.1c-1.1.3-2.1.7-3 1.4-.9.7-1.6 1.6-2.1 2.5-.5 1.1-.7 2.3-.5 3.5.4 1.8 1.2 3.4 2.5 4.7 1.2 1.3 2.8 2.3 4.5 2.8 4.2 1.3 17.9-1.8 17.9-1.8l-3.2-8.8 9.6-3.1c3.9-1.6 2-7.7-2.7-6.5-1.5.4-17.6 3.9-23 5.3z" fill="#FFBE9D" stroke="none" stroke-width="1"></path><path id="efR4aEi7Ncq108" d="M6.2 352.8c-.8-.4-1.4-1-1.9-1.7s-.9-1.5-1.1-2.3c-.2-.8-.3-1.7-.1-2.6.1-.9.4-1.7.9-2.4.6-1.1 1.4-1.9 2.4-2.6 2.6-1.4 23.5-5.1 25.9-5.6 2.4-.5 5 4 1.8 6.3-3.3 2.2-27.9 10.9-27.9 10.9z" fill="#FFBE9D" stroke="none" stroke-width="1"></path><path id="efR4aEi7Ncq109" d="M29.8 344.4c-1.2.4-2.4.7-3.7.9-2.3.5-5.4 1.2-8.9 1.8-3 .5-5.8 1.5-8.4 3.1-1 .7-1.9 1.6-2.7 2.6 0 0 .1-.4.4-.9.5-.8 1.2-1.5 1.9-2 1.1-.8 2.3-1.5 3.6-2 1.6-.6 3.2-1 4.9-1.4 3.5-.7 6.7-1.3 9-1.7 1.3-.2 2.6-.4 3.9-.4z" fill="#EB996E" stroke="none" stroke-width="1"></path><path id="efR4aEi7Ncq110" d="M25.8 336.7c-1.1.4-2.3.7-3.5.9l-8.5 1.6c-2.8.5-5.5 1.5-7.9 3.1-.9.8-1.7 1.6-2.4 2.6 0 0 .1-.3.4-.9.5-.8 1.1-1.4 1.7-2 1.7-1.5 4.8-2.6 8.1-3.3 3.3-.7 6.4-1.1 8.6-1.5 1.1-.3 2.3-.4 3.5-.5z" fill="#EB996E" stroke="none" stroke-width="1"></path><path id="efR4aEi7Ncq111" d="M30.1 354.1c-1.1.4-2.2.8-3.3 1-2 .6-4.9 1.3-8.1 1.8-2.7.4-5.4 1.2-7.8 2.6-.9.7-1.7 1.4-2.4 2.3 0 0 .1-.3.4-.8.5-.7 1.1-1.3 1.8-1.8 2.4-1.5 5-2.5 7.8-2.8 3.2-.5 6-1.2 8.1-1.6 1.2-.4 2.4-.6 3.5-.7z" fill="#EB996E" stroke="none" stroke-width="1"></path><path id="efR4aEi7Ncq112" d="M431.7 306.5l24.1-10.8.8-16.1s.445-2.714-6.2-10.7q-3.219-3.868 58.784-9.7l.116 32.9 23.7 11.4-53.8 63.6-47.5-60.6z" fill="#feab91" stroke="none" stroke-width="1"></path><path id="efR4aEi7Ncq113" d="M31.4 361.8c-1.6.9-3.3 1.5-5 2-1.7.7-3.4 1.1-5.2 1.4 1.6-.9 3.3-1.5 5-2 1.7-.6 3.4-1.1 5.2-1.4z" fill="#EB996E" stroke="none" stroke-width="1"></path><g transform="translate(493.997 259.527)" style="animation:efR4aEi7Ncq114_tr__tr 8000ms linear infinite normal forwards"><g id="efR4aEi7Ncq114" transform="translate(-493.997 -259.527)"><path id="efR4aEi7Ncq115" d="M519.7 223.7c1.5-2.1 3.4-3.9 5.7-5.1 2.3-1.3 4.8-2 7.4-2.1 2.6-.1 5.2.4 7.5 1.4 2.4 1.1 4.4 2.6 6.1 4.6 1.6 2 2.8 4.3 3.4 6.9.6 2.5.5 5.1-.1 7.6s-1.8 4.8-3.5 6.8-3.8 3.5-6.2 4.5c2.6 1.3 4.7 3.6 5.6 6.4 1 2.8.8 5.8-.5 8.5s-3.5 4.7-6.3 5.7-5.8.9-8.5-.4c-1.3 4.6-6.4 7.4-11.2 7-4.8-.3-9.1-3.1-12.3-6.6-3.4-3.6-5.8-8-7.1-12.8-1.3-4.8-1.3-9.8-.2-14.7 2.5-9.6 10.8-17.6 20.6-19.2" fill="#263238" stroke="none" stroke-width="1"></path><path id="efR4aEi7Ncq116" d="M527.3 216.2s.1.1.2.3c.2.3.3.7.5 1 .5 1.3.8 2.7.9 4.1.2 2.2-.1 4.3-.7 6.4-.8 2.6-2.3 5-4.3 6.9v-.4c1.6 2.3 2.7 4.9 3.2 7.6.6 3.4.1 6.8-1.3 10-1.4 3.1-3.7 5.7-6.7 7.5-1.7 1.1-3.7 1.9-5.7 2.3-.5.1-1.1.2-1.6.2h-.6c0-.1.8-.1 2.2-.5 1.9-.5 3.8-1.3 5.5-2.4 1.9-1.3 3.6-2.9 4.9-4.8 1.3-1.9 2.2-4.1 2.6-6.4.4-2.3.4-4.6-.1-6.9-.5-2.3-1.5-4.4-2.8-6.3l-.2-.2.2-.2c1.9-1.8 3.4-4.1 4.2-6.6.7-2 .9-4.1.8-6.2-.2-1.8-.6-3.6-1.2-5.4z" fill="#455A64" stroke="none" stroke-width="1"></path><path id="efR4aEi7Ncq117" d="M575.1 212.9c-.6.4-1.2.7-1.8 1.1-1.2.6-2.8 1.5-4.9 2.6-4.2 2.2-10.1 5-16.7 8-6.6 2.9-12.6 5.4-17.1 7.1-2.2.8-4 1.5-5.3 1.9-.6.3-1.3.5-2 .6.6-.3 1.2-.6 1.9-.8l5.2-2.1c4.4-1.8 10.4-4.3 17-7.2 6.6-2.9 12.5-5.7 16.7-7.8l5-2.4 2-1z" fill="#ed5562" stroke="none" stroke-width="1"></path><path id="efR4aEi7Ncq118" d="M559.5 197.4c.1.1-6.5 6.4-14.7 14s-15 13.7-15.1 13.6c-.1-.1 6.5-6.4 14.7-14 8.3-7.7 15-13.7 15.1-13.6z" fill="#ed5562" stroke="none" stroke-width="1"></path><path id="efR4aEi7Ncq119" d="M488 171.5c0-12.9-15.4-13.5-23.2-10.3-4.2-5.7-7.2-8.6-16.8-9.2-7.1-.5-17.8 3.1-23.3 10.2-2.7 3.6-4.3 7.9-4.8 12.3-.5 4.5.2 9 1.9 13.1 1.2 2.7 2.9 5.4 2.6 8.4-.5 4.3-4.9 6.7-7.7 10-2.3 2.8-3.6 6.2-3.8 9.8-.1 3.6.9 7.1 3 10.1 2.7 3.6 7.1 6.2 8.5 10.5 1.2 3.6.1 7.5.3 11.4.4 7 5.7 13.2 12.2 15.7 6.5 2.5 14 2 20.5-.4" fill="#263238" stroke="none" stroke-width="1"></path><path id="efR4aEi7Ncq120" d="M509.5 272.9l-52.9 6.7s-18.1-2.7-22.3-26.2c-2.1-11.7-1.8-30.9-1.1-46.7.6-14.2 15.6-28.6 29.8-27.3l45.9 7.9v7.6l.6 71.3" fill="#feab91" stroke="none" stroke-width="1"></path><path id="efR4aEi7Ncq121" d="M441.8 223.4c0 .8.3 1.5.9 2.1.6.6 1.3.9 2.1.9.4 0 .8 0 1.1-.2.4-.1.7-.3 1-.6.3-.3.5-.6.7-.9.2-.3.3-.7.3-1.1 0-.8-.3-1.5-.9-2.1-.6-.6-1.3-.9-2.1-.9-.4 0-.8 0-1.1.2-.4.1-.7.3-1 .6-.3.3-.5.6-.7.9-.2.3-.3.7-.3 1.1z" fill="#263238" stroke="none" stroke-width="1"></path><path id="efR4aEi7Ncq122" d="M437.6 216.6c.4.4 2.6-1.4 5.9-1.4 3.3 0 5.7 1.5 6 1.1.2-.2-.2-.9-1.3-1.6-1.4-.9-3.1-1.4-4.8-1.4-1.7 0-3.3.6-4.7 1.6-.9.8-1.3 1.5-1.1 1.7z" fill="#263238" stroke="none" stroke-width="1"></path><path id="efR4aEi7Ncq123" d="M472.3 223.4c0 .8.3 1.5.9 2.1.6.6 1.3.9 2.1.9.4 0 .8 0 1.1-.2.4-.1.7-.3 1-.6.3-.3.5-.6.7-.9.2-.4.3-.7.3-1.1 0-.8-.3-1.5-.9-2.1-.6-.6-1.3-.9-2.1-.9-.4 0-.8 0-1.1.2-.4.1-.7.3-1 .6-.3.3-.5.6-.7.9-.2.3-.3.7-.3 1.1z" fill="#263238" stroke="none" stroke-width="1"></path><path id="efR4aEi7Ncq124" d="M469.6 216.6c.4.4 2.7-1.4 5.9-1.4 3.3 0 5.7 1.5 6 1.1.2-.2-.2-.9-1.3-1.6-1.4-.9-3.1-1.4-4.8-1.4-1.7 0-3.3.6-4.7 1.6-.9.9-1.3 1.6-1.1 1.7z" fill="#263238" stroke="none" stroke-width="1"></path><path id="efR4aEi7Ncq125" d="M458.2 241c0-.2-2-.5-5.3-.9-.8-.1-1.6-.2-1.8-.8-.1-.9.1-1.7.5-2.5.7-2 1.5-4.2 2.4-6.4 3.3-9.1 5.6-16.5 5.2-16.7-.4-.1-3.3 7.2-6.6 16.2-.8 2.2-1.5 4.4-2.2 6.4-.5 1-.6 2.2-.4 3.3.1.3.3.6.6.8.2.2.5.4.8.4.5.1.9.2 1.4.2 3.4.2 5.4.2 5.4 0z" fill="#263238" stroke="none" stroke-width="1"></path><path d="M456.7 279.6c11.1 0 22-3.1 31.4-9 0 0-8.1 16.6-31.7 14.8l.3-5.8z" fill="#7C3B29" style="animation:efR4aEi7Ncq126__m 8000ms linear infinite normal forwards"></path><path id="efR4aEi7Ncq127" d="M489.1 194.7c-1.6 3.5-1.7 7.5-.3 11.2 1.4 3.6 4.1 6.6 7.6 8.2-3.3 4.1-3.9 10-2.7 15.1 1.3 5.2 4.2 9.8 7.3 14.1 0 0-8.1 11.7 8.2 20.3 0 0 11.5-3.6 6.3-20.8-.4-1.2-.3-2.6.2-3.8.7-1 1.7-1.8 2.8-2.2 4.3-2.4 7.5-6.4 8.9-11.1 1.4-4.7.9-9.8-1.5-14.2-.7-1.1-1.3-2.3-1.6-3.6-.3-1.9-1.8-7-1.2-8.9 3.5-9.7-1-21.7-12.4-27.7-9.1-4.8-20.5-5.6-27.5 2" fill="#263238" stroke="none" stroke-width="1"></path><path id="efR4aEi7Ncq128" d="M427 177.9c3.6 8.4 11.8 20.8 20.8 21.9 4.5.5 9.1-.2 13.3-2 4.2-1.8 7.9-4.6 10.6-8.2 1.4 6.7 8.8 10.3 15.5 11.4 4.8.8 9.8.8 14.4-1 4.5-1.8 8.4-5.7 9.1-10.5.7-4.8-6.1-16.6-10.9-17.5" transform="translate(.864 .075)" fill="#263238" stroke="none" stroke-width="1"></path><path id="efR4aEi7Ncq129" d="M438.6 207.2c.6.7 2.8-.1 5.5-.2s5 .4 5.5-.4c.2-.4-.2-1.1-1.2-1.8-1.4-.8-2.9-1.2-4.5-1.1-1.6.1-3.1.6-4.4 1.6-.8.7-1.1 1.5-.9 1.9z" fill="#263238" stroke="none" stroke-width="1"></path><path id="efR4aEi7Ncq130" d="M468.6 203.9c.3.9 3.6.4 7.4.8 3.8.4 6.9 1.4 7.4.6.2-.4-.3-1.2-1.6-2-1.7-1-3.6-1.6-5.5-1.8-2-.2-3.9.1-5.8.8-1.4.5-2.1 1.2-1.9 1.6z" fill="#263238" stroke="none" stroke-width="1"></path><g id="efR4aEi7Ncq131" transform="rotate(20.125 463.613 248.42)" stroke="none" stroke-width="1"><path id="efR4aEi7Ncq132" d="M459.8 248.8c.6-.8 1.4-1.4 2.3-1.8.9-.4 1.9-.6 2.9-.5.7.1 1.4.3 2.1.6.6.3 1.2.8 1.7 1.3.4.5.7 1.2.8 1.9.1.7-.1 1.4-.5 2-.5.6-1.2 1-1.9 1.3-.8.2-1.6.2-2.3-.1-1.5-.5-3-1.3-4.2-2.4-.4-.3-.7-.6-.9-.9-.1-.2-.2-.4-.2-.6 0-.2.1-.4.2-.6" fill="#7C3B29"></path><path id="efR4aEi7Ncq133" d="M467.9 243.1c-.5 0-.5 3.5-3.5 6.1-3 2.6-6.7 2.2-6.8 2.7 0 .2.8.7 2.4.7 2.1 0 4.1-.7 5.7-2.1 1.5-1.3 2.5-3.1 2.7-5.1.1-1.5-.3-2.3-.5-2.3z" fill="#263238"></path></g></g></g><path id="efR4aEi7Ncq134" d="M552.4 382.9L568 322l-43.6-24-42.1 64.9-38.1-63.1-39.3 17.8c-2.6 1.2-4.7 3.2-5.9 5.8l-35.5 96.1 48 15.5 5.5-22.3 6.3 38.5-18.3 101 156.9-.6L534.1 448l3.9-23.1 14.4-42z" fill="#ed5562" stroke="none" stroke-width="1"></path><g id="efR4aEi7Ncq135" opacity=".3"><path id="efR4aEi7Ncq136" d="M420.8 461.7c10.8 1.8 20.5-7.7 31.4-7.8 10.1-.1 18.4 7.8 28.2 10.1 4.3 1 9 1 12.8 3.3 2.9 1.8 4.8 4.8 6.7 7.5 9.6 13.1 23.6 22.3 39.4 25.9 2.4.5 7.8 2.4 9.2.4l-1.6-6.2-1.4-18.8-52.6-38.3-60 2.9-12.1 21z" opacity=".3" fill="#000" stroke="none" stroke-width="1"></path></g><path id="efR4aEi7Ncq137" d="M536 373.7h-32.5v5.4H536v-5.4z" fill="#263238" stroke="none" stroke-width="1"></path><path id="efR4aEi7Ncq138" d="M538.2 439.3c13.2 4.7 27.5 4 41.2 1.9 3.3-.5 6.7-1.1 9.2-3.2.9-.7 2.9-2.4 2.9-2.8-.1-1.3-2.4-2.9-3.7-4-5-3.9-10.8-6.6-16.9-8.1-6.1-1.4-12.5-1.6-18.7-.3-3.3.6-6.5 1.8-9.3 3.6-2.8 1.9-4.5 2.9-5.5 6.1" fill="#ed5562" stroke="none" stroke-width="1"></path><g id="efR4aEi7Ncq139" opacity=".3"><path id="efR4aEi7Ncq140" d="M538.2 439.3c13.2 4.7 27.5 4 41.2 1.9 3.3-.5 6.7-1.1 9.2-3.2.9-.7 2.9-2.4 2.9-2.8-.1-1.3-2.4-2.9-3.7-4-5-3.9-10.8-6.6-16.9-8.1-6.1-1.4-12.5-1.6-18.7-.3-3.3.6-6.5 1.8-9.3 3.6-2.8 1.9-4.5 2.9-5.5 6.1" opacity=".3" fill="#000" stroke="none" stroke-width="1"></path></g><path id="efR4aEi7Ncq141" d="M591.6 435.2S577.8 353 577 345.7c-2.1-18.2-9-24-9-24l-32 97.9 2.2 19.7s10.1-15.2 53.4-4.1z" fill="#ed5562" stroke="none" stroke-width="1"></path><path id="efR4aEi7Ncq142" d="M573.9 369.2c-.1.7-.3 1.4-.6 2-.4 1.3-1.1 3.2-2 5.4-2.4 5.9-5.2 11.6-8.4 17.1-3.2 5.5-6.9 10.7-11 15.5-1.6 1.9-2.9 3.3-3.8 4.3l-1.5 1.5c.4-.6.8-1.1 1.3-1.7.9-1 2.2-2.5 3.7-4.4 3.9-5 7.5-10.2 10.8-15.6 3.2-5.4 6.1-11.1 8.5-16.9.9-2.2 1.7-4.1 2.2-5.3.2-.6.5-1.3.8-1.9z" fill="#263238" stroke="none" stroke-width="1"></path><path id="efR4aEi7Ncq143" d="M423.1 449.3c0-.1-.1-.2-.1-.3 0-.2-.1-.5-.1-.8-.1-.8-.3-1.8-.5-3.1-.5-2.7-1.1-6.5-1.9-11.2-1.7-9.5-4-22.6-6.7-37.1-2.6-14.5-5-27.5-6.7-37.1l-2-11.2c-.2-1.3-.4-2.3-.5-3.1l-.1-.8v-.3c0 .1.1.2.1.3 0 .2.1.5.2.8.1.8.3 1.8.6 3.1.5 2.7 1.3 6.5 2.2 11.2 1.8 9.5 4.3 22.5 6.9 37 2.6 14.5 4.9 27.6 6.5 37.1.8 4.8 1.3 8.6 1.7 11.3.2 1.3.3 2.3.4 3.1 0 .3 0 .6.1.8-.1 0-.1.2-.1.3z" fill="#263238" stroke="none" stroke-width="1"></path><path id="efR4aEi7Ncq144" d="M554.8 350.2c0 .3-.1.6-.2.9-.1.7-.3 1.5-.6 2.6-.5 2.3-1.3 5.6-2.2 9.6-1.9 8.1-4.5 19.3-7.3 31.7-2.8 12.4-5.2 23.7-6.8 31.9-.8 4.1-1.4 7.4-1.8 9.7-.2 1.1-.4 2-.5 2.6 0 .3-.1.6-.2.9 0-.3 0-.6.1-.9.1-.7.2-1.6.4-2.7.3-2.3.9-5.6 1.6-9.7 1.5-8.2 3.8-19.5 6.6-31.9 2.8-12.4 5.5-23.6 7.5-31.7l2.4-9.6c.3-1.1.5-1.9.7-2.6.1-.3.2-.5.3-.8z" fill="#263238" stroke="none" stroke-width="1"></path><path id="efR4aEi7Ncq145" d="M434 304c.1.1.2.2.3.4l.7 1.2c.7 1 1.6 2.5 2.8 4.4l10.1 16.3 33.5 54.3h-.5l1.6-2.2c1.7-2.4 3.4-4.8 5-7v.4l-30.9-51.3c-3.9-6.5-7-11.7-9.2-15.3l-2.5-4.2-.6-1.1c-.1-.1-.2-.2-.2-.4l.3.3.7 1.1c.6 1 1.5 2.4 2.5 4.1 2.2 3.6 5.4 8.8 9.3 15.2l31.1 51.1.1.2-.1.2c-1.6 2.2-3.3 4.6-5 7l-1.6 2.2-.3.4-.2-.4-33.4-54.4c-4.2-6.9-7.6-12.5-10-16.4-1.2-1.9-2.1-3.4-2.7-4.5l-.7-1.2c0-.1 0-.2-.1-.4z" fill="#263238" stroke="none" stroke-width="1"></path><path id="efR4aEi7Ncq146" d="M524.3 297.7c0 .1-.1.2-.2.3l-.6 1-2.4 3.8-8.9 13.8-29.8 46.2v-.3c1.3 2.2 2.7 4.4 4.1 6.8l1.3 2.2h-.5c6.4-9.6 12.3-18.7 17.7-27 5.4-8.3 10.3-15.7 14.6-21.9 4.3-6.1 7.9-11 10.4-14.4l2.9-3.8.8-1 .3-.3c-.1.1-.1.2-.2.4l-.7 1c-.7.9-1.6 2.2-2.8 3.9-2.4 3.4-6 8.3-10.2 14.4-4.2 6.1-9.1 13.6-14.5 21.9-5.3 8.3-11.2 17.6-17.6 27.2l-.3.4-.3-.4-1.3-2.2-4.1-6.8-.1-.2.1-.2 30-46.1 9-13.7 2.5-3.7.6-.9.2-.4z" fill="#263238" stroke="none" stroke-width="1"></path><path id="efR4aEi7Ncq147" d="M438.7 412.7c-2.4-1-5-1.1-7.5-.3-2.4.8-4.5 2.5-5.8 4.8-1 1.9-1.3 4.1-1.1 6.2.3 2.1 1.1 4.1 2.5 5.8 2.8 3 9.7 5.1 12.9 1.4l-1-17.9z" fill="#EBEBEB" stroke="none" stroke-width="1"></path><path id="efR4aEi7Ncq148" d="M438.7 412.7c.1.4.1.8.2 1.3.1.9.2 2.2.3 3.6.2 3.3.5 7.7.9 13v.1l-.1.1c-.7.7-1.6 1.3-2.6 1.7-1 .4-2 .5-3 .4-2.2-.1-4.3-.9-6.1-2.1-1.8-1.2-3.1-2.9-3.7-4.9-.6-1.9-.7-3.8-.4-5.7.3-1.7 1.1-3.4 2.2-4.7 1-1.1 2.2-2.1 3.6-2.7 2-.9 4.3-1.2 6.4-.8.8.1 1.5.3 2.3.7-.1 0-.8-.3-2.3-.6-2.1-.3-4.3 0-6.2.9-1.4.6-2.7 1.6-3.6 2.9-1 1.2-1.6 2.7-1.8 4.2-.3 1.8-.2 3.7.4 5.5.6 1.9 1.8 3.5 3.5 4.6 1.7 1.2 3.7 1.8 5.8 2 .9.1 1.9 0 2.8-.3.9-.3 1.7-.8 2.4-1.5l-.1.2c-.3-5.2-.5-9.6-.6-12.8-.1-1.5-.1-2.8-.1-3.7-.3-.5-.3-.9-.2-1.4z" fill="#263238" stroke="none" stroke-width="1"></path><path id="efR4aEi7Ncq149" d="M430.1 412.7s3.4-70.3 5.2-80.3c1.8-10.1 6.3-26.3 13.4-36.2 6.8-9.4 7.5-10.1 7.5-10.1l-.5 8.8c-6.5 11.3-11.1 23.7-13.7 36.4-3.8 19.9-6.4 81.3-6.4 81.3l-5.5.1z" fill="#263238" stroke="none" stroke-width="1"></path><path id="efR4aEi7Ncq150" d="M530 425.3c-2 0-4-.4-5.8-1.2l.9-2.2c2.4 1.1 5.2 1.3 7.7.6 1.3-.4 2.4-1 3.4-1.9 1-.9 1.7-2 2.2-3.2.8-2.4.8-5 .1-7.5-.5-1.8-1.1-3.6-1.8-5.3l-.9-2.4c-5-14.1-4.2-29.9-3.4-43.9l2.4.1c-.8 13.7-1.6 29.3 3.3 43 .3.8.6 1.5.9 2.3.7 1.8 1.4 3.7 1.9 5.6.8 2.9.8 6-.2 8.9-.6 1.6-1.6 3-2.8 4.1-1.2 1.1-2.7 2-4.4 2.5-1.1.3-2.3.5-3.5.5z" fill="#E0E0E0" stroke="none" stroke-width="1"></path><path id="efR4aEi7Ncq151" d="M529.8 426.3c-4 0-7.5-1.9-10.5-5.6-3.9-4.9-4.6-16.9-5.1-27.5-.2-3.8-.4-7.4-.7-10-1.2-9.2-6.4-21.5-6.5-21.6l2.2-.9c.2.5 5.5 12.8 6.7 22.3.3 2.7.5 6.3.7 10.2.5 9.8 1.1 21.9 4.6 26.2 5.2 6.4 11.5 6.4 20.5-.2l1.4 1.9c-5 3.4-9.4 5.2-13.3 5.2z" fill="#EBEBEB" stroke="none" stroke-width="1"></path><path id="efR4aEi7Ncq152" d="M538.2 421.1c.4-1.2 1.1-2.4 1.8-3.4s1.8-1.7 3.1-2c.6-.1 1.3.1 1.8.4.5.3 1 .8 1.3 1.3.2.6.3 1.2.2 1.9-.1.6-.4 1.2-.8 1.7-.8.9-1.9 1.5-3.1 1.7-1.2.1-2.3.1-3.5 0" fill="#263238" stroke="none" stroke-width="1"></path><path id="efR4aEi7Ncq153" d="M514.3 316.8c9.4 12 15 26.5 16.1 41.7h5c-1-17.4-7.9-34-19.4-47.1 1.3-4 2.2-8 2.7-12.2 1.1-9.3-9.2-15-9.2-15v7.1c1.3.7 2.4 1.8 3.1 3.1.7 1.3 1.1 2.8 1.1 4.2-.2 5-4 15.7-7.7 25-3.1 7.6-4.5 15.7-4.1 23.9.3 10.5 4.4 15.2 4.4 15.2l4.9-2.1s-3-3.7-4.2-13.8c-1-7.7 1.3-13.8 3.3-19.4 1.1-2.6 2.6-6.4 4-10.6z" fill="#263238" stroke="none" stroke-width="1"></path><path id="efR4aEi7Ncq154" d="M371.3 421.8l-6 22.8c-1 3.6-1.1 7.4-.1 11.1.9 3.6 2.8 7 5.4 9.7.3.3.7.6 1 .9 3.1 2.8 7 4.7 11.1 5.4 4.1.7 8.4.3 12.3-1.2l61.9-24.7-9.1-27.9-46.9 13.4-29.6-9.5z" fill="#feab91" stroke="none" stroke-width="1"></path><g id="efR4aEi7Ncq155" stroke="none" stroke-width="1"><path id="efR4aEi7Ncq156" d="M422.2 383.8l11.2 59.8c.2 1.3.9 2.4 1.9 3.2 1 .8 2.3 1.2 3.5 1.2l85.8-3.3c1.4-.1 2.8-.7 3.7-1.7 1-1 1.5-2.4 1.4-3.8l-2-56.5c0-1.4-.6-2.7-1.6-3.7s-2.3-1.5-3.7-1.5h-95.1c-.8 0-1.6.2-2.3.5-.7.3-1.3.8-1.8 1.4-.5.6-.9 1.3-1.1 2.1 0 .8 0 1.6.1 2.3z" fill="#455A64"></path><path id="efR4aEi7Ncq157" d="M516 408.2c-1.6 0-3.2.5-4.5 1.4-1.3.9-2.4 2.2-2.9 3.7-1.2 3.2-3.1 7-5.1 8.1-3.7 2-10.2 3.7-13.5 2-3.3-1.7-16.9-13.8-19.3-12.5-2.4 1.4-4.4 4.4-2 7.1 2.4 2.7 14.9 10.8 12.5 13.5-2.4 2.7-28.7-9.2-32.8-8.2-4.1 1.1-6.4 3.6-4.1 5.2 2.4 1.6 20.3 8.4 21.3 10.8 0 0-27.1-7.1-28.1-5.4-1 1.7-2.7 4.4 0 5.4s26.1 7.1 28.1 8.1c3.4 1.4 6.9 2.4 10.4 3 .7 0 6 1.8 10.9 3.5 5.5 1.9 11.5 1.7 16.8-.4l2.7-1.1c2.1-.9 3.8-2.3 5-4.2 1.2-1.9 1.8-4.1 1.6-6.4l-.6-9.2 3-7.6.6-16.8z" fill="#feab91"></path></g><path id="efR4aEi7Ncq158" d="M494.3 455.2s49.4 44.7 66 44.8c17.5.1 27.4-18 25.5-29.4-1-6-3.6-37.5-3.6-37.5-11.7-3.2-29.3-4.6-41.8 3.7l4.6 18.4-33-15.9-17.7 15.9z" fill="#feab91" stroke="none" stroke-width="1"></path><path id="efR4aEi7Ncq159" d="M591.6 435.2c-.2 0-.4 0-.6-.1l-1.6-.4c-1.4-.3-3.4-.8-5.8-1.4-6.4-1.5-13-2.3-19.6-2.3-3.6.1-7.2.5-10.8 1.2-2.9.5-5.8 1.3-8.5 2.5-1.8.8-3.5 1.8-5.1 3.1-1.1.9-1.6 1.5-1.6 1.5.1-.2.2-.3.3-.5.4-.4.7-.8 1.1-1.2 1.5-1.4 3.2-2.5 5-3.3 2.7-1.2 5.6-2.1 8.6-2.7 3.6-.7 7.2-1.2 10.9-1.3 6.7-.1 13.3.8 19.7 2.5 2.5.6 4.5 1.2 5.8 1.6l1.6.5.6.3z" fill="#263238" stroke="none" stroke-width="1"></path><g transform="translate(632.275 548.6)" style="animation:efR4aEi7Ncq160_tr__tr 8000ms linear infinite normal forwards"><g id="efR4aEi7Ncq160" transform="translate(-632.275 -548.6)" stroke="none" stroke-width="1"><path id="efR4aEi7Ncq161" d="M631.8 498.4c2.5 3.6 7.4 2.3 9.6.1 2.2-2.2 3.1-5.3 4-8.4 1.9-6.9 3.9-14.1 2.3-21-.4-2.1-1.3-4.1-2.7-5.7-.7-.8-1.6-1.4-2.6-1.7-1-.3-2.1-.4-3.2-.2-2.4.7-3.9 3.1-5 5.3-3.2 6.7-4.8 14.1-4.8 21.5 0 3.5.4 7.2 2.4 10.1" fill="#ed5562"></path><path id="efR4aEi7Ncq162" d="M631.8 498.4c2.5 3.6 7.4 2.3 9.6.1 2.2-2.2 3.1-5.3 4-8.4 1.9-6.9 3.9-14.1 2.3-21-.4-2.1-1.3-4.1-2.7-5.7-.7-.8-1.6-1.4-2.6-1.7-1-.3-2.1-.4-3.2-.2-2.4.7-3.9 3.1-5 5.3-3.2 6.7-4.8 14.1-4.8 21.5 0 3.5.4 7.2 2.4 10.1" opacity=".2" fill="#000"></path><path id="efR4aEi7Ncq163" d="M641.3 516.3c4.2-2 8.8-2.6 13.4-1.7 2.5.2 4.8 1.2 6.6 2.9 1.7 1.8 2 5 .1 6.6-1.2.8-2.7 1.2-4.2 1.1-3.6 0-7.5-.6-10.3 1.5-1.6 1.2-2.7 3.3-4.6 3.9-1 .2-2 .1-2.9-.3-.9-.4-1.7-1.1-2.2-1.9-.9-1.8-1.2-3.8-.6-5.8.2-1.3.7-2.6 1.5-3.7 1-1.1 2-2 3.2-2.6z" fill="#ed5562"></path><path id="efR4aEi7Ncq164" d="M625 503.5c1.3-1.7 2.1-3.7 2.4-5.7.3-2.1.2-4.2-.5-6.2-1.4-4-3.9-7.5-7.2-10.2-3.7-3.2-8-5.7-12.7-7.4-1.8-.7-3.7-1-5.7-.9-1 .1-1.9.4-2.8.9-.8.5-1.5 1.2-2 2.1-1.3 2.5 0 5.6 1.4 8.1 2.5 4.4 5.3 8.6 8.4 12.6 2.5 3.2 5.4 6.3 9.2 7.7 3.8 1.4 7.7 1.2 9.7-1.4" fill="#ed5562"></path><path id="efR4aEi7Ncq165" d="M632.1 552c.1-.5.2-1.1.2-1.6.1-1.2.2-2.6.4-4.4.2-2.2.5-4.3.9-6.5.6-2.6 1.3-5.2 2.3-7.6.9-2.5 2.2-4.8 3.9-6.9 1.3-1.7 3-3.1 4.9-4.1 1.3-.7 2.7-1.1 4.1-1.3.5 0 1.1-.1 1.6-.2-.5-.1-1.1-.1-1.6 0-1.5.1-3 .5-4.3 1.2-2 1-3.8 2.4-5.2 4.2-1.7 2.1-3 4.5-4 7.1-1 2.5-1.7 5.1-2.3 7.8-.4 2.2-.7 4.4-.8 6.6-.1 1.9-.2 3.4-.2 4.4 0 .2 0 .8.1 1.3z" fill="#263238"></path><path id="efR4aEi7Ncq166" d="M632.3 548.6v-.8-2.1-7.9c.1-6.6.6-15.8 1.7-25.9 1-10.1 2.4-19.1 3.7-25.7.3-1.6.6-3.1.9-4.4.3-1.3.5-2.4.7-3.3.2-.9.4-1.5.5-2.1.1 0 .2-.1.2-.1.1-.1.1-.2.1-.3 0-.1 0-.2-.1-.2-.1-.1-.2-.1-.3-.1-.1 0-.2 0-.3.1-.1.1-.1.1-.1.2s0 .2.1.3c.1.1.1.1.2.1-.2.5-.4 1.2-.6 2.1-.3.9-.5 2-.9 3.3-.4 1.3-.7 2.8-1 4.4-1.8 8.5-3.1 17.1-3.9 25.7-1 10.1-1.5 19.3-1.4 26 0 3.3.1 6 .2 7.9 0 .9.1 1.6.1 2.1.1.2.2.5.2.7z" fill="#263238"></path><path id="efR4aEi7Ncq167" d="M632.2 530.8c.1-.7.1-1.5 0-2.2-.1-1.4-.3-3.5-.7-6.1-1.2-6.6-3.1-13.1-5.8-19.2-2.6-6.2-6.3-11.9-11-16.8-.8-.9-1.7-1.7-2.6-2.4-.4-.3-.7-.7-1.1-.9l-1-.7c-.6-.4-1.2-.8-1.9-1.2 2.2 1.7 4.3 3.5 6.2 5.5 4.5 4.9 8.2 10.6 10.8 16.7 1.5 3.4 2.8 6.8 3.8 10.3.9 2.9 1.6 5.8 2.2 8.7.5 2.5.8 4.6.9 6 0 .8.1 1.6.2 2.3z" fill="#263238"></path></g></g><g transform="translate(596.8 115.6)" style="animation:efR4aEi7Ncq168_to__to 8000ms linear infinite normal forwards"><g id="efR4aEi7Ncq168" transform="translate(-596.8 -115.6)" stroke-width="1"><path id="efR4aEi7Ncq169" d="M579.9 90.2h-.3c-2.7 0-4.9 2.2-4.9 4.9v48.1c0 2.7 2.2 4.9 4.9 4.9h.3c2.7 0 4.9-2.2 4.9-4.9V95.1c0-2.7-2.2-4.9-4.9-4.9z" fill="#E0E0E0" stroke="none"></path><path id="efR4aEi7Ncq170" d="M579.9 107.5h-.3c-2.7 0-4.9 2.2-4.9 4.9v30.8c0 2.7 2.2 4.9 4.9 4.9h.3c2.7 0 4.9-2.2 4.9-4.9v-30.8c0-2.7-2.2-4.9-4.9-4.9z" fill="#ed5562" stroke="none"></path><path id="efR4aEi7Ncq171" d="M596.5 90.2h-.3c-2.7 0-4.9 2.2-4.9 4.9v48.1c0 2.7 2.2 4.9 4.9 4.9h.3c2.7 0 4.9-2.2 4.9-4.9V95.1c0-2.7-2.2-4.9-4.9-4.9z" fill="#E0E0E0" stroke="none"></path><path id="efR4aEi7Ncq172" d="M596.5 116.5h-.3c-2.7 0-4.9 2.2-4.9 4.9v21.8c0 2.7 2.2 4.9 4.9 4.9h.3c2.7 0 4.9-2.2 4.9-4.9v-21.8c0-2.7-2.2-4.9-4.9-4.9z" fill="#ed5562" stroke="none"></path><path id="efR4aEi7Ncq173" d="M615.3 90.2h-.3c-2.7 0-4.9 2.2-4.9 4.9v48.1c0 2.7 2.2 4.9 4.9 4.9h.3c2.7 0 4.9-2.2 4.9-4.9V95.1c0-2.7-2.2-4.9-4.9-4.9z" fill="#E0E0E0" stroke="none"></path><path id="efR4aEi7Ncq174" d="M615.3 100.6h-.3c-2.7 0-4.9 2.2-4.9 4.9v37.7c0 2.7 2.2 4.9 4.9 4.9h.3c2.7 0 4.9-2.2 4.9-4.9v-37.7c0-2.7-2.2-4.9-4.9-4.9z" fill="#ed5562" stroke="none"></path><path id="efR4aEi7Ncq175" d="M659.9 115.6c0 34.9-28.3 63.1-63.1 63.1-12.2 0-23.5-3.5-33.2-9.4l-21.8 7.1 4.8-22.5c-8.1-10.6-12.9-23.9-12.9-38.3 0-34.9 28.3-63.1 63.1-63.1s63.1 28.3 63.1 63.1z" fill="none" stroke="#FFF"></path></g></g></svg>