<svg xmlns="http://www.w3.org/2000/svg" xmlns:xlink="http://www.w3.org/1999/xlink" id="eIx2T8u56vV1" viewBox="0 0 1392 618.7"><style>@keyframes eIx2T8u56vV7__m{0%,to{d:path('M0,618.200000C22.800000,616.300000,56.500000,595.600000,72.500000,566.700000C88.500000,537.600000,125.600000,466.700000,142.100000,439.300000C175.800000,383.200000,239.700000,380.900000,260.200000,402.600000C341.200000,488.200000,335.900000,189.100000,430.600000,189.100000C520.400000,189.100000,538.600000,480.200000,637,415.100000C731.300000,352.700000,801.100000,140.600000,879.100000,113.400000C1029.300000,61.300000,1062.300000,462.800000,1170.100000,462.800000C1200.700000,462.800000,1224.100000,358.200000,1246.200000,344.400000C1317.300000,299.700000,1285.800000,547.800000,1391.900000,618.200000L0,618.200000Z')}50%{d:path('M0,618.200000C22.800000,616.300000,56.500000,595.600000,72.500000,566.700000C88.500000,537.600000,135.500000,428.400000,152,401C185.700000,344.900000,243.600000,352.600000,264.100000,374.300000C345.100000,459.900000,347.400000,215.300000,442.100000,215.300000C531.900000,215.300000,563.300000,400.500000,661.700000,335.400000C756,273,798.100000,191.200000,876.100000,164C1026.300000,111.900000,1043.700000,429.800000,1151.500000,429.800000C1182.100000,429.800000,1203.721665,398.200000,1225.821665,384.400000C1296.921665,339.700000,1285.800000,547.800000,1391.900000,618.200000L0,618.200000Z')}}@keyframes eIx2T8u56vV8_to__to{0%,to{transform:translate(584.399994px,108.450001px)}50%{transform:translate(619.287848px,107.197318px)}}@keyframes eIx2T8u56vV11_to__to{0%,to{transform:translate(1188.650024px,197.799995px)}50%{transform:translate(1217.200073px,197.799995px)}}@keyframes eIx2T8u56vV86_ts__ts{0%,60.8%,82.8%,to{transform:translate(55.499996px,205.299995px) scale(1,1)}71.8%{transform:translate(55.499996px,205.299995px) scale(0,0)}}@keyframes eIx2T8u56vV87_ts__ts{0%,78%,to{transform:translate(1346.949646px,350.774033px) scale(1,1)}89%{transform:translate(1346.949646px,350.774033px) scale(0,0)}}@keyframes eIx2T8u56vV88_ts__ts{0%,62%,84%,to{transform:translate(1169.749695px,109.274017px) scale(1,1)}73%{transform:translate(1169.749695px,109.274017px) scale(0,0)}}@keyframes eIx2T8u56vV89_ts__ts{0%,47%,69%,to{transform:translate(1066.449646px,5.957338px) scale(1,1)}58%{transform:translate(1066.449646px,5.957338px) scale(0,0)}}@keyframes eIx2T8u56vV90_ts__ts{0%,54%,76%,to{transform:translate(1257.949646px,61.657337px) scale(1,1)}65%{transform:translate(1257.949646px,61.657337px) scale(0,0)}}@keyframes eIx2T8u56vV91_ts__ts{0%,22%,to{transform:translate(107.14978px,63.174023px) scale(1,1)}11%{transform:translate(107.14978px,63.174023px) scale(0,0)}}@keyframes eIx2T8u56vV92_ts__ts{0%,20%,42%,to{transform:translate(197.34977px,135.757332px) scale(1,1)}31%{transform:translate(197.34977px,135.757332px) scale(0,0)}}@keyframes eIx2T8u56vV93_ts__ts{0%,26%,48%,to{transform:translate(1330.850037px,169.949989px) scale(1,1)}37%{transform:translate(1330.850037px,169.949989px) scale(0,0)}}@keyframes eIx2T8u56vV94_ts__ts{0%,64%,86%,to{transform:translate(1150.100037px,21.899999px) scale(1,1)}75%{transform:translate(1150.100037px,21.899999px) scale(0,0)}}@keyframes eIx2T8u56vV95_ts__ts{0%,10%,38%,to{transform:translate(244.649994px,56.550001px) scale(1,1)}22%{transform:translate(244.649994px,56.550001px) scale(0,0)}}@keyframes eIx2T8u56vV171_tr__tr{0%,33%,68%,to{transform:translate(923.906226px,428.6px) rotate(0deg)}16%,50%,85%{transform:translate(923.906226px,428.6px) rotate(-6.054551deg)}}@keyframes eIx2T8u56vV180__m{0%,33%,68%,to{d:path('M952.300000,445.700000C951.300000,445.700000,950.400000,445.700000,949.400000,445.500000C933,443.800000,919.800000,430.700000,911.100000,407.600000C907.100000,396.600000,904.300000,385.100000,903,373.400000L906.800000,373C906.800000,373.700000,913.500000,438,949.900000,441.700000C951,441.800000,974.800000,444.700000,981.400000,418.200000C985,402.700000,987.200000,387,988.200000,371.200000C988.700000,363.700000,991.500000,339.600000,992.900000,330.700000L994.200000,322.700000L998,323.300000L996.700000,331.300000C995.400000,340.100000,992.600000,364,992.100000,371.400000C991.100000,387.500000,988.800000,403.400000,985.200000,419.100000C979,443.300000,959.600000,445.700000,952.300000,445.700000Z')}16%,50%,85%{d:path('M952.074674,445.700000C951.074674,445.700000,950.174674,445.700000,949.174674,445.500000C932.774674,443.800000,916.750019,429.533024,907.100000,407.100000C903.100000,396.100000,897.874674,384.900000,896.574674,373.200000L900.374674,372.800000C900.374674,373.500000,913.274674,438,949.674674,441.700000C950.774674,441.800000,974.574674,444.700000,981.174674,418.200000C984.774674,402.700000,986.927768,386.729117,987.927768,370.929117C988.427768,363.429117,991.274674,339.600000,992.674674,330.700000L993.974674,322.700000L997.774674,323.300000L996.474674,331.300000C995.174674,340.100000,992.374674,364,991.874674,371.400000C990.874674,387.500000,988.574674,403.400000,984.974674,419.100000C978.774674,443.300000,959.374674,445.700000,952.074674,445.700000Z')}}@keyframes eIx2T8u56vV183_tr__tr{0%,50%,to{transform:translate(1013.5px,298.5px) rotate(0deg)}25%,75%{transform:translate(1013.5px,298.5px) rotate(-3.181653deg)}}@keyframes eIx2T8u56vV227_tr__tr{0%,50%,to{transform:translate(612.2px,290.6px) rotate(0deg)}25%,75%{transform:translate(612.2px,290.6px) rotate(3.383299deg)}}</style><defs><linearGradient id="eIx2T8u56vV7-fill" x1="0" y1="363.492" x2="1391.9" y2="363.492" spreadMethod="pad" gradientUnits="userSpaceOnUse"><stop id="eIx2T8u56vV7-fill-0" offset="0%" stop-color="#ffc08c66"></stop><stop id="eIx2T8u56vV7-fill-1" offset="100%" stop-color="#e6577a95"></stop></linearGradient><rect id="eIx2T8u56vV2" width="1392" height="527" rx="0" ry="0"></rect></defs><g id="eIx2T8u56vV3"><g id="eIx2T8u56vV4"><g id="eIx2T8u56vV5" clip-path="url(#eIx2T8u56vV84)"><g id="eIx2T8u56vV6"><path d="M0 618.2c22.8-1.9 56.5-22.6 72.5-51.5 16-29.1 53.1-100 69.6-127.4 33.7-56.1 97.6-58.4 118.1-36.7 81 85.6 75.7-213.5 170.4-213.5 89.8 0 108 291.1 206.4 226 94.3-62.4 164.1-274.5 242.1-301.7 150.2-52.1 183.2 349.4 291 349.4 30.6 0 54-104.6 76.1-118.4 71.1-44.7 39.6 203.4 145.7 273.8H0z" fill="url(#eIx2T8u56vV7-fill)" style="animation:eIx2T8u56vV7__m 10000ms linear infinite normal forwards"></path><g transform="translate(584.4 108.45)" style="animation:eIx2T8u56vV8_to__to 10000ms linear infinite normal forwards"><g id="eIx2T8u56vV8" transform="translate(-612.25 -108.55)" fill="#F0F0F0" stroke="none" stroke-width="1"><path id="eIx2T8u56vV9" d="M745.3 119.3c-5.5 0-10.3 2.9-13.3 6.7h26.8c-3.2-4-7.9-6.7-13.5-6.7z"></path><path id="eIx2T8u56vV10" d="M679.7 111.7c-5.7 0-10.1 6.8-15.2 5.5-11.2-2.7-16-17.1-28.3-17.1-9.5 0-15 11.8-24 11-13.9-1.1-20.2-20-35.2-20-13.9 0-20.7 16.2-33.7 17.5-7.6.8-13.1-8.2-21.3-8.2-15.6 0-16.9 6.1-31.2 10.6-4.2 1.3-7.2 9.3-11.8 9.3-5.5 0-10.3 1.7-13.3 5.5h237.4c-4-7.6-12.9-14.1-23.4-14.1z"></path></g></g><g transform="translate(1188.65 197.8)" style="animation:eIx2T8u56vV11_to__to 10000ms linear infinite normal forwards"><g id="eIx2T8u56vV11" transform="translate(-1188.65 -197.8)" fill="#F0F0F0" stroke="none" stroke-width="1"><path id="eIx2T8u56vV12" d="M1299.6 206.9c-4.6 0-8.6 2.4-11.1 5.5h22.3c-2.7-3.3-6.6-5.5-11.2-5.5z"></path><path id="eIx2T8u56vV13" d="M1244.9 200.5c-4.8 0-8.4 5.7-12.7 4.6-9.3-2.2-13.3-14.3-23.6-14.3-7.9 0-12.5 9.8-20 9.2-11.6-1.1-16.9-16.8-29.5-16.8-11.6 0-17.3 13.5-28 14.6-6.3.6-10.9-6.8-17.7-6.8-13 0-9.8 6.5-26 8.9-9.3 1.4-6 7.8-9.8 7.8-4.6 0-8.6 1.4-11.1 4.6h197.7c-3.1-6.4-10.6-11.8-19.3-11.8z"></path></g></g><g id="eIx2T8u56vV14" transform="translate(-30 -10)" stroke="none" stroke-width="1"><path id="eIx2T8u56vV15" d="M224.6 213.2l-76.1 36.6c-1.2.6-1.7 2-1.1 3.2l51.1 106.1c.6 1.2 2 1.7 3.2 1.1l76.1-36.6c1.2-.6 1.7-2 1.1-3.2l-51.1-106.1c-.6-1.2-2-1.7-3.2-1.1z" fill="#E0E0E0"></path><path id="eIx2T8u56vV16" d="M223.4 216.7L152 251.1l49.5 102.7 71.4-34.4-49.5-102.7z" fill="#FAFAFA"></path><path id="eIx2T8u56vV17" d="M203 228.4c-1.4-1.1-3.1-1.8-4.9-2-1.8-.2-3.6.1-5.2.9l-2.2-4.3c-.4-.8-.9-1.5-1.6-2.1-.7-.6-1.4-1-2.2-1.3-.8-.3-1.7-.4-2.6-.4-.9.1-1.7.3-2.5.7-1.6.8-2.8 2.1-3.4 3.8-.6 1.7-.5 3.5.3 5.1l2.2 4.6-1.5.8c-1.6.8-2.9 2-3.9 3.5-.9 1.5-1.5 3.2-1.5 5v2.3l31.1-15-2.1-1.6zm-16.6.7c-.6.3-1.4.4-2.1.3-.7-.1-1.4-.4-1.9-.9s-.9-1.1-1.1-1.8c-.2-.7-.1-1.4.1-2.1.2-.7.7-1.3 1.2-1.7.6-.4 1.3-.7 2-.7s1.4.1 2 .5c.6.4 1.1.9 1.4 1.5.2.4.3.9.4 1.4 0 .5 0 .9-.2 1.4-.2.4-.4.9-.7 1.2-.3.4-.7.7-1.1.9z" fill="#EBEBEB"></path><path id="eIx2T8u56vV18" d="M185.5 252.8c.1.1-4.2 2.3-9.6 4.9-5.3 2.6-9.7 4.6-9.8 4.4-.1-.1 4.2-2.3 9.6-4.9 5.3-2.5 9.7-4.5 9.8-4.4z" fill="#E0E0E0"></path><path id="eIx2T8u56vV19" d="M177 260.9c-1.4 1-3 1.8-4.6 2.5-1.5.8-3.1 1.5-4.8 2 1.4-1 3-1.8 4.6-2.5 1.6-.8 3.2-1.5 4.8-2z" fill="#E0E0E0"></path><path id="eIx2T8u56vV20" d="M226.9 248.1c.1.1-12 6-26.8 13.2-14.9 7.2-27 12.9-27.1 12.8-.1-.1 12-6 26.8-13.2 14.9-7.2 27-12.9 27.1-12.8z" fill="#E0E0E0"></path><path id="eIx2T8u56vV21" d="M229.4 253.2c.1.1-12 6-26.8 13.2-14.9 7.2-27 12.9-27.1 12.8-.1-.1 12-6 26.8-13.2 14.9-7.2 27-12.9 27.1-12.8z" fill="#E0E0E0"></path><path id="eIx2T8u56vV22" d="M231.8 258.4c.1.1-12 6-26.8 13.2-14.9 7.2-27 12.9-27.1 12.8-.1-.1 12-6 26.8-13.2 15-7.2 27.1-12.9 27.1-12.8z" fill="#E0E0E0"></path><path id="eIx2T8u56vV23" d="M234.3 263.5c.1.1-12 6-26.8 13.2-14.9 7.2-27 12.9-27.1 12.8-.1-.1 11.9-6 26.8-13.2 15-7.2 27-12.9 27.1-12.8z" fill="#E0E0E0"></path><path id="eIx2T8u56vV24" d="M236.8 268.7c.1.1-12 6-26.8 13.2-14.9 7.2-27 12.9-27.1 12.8-.1-.1 12-6 26.8-13.2 14.9-7.2 27-13 27.1-12.8z" fill="#E0E0E0"></path><path id="eIx2T8u56vV25" d="M239.3 273.9c.1.1-12 6-26.8 13.2-14.9 7.2-27 12.9-27.1 12.8-.1-.1 12-6 26.8-13.2 14.9-7.2 27-13 27.1-12.8z" fill="#E0E0E0"></path><path id="eIx2T8u56vV26" d="M214.5 291.4c-.3.2-.6.4-1 .6l-2.9 1.5c-2.4 1.2-5.8 2.9-9.5 4.6-3.7 1.8-7.1 3.4-9.6 4.5l-2.9 1.3c-.4.2-.7.3-1.1.4.3-.2.6-.4 1-.6l2.9-1.5c2.4-1.2 5.8-2.9 9.5-4.6 3.7-1.8 7.1-3.4 9.6-4.5l2.9-1.3c.4-.1.7-.3 1.1-.4z" fill="#E0E0E0"></path><path id="eIx2T8u56vV27" d="M223.1 234.2c-1.3.9-2.8 1.7-4.3 2.3-1.4.8-2.9 1.4-4.4 1.8 1.3-.9 2.7-1.7 4.2-2.3 1.4-.7 2.9-1.4 4.5-1.8z" fill="#E0E0E0"></path><path id="eIx2T8u56vV28" d="M207.7 308.5c-2.2 1.3-4.5 2.6-6.9 3.6-2.3 1.2-4.7 2.2-7.1 3.1 2.2-1.3 4.5-2.5 6.9-3.6 2.3-1.2 4.6-2.2 7.1-3.1z" fill="#E0E0E0"></path><path id="eIx2T8u56vV29" d="M210.4 312.9c-2.3 1.4-4.6 2.6-7 3.7-2.3 1.2-4.8 2.3-7.2 3.2 2.3-1.4 4.6-2.6 7-3.7 2.3-1.2 4.7-2.3 7.2-3.2z" fill="#E0E0E0"></path><path id="eIx2T8u56vV30" d="M247.9 288.3c-1 .8-2.1 1.4-3.3 1.9-1.1.6-2.3 1.1-3.5 1.4 2.2-1.5 4.4-2.6 6.8-3.3z" fill="#E0E0E0"></path><path id="eIx2T8u56vV31" d="M250.2 292.3c-1 .8-2.1 1.4-3.3 1.9-1.1.6-2.3 1.1-3.5 1.4 1-.8 2.1-1.4 3.3-1.9 1.1-.6 2.3-1.1 3.5-1.4z" fill="#E0E0E0"></path><path id="eIx2T8u56vV32" d="M206.2 321c-1 .7-2 1.3-3.2 1.8-1.1.6-2.2 1-3.4 1.3 1-.7 2-1.4 3.2-1.8 1.1-.5 2.2-1 3.4-1.3z" fill="#E0E0E0"></path><path id="eIx2T8u56vV33" d="M252.8 297.1c-1.5 1.1-3.1 1.9-4.9 2.3 1.4-1 3.1-1.8 4.9-2.3z" fill="#E0E0E0"></path><path id="eIx2T8u56vV34" d="M204.6 335.4s.1-.1.3-.2l.8-.5 3.2-2 11.4-7.2.2-.1.1.2c.5 1.4.6 2.9.1 4.3-.2.8-.7 1.5-1.2 2.1-.6.6-1.3 1.1-2.1 1.3-.8.3-1.6.4-2.4.3-.8-.1-1.6-.4-2.3-.9-.7-.6-1.2-1.3-1.5-2.1-.3-.9-.3-1.8-.1-2.6.2-.7.5-1.3 1-1.8l.4-.4c.1-.1.3-.2.4-.3.1-.1.2-.1.3-.1.1 0 .2 0 .3.1.2.1.3.3.4.5.6 1.1.9 2.4 1 3.6.1 1.2-.1 2.4-.6 3.6-.4 1.1-1.1 2.1-2.1 2.8-.5.3-1.1.5-1.7.4-.6 0-1.2-.2-1.7-.5-.9-.6-1.6-1.4-2-2.5-.5-1.8-.5-3.7 0-5.6l.1-.4.3.3c1 1.2 1.7 2.7 1.9 4.2.1 1.2 0 2.4-.3 3.5-.2.7-.6 1.4-1 2-.1.2-.2.3-.4.4l-.1.1c.6-.8 1-1.7 1.3-2.6.3-1.1.4-2.3.2-3.4-.2-1.5-.8-2.9-1.8-4l.3-.1c-.4 1.8-.4 3.6 0 5.4.3.9 1 1.7 1.8 2.2.4.3.9.4 1.4.4.5 0 1-.1 1.4-.4.9-.6 1.6-1.5 1.9-2.6.4-1.1.6-2.3.5-3.4-.1-1.2-.4-2.3-.9-3.4 0-.1-.1-.2-.2-.2h-.2c-.2.1-.5.3-.6.5-.4.4-.7 1-.8 1.6-.2.8-.2 1.6.1 2.3.3.8.7 1.4 1.3 1.9.6.4 1.3.7 2.1.8.7.1 1.5 0 2.2-.2.7-.3 1.3-.7 1.9-1.2.5-.5.9-1.2 1.1-1.9.4-1.3.4-2.7-.1-4l.3.1-11.5 7-3.2 2-.9.5c-.1.1-.2.2-.3.2z" fill="#E0E0E0"></path><path id="eIx2T8u56vV35" d="M255.6 310.6c0 .3-.1.6-.2.9-.1.4-.3.7-.5 1-.3.5-.7.8-1.2.9-.3.1-.7.1-1 0-.3-.1-.6-.4-.8-.6-.4-.6-.8-1.2-1.1-1.9-.7-1.4-1.6-2.8-2.4-4.5l.4-.1c-.1 2.3-.2 4.7-.3 7.3 0 .6 0 1.2-.1 1.8v1l-.4-.9c-1.3-2.8-2.6-5.3-3.7-7.6h.4c-.6 2.2-.9 4.6-.9 6.9 0 1.7.1 2.6 0 2.6-.1-.2-.1-.5-.1-.7-.1-.7-.1-1.3-.2-2-.1-2.3.2-4.7.8-7l.1-.6.3.5 3.8 7.6-.5.1c0-.6.1-1.2.1-1.8.1-2.6.2-5 .3-7.3v-.9l.4.8c.9 1.6 1.7 3.1 2.4 4.5.3.6.6 1.3 1 1.9.1.2.4.4.6.5.3.1.5.1.8.1.4-.1.7-.4 1-.7.3-.3.5-.7.6-1.1.1-.1.3-.4.4-.7z" fill="#E0E0E0"></path><path id="eIx2T8u56vV36" d="M255.5 306.9c.1.1-3.9 3-9.1 6.5-5.1 3.5-9.3 6.2-9.3 6-.1-.1 3.9-3 9.1-6.5 5.1-3.4 9.2-6.1 9.3-6z" fill="#E0E0E0"></path><path id="eIx2T8u56vV37" d="M260.5 307.8c-2.1 2.1-4.3 4.2-6.6 6-2.2 2-4.5 3.9-7 5.7 2.1-2.1 4.3-4.2 6.6-6 2.2-2.1 4.6-4 7-5.7z" fill="#E0E0E0"></path></g><g id="eIx2T8u56vV38" stroke="none" stroke-width="1"><path id="eIx2T8u56vV39" d="M1261.5 499.3l16.5 10.1-5.8 9.5c-.7 1.2-1.8 2-3.2 2.3-1.3.3-2.7.1-3.9-.6l-7.8-4.8c-1.2-.7-2-1.8-2.3-3.2-.3-1.3-.1-2.7.6-3.9l5.9-9.4z" fill="#A66AE0"></path><path id="eIx2T8u56vV40" d="M1261.5 499.3l16.5 10.1-5.8 9.5c-.7 1.2-1.8 2-3.2 2.3-1.3.3-2.7.1-3.8-.6l-7.8-4.8c-.6-.3-1.1-.8-1.5-1.3-.4-.5-.7-1.2-.8-1.8-.2-.7-.2-1.3-.1-2s.3-1.3.7-1.9l5.8-9.5z" opacity=".3" fill="#000"></path><path id="eIx2T8u56vV41" d="M1272.5 519c-2.9-1.4-5.8-3-8.5-4.8-2.8-1.6-5.5-3.4-8.1-5.3 2.9 1.4 5.8 3.1 8.5 4.8 2.8 1.6 5.5 3.4 8.1 5.3z" fill="#263238"></path><path id="eIx2T8u56vV42" d="M1261.1 512c.1-.3.4-.5.6-.7.2-.2.5-.3.8-.4.3-.1.6-.1.9-.1.3 0 .6.1.9.3l3.3 2.1c.3.2.5.4.7.6.2.2.3.5.4.8.1.3.1.6 0 .9-.1.3-.2.6-.3.8l-7.3-4.3z" fill="#263238"></path><path id="eIx2T8u56vV43" d="M1302.1 416.7l-42.2 77.3c-.9 1.6-1.2 3.5-.7 5.3.5 1.8 1.6 3.4 3.1 4.4l12.1 7.4c1.6.9 3.4 1.2 5.2.8 1.8-.4 3.3-1.4 4.4-2.9l52.7-71.2-34.6-21.1z" fill="#A66AE0"></path><path id="eIx2T8u56vV44" d="M1332.4 443.7c-.1.2-7.7-4.4-17-10.1-9.3-5.7-16.8-10.5-16.7-10.6.1-.1 7.7 4.4 17 10.1 9.3 5.8 16.7 10.5 16.7 10.6z" fill="#263238"></path><path id="eIx2T8u56vV45" d="M1301.2 424.8c.4-1.2.9-2.3 1.7-3.3.6-1.1 1.3-2.1 2.2-3-.4 1.2-.9 2.3-1.7 3.3-.5 1.1-1.3 2.1-2.2 3z" fill="#263238"></path><path id="eIx2T8u56vV46" d="M1304 426.5c.9-2.3 2.2-4.4 3.8-6.2-.4 1.2-.9 2.3-1.7 3.3-.5 1-1.2 2-2.1 2.9z" fill="#263238"></path><path id="eIx2T8u56vV47" d="M1306.7 428.1c.4-1.2.9-2.3 1.7-3.3.6-1.1 1.3-2.1 2.2-3-.4 1.2-.9 2.3-1.7 3.3-.5 1.2-1.3 2.2-2.2 3z" fill="#263238"></path><path id="eIx2T8u56vV48" d="M1309.5 429.8c.9-2.3 2.2-4.4 3.8-6.2-.9 2.2-2.2 4.4-3.8 6.2z" fill="#263238"></path><path id="eIx2T8u56vV49" d="M1312.2 431.5c.4-1.2.9-2.3 1.7-3.3.6-1.1 1.3-2.1 2.2-3-.4 1.2-.9 2.3-1.7 3.3-.5 1.1-1.3 2.1-2.2 3z" fill="#263238"></path><path id="eIx2T8u56vV50" d="M1315 433.2c.9-2.3 2.2-4.4 3.8-6.2-.9 2.2-2.2 4.3-3.8 6.2z" fill="#263238"></path><path id="eIx2T8u56vV51" d="M1317.7 434.9c.4-1.2.9-2.3 1.7-3.3.6-1.1 1.3-2.1 2.2-3-.4 1.2-.9 2.3-1.7 3.3-.6 1.1-1.3 2.1-2.2 3z" fill="#263238"></path><path id="eIx2T8u56vV52" d="M1320.5 436.5c.4-1.2.9-2.3 1.7-3.3.6-1.1 1.3-2.1 2.2-3-.4 1.2-.9 2.3-1.7 3.3-.6 1.2-1.3 2.2-2.2 3z" fill="#263238"></path><path id="eIx2T8u56vV53" d="M1323.2 438.2c.4-1.2.9-2.3 1.7-3.3.6-1.1 1.3-2.1 2.2-3-.4 1.2-.9 2.3-1.7 3.3-.6 1.1-1.3 2.2-2.2 3z" fill="#263238"></path><path id="eIx2T8u56vV54" d="M1326 439.9c.9-2.3 2.2-4.4 3.8-6.2-.9 2.2-2.2 4.3-3.8 6.2z" fill="#263238"></path><path id="eIx2T8u56vV55" d="M1328.7 441.6c.4-1.2.9-2.3 1.7-3.3.6-1.1 1.3-2.1 2.2-3-.4 1.2-.9 2.3-1.7 3.3-.6 1.1-1.3 2.1-2.2 3z" fill="#263238"></path><path id="eIx2T8u56vV56" d="M1331.5 443.3c.9-2.3 2.2-4.4 3.8-6.2-.9 2.2-2.2 4.3-3.8 6.2z" fill="#263238"></path><path id="eIx2T8u56vV57" d="M1295.3 461.2l2.7-4.4 4.3 2.6-2.5 4.1 3.5 2.1-2.6 4.3-3.9-2.4-2.3 3.7-3.6-2.2 2.5-4-4.2-2.6 2.3-3.8 3.8 2.6z" fill="#FFF"></path><path id="eIx2T8u56vV58" d="M1305.2 469.5c-.1 0 .5-.8 1-2.4.7-2.3.7-4.7-.2-7-.5-1.5-1.5-2.9-2.7-4a9.44 9.44 0 00-4.9-2.4c-2-.4-4.1-.1-6 .8-2 .9-3.7 2.4-4.9 4.3-1.1 1.9-1.7 4.1-1.6 6.3.1 2.1.8 4 2 5.7 1.1 1.5 2.7 2.6 4.4 3.3 1.5.6 3.2.8 4.8.6 2.4-.3 4.6-1.4 6.3-3.1 1.3-1.3 1.7-2.1 1.8-2.1l-.3.6c-.3.6-.8 1.1-1.2 1.6-1.7 1.8-4 2.9-6.4 3.3-1.8.3-3.7 0-5.4-.7-1.7-.7-3.2-1.8-4.3-3.3-1.3-1.7-2.1-3.8-2.2-6-.1-2.3.4-4.6 1.7-6.6 1.2-2 3-3.6 5.1-4.5 2-.9 4.2-1.2 6.4-.8 1.9.4 3.7 1.2 5.2 2.6 1.2 1.2 2.2 2.6 2.7 4.2.8 2.3.8 4.8 0 7.1-.2.6-.5 1.2-.8 1.8-.2.3-.3.5-.5.7z" fill="#FFF"></path></g><g id="eIx2T8u56vV59" stroke="none" stroke-width="1"><path id="eIx2T8u56vV60" d="M1173.8 279.3c-4.9 12.1-12.6 31.8-16.2 40.8-.3.6-.4 1.3-.4 2s.2 1.4.4 2c.3.6.7 1.2 1.1 1.7.5.5 1.1.8 1.7 1.1l33.2 13.2c.6.3 1.3.4 2 .4s1.4-.2 2-.4c.6-.3 1.2-.7 1.7-1.1.5-.5.8-1.1 1.1-1.7l16.1-40.4c1.1-2.8 1.1-6-.1-8.8-1.2-2.8-3.5-5-6.3-6.1l2.4-5.9-21.7-8.7-2.2 5.6h-.1c-2.8-1-5.9-.9-8.6.3-2.9 1-5 3.3-6.1 6z" fill="#F5F5F5"></path><path id="eIx2T8u56vV61" d="M1190.4 267.9l-1.1 2.7 21.4 9.4 1.4-3.5-21.7-8.6z" fill="#E0E0E0"></path><path id="eIx2T8u56vV62" d="M1194.8 259.2l20.2 8.1c.9.3 1.6 1 1.9 1.9.4.9.4 1.8 0 2.7l-2.1 5.4c-.2.6-.7 1-1.2 1.2-.6.2-1.2.2-1.7 0l-22.6-9c-.6-.2-1-.7-1.3-1.2-.2-.6-.3-1.2 0-1.7l2.1-5.4c.3-.9 1-1.6 1.9-1.9.9-.3 1.9-.4 2.8-.1z" fill="#EBEBEB"></path><path id="eIx2T8u56vV63" d="M1190.6 270.1c.4-1.9 1-3.7 1.8-5.5.6-1.8 1.4-3.6 2.4-5.3-.4 1.9-1 3.7-1.8 5.5-.6 1.9-1.4 3.6-2.4 5.3z" fill="#E0E0E0"></path><path id="eIx2T8u56vV64" d="M1193.5 271.2c.4-1.9 1-3.7 1.9-5.5.6-1.8 1.4-3.6 2.4-5.3-.4 1.9-1 3.7-1.9 5.5-.6 1.9-1.4 3.7-2.4 5.3z" fill="#E0E0E0"></path><path id="eIx2T8u56vV65" d="M1196.4 272.4c.4-1.9 1-3.7 1.8-5.5.6-1.8 1.4-3.6 2.4-5.2-.4 1.9-1.1 3.7-1.9 5.5-.5 1.8-1.3 3.5-2.3 5.2z" fill="#E0E0E0"></path><path id="eIx2T8u56vV66" d="M1199.2 273.5c.4-1.9 1.1-3.7 1.9-5.5.6-1.8 1.4-3.6 2.4-5.3-.4 1.9-1 3.7-1.9 5.5-.6 1.9-1.4 3.6-2.4 5.3z" fill="#E0E0E0"></path><path id="eIx2T8u56vV67" d="M1202.1 274.7c.4-1.9 1-3.7 1.8-5.5.6-1.8 1.4-3.6 2.4-5.3-.4 1.9-1.1 3.7-1.9 5.5-.5 1.8-1.3 3.6-2.3 5.3z" fill="#E0E0E0"></path><path id="eIx2T8u56vV68" d="M1204.9 275.8c.4-1.9 1-3.7 1.8-5.5.6-1.8 1.4-3.6 2.4-5.2-.4 1.9-1 3.7-1.8 5.5-.6 1.8-1.4 3.5-2.4 5.2z" fill="#E0E0E0"></path><path id="eIx2T8u56vV69" d="M1207.8 276.9c.4-1.9 1-3.7 1.8-5.5.6-1.8 1.4-3.6 2.4-5.3-.4 1.9-1 3.7-1.8 5.5-.6 1.9-1.4 3.7-2.4 5.3z" fill="#E0E0E0"></path><path id="eIx2T8u56vV70" d="M1210.7 278c.4-1.9 1.1-3.7 1.9-5.5.6-1.8 1.4-3.6 2.4-5.3-.4 1.9-1 3.7-1.8 5.5-.7 1.9-1.5 3.7-2.5 5.3z" fill="#E0E0E0"></path><path id="eIx2T8u56vV71" d="M1207 299.4l-27.9-11.1c-.9-.4-1.9.1-2.3 1l-6.9 17.3c-.4.9.1 1.9 1 2.3l27.9 11.1c.9.4 1.9-.1 2.3-1l6.9-17.3c.3-1-.1-2-1-2.3z" fill="#EBEBEB"></path><path id="eIx2T8u56vV72" d="M1198.9 318.3c0-.1.1-.2.1-.4l.4-1c.3-.9.8-2.1 1.4-3.6l5-13 .2.3-27.3-10.8.4-.2v.1l-.1.1-.1.3-.2.6-.5 1.2-.9 2.4c-.6 1.5-1.2 3.1-1.8 4.6l-3.5 8.6-.2-.4 19.5 7.9 5.6 2.4 1.5.6.5.3c-.1 0-.3 0-.4-.1l-1.5-.6-5.6-2.2-19.8-7.7-.3-.1.1-.3c1.1-2.7 2.2-5.6 3.4-8.6.6-1.5 1.2-3 1.8-4.6l.9-2.4.5-1.2.2-.6.1-.3.1-.2v-.1l.4-.2 27.3 10.8.2.1-.1.2c-2.2 5.4-4 9.9-5.3 13-.6 1.5-1.1 2.7-1.5 3.5-.2.4-.3.7-.4.9 0 .7-.1.7-.1.7z" fill="#E0E0E0"></path><path id="eIx2T8u56vV73" d="M1199.5 304.6c-3.2-.9-6.4-2.1-9.4-3.4-3.1-1.1-6.2-2.5-9.2-4 3.2.9 6.4 2.1 9.4 3.4 3.2 1.1 6.2 2.5 9.2 4z" fill="#E0E0E0"></path><path id="eIx2T8u56vV74" d="M1198.2 307.7c-3.2-.9-6.4-2.1-9.4-3.4-3.1-1.1-6.2-2.5-9.2-4 3.2.9 6.4 2.1 9.4 3.4 3.2 1.2 6.3 2.5 9.2 4z" fill="#E0E0E0"></path><path id="eIx2T8u56vV75" d="M1197 310.7c-3.2-.9-6.4-2.1-9.4-3.4-3.1-1.1-6.2-2.5-9.2-4 3.2.9 6.4 2.1 9.4 3.4 3.2 1.2 6.3 2.5 9.2 4z" fill="#E0E0E0"></path><path id="eIx2T8u56vV76" d="M1208.9 281.1c-3.5-1-6.9-2.3-10.2-3.7-3.4-1.3-6.8-2.7-10-4.3 3.5 1 6.9 2.3 10.2 3.7 3.4 1.2 6.7 2.7 10 4.3z" fill="#E0E0E0"></path><path id="eIx2T8u56vV77" d="M1160.3 318.5c.2-.7.4-1.3.7-2 .5-1.3 1.2-3.1 2-5.2 1.7-4.4 4.1-10.5 6.8-17.2 1.4-3.3 2.7-6.5 3.8-9.4.9-2.7 2.4-5.1 4.3-7.2 1.4-1.4 3.1-2.3 5-2.6.5-.1 1-.1 1.5 0 .2 0 .4.1.5.1-.7 0-1.4 0-2 .1-1.8.4-3.4 1.3-4.7 2.6-1.8 2.1-3.2 4.5-4.1 7.1l-3.8 9.4c-2.7 6.7-5.2 12.8-7 17.1-.9 2.1-1.6 3.9-2.2 5.2-.2.7-.5 1.4-.8 2z" fill="#FFF"></path><path id="eIx2T8u56vV78" d="M1197.6 339.8c-.5-.3-.9-.7-1.3-1.1-.4-.4-.9-.8-1.5-1.3s-1.3-1-2-1.6c-1.8-1.3-3.7-2.6-5.6-3.7-2.4-1.4-4.9-2.6-7.4-3.6-2.6-1-5.2-1.8-7.9-2.5-2.2-.5-4.4-.9-6.6-1.2-.9-.1-1.8-.2-2.6-.2-.8-.1-1.4-.1-2-.1-.6 0-1.1 0-1.7-.1.5-.1 1.1-.1 1.7-.1h2c.8 0 1.7 0 2.6.2 2.3.2 4.5.5 6.7 1 2.7.6 5.4 1.4 8 2.5 2.6 1 5.1 2.3 7.5 3.7 2 1.2 3.8 2.5 5.6 3.9.8.6 1.4 1.2 2 1.7.6.5 1.1 1 1.4 1.3.4.3.8.8 1.1 1.2z" fill="#FFF"></path></g><g id="eIx2T8u56vV79" transform="translate(-30 -10)" stroke="#E0E0E0" stroke-width="1" stroke-opacity=".2" stroke-linecap="round" stroke-linejoin="round"><path id="eIx2T8u56vV80" d="M137.8 376.4c-1.2.1-2.5 0-3.7-.4-1.2-.4-2.3-1-3.3-1.8s-1.8-1.8-2.3-2.9c-.6-1.1-.9-2.3-1-3.6l-2.3-25.6c-.1-1.2 0-2.5.4-3.7.4-1.2 1-2.3 1.8-3.3s1.8-1.8 2.9-2.3c1.1-.6 2.3-.9 3.6-1.1h0c1.2-.1 2.5 0 3.7.4 1.2.4 2.3 1 3.3 1.8s1.8 1.8 2.3 2.9c.6 1.1.9 2.3 1 3.6l2.3 25.5c.1 1.2 0 2.5-.4 3.7-.4 1.2-1 2.3-1.8 3.3s-1.8 1.8-2.9 2.3c-1.1.7-2.3 1.1-3.6 1.2h0z" fill="#F5F5F5"></path><path id="eIx2T8u56vV81" d="M137.8 376.4c-1.2.1-2.5 0-3.7-.4-1.2-.4-2.3-1-3.3-1.8s-1.8-1.8-2.3-2.9c-.6-1.1-.9-2.3-1-3.6l-1.2-12.8 18.9-1.7 1.2 12.8c.1 1.2 0 2.5-.4 3.7-.4 1.2-1 2.3-1.8 3.3s-1.8 1.8-2.9 2.3c-1 .6-2.2 1-3.5 1.1h0z" fill="#E0E0E0"></path><path id="eIx2T8u56vV82" d="M86.7 343.1c-.9-.9-1.5-2-2-3.1-.5-1.2-.7-2.4-.6-3.7.1-1.3.3-2.5.8-3.6s1.2-2.2 2.1-3l18.4-17.8c1.8-1.7 4.3-2.7 6.8-2.6 2.5.1 4.9 1.1 6.7 2.9h0c1.7 1.8 2.7 4.3 2.6 6.8-.1 2.5-1.1 4.9-2.9 6.7l-18.4 17.7c-.9.9-2 1.5-3.1 2-1.2.5-2.4.7-3.7.7-1.3 0-2.5-.3-3.6-.8-1.2-.6-2.2-1.3-3.1-2.2h0z" fill="#F5F5F5"></path><path id="eIx2T8u56vV83" d="M86.7 343.1c-.9-.9-1.5-2-2-3.1-.5-1.2-.7-2.4-.6-3.7 0-1.3.3-2.5.8-3.6s1.2-2.2 2.1-3l9.2-8.9 13.2 13.7-9.2 8.9c-.9.9-2 1.6-3.1 2-1.2.5-2.4.7-3.7.7-1.3 0-2.5-.3-3.6-.8-1.2-.6-2.2-1.3-3.1-2.2h0z" fill="#E0E0E0"></path></g></g><clipPath id="eIx2T8u56vV84"><use id="eIx2T8u56vV85" width="1392" height="527" xlink:href="#eIx2T8u56vV2" transform="translate(0 91.2)" fill="#000" stroke="none" stroke-width="1"></use></clipPath></g></g></g><g transform="translate(55.5 205.3)" style="animation:eIx2T8u56vV86_ts__ts 10000ms linear infinite normal forwards"><path id="eIx2T8u56vV86" d="M57.1 200.3l-3.4-6.5-6.5 3.4 3.4 6.5-6.5 3.4 3.4 6.5 6.5-3.3 3.3 6.5 6.5-3.3-3.4-6.5 6.5-3.4-3.4-6.5-6.4 3.2z" transform="translate(-55.5 -205.3)" fill="#f7565e" stroke="none" stroke-width="1"></path></g><g transform="translate(1346.95 350.774)" style="animation:eIx2T8u56vV87_ts__ts 10000ms linear infinite normal forwards"><path id="eIx2T8u56vV87" d="M1341.2 352.5c-.3-1.1-.3-2.3 0-3.5.3-1.1 1-2.1 1.9-2.9.9-.8 2-1.2 3.2-1.3 1.2-.1 2.4.1 3.4.7 1.1.6 1.9 1.4 2.5 2.5.6 1 .8 2.2.7 3.4-.1 1.2-.6 2.3-1.3 3.2-.8.9-1.8 1.6-2.9 1.9-1.5.5-3.2.3-4.6-.5-1.4-.7-2.4-2-2.9-3.5z" transform="translate(-1346.95 -350.774)" fill="#E0E0E0" stroke="none" stroke-width="1"></path></g><g transform="translate(1169.75 109.274)" style="animation:eIx2T8u56vV88_ts__ts 10000ms linear infinite normal forwards"><path id="eIx2T8u56vV88" d="M1164 111c-.3-1.1-.3-2.3 0-3.5.3-1.1 1-2.1 1.9-2.9.9-.8 2-1.2 3.2-1.3 1.2-.1 2.4.1 3.4.7s1.9 1.4 2.5 2.5c.6 1 .8 2.2.7 3.4-.1 1.2-.6 2.3-1.3 3.2-.8.9-1.8 1.6-2.9 1.9-1.5.5-3.2.3-4.6-.5-1.4-.8-2.4-2-2.9-3.5z" transform="translate(-1169.75 -109.274)" fill="#E0E0E0" stroke="none" stroke-width="1"></path></g><g transform="translate(1066.45 5.957)" style="animation:eIx2T8u56vV89_ts__ts 10000ms linear infinite normal forwards"><path id="eIx2T8u56vV89" d="M1060.7 7.7c-.3-1.1-.3-2.3 0-3.5.3-1.1 1-2.1 1.9-2.9.9-.8 2-1.2 3.2-1.3 1.2-.1 2.4.1 3.4.7 1.1.6 1.9 1.4 2.5 2.5.6 1 .8 2.2.7 3.4-.1 1.2-.6 2.3-1.3 3.2-.8.9-1.8 1.6-2.9 1.9-.8.2-1.5.3-2.3.2-.8-.1-1.5-.3-2.3-.7-.7-.4-1.3-.9-1.8-1.5-.4-.6-.8-1.3-1.1-2z" transform="translate(-1066.45 -5.957)" fill="#E0E0E0" stroke="none" stroke-width="1"></path></g><g transform="translate(1257.95 61.657)" style="animation:eIx2T8u56vV90_ts__ts 10000ms linear infinite normal forwards"><path id="eIx2T8u56vV90" d="M1252.2 63.4c-.3-1.1-.3-2.3 0-3.5.4-1.1 1-2.1 1.9-2.9.9-.8 2-1.2 3.2-1.3 1.2-.1 2.4.1 3.4.7s1.9 1.4 2.5 2.5c.6 1 .8 2.2.7 3.4-.1 1.2-.6 2.3-1.3 3.2-.7.9-1.8 1.6-2.9 1.9-.8.2-1.5.3-2.3.2-.8-.1-1.6-.3-2.3-.7-.7-.4-1.3-.9-1.8-1.5s-.9-1.3-1.1-2z" transform="translate(-1257.95 -61.657)" fill="#E0E0E0" stroke="none" stroke-width="1"></path></g><g transform="translate(107.15 63.174)" style="animation:eIx2T8u56vV91_ts__ts 10000ms linear infinite normal forwards"><path id="eIx2T8u56vV91" d="M101.4 64.9c-.3-1.1-.3-2.3 0-3.5.3-1.1 1-2.1 1.9-2.9.9-.8 2-1.2 3.2-1.3 1.2-.1 2.4.1 3.4.7s1.9 1.4 2.5 2.5c.6 1 .8 2.2.7 3.4-.1 1.2-.6 2.3-1.3 3.2-.8.9-1.8 1.6-2.9 1.9-1.5.5-3.2.3-4.6-.5-1.4-.7-2.5-1.9-2.9-3.5z" transform="translate(-107.15 -63.174)" fill="#E0E0E0" stroke="none" stroke-width="1"></path></g><g transform="translate(197.35 135.757)" style="animation:eIx2T8u56vV92_ts__ts 10000ms linear infinite normal forwards"><path id="eIx2T8u56vV92" d="M191.6 137.5c-.3-1.1-.3-2.3 0-3.5.3-1.1 1-2.1 1.9-2.9.9-.8 2-1.2 3.2-1.3 1.2-.1 2.4.1 3.4.7s1.9 1.4 2.5 2.5c.6 1 .8 2.2.7 3.4-.1 1.2-.6 2.3-1.3 3.2-.8.9-1.8 1.6-2.9 1.9-.8.2-1.5.3-2.3.2-.8-.1-1.6-.3-2.2-.7-.7-.4-1.3-.9-1.8-1.5-.6-.5-1-1.2-1.2-2z" transform="translate(-197.35 -135.757)" fill="#E0E0E0" stroke="none" stroke-width="1"></path></g><g transform="translate(1330.85 169.95)" style="animation:eIx2T8u56vV93_ts__ts 10000ms linear infinite normal forwards"><path id="eIx2T8u56vV93" d="M1333 163.4l-4.4-8.7-8.7 4.4 4.4 8.7-8.7 4.4 4.4 8.7 8.7-4.4 4.4 8.7 8.7-4.4-4.4-8.7 8.7-4.4-4.4-8.7-8.7 4.4z" transform="translate(-1330.85 -169.95)" fill="#f7565e" stroke="none" stroke-width="1"></path></g><g transform="translate(1150.1 21.9)" style="animation:eIx2T8u56vV94_ts__ts 10000ms linear infinite normal forwards"><path id="eIx2T8u56vV94" d="M1151.5 17.6l-2.9-5.7-5.7 2.9 2.9 5.7-5.7 2.9 2.9 5.7 5.7-2.9 2.9 5.7 5.7-2.9-2.9-5.7 5.7-2.9-2.9-5.7-5.7 2.9z" transform="translate(-1150.1 -21.9)" fill="#f7565e" stroke="none" stroke-width="1"></path></g><g transform="translate(244.65 56.55)" style="animation:eIx2T8u56vV95_ts__ts 10000ms linear infinite normal forwards"><path id="eIx2T8u56vV95" d="M249.4 51.5l-.3-9.8-9.8.3.3 9.8-9.8.3.3 9.8 9.8-.3.3 9.8 9.8-.3-.3-9.8 9.8-.3-.3-9.8-9.8.3z" transform="translate(-244.65 -56.55)" fill="#f7565e" stroke="none" stroke-width="1"></path></g><path id="eIx2T8u56vV96" d="M783 250.2l14.9-3.2 53.1 4.4 11.2 4.8-48.4 56.7-30.8-62.7z" fill="#FFBE9D" stroke="none" stroke-width="1"></path><path id="eIx2T8u56vV97" d="M815.7 245.6c-2.9-32.5-5.9-64.9-8.8-97.4l-38.3 6.5-5.1 36.1c-.9 6.3-1.8 12.7-.6 18.9 1.1 5.7 3.8 11 4.8 16.7.7 4.1.4 8.4-.7 12.4-1.2 4-3.2 7.8-6 10.9l54.7-4.1z" fill="#263238" stroke="none" stroke-width="1"></path><path id="eIx2T8u56vV98" d="M869.7 165.8c-.8-8-3.2-15.8-7-22.8-3.8-7.1-9-13.3-15.3-18.3-11.3-8.7-24.2-11.1-38.4-10.4-7 .4-15 3.7-21.1 7.2-8.3 4.8-11.9 14.4-15.7 23.3-8 17.6-6.8 41.4-1.2 47.9l100.2 59c12.9-6.9 11.2-29.8 6.8-43.8-3.9-13.8-6.7-27.8-8.3-42.1z" fill="#263238" stroke="none" stroke-width="1"></path><path id="eIx2T8u56vV99" d="M845.6 137.9l-46.2-13.2c-14.9-2-25.4 16-26.8 31-1.6 16.6-2.8 37-1.2 49.4 3.2 25.1 22.2 28.9 22.2 28.9v7.8l-.4 10.8c5.7 20.4 45.2 17 49.4 2.6l10.6-108.1c.1-2.2-.6-4.4-2-6.1-1.4-1.7-3.4-2.8-5.6-3.1z" fill="#FFBE9D" stroke="none" stroke-width="1"></path><path id="eIx2T8u56vV100" d="M778.1 178.3c0 .8.3 1.7.8 2.3.6.6 1.3 1 2.2 1.1.4 0 .8 0 1.2-.1.4-.1.8-.3 1.1-.6.3-.3.6-.6.8-.9.2-.4.3-.8.3-1.2 0-.8-.3-1.6-.8-2.3-.6-.6-1.3-1-2.2-1.1-.4 0-.8 0-1.2.1-.4.1-.8.3-1.1.6-.3.3-.6.6-.8.9-.2.3-.2.8-.3 1.2z" fill="#263238" stroke="none" stroke-width="1"></path><path id="eIx2T8u56vV101" d="M777 170.1c.4.4 2.9-1.3 6.3-1.2 3.4.1 5.9 1.9 6.3 1.5.4-.4-.2-1-1.3-1.8-1.5-1.1-3.2-1.7-5-1.7-1.8-.1-3.6.5-5 1.5-1.1.8-1.5 1.6-1.3 1.7z" fill="#263238" stroke="none" stroke-width="1"></path><path id="eIx2T8u56vV102" d="M809.3 177.9c0 .8.3 1.6.8 2.3.6.6 1.3 1 2.2 1.1.4 0 .8 0 1.2-.1.4-.1.8-.3 1.1-.6.3-.3.6-.6.8-.9.2-.4.3-.8.3-1.2 0-.8-.2-1.7-.8-2.3-.6-.6-1.3-1-2.2-1.1-.4 0-.8 0-1.2.1-.4.1-.8.3-1.1.6-.3.3-.6.6-.8.9-.1.4-.3.8-.3 1.2z" fill="#263238" stroke="none" stroke-width="1"></path><path id="eIx2T8u56vV103" d="M810.6 170.3c.4.4 2.9-1.3 6.3-1.2 3.4.1 5.9 1.9 6.3 1.5.4-.4-.2-.9-1.3-1.8-1.5-1.1-3.2-1.7-5-1.7-1.8-.1-3.6.4-5 1.5-1 .7-1.4 1.5-1.3 1.7z" fill="#263238" stroke="none" stroke-width="1"></path><path id="eIx2T8u56vV104" d="M797.6 194.4c-1.8-.6-3.7-1-5.6-1.2-.9-.1-1.7-.3-1.8-.9 0-.9.2-1.8.7-2.6l2.8-6.6c3.9-9.4 6.8-17.2 6.4-17.3-.4-.1-3.8 7.4-7.8 16.8-.9 2.3-1.9 4.5-2.7 6.7-.6 1-.8 2.3-.6 3.4.1.3.3.6.5.8.2.2.5.4.9.5.5.2 1 .2 1.5.3 1.9.3 3.8.3 5.7.1z" fill="#263238" stroke="none" stroke-width="1"></path><path id="eIx2T8u56vV105" d="M793.6 234c11.8 1.3 23.7-1 34.1-6.7 0 0-9.2 17-34.1 13.9V234z" fill="#EB996E" stroke="none" stroke-width="1"></path><path id="eIx2T8u56vV106" d="M808.9 201.3c-.4-.7-1-1.2-1.6-1.6-.7-.4-1.4-.6-2.2-.6-1.1-.1-2.1.1-3.1.5s-1.8 1.1-2.4 2c-.4.8-.6 1.8-.3 2.7.2.5 0 .2.4.6 1.2 1.3 2.6 2.2 4.2 2.8.9.3 1.8.3 2.7 0 .9-.3 1.6-.8 2.2-1.5.5-.7.8-1.5.8-2.3 0-.8-.3-1.9-.7-2.6z" fill="#EB996E" stroke="none" stroke-width="1"></path><path id="eIx2T8u56vV107" d="M808.3 197.3c-.6 0-.7 3.7-4 6.2s-7.3 1.9-7.3 2.5c0 .2.9.7 2.5.9 2.2.1 4.3-.6 6.1-1.9 1.7-1.3 2.8-3.1 3.1-5.2.2-1.6-.1-2.5-.4-2.5z" fill="#263238" stroke="none" stroke-width="1"></path><path id="eIx2T8u56vV108" d="M809.4 159.4c.2 1 3.7.8 7.7 1.7 3.9.8 7.1 2.2 7.8 1.5.3-.4-.2-1.3-1.5-2.3-1.6-1.3-3.6-2.2-5.6-2.5-2-.4-4.2-.4-6.2.2-1.5.3-2.3.9-2.2 1.4z" fill="#263238" stroke="none" stroke-width="1"></path><path id="eIx2T8u56vV109" d="M777.2 162.6c.8.7 3.3-.5 6.4-1.1 3.1-.5 5.9-.4 6.4-1.3.2-.4-.3-1.1-1.6-1.7-1.7-.6-3.6-.8-5.4-.4-1.8.3-3.5 1.2-4.9 2.4-1 .9-1.3 1.7-.9 2.1z" fill="#263238" stroke="none" stroke-width="1"></path><path id="eIx2T8u56vV110" d="M799.3 123c-1.4 10.1 0 20.4 4.2 29.8 1 2.7 2.6 5.1 4.6 7.1 1 1 2.3 1.7 3.6 2.2 1.4.4 2.8.5 4.2.3-4.3-5.6-6.7-12.4-7-19.4 3 7.1 6.1 14.3 11.1 20.1 5.1 5.8 12.5 10.1 20.2 9.3l-.5-5.2c.9 3.8 3.1 7.1 6.1 9.6 1.5 1.2 3.4 1.8 5.3 1.9 1.9.1 3.8-.5 5.4-1.6-2.6-12.5 5-26.1.1-37.9-3.3-8.2-11.9-13.1-20.3-15.7-12-3.7-24.7-4.2-36.9-1.3l-.1.8z" fill="#263238" stroke="none" stroke-width="1"></path><path id="eIx2T8u56vV111" d="M800.4 123.2l-.1.5c.1-.2.1-.3.1-.5z" fill="#263238" stroke="none" stroke-width="1"></path><path id="eIx2T8u56vV112" d="M800.3 123.7l-1.5-.6c-4.7-2.4-7.8-5.2-15.1 1.3-4.2 4-7.6 8.9-10 14.2-2.5 4.8-4.4 10-5.5 15.3-1.1 6.3-1.2 12.8-.5 19.1 4.2-2.8 6.4-7.9 7.7-12.8 1.3-4.9 2.1-10 4.6-14.5-.9 4.2-1.2 8.4-.7 12.7.1 1.2.6 2.3 1.4 3.1.4.4 1 .6 1.6.6.6 0 1.1-.2 1.6-.6-1.4-4.9-1.4-10.1 0-15s3.3-9.6 5.6-14.1c-1.1 8.5-.8 17.1 1 25.4.2 1.2.7 2.4 1.4 3.3.7.6 1.6.9 2.5 1.1.9.2 1.8.2 2.7-.1 1.8-.5 3.6-.6 5.4-.2-4.3-12.3-5-25.5-2.2-38.2z" fill="#263238" stroke="none" stroke-width="1"></path><path id="eIx2T8u56vV113" d="M839.3 235.9c.6-5.7-5.2-12.4-4.6-18.3.7-6.2 4.6-11.5 6.2-17.5 3.8-14.5-6.6-30.4-1.7-44.6l19.2 2.6 12.8 93.6-44.6 1.7c3.9-5.7 12-10.6 12.7-17.5z" fill="#263238" stroke="none" stroke-width="1"></path><path id="eIx2T8u56vV114" d="M693.4 335.3l-19.7 24.3-51.6-12.7-20.2 18.5s53.6 31.2 63.5 34.1c11.3 3.4 18.7.4 28.5-6.6s30.8-32.9 30.8-32.9l-31.3-24.7z" fill="#FFBE9D" stroke="none" stroke-width="1"></path><path id="eIx2T8u56vV115" d="M629.2 349.2l-10.8-5.3s-1.2-10.3-3.2-14.5c-2-4.3-15.2-19.5-15.2-19.5-1 .5-1.9 1.3-2.4 2.4-.5 1-.6 2.2-.3 3.4.5 1.8 6.8 13.8 6.8 13.8-1.4 1.1-4.6 1.8-8.2-.7-4.5-3.1-9.9-6.6-10.6-6.9-.8-.3-3.7-7.1-5.7-12.2-1.2-3-6-2.7-6.5.5-.1.3-.1.6 0 .9 0 0-5.1-2.5-3.7 6.5 0 0-4 5.9-1.6 10.5 0 0-1.9 8.4-.7 12.1 1.2 3.7 23 19.1 23 19.1l24.3 13.4 14.8-23.5z" fill="#FFBE9D" stroke="none" stroke-width="1"></path><path id="eIx2T8u56vV116" d="M606.6 347c-.9-1.1-1.7-2.3-2.5-3.5-.7-1.3-1.2-2.8-1.5-4.3-.3-1.8-.3-3.7.2-5.6.3-1.3.8-2.6 1.6-3.8l.1-.2-.1-.2c-1.4-2.5-2.5-5-3.4-6.5-.4-.9-.9-1.7-1.5-2.5 0 0 0 .3.3.7l.9 1.9c.8 1.7 1.8 4 3.3 6.8v-.4c-1.8 3-2.4 6.5-1.8 9.9.3 1.6.9 3.1 1.7 4.4.5.9 1.2 1.8 1.9 2.5.1.3.4.6.8.8z" fill="#EB996E" stroke="none" stroke-width="1"></path><path id="eIx2T8u56vV117" d="M580.8 343c-.8-.7-1.7-1.4-2.6-2-2.1-1.5-3.7-3.6-4.5-6-.4-1.4-.4-2.9-.7-4.3-.1-.6-.4-1.2-.7-1.7-.3-.5-.8-1-1.4-1.3-.4-.2-.8-.3-1.2-.4-.4 0-.9 0-1.3.2-.6.3-.7.6-.7.6s.3-.2.8-.4c.4-.1.7-.1 1.1-.1.4.1.7.2 1 .4.9.7 1.5 1.7 1.7 2.8.3 1.2.3 2.7.7 4.3.4 1.4 1.2 2.7 2.2 3.8.8.9 1.8 1.7 2.8 2.3.9.8 1.8 1.4 2.8 1.8z" fill="#EB996E" stroke="none" stroke-width="1"></path><path id="eIx2T8u56vV118" d="M588 336.6c-1.2-.9-2.4-1.7-3.7-2.4-3-1.7-5.5-4.2-7.3-7.2-.5-.9-.8-1.8-1.1-2.7-.2-.9-.3-1.8-.4-2.7 0-.8-.2-1.6-.5-2.4-.3-.8-.8-1.4-1.4-2-.5-.4-1.2-.6-1.9-.5-.5 0-1 .2-1.3.5-.6.6-.6 1.1-.6 1.1s.1-.4.7-.8c.4-.3.9-.4 1.4-.4.5 0 1 .2 1.3.5.5.5.9 1.2 1.2 1.9.3.7.4 1.4.4 2.2.1.9.2 1.9.4 2.8.2 1 .6 2 1.1 2.9 1.8 3.1 4.5 5.6 7.7 7.2 1.2.7 2.2 1.2 2.9 1.5.3.2.7.4 1.1.5z" fill="#EB996E" stroke="none" stroke-width="1"></path><path id="eIx2T8u56vV119" d="M572.5 310.5c1.1.7 2 1.7 2.6 2.8.7 1.2 1.2 2.5 1.6 3.8.5 1.7 1.2 3.4 2 4.9 1.7 2.8 4 5.1 6.8 6.8.8.5 1.7.9 2.7 1.2.3.1.7.2 1.1.2 0-.1-1.4-.6-3.4-1.9-2.7-1.7-4.9-4-6.5-6.7-.8-1.5-1.4-3.1-1.9-4.7-.4-1.4-1-2.7-1.8-4-.3-.6-.8-1.1-1.3-1.5-.6-.4-1.3-.7-1.9-.9z" fill="#EB996E" stroke="none" stroke-width="1"></path><path id="eIx2T8u56vV120" fill="#f7565e" stroke="none" stroke-width="1" d="M895.7 504.7l-1.2 10.2-.3 2.3-3.8 31-8.7 70h-84.2l-2.1-75.6-.4-13.6v-1.1l-.5-15.7 20.2-1.5 73.8-5.5 3.5-.3z"></path><path id="eIx2T8u56vV121" d="M835.5 511.3l-.8 16.6v1.5l-.1 1.6-4.2 87.2h-94.5c-2.9-27.5-5.6-61.2-7.3-84l-.4-5.3v-.5-.2c-.5-7.6-1-13.6-1.2-17v-.6c-.1-1.7-.2-2.6-.2-2.6l38.6 1.2h1.1l48.1 1.5 20.9.6z" fill="#f7565e" stroke="none" stroke-width="1"></path><g id="eIx2T8u56vV122" opacity=".3"><path id="eIx2T8u56vV123" d="M728.3 528.3l.4 5.8 79.9 10.1 23.1-13.1 46.3-2.4-149.7-.4z" opacity=".3" fill="#000" stroke="none" stroke-width="1"></path></g><path id="eIx2T8u56vV124" d="M808.6 544.2c-.1 12.4-.6 39.2-1.3 74h-.9c.8-34.8 1.5-61.6 1.9-74 .2-4.9.3-7.5.3-7.5.1 0 .1 2.7 0 7.5z" fill="#263238" stroke="none" stroke-width="1"></path><path id="eIx2T8u56vV125" d="M675.3 347.9s54-77.5 58.5-78.5 53.5-22.5 53.5-22.5l29.5 59.5 45-51.5s42 31.5 44.5 38.5-32 107.5-32 107.5 15.5 24 18.5 51-3 78-3 78l-170.4-1.6s-1.8-75.3 11.1-114.6c7-21.2 14.7-46.3 14.7-46.3l-4-14.5-28 31.5-37.9-36.5z" fill="#f7565e" stroke="none" stroke-width="1"></path><path id="eIx2T8u56vV126" d="M828.5 330.9l.9-.3c.9-.3 1.8-.5 2.8-.6 3.6-.3 7.2.1 10.6 1.1 4.4 1.2 9.7 3.1 15.7 5.2 3 1 6.2 2 9.7 2.9 3.6 1 7.2 1.6 11 1.8h.5l-.1.5c-2.6 14.3-5.6 31-8.8 48.9-.2.9-.3 1.8-.5 2.7l-.1.6-.6-.3c-4.1-1.9-8.2-3.6-12.2-5.2-3.9-1.6-7.9-3-11.9-4.1-7.6-1.5-15.3-2.5-23-3h-.4v-.4c1.9-14.9 3.4-27.3 4.5-36.1.6-4.3 1-7.7 1.3-10.1.2-1.1.3-1.9.4-2.6 0-.3.1-.6.2-.9v1c0 .7-.2 1.6-.3 2.7-.2 2.4-.6 5.7-1.1 10.1-1 8.8-2.4 21.1-4.1 36l-.4-.5c7.8.4 15.5 1.4 23.1 2.9 4.1 1.1 8.2 2.5 12.1 4.1 4 1.6 8.1 3.4 12.2 5.2l-.7.4c.2-.9.3-1.8.5-2.7 3.3-17.8 6.3-34.5 8.9-48.8l.5.5c-3.8-.2-7.6-.8-11.2-1.9-3.5-.9-6.7-1.9-9.7-3-6-2.1-11.2-4.1-15.6-5.3-3.4-1.1-6.9-1.6-10.4-1.4-1.3 0-2.6.3-3.8.6z" fill="#263238" stroke="none" stroke-width="1"></path><path id="eIx2T8u56vV127" d="M906.2 293.5l26 98-52.7 19.1-5.3-9.6 32-107.5z" fill="#f7565e" stroke="none" stroke-width="1"></path><path id="eIx2T8u56vV128" d="M719.4 509.4h.4l1.3.2 4.8.8c4.2.7 10.3 1.6 17.9 2.1 4.1.3 8.2.3 12.3 0 1.1-.1 2.2-.2 3.3-.5.6-.1 1.1-.2 1.7-.3l1.6-.6c2.2-.6 3.4-2.9 4.4-5.1 1-2.4 1.7-4.8 2.2-7.3.6-2.5 1-5.2 1.4-7.9.8-5.4 1.3-11 1.6-16.8.8-12.6.9-24.7.7-35.3l.4.4-35.2-.7-10-.3-2.7-.1h-.9 13.5l35.2.4h.4v.4c.2 10.7.2 22.7-.6 35.4-.3 5.7-.8 11.5-1.6 16.9-.4 2.7-.8 5.4-1.4 8-.5 2.6-1.3 5-2.3 7.4-.5 1.2-1.1 2.3-1.9 3.3-.4.5-.8 1-1.3 1.4-.5.4-1.1.7-1.7.9l-1.7.6c-.6.2-1.1.2-1.7.3-1.1.2-2.3.4-3.4.5-4.2.3-8.3.2-12.5-.1-6-.5-12-1.3-17.9-2.5-2.1-.4-3.7-.7-4.8-1l-1.2-.3-.3-.2z" fill="#263238" stroke="none" stroke-width="1"></path><path id="eIx2T8u56vV129" d="M773 451.1c0 .3-11.2.5-25 .5s-25-.2-25-.5 11.2-.5 25-.5 25 .3 25 .5z" fill="#263238" stroke="none" stroke-width="1"></path><path id="eIx2T8u56vV130" d="M795.7 341.8c.2.2-12.7 17.5-28.7 38.8-16.1 21.3-29.3 38.3-29.5 38.2-.2-.1 12.7-17.5 28.7-38.8 16-21.3 29.3-38.4 29.5-38.2z" fill="#263238" stroke="none" stroke-width="1"></path><path id="eIx2T8u56vV131" d="M741.2 352.9c-.3-1-.4-2-.5-3-.3-1.9-.7-4.7-1.1-8.2-.7-6.9-1.5-16.6-1.6-27.2-.1-9.1.4-18.2 1.4-27.2.4-3.5.8-6.3 1.1-8.2.1-1 .3-2 .6-3 0 1 0 2-.2 3-.2 1.9-.5 4.7-.8 8.2-.6 7-1.2 16.5-1.1 27.2.1 10.6.7 20.2 1.3 27.2.3 3.3.6 6.1.7 8.2.2 1 .3 2 .2 3z" fill="#263238" stroke="none" stroke-width="1"></path><path id="eIx2T8u56vV132" d="M779.3 321.5c-.2.9-.5 1.8-.9 2.6-.6 1.7-1.6 4.1-2.8 7-2.5 5.9-6 14-10.3 22.8-4.2 8.8-8.4 16.6-11.5 22.2-1.6 2.8-2.8 5.1-3.8 6.6-.4.8-.9 1.6-1.5 2.4.3-.9.7-1.7 1.2-2.5l3.5-6.7c2.9-5.7 7-13.6 11.2-22.3 4.3-8.8 7.9-16.8 10.5-22.6 1.3-2.8 2.3-5.1 3.1-6.9.3-1 .8-1.8 1.3-2.6z" fill="#263238" stroke="none" stroke-width="1"></path><path id="eIx2T8u56vV133" d="M874.2 264.6c-.2.5-.5.9-.9 1.3l-2.6 3.6-9.9 13.2-33.7 44.3-.1.2h-21.6l-.1-.3c-9.6-20.4-18.2-38.6-24.4-51.7-3-6.5-5.5-11.8-7.2-15.5-.8-1.8-1.4-3.2-1.9-4.2l-.5-1.1c0-.2-.1-.4-.1-.4l.2.3.6 1.1 2 4.1c1.8 3.7 4.3 8.9 7.5 15.3 6.3 13.1 15 31.2 24.7 51.6l-.4-.3h21.1l-.4.2 33.9-44c4.3-5.5 7.7-9.9 10.2-13l2.8-3.5c.1-.4.4-.8.8-1.2z" fill="#263238" stroke="none" stroke-width="1"></path><path id="eIx2T8u56vV134" d="M870.4 443.6c-.5-.5-1-1-1.4-1.6-.8-1.1-1.9-2.6-3.3-4.6-6.9-10.5-11.8-22.1-14.5-34.3-.5-2.3-.8-4.2-1-5.6-.1-.7-.2-1.4-.2-2.1.2 0 .7 2.9 1.9 7.5 3.1 12 7.9 23.5 14.4 34.1 2.5 4.1 4.2 6.4 4.1 6.6z" fill="#263238" stroke="none" stroke-width="1"></path><path id="eIx2T8u56vV135" d="M857.3 415.5c-.2-.2 4.4-3.4 9.6-7.8 5.2-4.4 9-8.4 9.2-8.2-2.4 3.4-5.3 6.4-8.6 8.9-3.1 2.9-6.5 5.3-10.2 7.1z" fill="#263238" stroke="none" stroke-width="1"></path><path id="eIx2T8u56vV136" d="M881.4 414.2s-.2-.2-.4-.7l-1.1-1.9-4.2-7.6v-.2c2.7-10.6 7.4-27.9 12.7-47.4l11.5-41.3c1.5-5.2 2.7-9.4 3.6-12.5l1-3.4c.1-.4.2-.8.4-1.1 0 .4-.1.8-.2 1.2-.2.9-.5 2-.8 3.4-.8 3.1-1.9 7.4-3.3 12.6l-11.1 41.4c-5.3 19.5-10.1 36.8-13.1 47.3v-.2c1.6 3.2 2.9 5.7 3.8 7.7.4.8.7 1.5 1 2 .1.2.2.5.2.7z" fill="#263238" stroke="none" stroke-width="1"></path><g id="eIx2T8u56vV137" opacity=".3"><path id="eIx2T8u56vV138" d="M784.2 343.5c-17 22-31.6 45.7-43.7 70.7l1.3-.7 12.4-17.2 30.4-42.3c1.4-1.7 2.3-3.6 2.8-5.7.2-1.1-.1-2.1-.6-3-.7-.9-1.6-1.6-2.6-1.8z" opacity=".3" fill="#000" stroke="none" stroke-width="1"></path></g><g id="eIx2T8u56vV139" opacity=".3"><path id="eIx2T8u56vV140" d="M741.2 352.9c-4.5-8.7-7.1-18.3-7.5-28.1-.4-9.8 1.4-19.6 5.3-28.6.1 0 .3 47.5 2.2 56.7z" opacity=".3" fill="#000" stroke="none" stroke-width="1"></path></g><path id="eIx2T8u56vV141" d="M876.7 351.9c-.6 0-1.3 0-1.9-.2-1.3-.2-3.1-.5-5.4-.9-4.5-.8-10.8-2.1-17.6-3.8a292.069 292.069 0 01-22.5-6.6c-.7-.2-1.3-.4-1.9-.8.7.1 1.3.2 1.9.4l5.2 1.4c4.4 1.2 10.6 2.9 17.4 4.6 6.8 1.7 13 3.1 17.5 4l5.3 1.2c.7.2 1.4.4 2 .7z" fill="#263238" stroke="none" stroke-width="1"></path><g id="eIx2T8u56vV142" opacity=".3"><path id="eIx2T8u56vV143" d="M822.6 380.6s33.3 16.2 47.2 12.3c0 0-23.7-13.3-47.2-12.3z" opacity=".3" fill="#000" stroke="none" stroke-width="1"></path></g><g id="eIx2T8u56vV144" opacity=".3"><path id="eIx2T8u56vV145" d="M877.6 399.6s25.7-16.1 20.8-79.1l-20.8 79.1z" opacity=".3" fill="#000" stroke="none" stroke-width="1"></path></g><path id="eIx2T8u56vV146" d="M883.1 528.3c0 .3-36.3.5-81 .5-44.8 0-81.1-.2-81.1-.5s36.3-.5 81.1-.5c44.7 0 81 .3 81 .5z" fill="#263238" stroke="none" stroke-width="1"></path><path id="eIx2T8u56vV147" d="M915.5 397.5s3.7 61.1 2.2 70.6c-1.5 9.5-6.9 52.5-6.9 52.5l-21.7-4.4-5.7-107 32.1-11.7z" fill="#FFBE9D" stroke="none" stroke-width="1"></path><path id="eIx2T8u56vV148" d="M911 519.1c-.2-.5-.3-.8-.3-.8l-21.6-4.5s-7.8 21.5-8.6 24.9c-.8 3.4.5 13.4-1 18.5s1.9 5.4 4 5.4 10-23.4 10-23.4L895 550l-4.9 10.8s1 6.7 2.5 6.5c1.5-.2 7.2-4.7 7.2-4.7l.9 3.4s-2.7 1.5 1.2 1.2c3.9-.2 6.7-4.4 6.7-4.4l2.1 3.2 8.5-9.4s1.2-14.3 1.2-15.2c0-.9-7.6-18.2-9.4-22.3z" fill="#FFBE9D" stroke="none" stroke-width="1"></path><path id="eIx2T8u56vV149" d="M999.4 618.2h-73.7l9.4-160.7v-.5c-.1 0-.2 0-.3.1h-.2c-5.5 1.5-11.1 1.6-16.6.6-3.4-.7-6.8-1.8-10-3.4-10-5.3-14.2-17.4-15.2-23.5-1.6-10.1 3-24.9 3.5-26.4v-.1s0-.1.1-.3c.5-1.9 3.6-12.1 7.3-24.6.6-2 1.2-4.1 1.9-6.3.2-.8.4-1.5.7-2.3 0-.2.1-.3.2-.5 0-.1.1-.3.1-.4 0-.1.1-.2.1-.3l.9-3c.5-1.6.9-3.1 1.4-4.7.2-.6.4-1.1.5-1.7l.9-3c.1-.2.1-.4.2-.6 0-.1.1-.3.1-.4 0-.1 0-.2.1-.3 2.4-8 4.6-15.5 6.4-21.2 1.1-3.6 1.9-6.4 2.5-8.3 5.2-17.1 21.3-28 21.3-28 7.2-5.1 35.3-14 36.7-14.4l8.1-8.1.9-.9 1.8-1.8 4.1-4.1.4-.4 6.5-.9 19.5-2.7 17.5-2.4 3.2-.4 2.4 2.8 7.8 9 .8.9.3.4 4.9 5.6 35.9 12.9 1.5.5s5.6 56.4 10.8 104.9c0 .3.1.7.1 1 .3 2.6.6 5.2.8 7.8 0 .3.1.6.1.9 2.6 23.6 4.9 44.2 6.3 53.7 0 .3.1.5.1.8.1.3.1.7.1 1 .1.3.1.6.1.8.1.4.1.7.2 1v1c0 .2.1.4.1.6 0 .1 0 .3.1.4 0 .3.1.6.1.9.2 1.3.4 2.8.6 4.5 0 .2 0 .4.1.6 3.3 27.6 9.8 105.8 13 144" transform="translate(.969)" fill="#FFF" stroke="none" stroke-width="1"></path><path id="eIx2T8u56vV150" d="M1125.8 618.2H1000" fill="#FFF" stroke="none" stroke-width="1"></path><path id="eIx2T8u56vV151" d="M1111.7 465.2c.1.5.1.8.1.9 0-.2-.2-1.1-.4-2.6-.1-.2-.1-.5-.1-.8-.3-2-.7-4.8-1.2-8.4-1-7.8-2.4-19.3-4-34.2-.4-3.5-.8-7.2-1.2-11.1 0-.3-.1-.6-.1-.9-.3-2.5-.6-5-.8-7.7 0-.3-.1-.7-.1-1-3-27.7-6.7-63.2-11-104.9l-1.2-.4-35.9-12.8-.2-.1h-.1l-4.8-5.5-.8-.9-1.1-1.2-6.8-7.9-2.5-2.9-2.7.4-18.2 2.6-25.4 3.6-4.7 4.7h-.1l-2.1 2.1-8.4 8.4c-.2.1-.5.2-.7.2-.1 0-.2.1-.4.1-8.2 2.6-16.5 5.5-24.8 8.8-2.1.9-4.3 1.8-6.4 2.8-2.1 1-4.1 2.2-6 3.6-3.7 2.9-7.1 6.2-10.1 9.8-3.1 3.6-5.7 7.7-7.7 12.1-1.8 4.5-3.3 9.2-4.5 13.9 0 .1 0 .1-.1.2-2 6.9-4.1 13.8-6.2 20.8 0 .1 0 .2-.1.3 0 .1-.1.3-.1.4-.1.2-.1.5-.2.7-.4 1.3-.8 2.7-1.2 4-.1.3-.2.5-.2.8-.1.5-.3.9-.4 1.4-.1.3-.2.6-.3.8-.4 1.3-.8 2.7-1.2 4 0 .1-.1.3-.1.4 0 .2-.1.3-.1.5-.1.2-.1.3-.2.5-.3.9-.5 1.7-.8 2.6-.8 2.6-1.5 5.2-2.3 7.8-1.3 4.2-2.5 8.4-3.8 12.6-1 3.5-2.1 7.1-3.2 10.6v.1c0 .1 0 .1-.1.2-.4 1.3-.8 2.6-1.2 4-1.4 5-2.3 10.1-2.6 15.3-.2 2.6 0 5.1.4 7.7.5 2.5 1.2 5.1 2.2 7.5 1.9 4.9 5 9.2 9 12.6 3.8 2.9 8.4 4.8 13.1 5.7 5.5 1.1 11.2.9 16.6-.6.1 0 .1 0 .2-.1.1 0 .2 0 .3-.1l.7-.2v.7c-.1 2.3-.3 4.6-.4 6.9-3.1 53.9-6.2 106-9 154.4h-1.1c2.8-48.4 5.8-100.5 8.9-154.4.1-2.1.2-4.1.4-6.2-5.1 1.3-10.4 1.6-15.6.8-.3 0-.7-.1-1-.2-2.3-.4-4.6-1.1-6.8-2-2.5-1-4.9-2.3-7.1-4-4.1-3.5-7.3-8-9.3-13-1-2.5-1.8-5-2.3-7.7-.4-2.6-.6-5.3-.4-8 .4-5.2 1.3-10.4 2.7-15.5.3-1.1.7-2.3 1-3.5v-.1c.1-.3.2-.5.2-.8 1.1-3.5 2.1-7 3.1-10.6 1.5-5 3-9.9 4.4-14.8.5-1.7 1-3.5 1.5-5.2l.6-2.1c0-.2.1-.3.1-.5 0-.1.1-.3.1-.4 0-.1.1-.2.1-.3.3-.9.5-1.8.8-2.7.3-1 .6-2.1.9-3.2.3-.9.5-1.8.8-2.7.2-.7.4-1.3.6-1.9.3-.9.5-1.8.8-2.7 0-.2.1-.4.2-.6 0-.1.1-.2.1-.4 0-.1 0-.2.1-.3 2-6.7 4-13.4 6-20 .1-.5.3-1 .4-1.6 1.2-4.2 2.6-8.3 4.1-12.4 2-4.4 4.6-8.6 7.8-12.3 3-3.7 6.5-7 10.3-10 1.9-1.5 4-2.7 6.1-3.7 2.1-1 4.3-1.9 6.4-2.8 8.6-3.5 17.2-6.4 25.8-9.1l7.8-7.7 1.7-1.7 1.4-1.4v-.1l4.3-4.3.1-.1h.1l26.4-3.7 10.5-1.5 6.3-.9 3.4-.5h.2l.1.2 2.2 2.5 8.6 10 .4.4v.1l4.9 5.6 37.3 13.4h.2V294.1c4.1 41.7 7.8 77.2 10.7 104.8 0 .3.1.7.1 1 .3 2.7.6 5.3.8 7.8 0 .3.1.6.1.9.4 3.9.8 7.6 1.2 11.1 1.6 14.8 2.9 26.4 3.8 34.2.5 3.6.8 6.5 1.1 8.5 0 .2.1.3.1.4 0 .1 0 .2.1.3.1.4.1.7.1 1 1 .6 1 .9 1 1.1z" fill="#263238" stroke="none" stroke-width="1"></path><path id="eIx2T8u56vV152" d="M1125.8 618.2c-3.6-43.8-6.7-79.6-9-105.5-1.3-15-2.5-26.6-3.3-34.5-.2-1.5-.3-2.8-.4-4 0-.2-.1-.4-.1-.6-.2-1.8-.4-3.2-.6-4.3v-.2c0-.3-.1-.6-.1-.9-.1-.7-.2-1.2-.2-1.5v-.2c0 .1 0 .2.1.3v.4c0 .2.1.4.1.6.3 1.9.8 5.4 1.4 10.4.9 7.9 2.1 19.5 3.5 34.5 2.5 25.9 5.6 61.7 9.3 105.5h-.4" fill="#263238" stroke="none" stroke-width="1"></path><path id="eIx2T8u56vV153" d="M1086.7 323.2l-.4 43.5 4.9 45.3-38.9 4.4 2.7 51.5s50-.5 74-10.1c23.9-9.6 18.2-33.4 16.5-44-2.8-17.7-30.2-103.6-35.7-109.7-6.7-7.4-18.1-10.3-18.1-10.3l-5 29.4z" fill="#FFF" stroke="none" stroke-width="1"></path><path id="eIx2T8u56vV154" d="M1036.1 262.3c1.7 2 2.9 4.2 3.7 6.7.8 2.5 1 5.1.7 7.6-.9 9.2-7.4 26.5-11.3 31.7-3.9 5.2-27.9 49.8-27.9 49.8l-12.2-63.7-.8-20.9 4.7-4.7 43.1-6.5z" fill="#f7565e" stroke="none" stroke-width="1"></path><path id="eIx2T8u56vV155" d="M1007.1 356.8c.4-.2.7-.4 1.1-.7l2.9-2.1c2.6-1.9 6.2-4.6 10.7-7.9l15.7-11.9 9.3-7.1c.9-.6 1.7-1.3 2.3-2.2.6-.9 1.1-1.9 1.3-3 .1-2.2-.3-4.4-1.2-6.4-1.8-4.2-3.9-8.2-6.4-12l-.6.7 16.6 7.4.7.3v-.7c-1-9-1.9-16.4-2.5-21.8-.3-2.5-.6-4.6-.8-6.1-.1-.7-.2-1.4-.4-2.1 0 .7 0 1.4.1 2.2.1 1.5.3 3.6.6 6.1.5 5.4 1.3 12.9 2.2 21.9l.6-.4-16.6-7.5-1.4-.6.8 1.3c2.4 3.8 4.5 7.7 6.3 11.9.9 1.9 1.3 3.9 1.2 5.9-.4 1.9-1.6 3.5-3.3 4.6l-9.2 7.1-15.6 12.1-10.5 8.2-2.8 2.3c-.5-.1-.8.2-1.1.5z" fill="#263238" stroke="none" stroke-width="1"></path><path id="eIx2T8u56vV156" d="M1001.3 358.1c-.2-.4-.4-.7-.6-1l-1.9-2.7-7-10c-2.9-4.2-6.4-9.2-10.2-14.8-1.9-2.8-3.8-5.7-5.8-8.9-1-1.6-1.9-3.1-2.9-4.8-1.1-1.5-1.7-3.3-1.9-5.1.2-1.2.5-2.4 1.2-3.4.6-1.1 1.4-2 2.4-2.7 1.8-1.6 3.9-2.9 6.1-3.9l2.3-1.1-2.5.2-18 1.7.3.7 11-13.1 3-3.7c.4-.4.7-.9 1-1.3-.4.4-.8.7-1.2 1.2l-3.2 3.5-11.3 12.9-.7.7h1l18-1.6-.2-.9c-2.3 1.1-4.4 2.4-6.3 4.1-1 .9-1.9 1.8-2.6 2.9-.8 1.1-1.2 2.5-1.3 3.8 0 .5 0 1 .2 1.6l.2.8.3.7c.4.9.9 1.8 1.4 2.6.9 1.7 1.9 3.3 2.9 4.8 1.9 3.1 4 6.1 5.9 8.9 3.8 5.6 7.4 10.6 10.4 14.7 3 4.2 5.5 7.5 7.2 9.8l2 2.6.8.8z" fill="#263238" stroke="none" stroke-width="1"></path><path id="eIx2T8u56vV157" d="M999.4 618.2c.2-27.4.6-67.3 1.1-111.7 1-81.9 1.9-148.5 2.2-149.6.3 0-.3 67-1.2 149.6-.5 44.4-1 84.2-1.5 111.6" fill="#263238" stroke="none" stroke-width="1"></path><path id="eIx2T8u56vV158" d="M1133.7 416.8c-.4-.4-.8-.8-1.3-1.2-1.3-1-2.6-1.9-4.1-2.6-2.1-1.2-4.3-2.1-6.6-2.9-5.6-1.9-11.5-2.6-17.4-2-2.4.2-4.8.7-7.1 1.3-1.6.4-3.1 1-4.5 1.6-.6.2-1.1.5-1.6.8 0 .2 2.4-.9 6.3-1.8 2.3-.5 4.6-.9 7-1.1 2.9-.2 5.8-.1 8.6.2 2.9.4 5.7 1 8.4 1.9 2.2.7 4.4 1.6 6.5 2.7 3.7 1.8 5.7 3.3 5.8 3.1z" fill="#263238" stroke="none" stroke-width="1"></path><path id="eIx2T8u56vV159" d="M1119.8 396.7s-.5-.2-1.3-.3c-1.2-.1-2.5-.1-3.7 0-4.1.3-8 1.4-11.7 3.3-3.6 1.9-6.8 4.5-9.4 7.7-.8 1-1.5 2-2.1 3l-.6 1.2c.1 0 1.1-1.6 3.1-3.8 2.6-3 5.8-5.4 9.3-7.3 3.5-1.8 7.4-3 11.3-3.4 3.2-.4 5.1-.2 5.1-.4z" fill="#263238" stroke="none" stroke-width="1"></path><path id="eIx2T8u56vV160" d="M1057.6 416c.8 0 1.7 0 2.5-.1l7-.7 24-2.7h.4v-.5c-.3-3.4-.7-7.1-1.1-10.9-1.4-12.3-3-23.3-4.3-31.3-.6-4-1.2-7.2-1.6-9.5-.2-1-.3-1.9-.5-2.6 0-.3-.1-.6-.2-.9-.1.3-.1.6 0 .9 0 .7.2 1.6.3 2.6l1.2 9.6c1.1 8 2.6 19.1 4 31.3.4 3.8.8 7.4 1.1 10.9l.4-.5-23.9 2.9-7 1c-.6.1-1.5.3-2.3.5z" fill="#263238" stroke="none" stroke-width="1"></path><path id="eIx2T8u56vV161" d="M1095.4 296.5c.3.1.5.2.8.3l2.3.7c2.9.8 5.6 2.1 8.1 3.8 3.2 2.3 5.8 6.5 8 11.6s4.1 11.2 6.2 17.9c4.3 13.4 9.2 29.4 14.4 47.3 4.7 17.9 12.8 37.3 11.3 59v1.9c-1 4.7-3.3 9.1-6.6 12.7-3.5 3.1-7.6 5.5-12.1 7-4.3 1.5-8.8 2.7-13.3 3.5-4.4.9-8.8 1.7-13.1 2.2-4.3.6-8.5 1-12.6 1.2l-12 .8-21.8 1.4.4.3c-1.2-15.7-2.1-28.4-2.8-37.2-.3-4.4-.6-7.7-.8-10.1-.1-1.1-.2-1.9-.3-2.6-.1-.7-.1-.9-.1-.9v.9c0 .7 0 1.5.1 2.6.1 2.4.3 5.7.6 10.1.6 8.8 1.4 21.6 2.5 37.2v.2h.3l21.7-1.3 12-.7c4.1-.2 8.4-.6 12.7-1.1 4.3-.6 8.7-1.3 13.2-2.2 4.6-.8 9-2 13.4-3.5 4.6-1.5 8.8-4 12.5-7.2 3.4-3.7 5.8-8.2 6.8-13.1v-1.9c.1-10.7-.3-21.4-3.4-31.2-2.6-9.8-5.4-19.1-8-28.1-5.3-17.8-10.3-33.9-14.6-47.2-2.2-6.7-4.2-12.7-6.4-17.9-2.2-5.2-5-9.3-8.3-11.7-2.5-1.7-5.3-3-8.3-3.7-1-.3-1.8-.5-2.3-.6-.1-.3-.3-.3-.5-.4z" fill="#263238" stroke="none" stroke-width="1"></path><path id="eIx2T8u56vV162" d="M1063.9 420.2c-.6-.6-11.6-8.2-11.6-8.2s-.6-5.3-3.5-6.3c-.9-1.6-2.2-2.8-3.8-3.7-1.6-.8-3.4-1.2-5.1-1.1h-16.5l-14.2 15.9c.1 1 .6 2 1.5 2.7.8.7 1.9 1 2.9.9l-3.8 7.3s4.5 3.3 8.3.6c3.8-2.6 9-7.2 9-7.2l-7.7 11.9s.6 2.7 4.9.8c3.2-1.8 6.1-4.3 8.4-7.2l12.7-1.3-10.7 3.6-8.3 7.7s.8 2.7 4.6 1.7c2.9-.9 5.7-2.2 8.2-4l5.7.4c.2 1.3.8 2.6 1.6 3.7s1.9 2 3.1 2.6c3 1.4 6.3 2 9.7 1.9l12.5 4.3c-.2-7.3-4.1-18.4-7.9-27z" fill="#936760" stroke="none" stroke-width="1"></path><path id="eIx2T8u56vV163" d="M1013.5 420.5c1.1-1.1 2.1-2.2 2.9-3.4 1-1.2 2.1-2.4 3.3-3.5 1.4-1.4 3.1-2.4 4.9-3 3.4-1.1 6.9-1.8 10.5-2.1 1.5-.1 3-.2 4.5-.5-1.5-.3-3-.3-4.5-.2-3.7.1-7.3.8-10.8 1.9-1 .3-2 .8-2.9 1.4-.8.6-1.6 1.2-2.3 1.9-1.2 1.2-2.3 2.5-3.2 3.8-.9 1.1-1.7 2.3-2.4 3.7z" fill="#6F4C47" stroke="none" stroke-width="1"></path><path id="eIx2T8u56vV164" d="M1026.9 421.2c.1 0 .8-.6 1.9-1.5 1.5-1.1 3.2-1.9 5-2.3 1.8-.4 3.7-.6 5.6-.6.8.1 1.6 0 2.4-.3 0-.1-.9-.3-2.4-.4-2-.2-3.9-.1-5.8.3-2 .4-3.8 1.3-5.2 2.7-1.1 1.2-1.5 2.1-1.5 2.1z" fill="#6F4C47" stroke="none" stroke-width="1"></path><path id="eIx2T8u56vV165" d="M1055 424.3c.1 0 .6-.3 1-1.1.6-1.2.7-2.5.3-3.8-.4-1.3-1.2-2.3-2.3-3-.8-.5-1.4-.6-1.5-.5 0 .1 2.1 1.2 2.8 3.8.4 1.6.2 3.1-.3 4.6z" fill="#6F4C47" stroke="none" stroke-width="1"></path><path id="eIx2T8u56vV166" d="M1065 440.1c-.2-.2-1.5.6-3.2 1.2-1.7.7-3.2.9-3.2 1.2 0 .3 1.7.4 3.6-.3 1.9-.7 3-1.9 2.8-2.1z" fill="#6F4C47" stroke="none" stroke-width="1"></path><path id="eIx2T8u56vV167" d="M1057.8 416.1s.9.3 2.2 1.2c1.9 1.3 3.4 3 4.4 5.1 1.5 3.1 2.8 6.2 3.8 9.5 1.4 3.9 2.3 8 2.7 12.1.3 3.4 0 6.9-1 10.2-.8 2.9-2.3 5.5-4.4 7.7-1.6 1.7-3.5 3-5.6 3.8-1.3.5-2.7.9-4.1 1h-.6l.5.2c.4.2.9.3 1.4.4-.4-.3-.8-.5-1.3-.7v.2c1.5 0 2.9-.3 4.3-.8 2.3-.8 4.3-2.1 6-3.8 2.2-2.2 3.8-4.9 4.7-7.8 1.1-3.4 1.4-7 1.1-10.6-.4-4.2-1.4-8.4-2.9-12.3-1.1-3.3-2.4-6.5-4-9.6-1.1-2.1-2.8-3.8-4.8-5.1-.5-.3-1.1-.6-1.8-.7-.4 0-.6-.1-.6 0z" fill="#263238" stroke="none" stroke-width="1"></path><path id="eIx2T8u56vV168" d="M1088.6 332.6c-1.3 2.2-2.3 4.6-3.1 7-1 2.4-1.7 4.8-2.2 7.4 2.5-4.5 4.2-9.4 5.3-14.4z" fill="#263238" stroke="none" stroke-width="1"></path><path id="eIx2T8u56vV169" d="M934.6 459.2v-1.3c0-1 0-2.2.1-3.7.1-3.4.3-8 .4-13.7.3-11.5.6-27.6.5-45.2-.1-17.7-.2-33.6-.3-45.2v-13.7-3.7-1.3c.1.4.1.9.1 1.3 0 .9.1 2.2.2 3.7 0 3.4.2 8 .4 13.7.3 11.5.6 27.6.6 45.2 0 17.7-.3 33.7-.8 45.2-.2 5.7-.5 10.5-.8 13.7-.1 1.5-.2 2.8-.3 3.7 0 .4 0 .8-.1 1.3z" fill="#263238" stroke="none" stroke-width="1"></path><path id="eIx2T8u56vV170" d="M932.4 401.7c-1.4.1-2.7-.1-4-.6-2.1-.6-3.8-1.3-3.7-1.5 1.4-.1 2.7.1 4 .6 2.1.5 3.8 1.2 3.7 1.5z" fill="#263238" stroke="none" stroke-width="1"></path><g transform="translate(923.906 428.6)" style="animation:eIx2T8u56vV171_tr__tr 10000ms linear infinite normal forwards"><g id="eIx2T8u56vV171" transform="translate(-924.7 -428.6)" stroke="none" stroke-width="1"><path id="eIx2T8u56vV172" d="M905.5 354s-4-8-8.2-7.9c-2.8 0-4.7 6.6-4.7 6.6s-5.6-4-7.7 0c-2.1 4 1.9 10 1.9 10s-4.2 2.4-4.8 5.7c-.3 2.2-.3 4.4 0 6.6-1.4 2.2-1.8 4.8-1.3 7.4 1.1 3.7 10.8 18.7 10.8 18.7l10.8 6.1 2.4 8.1c10.3-2 15.5-6.4 16.7-18.8 0 0 7.1-21.1 5.7-24.9-1.3-3.8-7.9-9.2-7.9-9.2l-5.2-3.8c-1.3 1.5-2 3.4-2.1 5.4 0 3.2-.6 2.9-.6 2.9l-5.8-12.9z" fill="#936760"></path><path id="eIx2T8u56vV173" d="M912.3 361.5c0 1.9-.6 3.8-1.7 5.4-1.1 1.6-2.6 2.9-4.4 3.6-1.8.7-3.7.9-5.6.5-1.9-.4-3.6-1.3-5-2.7-1.4-1.4-2.3-3.1-2.7-5-.4-1.9-.2-3.9.6-5.6.7-1.8 2-3.3 3.6-4.4 1.6-1.1 3.5-1.6 5.4-1.6 1.3 0 2.6.3 3.7.7 1.2.5 2.3 1.2 3.2 2.1.9.9 1.6 2 2.1 3.2.5 1.3.8 2.5.8 3.8z" fill="#E0E0E0"></path><path id="eIx2T8u56vV174" d="M912.3 361.5c-.1 0 0-.9-.5-2.3-.6-2.1-1.8-3.9-3.6-5.2-1.4-1-3-1.7-4.8-1.8-1.7-.2-3.5.2-5 1-1.6.8-2.9 2-3.8 3.4-.9 1.5-1.4 3.2-1.4 4.9 0 1.7.5 3.4 1.4 4.9.9 1.5 2.2 2.7 3.8 3.4 1.5.8 3.3 1.1 5 1 1.7-.2 3.4-.8 4.8-1.8 1.7-1.3 3-3.1 3.6-5.2.4-1.4.4-2.3.5-2.3.1 0 0 .2 0 .6 0 .6 0 1.2-.2 1.8-.5 2.2-1.7 4.2-3.5 5.6-1.3 1-2.9 1.7-4.6 2-1.7.3-3.4.1-5-.4-1.9-.7-3.6-1.9-4.8-3.5-1.3-1.8-2-3.9-2-6.1 0-2.2.7-4.3 2-6.1.8-1.1 1.8-2 3-2.7 1.2-.7 2.5-1.1 3.8-1.3 1.3-.2 2.7-.1 4 .3 1.3.4 2.5 1 3.6 1.8 1.8 1.4 3 3.4 3.5 5.6.1.6.2 1.2.2 1.8v.6z" fill="#263238"></path><path id="eIx2T8u56vV175" d="M910.9 358c-.4 1.3-.8 2.7-1.2 4 0 .3-.1.7-.1 1-.2.7-.4 1.4-.8 2-.1.2-.2.3-.3.5-.3.4-.5.7-.9 1l-.6.6c-.5.4-1.1.8-1.8 1.1-1.3.5-2.8.7-4.1.4-1.4-.3-2.7-1-3.7-2-.5-.5-1-1.1-1.3-1.8l-.6 2.4-.3-.3c.1.1.2.3.3.4.5.6 1.2 1.2 1.9 1.7.1.1.3.2.4.3 1.4.8 3 1.3 4.6 1.3 1.3 0 2.5-.3 3.7-.8.2-.1.4-.2.5-.3.3-.2.6-.3.8-.5.5-.3 1-.7 1.4-1.1.7-.7 1.3-1.5 1.7-2.4.2-.4.4-.9.5-1.3.1-.5.2-1 .3-1.4 0-.4.1-.8.1-1.2.2-1.2-.1-2.4-.5-3.6zm0 0c-.1-.3-.3-.6-.4-.9-.1-.2-.2-.3-.3-.5 0 0 0-.1-.1-.1-1-1.5-2.4-2.7-4.1-3.4-.4-.2-.8-.3-1.2-.4-1.3-.3-2.7-.4-4.1-.1-1 .2-1.9.5-2.7 1-.7.4-1.3.9-1.9 1.5-1.3 1.3-2.1 2.9-2.5 4.7-.3 1.8-.2 3.6.5 5.3.3.7.7 1.4 1.1 2 .1.1.2.3.3.4.5.6 1.2 1.2 1.9 1.7.1.1.3.2.4.3 1.4.8 3 1.3 4.6 1.3 1.3 0 2.5-.3 3.7-.8.2-.1.4-.2.5-.3.3-.2.6-.3.8-.5.5-.3 1-.7 1.4-1.1.7-.7 1.3-1.5 1.7-2.4.2-.4.4-.9.5-1.3.1-.5.3-1 .3-1.4 0-.4.1-.8.1-1.2.2-1.4-.1-2.6-.5-3.8zm-2.2 7.1c-.1.2-.2.3-.3.5-.3.4-.5.7-.9 1l-.6.6c-.5.4-1.1.8-1.8 1.1-1.3.5-2.8.7-4.1.4-1.4-.3-2.7-1-3.7-2-.5-.5-1-1.1-1.3-1.8-.3-.6-.5-1.3-.7-1.9-.3-1.4-.1-2.8.4-4.1.4-1 1-1.9 1.8-2.6.3-.2.5-.5.8-.7 1.2-.8 2.6-1.2 4-1.2 1.3 0 2.5.3 3.6 1 .5.3 1 .7 1.4 1.1.8.8 1.4 1.8 1.8 2.9.1.3.2.5.2.8.1.4.1.9.1 1.4v.5c0 .3-.1.7-.1 1 .1.7-.2 1.4-.6 2z" fill="#FFF"></path><path id="eIx2T8u56vV176" d="M886.4 362.7s.6-.4 1.9-.2c.8.1 1.5.4 2.1.8.8.5 1.6 1.1 2.4 1.7 2 1.6 3.9 3.2 5.7 5 1.1 1 2.1 2.1 3.1 3.2.5.6 1 1.3 1.4 2 .3.4.4.9.4 1.4 0 .5-.1 1-.3 1.4-.3.4-.7.8-1.1 1-.4.3-.9.4-1.4.5-.9.2-1.8.2-2.7.1l.5-.7c.1.5.1 1 0 1.4-.1.5-.3.9-.6 1.3-.4.7-1 1.3-1.6 1.8-.7.5-1.5.7-2.3.7-.7 0-1.4-.1-2.1-.2-2.1-.5-4.1-1.4-6-2.4h.3c-.9.6-1.8 1.1-2.8 1.5.8-.7 1.6-1.4 2.6-1.9H886.2c1.9.9 3.8 1.7 5.9 2.1.6.2 1.2.2 1.9.2s1.2-.3 1.8-.6c.5-.5 1-1 1.4-1.6.4-.5.5-1.2.5-1.8l-.2-.7h.7c1.5.1 3.4 0 4.3-1.2.1-.3.2-.6.2-1 0-.3-.1-.7-.3-.9-.3-.7-.8-1.3-1.2-1.9-.9-1.1-1.9-2.2-3-3.2-1.9-1.9-3.8-3.7-5.5-5.1-1.1-1.2-2.5-2.1-4.1-2.7h-2.2z" fill="#6F4C47"></path><path id="eIx2T8u56vV177" d="M919.7 380.7c-.2 0-.5-1.3-1.8-3-1.3-1.8-3.5-3.8-5.3-6.9-.9-1.4-1.4-3-1.5-4.7 0-1.4.2-2.7.7-4 .3-1.2.9-2.3 1.7-3.2.1 0-.5 1.3-1.1 3.4-.3 1.2-.5 2.5-.4 3.7.1 1.5.6 3 1.5 4.3 1.7 2.8 4 5 5.1 7 .7.9 1.1 2.1 1.1 3.4z" fill="#6F4C47"></path><path id="eIx2T8u56vV178" d="M897.8 379.2c-.1.1-1.1-.6-2.4-1.9-.3-.3-.7-.7-1.1-1l-1.4-1-3.2-2.3c-1-.7-2.2-1.1-3.5-1.1-1 .1-2 .4-2.8 1-.8.6-1.4 1.3-1.8 2.2 0 0-.1-.3 0-.8.3-.8.7-1.4 1.3-1.9.9-.8 2-1.3 3.2-1.4 1.4-.1 2.9.4 4.1 1.2 1.2.8 2.2 1.7 3.2 2.5l1.4 1.1 1.1 1.1c.7.6 1.4 1.4 1.9 2.3z" fill="#6F4C47"></path><path id="eIx2T8u56vV179" d="M894.6 355.8c-.3 0-.7-.7-1.2-1.6-.5-.9-.9-1.7-.7-1.9.2-.2 1 .4 1.6 1.4.5 1 .5 2 .3 2.1z" fill="#6F4C47"></path></g></g><path d="M952.3 445.7c-1 0-1.9 0-2.9-.2-16.4-1.7-29.6-14.8-38.3-37.9-4-11-6.8-22.5-8.1-34.2l3.8-.4c0 .7 6.7 65 43.1 68.7 1.1.1 24.9 3 31.5-23.5 3.6-15.5 5.8-31.2 6.8-47 .5-7.5 3.3-31.6 4.7-40.5l1.3-8 3.8.6-1.3 8c-1.3 8.8-4.1 32.7-4.6 40.1-1 16.1-3.3 32-6.9 47.7-6.2 24.2-25.6 26.6-32.9 26.6z" fill="#455A64" style="animation:eIx2T8u56vV180__m 10000ms linear infinite normal forwards"></path><path id="eIx2T8u56vV181" d="M933.6 412.8c-2.4-2.8-4.5-5.8-6.3-8.9-2.1-3-4-6.2-5.5-9.6 2.4 2.8 4.5 5.8 6.3 8.9 2.1 3.1 3.9 6.3 5.5 9.6z" fill="#263238" stroke="none" stroke-width="1"></path><path id="eIx2T8u56vV182" d="M997.8 325.8l-.6-.3c-.4-.2-10.9-5.6-15.8-12.9-4.9-7.3 5.7-39.6 7.9-46l3.6 1.2c-5.2 15.1-11.2 38.3-8.3 42.6 3.8 5.6 11.6 10.1 13.8 11.3 5.7-1.1 19.1-4.1 22.9-6.9 5.3-4 20.9-31.7 26.5-42l3.4 1.8c-2.1 3.8-20.6 37.9-27.5 43.2-5.4 4.1-23.2 7.4-25.2 7.8l-.7.2z" fill="#455A64" stroke="none" stroke-width="1"></path><g transform="translate(1013.5 298.5)" style="animation:eIx2T8u56vV183_tr__tr 10000ms linear infinite normal forwards"><g id="eIx2T8u56vV183" transform="translate(-1013.5 -298.5)" stroke="none" stroke-width="1"><path id="eIx2T8u56vV184" d="M973.4 229.6c-.8-1-1.7-1.8-2.9-2.3h.2c-.2 0-.4-.1-.6-.2-.4-.2-.8-.2-1.2-.2-.4 0-.8.1-1.2.2-1.4.4-2.5 1.2-3.3 2.4-.6 1.1-.9 2.3-.9 3.5 0 1.2.4 2.4 1.1 3.5.4 1 1.2 1.7 2.1 2.3.9.5 2 .7 3 .6 1-.1 2-.5 2.8-1.2.8-.7 1.4-1.6 1.6-2.6.4-1 .5-2 .4-3.1 0-1.1-.4-2.1-1.1-2.9z" fill="#455A64"></path><path id="eIx2T8u56vV185" d="M1035.6 151.6c6.5-6.3 21.3-4.3 24.6.3 2.7-1.1 5.8-1 8.5.1s4.9 3.2 6.1 5.9l15.7 4.5c2.7.5 5.3 1.8 7.4 3.6 1.9 1.9 2.7 5.4.8 7.5 5.5 1.9 7.2 10.3 2.7 14.1.5.7.8 1.4 1 2.2.2.8.2 1.6.1 2.4-.1.8-.4 1.6-.9 2.3-.4.7-1 1.3-1.7 1.7 4 5.6 7.1 11.8 9.1 18.4 1.1 2.7 1.2 5.7.3 8.4-1.2 2.6-4.8 4.3-7 2.4.7 1.2 1.1 2.5 1 3.9 0 1.4-.4 2.7-1.2 3.8 2.7.2 3.2 4.4 1.2 6.3-2 1.8-5 1.9-7.7 1.6-2.7-.3-5.6-.6-7.9.8 0 .3.1.7.2 1 .1.3.3.6.6.8 2.2 1.9 3.5 4.5 3.8 7.3.3 2.8-.6 5.7-2.3 7.9l-1 1.2c-1.7 2.1-5.7 3.8-8.2 5-6.3 2.8-9.9 1.9-16.7 2.5 1.6 4.5-10.1 13.4-22.1 3.1-23 5-46.5 6.6-70 4.8-3.7-.2-8.2-1-9.6-4.5-1.6.2-3.1 0-4.6-.6-1.5-.6-2.7-1.5-3.7-2.7-1.9-2.4-3.5-5.2-4.5-8.2-3.1-1.1-5.9-3.2-7.8-6-1.9-2.7-2.9-6-2.9-9.4-2.1-1.9-3.7-4.1-4.9-6.7-1.1-2.5-1.7-5.3-1.8-8.1-1.5-.6-2.8-1.6-3.9-2.8-1.1-1.2-2-2.6-2.5-4.1-.5-1.5-.8-3.2-.6-4.8.1-1.6.6-3.2 1.3-4.6 1.8-7.6 4.9-14.8 9.2-21.4-4.2-1.2-5.4-7-3.4-10.9 2-3.9 6-6.2 9.9-8.3-3.2.6-5.7-3.5-4.8-6.7 1-3.2 4-5.2 7-6.7 4.3-2.2 8.9-3.9 13.6-5 1.9-5.5 9.5-11.5 14.9-13.6 21.9-8.6 36.9-10.2 62.7 11.3z" fill="#263238"></path><path id="eIx2T8u56vV186" d="M973.9 188.1c2.6-14.5 14.4-31.2 28.7-28l44 16.8c2.1.5 4 1.7 5.2 3.5 1.2 1.8 1.7 3.9 1.4 6.1l-13.6 94.6-35 25.8c-.3-1.9-15.4-25.8-15.4-25.8-.8-7-1.6-14.8-1.6-14.8s-18.3-5.3-19.1-30.1c-.5-12.3 2.5-32.1 5.4-48.1z" fill="#936760"></path><path id="eIx2T8u56vV187" d="M976.4 208.6c-.1.8.1 1.6.6 2.3.5.7 1.2 1.1 2 1.2.4.1.8.1 1.2 0 .4-.1.8-.2 1.1-.5.3-.2.6-.5.8-.9.2-.3.4-.7.4-1.1.1-.8-.1-1.6-.6-2.3-.5-.7-1.2-1.1-2-1.2-.4-.1-.8-.1-1.2 0-.4.1-.8.2-1.1.5-.3.2-.6.5-.8.9-.2.3-.3.7-.4 1.1z" fill="#263238"></path><path id="eIx2T8u56vV188" d="M977 198.9c.3.5 2.9-1 6.3-.6s5.6 2.4 6 2c.4-.4-.1-.9-1.1-1.9-1.3-1.2-3-1.9-4.8-2.1-1.7-.2-3.5.1-5 1-1.1.7-1.6 1.4-1.4 1.6z" fill="#263238"></path><path id="eIx2T8u56vV189" d="M1007 211.5c-.1.8.1 1.6.6 2.3.5.7 1.2 1.1 2 1.2.4.1.8.1 1.2 0 .4-.1.8-.2 1.1-.5.3-.2.6-.5.8-.9.2-.3.4-.7.4-1.1.1-.8-.1-1.6-.6-2.3-.5-.7-1.2-1.1-2-1.2-.4-.1-.8-.1-1.2 0-.4.1-.8.2-1.1.5-.3.3-.6.5-.8.9-.2.3-.4.7-.4 1.1z" fill="#263238"></path><path id="eIx2T8u56vV190" d="M1009.9 203.4c.3.5 2.9-1 6.3-.6 3.3.4 5.6 2.4 6 1.9.4-.5-.1-.9-1.1-1.9-1.3-1.2-3-1.9-4.8-2.1-1.7-.2-3.5.1-5 1-1.1.8-1.6 1.5-1.4 1.7z" fill="#263238"></path><path id="eIx2T8u56vV191" d="M994.8 226.9c-1.7-.8-3.5-1.3-5.3-1.6-.8-.2-1.6-.5-1.7-1.1 0-.9.3-1.8.9-2.5l3.3-6.1c4.6-8.9 8.1-16.2 7.7-16.4-.4-.2-4.4 6.9-9 15.7-1.1 2.2-2.2 4.3-3.2 6.3-.7 1-1 2.1-.8 3.3.1.3.2.6.5.9.2.2.5.4.8.6.5.2.9.3 1.4.4 1.6.3 3.5.5 5.4.5z" fill="#263238"></path><path id="eIx2T8u56vV192" d="M987.7 266.3c11.4 1.5 23.1-.1 33.6-4.8 0 0-7.5 17-32.8 12.7l-.8-7.9z" fill="#6F4C47"></path><path id="eIx2T8u56vV193" d="M994.4 234.9c.9-1 2-1.8 3.3-2.3 1.3-.5 2.6-.7 4-.5.9.1 1.7.4 2.4.9s1.3 1.2 1.7 2c.4.9.6 1.9.4 2.9-.2 1-.6 1.9-1.3 2.6-.7.7-1.6 1.2-2.6 1.4-1 .2-2 .1-2.9-.3-1.8-.8-3.4-2.1-4.6-3.6-.4-.4-.7-.9-.9-1.4-.1-.3-.1-.6-.1-.9.1-.3.2-.6.4-.8h.2z" fill="#6F4C47"></path><path id="eIx2T8u56vV194" d="M1004.4 230.4c-.5-.1-1 3.5-4.4 5.7-3.4 2.2-7.3 1.3-7.3 1.9 0 .2.8.8 2.4 1.1 2.1.3 4.3-.2 6.1-1.4 1.8-1.1 3-2.9 3.5-4.9.2-1.5-.1-2.4-.3-2.4z" fill="#263238"></path><path id="eIx2T8u56vV195" d="M1010 189.4c.2 1 3.6.9 7.5 1.9 3.9 1 6.9 2.4 7.5 1.6.3-.4-.2-1.3-1.3-2.3-1.6-1.3-3.4-2.2-5.4-2.6-2-.5-4-.5-6 0-1.5.4-2.3 1-2.3 1.4z" fill="#263238"></path><path id="eIx2T8u56vV196" d="M979.5 187.5c.5.8 2.9.3 5.7.6 2.8.3 5.1 1.1 5.7.4.3-.3 0-1.2-.9-1.9-1.3-1-2.8-1.6-4.5-1.8-1.6-.1-3.3.2-4.7 1-1.1.5-1.5 1.3-1.3 1.7z" fill="#263238"></path><path id="eIx2T8u56vV197" d="M962.1 199c.4-3.9 2.1-7.5 4.8-10.2 1.7-1.3 3.3-2.6 4.8-4 3-3.4 3-8.4 4.5-12.7 1-2.8 2.6-5.2 4.8-7.2 2.1-2 4.7-3.5 7.5-4.3 4.7-1.3 9.9-.7 14.3-2.7 3.3-1.5 5.9-4.2 9.3-5.5 6.6-2.4 13.7 1.4 19.5 5.4.8 4.9-2.5 8.8-5.7 12.5-1.6 1.9-3.6 3.4-5.9 4.4-2.3 1-4.7 1.5-7.2 1.5-3.8 0-8.2-1.2-11.1 1.3-2.9 2.5-2.3 7.8-4.9 10.9-3.7 4.4-11 2.1-16.2 4.6-4 1.9-5.9 6.4-8.2 10.3-2.2 3.9-5.9 7.7-10.3 7.2-.3-3.8-.4-7.7 0-11.5z" fill="#263238"></path><path id="eIx2T8u56vV198" d="M1021.5 165.8c11.2.6 22.1 3.4 32.3 8.2 3.1 1.2 5.8 3.3 7.7 6.1 1.2 2.7 1.5 5.7 1.1 8.6-.8 9.1-5.3 20-9.4 28.2l-11.9 6c-8.6-2.7-3.5-17.6-2.5-25.2-3-1.6-5.4-4-7-7-1.6-2.9-2.4-6.3-2.3-9.6-2.4-1.8-4.3-4.1-5.7-6.8-1.5-2.6-2.2-5.5-2.3-8.5z" fill="#263238"></path><path id="eIx2T8u56vV199" d="M1041.6 219.7c.7-5.2 7.2-5.7 11.5-2.7 2.3 1.7 4 4.7 3.3 10.2-1.9 14.7-16.3 9.8-16.3 9.3s.6-10.7 1.5-16.8z" fill="#936760"></path><path id="eIx2T8u56vV200" d="M1045.3 231.6s.2.2.6.5c.6.3 1.3.4 1.9.3 1.7-.4 3.3-2.7 3.7-5.3.2-1.3.1-2.6-.2-3.8-.1-.5-.3-.9-.6-1.3s-.7-.7-1.1-.9c-.3-.1-.6-.1-.9 0-.3.1-.6.3-.7.5-.3.4-.2.7-.3.7-.1 0-.3-.3-.1-.9.1-.4.4-.6.7-.8.2-.1.5-.2.7-.2.3 0 .5 0 .8.1.6.2 1.1.5 1.5 1 .4.5.7 1 .8 1.6.5 1.4.6 2.8.3 4.2-.5 2.9-2.4 5.5-4.6 5.9-.4.1-.8 0-1.2-.1-.4-.1-.8-.3-1.1-.6-.2-.5-.2-.9-.2-.9z" fill="#6F4C47"></path><path id="eIx2T8u56vV201" d="M1053.3 235.5c-.8-1-1.7-1.7-2.9-2.3h.2c-.2-.1-.4-.1-.6-.2-.4-.2-.8-.2-1.2-.2-.4 0-.8.1-1.2.2-1.4.4-2.5 1.2-3.3 2.4-.6 1.1-.9 2.3-.9 3.5 0 1.2.4 2.4 1.1 3.4.4.9 1.2 1.7 2.1 2.3.9.5 2 .7 3 .6 1-.1 2-.5 2.8-1.2.8-.7 1.4-1.6 1.6-2.6.4-1 .5-2 .4-3.1-.1-.9-.4-1.9-1.1-2.8z" fill="#455A64"></path><path id="eIx2T8u56vV202" d="M1046.5 237.9v.2c0 .2.1.4.2.6.3.7.9 1.3 1.6 1.7 1.1.6 2.4.9 3.6 1 .8.1 1.6.1 2.4 0 .9-.1 1.8-.3 2.7-.6l-.2-.1c.1 1.3.5 2.5 1.3 3.5.7 1 1.7 1.9 2.8 2.5 1.2.6 2.4.8 3.7.7 1.3-.1 2.5-.5 3.6-1.2h-.3c.2.4.5.7.8.9.3.2.7.4 1.1.5.8.2 1.6.2 2.4 0 .8-.2 1.5-.7 2-1.4s.8-1.5.9-2.4c.2-1.8-.3-3.6-1.3-5.1-1-1.5-2.3-2.9-3.6-4.1v.3c.6-.4 1.2-.8 1.7-1.4.4-.6.8-1.2.9-2 .4-1.4.4-3-.1-4.4-.5-1.4-1.3-2.7-2.3-3.8-1-1.1-2.1-2.2-3.3-3.2v.3c.6-.5 1-1.2 1.3-1.9.3-.7.5-1.5.4-2.3 0-1.6-.4-3.2-1.3-4.5-1.8-2.4-4.2-4.3-6.9-5.6l.1.3c.5-1.5.6-3.1.4-4.7-.3-1.6-.9-3.1-1.9-4.3-1-1.3-2.2-2.3-3.7-3-1.4-.7-3-1-4.6-.9l.2.3c.3-1.3.4-2.6.1-3.8-.3-1.3-.8-2.5-1.6-3.5-.7-1-1.6-1.8-2.6-2.4-1-.6-2.2-1-3.4-1.1l.2.2c.1-1.3-.2-2.5-.7-3.7-.5-1.2-1.3-2.2-2.2-3-.8-.7-1.8-1.3-2.8-1.7-1-.4-2.1-.5-3.3-.5l.2.2c0-1.3-.3-2.6-.9-3.8-.5-1.1-1.3-2.1-2.2-3-1.3-1.4-3-2.3-4.9-2.5h-2l-1.5.3-.8.3-.3.1h.3l.8-.2c.5-.1 1-.2 1.4-.2h1.9c1.8.3 3.5 1.2 4.8 2.6.8.8 1.4 1.8 1.9 2.8.6 1.2.9 2.5.9 3.8v.2h.2c1.1-.1 2.1.1 3.1.5s1.9.9 2.7 1.6c.9.8 1.6 1.8 2.1 2.9.5 1.1.7 2.3.6 3.5v.2h.2c1.2.1 2.3.5 3.2 1.1 1 .6 1.8 1.4 2.5 2.3.7 1 1.3 2.1 1.5 3.3.2 1.2.2 2.5-.1 3.7v.3h.3c1.5-.1 3 .2 4.4.9 1.4.7 2.6 1.6 3.5 2.8.9 1.2 1.5 2.6 1.8 4.1.2 1.5.1 3-.4 4.5v.2h.2c2.6 1.3 4.9 3.1 6.7 5.4.8 1.3 1.3 2.7 1.3 4.3 0 .7-.1 1.4-.4 2.1-.3.7-.7 1.3-1.2 1.7l-.2.2.2.2c2.4 1.8 4.3 4.2 5.5 6.9.4 1.3.5 2.8.1 4.1-.2.6-.4 1.3-.9 1.8-.4.5-.9 1-1.5 1.3l-.3.1.2.2c1.3 1.2 2.5 2.5 3.6 4 1 1.4 1.4 3.1 1.2 4.8 0 .8-.3 1.5-.8 2.2-.5.7-1.1 1.1-1.9 1.3-.7.2-1.4.3-2.1 0-.7-.2-1.3-.7-1.7-1.3l-.1-.2-.1.1c-1.1.7-2.4 1.1-3.7 1.1-1.3 0-2.6-.3-3.8-1-1-.6-1.8-1.4-2.4-2.3-.6-.9-1-2-1.1-3.1v-.2h-.2c-.8.3-1.7.5-2.6.6-.8.1-1.6.1-2.3 0-1.2-.1-2.5-.4-3.6-1-.7-.3-1.3-.9-1.6-1.6.2-.2.1-.4 0-.6z" fill="#455A64"></path><path id="eIx2T8u56vV203" d="M1104 226.2c.2-.3.5-.5.6-.8.5-.9.9-1.9 1-2.9.2-1.6-.1-3.3-.9-4.7-.5-1-1.3-1.8-2.1-2.5-.9-.7-1.9-1.1-3-1.4l.1.2c.7-2.5.4-5.1-.8-7.4-.6-1.3-1.6-2.4-2.7-3.3-1.2-.9-2.5-1.6-3.8-2.2-.7-.3-1.3-.8-1.9-1.3-.6-.5-1-1.2-1.2-1.9-.6-1.5-.6-3.2-1.4-4.7-.8-1.6-2-3-3.6-3.9-1.5-.9-3.3-1.3-5.1-1.2l.3.3c.4-1.8.3-3.6-.1-5.4-.4-1.8-1.3-3.4-2.5-4.8s-2.7-2.5-4.3-3.2c-1.7-.7-3.5-1.1-5.3-1l.2.3c.3-2 .1-4-.6-5.8-.7-1.8-2-3.4-3.6-4.6-1.6-1.1-3.6-1.8-5.5-1.9-2-.1-4 .4-5.7 1.4h.2c-1.4-1.5-3.1-2.7-4.9-3.5-1.7-.8-3.4-1.3-5.2-1.6a26 26 0 00-8.8 0c-1.9.3-3.7.9-5.4 1.8-.4.2-.9.5-1.3.8l-.4.3s.6-.4 1.7-1c1.7-.8 3.5-1.4 5.4-1.7 2.9-.5 5.8-.4 8.7.1 1.8.3 3.5.9 5.1 1.6 1.8.8 3.5 2 4.8 3.5l.1.1h.1c1.6-.9 3.4-1.3 5.2-1.3 1.8 0 3.6.5 5.1 1.5 1.7 1.1 3 2.6 3.8 4.5.8 1.8 1.1 3.9.7 5.8v.3h.3c1.7-.1 3.5.3 5.1 1 1.6.7 3 1.8 4.2 3.1 1.1 1.3 1.9 2.9 2.4 4.6.4 1.7.5 3.5.1 5.2v.3h.3c1.7-.1 3.4.3 4.9 1.2 1.5.9 2.7 2.1 3.4 3.7.7 1.5.8 3.2 1.4 4.7.3.8.7 1.5 1.3 2 .6.5 1.2 1 1.9 1.4 1.3.6 2.6 1.3 3.8 2.1 1.1.9 1.9 1.9 2.6 3.2 1.2 2.2 1.5 4.8.8 7.2v.2h.2c1 .2 2 .7 2.9 1.3.8.6 1.6 1.4 2.1 2.3.8 1.4 1.1 3 .9 4.6-.1 1-.4 2-.9 2.9-.5.2-.7.5-.7.5z" fill="#455A64"></path><path id="eIx2T8u56vV204" d="M962.2 219.9c.1-.2.2-.4.2-.6 0-.2 0-.4-.1-.6-.2-.5-.4-.9-.8-1.3-.5-.5-1.1-.8-1.8-1.1-.8-.3-1.6-.6-2.2-1.1-.8-.6-1.3-1.5-1.5-2.5-.3-1.1-.3-2.3-.1-3.4.1-1.2.4-2.5.5-3.8-.1-3-.5-6-1.2-8.9-.3-1.6-.2-3.3.2-4.9.2-.8.5-1.6 1.1-2.3.6-.7 1.2-1.3 1.9-1.7 1.7-.7 3.5-1.1 5.3-1.4 1-.2 1.9-.5 2.7-1 .9-.5 1.6-1.3 2-2.2.8-1.8 1.5-3.8 1.9-5.7.3-1 .7-1.9 1.2-2.7.6-.8 1.4-1.4 2.3-1.8 1.4-.3 2.8-.3 4.1-.2.7 0 1.4-.1 2.1-.4.7-.2 1.3-.7 1.7-1.3.8-1.1 1.5-2.4 1.9-3.7.5-1.2 1.2-2.3 2.1-3.2.9-.9 1.9-1.6 3.1-2 1.1-.4 2.4-.7 3.6-.6 2.3.1 4.5 1.1 6.1 2.7l.2.2.1-.2c1-1.8 2.3-3.3 3.9-4.5 1.6-1.2 3.5-2 5.4-2.5 1.6-.3 3.3-.3 5 0 1.4.2 2.8.7 4 1.4 1.7 1 3.1 2.5 4 4.3.2.5.5.9.6 1.4l.1.4v.1-.1l-.1-.4-.6-1.5c-.9-1.8-2.3-3.4-4-4.4-1.3-.7-2.6-1.3-4.1-1.5-1.7-.3-3.4-.3-5.1 0-2 .4-3.9 1.3-5.6 2.5-1.6 1.2-3 2.8-4 4.6h.3c-1.7-1.7-4-2.8-6.4-2.9-2-.1-3.9.5-5.6 1.6-1.6 1.1-2.9 2.7-3.6 4.5-.4 1.3-1 2.4-1.8 3.5-.4.5-1 .9-1.6 1.1-.6.3-1.3.4-1.9.3-1.4-.1-2.9 0-4.3.3-1 .3-1.9 1-2.6 1.9-.6.9-1 1.8-1.3 2.9-.4 1.9-1.1 3.8-1.9 5.6-.5.8-1.1 1.6-1.9 2.1-.8.5-1.7.8-2.6 1-1.9.3-3.7.7-5.4 1.4-.8.4-1.5 1-2.1 1.8-.5.7-.9 1.6-1.1 2.4-.4 1.7-.4 3.4-.1 5 .7 2.9 1.2 5.8 1.3 8.8 0 1.4-.3 2.6-.5 3.8-.2 1.2-.1 2.4.2 3.5.2 1 .8 1.9 1.6 2.6.7.5 1.5.9 2.3 1.1.6.2 1.2.5 1.7 1 .4.3.6.8.8 1.2.6.7.5 1.1.4 1.4z" fill="#455A64"></path><path id="eIx2T8u56vV205" d="M935.1 194.9l.2-.3.5-.8 1.8-3.1c.8-1.3 1.6-3 2.9-4.8 1.3-2.1 3.1-3.8 5.3-5 1.2-.6 2.7-.9 4.1-1.4.7-.3 1.4-.6 2.1-1 .7-.5 1.3-1.2 1.6-1.9.8-1.5 1-3.2 1.6-4.8.3-.8.9-1.5 1.6-1.9.8-.4 1.6-.8 2.5-.9.9-.2 1.8-.5 2.7-.8.9-.4 1.7-1.1 2.2-1.9.8-1.8 1.4-3.7 1.7-5.6.2-1 .6-1.9 1.2-2.6.3-.4.7-.7 1.1-.9.4-.2.9-.4 1.4-.4 1.9-.3 4 .6 6.2.4 1.1-.1 2.1-.6 2.9-1.3.8-.7 1.4-1.5 2-2.4.6-.8 1.2-1.7 1.8-2.4.6-.8 1.4-1.3 2.3-1.7 1.9-.5 3.8-.3 5.6.4 1.8.7 3.7 1 5.6.9 1.8-.3 3.5-1 5.1-1.9 1.4-.8 2.9-1.6 4.5-2.1 2.9-.8 6-.6 8.8.4 2.4.8 4.5 2.1 6.3 3.8 1.3 1.3 2.4 2.9 3.3 4.5.5 1.1.9 2.2 1.3 3.3.1.4.2.7.3.9l.1.3v-.3c0-.2-.1-.5-.3-.9-.3-1.2-.7-2.3-1.2-3.4-.8-1.7-1.9-3.3-3.3-4.6-1.8-1.7-4-3.1-6.5-3.8-2.9-1-6-1.2-9-.4-1.6.6-3.1 1.3-4.6 2.1-1.5.9-3.2 1.6-4.9 1.9-1.8.1-3.7-.2-5.4-.9-.9-.3-1.9-.6-2.9-.7-1-.2-2.1-.1-3 .2-1 .4-1.8 1.1-2.5 1.9-.7.8-1.2 1.6-1.9 2.5-.5.8-1.2 1.6-1.9 2.3-.8.7-1.7 1.1-2.7 1.2-2 .2-4.1-.7-6.2-.4-1.1.1-2.1.7-2.7 1.6-.6.8-1 1.8-1.3 2.8-.3 1.9-.8 3.8-1.6 5.5-.4.8-1.1 1.4-1.9 1.8-.8.3-1.7.6-2.6.8-.9.2-1.8.5-2.6 1s-1.4 1.3-1.7 2.1c-.7 1.6-.8 3.4-1.6 4.7-.8 1.3-2.1 2.3-3.6 2.7-1.4.5-2.8.8-4.1 1.4-2.3 1.1-4.1 2.9-5.4 5.1-1.2 1.9-2.1 3.6-2.8 4.9-.7 1.3-1.3 2.4-1.7 3.1-.2.3-.3.6-.4.8-.2.2-.4 0-.3 0z" fill="#455A64"></path><path id="eIx2T8u56vV206" d="M952 180.5h-.3c-.3 0-.6 0-.8.1-.5.2-.9.6-1.1 1-.3.4-.5.9-.5 1.5-.1.8 0 1.5.2 2.2.2.8.3 1.7.2 2.6-.2 1-.6 1.9-1.2 2.7-.6.9-1.4 1.7-2.1 2.7-.4.5-.6 1.1-.7 1.8-.1.6-.1 1.3.1 1.9.4 1.3 1.2 2.4 1.6 3.8.3 1.4 0 2.8-.7 4-.7 1.3-1.6 2.6-2.3 4-.4.7-.6 1.5-.7 2.4 0 .8.1 1.7.4 2.5.7 1.5 1.5 3 2.5 4.4 1 1.4 1.4 3.1 1.2 4.8-.5 1.7-1.3 3.3-2.2 4.9-.4.8-.7 1.7-.7 2.7 0 .9.1 1.8.5 2.7.8 1.6 1.8 3.1 2.9 4.4 1.1 1.3 1.8 2.8 2.3 4.4.3 1.6.7 3.2 1.2 4.7.3.7.8 1.4 1.4 1.9.6.5 1.3.9 2 1.2.7.3 1.4.5 2 .9.6.3 1.2.8 1.6 1.3.9 1 1.6 2.1 2.2 3.4.6 1.1 1.1 2.3 1.8 3.3 1.1 1.9 2.8 3.4 4.9 4.2 1.5.6 3.2.9 4.8.8 1-.1 2.1-.3 3-.7.3-.1.6-.3 1-.5-1.3.6-2.6.9-4 .9-1.6.1-3.2-.2-4.7-.9-2-.8-3.6-2.3-4.7-4.1-.6-1-1.1-2.1-1.7-3.3-.6-1.2-1.3-2.4-2.2-3.4-.5-.5-1.1-1-1.7-1.4-.7-.3-1.3-.7-2-.9-.7-.2-1.3-.6-1.9-1.1-.6-.5-1-1.2-1.2-1.9-.5-1.5-.9-3.1-1.2-4.7-.5-1.7-1.3-3.2-2.4-4.5-1.1-1.3-2.1-2.8-2.8-4.3-.4-.8-.5-1.6-.5-2.5.1-.9.3-1.7.7-2.5.9-1.6 1.7-3.2 2.2-5 .2-.9.1-1.8-.2-2.7-.3-.8-.6-1.6-1.1-2.4-1-1.4-1.8-2.8-2.5-4.3-.3-.7-.4-1.5-.4-2.3.1-.8.3-1.5.6-2.2.6-1.4 1.6-2.7 2.2-4 .8-1.3 1-2.8.7-4.3-.4-1.4-1.2-2.5-1.6-3.8-.2-.6-.2-1.2-.1-1.8.1-.6.3-1.2.7-1.6.6-1 1.4-1.9 2-2.7.7-.8 1.1-1.8 1.3-2.8.1-.9 0-1.8-.2-2.7-.2-.7-.2-1.5-.2-2.2 0-.5.2-1 .5-1.4.3-.4.6-.8 1.1-1 .1-.2.5-.2.8-.2z" fill="#455A64"></path><path id="eIx2T8u56vV207" d="M1103.7 225.7h1.2c1.1-.1 2.2-.5 3.2-1.1 1.6-.9 2.8-2.4 3.4-4.1.4-1.2.6-2.4.5-3.6-.1-1.2-.5-2.4-1.1-3.5-.8-1.2-1.7-2.3-2.7-3.3-1.1-1-2-2.3-2.5-3.7-.4-1.6-.2-3.3.6-4.7.7-1.6 1.7-3 2.3-4.7.7-1.9 1.1-3.9 1-5.9-.1-2-.6-4-1.5-5.8-.9-1.8-2.2-3.4-3.7-4.7-1.6-1.3-3.4-2.3-5.3-2.8l.1.3c.8-.9 1.3-2 1.5-3.1.2-1.2.2-2.4 0-3.5-.2-1.2-.6-2.3-1.3-3.4-.6-1-1.4-2-2.3-2.8-2.8-2.3-6-3.9-9.5-4.7-3.2-.9-6.6-1.3-9.9-1.2l.2.2c.1-1.9-.4-3.8-1.3-5.5-.9-1.7-2.3-3.1-4-4.1-1.6-.9-3.3-1.4-5.1-1.4-1.7.1-3.4.4-5 .9-.8.2-1.5.3-2.3.3-.8 0-1.5-.1-2.2-.4-1.4-.6-2.7-1.3-3.8-2.2-1.1-.8-2.3-1.4-3.6-1.9-1.2-.4-2.5-.7-3.7-.8-2.2-.1-4.3.3-6.3 1.2-1.4.7-2.7 1.7-3.8 2.9-.7.7-1.3 1.6-1.7 2.4-.2.3-.3.6-.4.9 0 0 .1-.3.5-.9.5-.9 1.1-1.6 1.8-2.4 1.1-1.1 2.4-2.1 3.8-2.8 1.5-.7 3.2-1.1 4.8-1.2 1.7-.1 3.4.2 4.9.8 1.3.5 2.4 1.1 3.5 1.9 1.2.9 2.5 1.7 3.8 2.3.8.3 1.5.4 2.3.4.8 0 1.6-.1 2.4-.3 1.6-.5 3.2-.8 4.9-.9 1.7 0 3.4.5 4.9 1.4 1.6.9 2.9 2.3 3.8 3.9.9 1.6 1.3 3.4 1.2 5.3v.2h.2c3.3-.1 6.6.3 9.8 1.2 3.4.8 6.6 2.4 9.3 4.6.9.8 1.6 1.7 2.2 2.7.6 1 1 2.1 1.2 3.2.2 1.1.2 2.2 0 3.4-.2 1.1-.7 2.1-1.4 2.9l-.2.3.3.1c1.9.5 3.7 1.5 5.2 2.7 1.5 1.3 2.8 2.8 3.6 4.6.9 1.8 1.4 3.7 1.5 5.7.1 2-.2 3.9-.9 5.8-.6 1.7-1.6 3.2-2.3 4.7-.8 1.5-1 3.3-.6 4.9.6 1.5 1.5 2.8 2.6 3.8 1 1 1.9 2 2.7 3.2.6 1 1 2.2 1.1 3.3.1 1.2 0 2.4-.4 3.5-.6 1.7-1.8 3.1-3.3 4.1-1 .6-2 1-3.1 1.2-.7.2-1.1.2-1.1.2z" fill="#263238"></path><path id="eIx2T8u56vV208" d="M947.5 170v-.3l.1-.8c.1-.7.3-1.8.5-3.2.2-1.4.6-3 1.1-5 .6-2.2 1.4-4.3 2.4-6.2 1.3-2.4 3.1-4.5 5.2-6.1 1.2-.9 2.5-1.6 4-2.1 1.5-.4 3.1-.8 4.7-1 1.7-.3 3.3-.8 4.8-1.7 1.5-1 2.9-2.1 4.1-3.5 1.2-1.3 2.4-2.7 3.8-3.8 1.4-1.3 3-2.3 4.7-3 3.5-1.2 7.2-1.8 10.9-1.5 3.4.1 6.9.5 10.3 1.2 5.7 1 11.3 3 16.4 5.9 3.4 1.9 6.5 4.4 9.2 7.4.5.5.9 1 1.2 1.4l.8 1.1.5.7.2.2-.1-.2-.5-.7-.8-1.1-1.2-1.4c-2.6-3-5.7-5.5-9.1-7.5-5.1-2.9-10.7-5-16.5-6.1-3.4-.7-6.9-1.1-10.3-1.2-3.7-.3-7.5.2-11 1.5-1.8.7-3.4 1.7-4.8 3s-2.6 2.6-3.8 3.9c-1.2 1.3-2.5 2.4-3.9 3.4-1.4.9-3 1.4-4.7 1.7-1.6.2-3.2.6-4.7 1-1.5.5-2.8 1.2-4.1 2.1-2.2 1.7-4 3.8-5.3 6.3-1 2-1.9 4.1-2.4 6.3-.4 1.6-.8 3.3-1 5-.2 1.4-.4 2.5-.5 3.2v.8c0 .2-.2.3-.2.3z" fill="#263238"></path></g></g><path id="eIx2T8u56vV209" fill="#263238" stroke="none" stroke-width="1" d="M698.9 559.3l-.5 6-3.9 52.9h-64.7l-1.5-32.5-1.3 32.5h-67.1l-4.2-39.1-1.5-14.8-.9-7.7 8-42.1.5-3 .1-.5 3-15.6 1.4-7.6h125z"></path><path id="eIx2T8u56vV210" d="M627.1 267l-55.5 3-4.5 20.9s15.3 12.3 16.8 12.8 36.4 5.4 36.4 5.4 37.6-17.5 37-17.3c-.5.1-30.2-24.8-30.2-24.8z" fill="#FFC5B0" stroke="none" stroke-width="1"></path><path id="eIx2T8u56vV211" d="M630.4 266.8c2.2 0 25.6-3.1 39.9 6.3 14.3 9.4 52.7 82.3 52.7 82.3s11.7 38.8-4.8 46.5c-16.5 7.7-60 31.1-60 31.1l-10.6-38.4 30-13.9v-37l-47.2-76.9z" fill="#ff7674" stroke="none" stroke-width="1"></path><path id="eIx2T8u56vV212" d="M575.4 292.2s21.1 12.2 37.2 8.7c10.2-2.5 19.7-7.6 27.4-14.8l28.4 64.9-16.9 130.2-50.7 6.6L584 364.4l-8.6-72.2z" fill="#FFF" stroke="none" stroke-width="1"></path><path id="eIx2T8u56vV213" d="M582 265.4l-9.5 3.8-17.6 132.9s-13.7 55.3-12.4 79.2c1.2 23.9 12.4 97.9 12.4 97.9l80.6-9.8-3.3-145.3s5.8-41.8-11.4-67.1c-17.4-25.4-38.8-91.6-38.8-91.6z" fill="#ff7674" stroke="none" stroke-width="1"></path><path id="eIx2T8u56vV214" d="M627.1 266.3c1.1 1.8 17.8 79 16 95.2-1.8 16.2-11.5 50.3-11.5 50.3v160.8l67.7-7.5s5.6-58.7 0-86.9c-5.6-28.1-13.6-61.5-13.6-61.5l-5.3-98.2-34.2-52.3-19.1.1z" fill="#ff7674" stroke="none" stroke-width="1"></path><path id="eIx2T8u56vV215" d="M608 402.1c.4-.2 14.6-7.9 18.2-8.3 3.6-.5 31.4-1.8 31.4-1.8l7.4 26.8s-23.1 11.2-26.8 12.1c-3.7.9-18.7 6.4-21.3 6.4-2.6 0-9.7-2.4-9.7-4 0-.4.1-.9.2-1.3.2-.4.5-.7.8-1 3.2.1 6.5-.1 9.7-.6 1.7-.6 3.3-1.3 4.9-2.1 0 0-25.4 3.8-27.2 3.3-1.8-.6-3.1-4.3-3.1-4.3s-3-2.1-3.3-4c-.3-1.9.7-2.8 2.4-3.6 1.6-.7 12.7-5.7 15.9-6.5 3.3-.8 11.9-2.4 11.9-2.4s-26.2 2.8-27.8 2.1c-1.6-.7-3.4-3.6-.7-5.2 3.3-2.1 6.8-3.6 10.6-4.6 2.9-.5 6.5-1 6.5-1z" fill="#FFC5B0" stroke="none" stroke-width="1"></path><path id="eIx2T8u56vV216" d="M626.6 418.1c-1.6.8-3.2 1.4-4.9 1.9-3.1 1.1-7.4 2.5-12.3 3.7-4.9 1.2-9.3 2.1-12.5 2.6-1.7.4-3.5.5-5.3.6 1.7-.5 3.4-.9 5.2-1.2 3.2-.7 7.7-1.6 12.4-2.8 4.8-1.2 9.2-2.5 12.3-3.4 1.7-.7 3.4-1.1 5.1-1.4z" fill="#F6957F" stroke="none" stroke-width="1"></path><path id="eIx2T8u56vV217" d="M624.2 398c-2.5 1-5.2 1.8-7.9 2.2-2.6.7-5.4 1.2-8.1 1.3 2.5-1 5.2-1.8 7.9-2.2 2.6-.7 5.3-1.1 8.1-1.3z" fill="#F6957F" stroke="none" stroke-width="1"></path><path id="eIx2T8u56vV218" d="M687.6 375.7c-1.7 1.1-3.5 2-5.4 2.7-3.4 1.6-8.1 3.7-13.4 5.9-5.3 2.2-10.1 4.2-13.6 5.5-1.7.7-3.2 1.2-4.2 1.5-.5.2-1 .4-1.6.4 1.8-1 3.6-1.8 5.5-2.5l13.4-5.7 13.4-5.7c2-.8 3.9-1.5 5.9-2.1z" fill="#263238" stroke="none" stroke-width="1"></path><path id="eIx2T8u56vV219" d="M652.8 303l.6.6 1.6 1.9c1.4 1.6 3.5 3.8 6.2 6.5s6 5.7 9.6 9.6c3.9 3.9 7.3 8.3 10.2 13 2.8 4.8 4.7 10.1 5.5 15.6.7 5 .9 9.6 1 13.4.2 3.8.2 6.9.2 9.1v3.4c-.1-.3-.1-.6-.1-.8 0-.7 0-1.5-.2-2.5-.1-2.3-.3-5.3-.5-9s-.5-8.3-1.2-13.4c-.8-5.4-2.6-10.5-5.4-15.2-2.9-4.6-6.2-8.9-10-12.8-3.5-3.7-6.7-6.8-9.4-9.6-2.6-2.7-4.7-5.1-6.1-6.7l-1.5-1.9c-.3-1-.5-1.2-.5-1.2z" fill="#263238" stroke="none" stroke-width="1"></path><path id="eIx2T8u56vV220" d="M580.6 423.6c-.6.1-1.3.1-1.9 0-.7 0-1.5 0-2.2-.1-.9 0-1.9-.1-3-.3-2.6-.4-5.1-.9-7.7-1.7-3-.9-6-2.1-8.9-3.4-5.2-2.4-10.2-5.2-15-8.5-1.9-1.2-3.3-2.3-4.3-3-.5-.3-1-.8-1.5-1.2.6.2 1.2.6 1.7.9l4.4 2.8c4.8 3 9.9 5.8 15 8.2 2.9 1.3 5.8 2.4 8.8 3.4 2.4.8 4.9 1.4 7.4 1.9 4.5.7 7.2.8 7.2 1z" fill="#263238" stroke="none" stroke-width="1"></path><path id="eIx2T8u56vV221" d="M598.5 446.6c-1-.1-2-.3-2.9-.6-1.1-.2-2.3-.6-3.4-.9-1.3-.4-2.8-.8-4.4-1.4-3.8-1.4-7.4-3-11-4.8-4.3-2.3-8.5-4.8-12.6-7.5-7.3-5.1-14.2-10.7-20.6-16.9-2.5-2.4-4.4-4.3-5.7-5.7-.7-.7-1.3-1.4-1.9-2.2.8.6 1.5 1.2 2.2 1.9 1.4 1.3 3.4 3.2 5.9 5.5 6.5 6 13.4 11.6 20.6 16.6 4 2.7 8.2 5.2 12.5 7.5 3.5 1.9 7.1 3.5 10.8 4.9 1.6.7 3 1.1 4.3 1.6 1.3.4 2.4.8 3.3 1.1 1 .2 2 .5 2.9.9z" fill="#263238" stroke="none" stroke-width="1"></path><path id="eIx2T8u56vV222" d="M718.5 401.7c-.8.6-1.7 1.1-2.6 1.6l-7.2 3.8c-6.1 3.3-14.6 7.7-23.9 12.6-9.4 4.9-18.3 9.5-24.5 12.6l-.4.2-.1-.4c-.8-3.1-1.5-5.7-1.9-7.7-.3-.9-.5-1.8-.6-2.8.4.9.7 1.8.9 2.7.6 1.9 1.3 4.5 2.2 7.5l-.4-.2c6.1-3.3 14.7-7.8 24.4-12.8 9.6-5 17.9-9.2 24.1-12.4l7.3-3.7c.9-.4 1.8-.7 2.7-1z" fill="#263238" stroke="none" stroke-width="1"></path><path id="eIx2T8u56vV223" d="M539 522.2c.1-.6.1-.9.1-.9l19.2-10.8s13.9 18.2 15.7 21.1c1.7 3 3.6 12.9 6.5 17.3s-.2 5.8-2.2 6.4c-2 .6-16.6-19.3-16.6-19.3l1.9 10.8 8 8.8s1.1 6.7-.4 6.9c-1.5.2-8.3-2.3-8.3-2.3l.2 3.6s3 .6-.8 1.5c-3.8 1-7.7-2.2-7.7-2.2l-1 3.7-10.9-6.4s-5.5-13.3-5.8-14.1c-.4-.8 1.6-19.7 2.1-24.1z" fill="#FFC5B0" stroke="none" stroke-width="1"></path><path id="eIx2T8u56vV224" d="M631 436v1.4c0 1-.2 2.3-.3 4-.3 3.5-.6 8.5-.9 14.7-.5 12.4-.7 29.6-.4 48.5.3 19 .9 36.1 1.4 48.5.2 6.1.4 11.1.6 14.7 0 1.7.1 3 .1 4v1.4c-.1-.5-.2-.9-.2-1.4 0-1-.2-2.3-.3-4-.2-3.5-.6-8.5-.9-14.7-.7-12.4-1.4-29.6-1.7-48.6-.3-19 0-36.2.7-48.6.4-6.2.7-11.2 1.2-14.7.2-1.6.4-3 .5-4 0-.3 0-.8.2-1.2z" fill="#263238" stroke="none" stroke-width="1"></path><path id="eIx2T8u56vV225" d="M572.4 269.2s-30.6 13.1-40.2 33.8c-9.6 20.7-28.8 86.5-29.3 98.7-.4 12.2 31.6 126.6 31.6 126.6l35.6-22.5-16.3-93.2 10.8-71.6 7.8-71.8z" fill="#ff7674" stroke="none" stroke-width="1"></path><path id="eIx2T8u56vV226" d="M554.8 292.2s.5.3 1.4.9c1.2.9 2.3 2 3.2 3.1 1.5 1.6 2.9 3.4 4 5.3 1.4 2.3 2.5 4.7 3.4 7.2.8 2.5 1.4 5.1 1.7 7.8.2 2.2.2 4.3 0 6.5-.1 1.5-.4 2.9-.7 4.3-.3 1-.5 1.5-.5 1.5-.1 0 .4-2.2.6-5.9.1-2.1 0-4.2-.2-6.3-.3-2.6-.9-5.2-1.7-7.7-.9-2.5-2-4.8-3.3-7.1-1.1-1.8-2.3-3.6-3.7-5.3-2.5-2.8-4.4-4.3-4.2-4.3z" fill="#263238" stroke="none" stroke-width="1"></path><g transform="translate(612.2 290.6)" style="animation:eIx2T8u56vV227_tr__tr 10000ms linear infinite normal forwards"><g id="eIx2T8u56vV227" transform="translate(-612.2 -290.6)" stroke="none" stroke-width="1"><path id="eIx2T8u56vV228" d="M544.8 209c.4 8.7.5 18.3-4.9 25.2-2.9 3.8-7.4 6.4-9.5 10.7-2.8 5.4-1.2 12.1-2.6 18-1.3 5.3-4.8 9.7-6.9 14.8-1.6 3.7-2.4 7.8-2.1 11.9.2 4.1 1.4 8 3.4 11.6 2.1 3.5 5.1 6.3 8.7 8.2 3.6 1.9 7.7 2.7 11.8 2.3 6.8-.8 12.7-5.2 17.4-10.2 5.2-5.7 11.2-12.4 13.8-19.7 2.6-7.3 3.7-15.1 3.3-22.8-.5-7.7-4.4-15.3-7.8-22.3-3.4-7-8.2-13.1-14.1-18.2l-10.5-9.5z" fill="#B55B52"></path><path id="eIx2T8u56vV229" d="M663.1 230.2c-3.2-5.1-7-10.4-6.5-16.3.5-6.7 6.6-12.7 5.1-19.3-.9-4.1-4.5-7.1-6.8-10.7-4.1-6.5-3.6-14.5-3.7-22-.1-7.5-1.4-15.9-7.7-20.6-6.3-4.8-14.4-4.5-21.6-6.7-3.7-1.2-7.2-3.2-10.9-4.5-7.9-2.6-17.5-3.9-25.2-.8-5.5 2-10.5 5-14.7 8.9-6.1 4.5-8.1 15.1-9.6 22.3-1.9 8.7-2.4 18-7.2 25.7-3 4.7-7.4 8.5-11.1 12.7-3.7 4.2-6.9 9.3-6.7 14.7.3 6.2 5 12 4 18.1-.6 3.5-3 6.6-4 10-1.8 6.4 1.7 13.4 6.9 17.7 5.3 4.3 12 6.9 18.7 9.2 6.7 2.3 9.4-4.2 15 0s10.7-.5 18 1.3c6.2 1.6 10.8.8 16.7-1.4 10.8-4 23.5 1.3 34.8 1.4 3.3-3.9 5.5-8.5 9.2-12.1 3.7-3.6 9-6.4 11.1-11.2 2.3-5.1-.6-11.2-3.8-16.4z" fill="#B55B52"></path><path id="eIx2T8u56vV230" d="M650.6 161c-.7 8.5 1.7 17 6.9 23.8 5.2 6.7 11.5 13.2 12 21.6.4 6.2-2.5 12.3-2.2 18.5.6 14.9 18.1 24.1 21.1 38.7.8 3.8.5 7.8-.8 11.5s-3.6 7-6.6 9.4c-3 2.5-6.7 4.1-10.6 4.6-3.9.5-7.8 0-11.4-1.5-10.7-4.6-15.9-17.2-15.8-28.8 0-11.6 4-22.8 6.7-34.1 4.9-20.2 2.2-37.7-1.1-58.2l1.8-5.5z" fill="#B55B52"></path><path id="eIx2T8u56vV231" d="M602.4 294.1c-6.5.1-9-5.1-13.6-9.5-5.6-11.8-11.3-17.9-11.3-17.9l-2.4-77.2c-1.3-21.7 10.1-40.5 31.8-41.2h1.9c9.7.2 19 4.1 26 10.9 7 6.8 11.2 15.9 11.7 25.7 1.1 18.8 1.9 39.5 1.6 49.6-.8 20.8-21.7 23.5-21.7 23.5s.6 4.5.7 10.6c.1 3.3-1.1 6.8-2.3 9.9-1.2 3-3 5.8-5.2 8.2-2.3 2.3-5 4.2-8 5.5-2.7 1.2-6 1.9-9.2 1.9z" fill="#FFC5B0"></path><path id="eIx2T8u56vV232" d="M626.8 258.2c-9.6-.3-18.9-3.3-26.8-8.7 0 0 6.2 15.3 27.1 13.9l-.3-5.2z" fill="#F6957F"></path><path id="eIx2T8u56vV233" d="M612.1 224.6c.6-.6 1.4-1.1 2.3-1.3.9-.2 1.8-.1 2.6.2.8.3 1.5.9 2 1.6.5.7.8 1.6.8 2.5 0 .9-.3 1.8-.8 2.5s-1.2 1.3-2 1.7c-1.2.4-2.4.5-3.6.1-.9-.2-1.7-.7-2.3-1.4-.4-.6-.6-1.2-.7-1.9-.1-.7.1-1.3.3-2 .4-1 1-1.9 1.9-2.6l-.5.6z" fill="#F6957F"></path><path id="eIx2T8u56vV234" d="M641.4 200.4c0 .8-.3 1.5-.9 2.1-.5.5-1.3.9-2.1.9-.4 0-.8 0-1.1-.2-.4-.1-.7-.3-1-.6-.3-.3-.5-.6-.7-.9-.2-.3-.2-.7-.3-1.1 0-.8.3-1.5.9-2.1.5-.5 1.3-.9 2.1-.9.4 0 .8 0 1.1.2.4.1.7.3 1 .6.3.3.5.6.7.9.2.3.3.7.3 1.1z" fill="#263238"></path><path id="eIx2T8u56vV235" d="M642.1 195c-.4.4-2.6-1.3-5.7-1.4-3.2-.1-5.6 1.5-5.9 1.1-.3-.4.2-.9 1.3-1.6 1.4-.9 3.1-1.4 4.7-1.3 1.7 0 3.3.6 4.6 1.6.8.7 1.2 1.4 1 1.6z" fill="#263238"></path><path id="eIx2T8u56vV236" d="M610.9 200.4c0 .8-.3 1.5-.9 2.1-.5.5-1.3.9-2.1.9-.4 0-.8 0-1.1-.2-.4-.1-.7-.3-1-.6-.3-.3-.5-.6-.7-.9-.2-.3-.2-.7-.3-1.1 0-.8.3-1.5.9-2.1.6-.5 1.3-.9 2.1-.9.4 0 .8 0 1.1.2.4.1.7.3 1 .6.3.3.5.6.7.9.2.4.3.7.3 1.1z" fill="#263238"></path><path id="eIx2T8u56vV237" d="M611.3 195c-.4.4-2.6-1.3-5.7-1.4-3.1-.1-5.6 1.5-5.9 1.1-.3-.4.2-.9 1.3-1.6 1.4-.9 3.1-1.4 4.7-1.3 1.7 0 3.3.6 4.6 1.6.9.7 1.2 1.4 1 1.6z" fill="#263238"></path><path id="eIx2T8u56vV238" d="M621.6 219c1.7-.5 3.5-.8 5.2-.8.8 0 1.6-.2 1.7-.8.1-.8-.1-1.7-.5-2.4l-2.3-6.3c-3.1-8.9-5.4-16.3-5-16.4.4-.1 3.2 7 6.3 15.9.7 2.2 1.5 4.3 2.2 6.3.5 1 .6 2.1.3 3.2-.1.3-.3.5-.6.7-.2.2-.5.3-.8.4-.5.1-.9.2-1.4.2-1.6.3-3.4.3-5.1 0z" fill="#263238"></path><path id="eIx2T8u56vV239" d="M612.1 221c.5 0 .4 3.5 3.3 6s6.6 2.2 6.6 2.7-.8.7-2.4.7c-2 0-4-.8-5.5-2.1a7.67 7.67 0 01-2.6-5c0-1.5.4-2.3.6-2.3z" fill="#263238"></path><path id="eIx2T8u56vV240" d="M611.7 182.5c-.3.9-3.5.4-7.3.7-3.8.4-6.8 1.3-7.3.5-.2-.4.3-1.2 1.6-1.9 1.7-1 3.5-1.6 5.5-1.8 2-.2 3.9.1 5.7.8 1.2.6 1.9 1.3 1.8 1.7z" fill="#B55B52"></path><path id="eIx2T8u56vV241" d="M641 185.9c-.6.7-2.8-.1-5.4-.2-2.7-.1-4.9.4-5.4-.4-.2-.4.2-1.1 1.1-1.7 1.3-.8 2.9-1.2 4.4-1.1 1.6.1 3 .6 4.3 1.6 1 .7 1.3 1.4 1 1.8z" fill="#B55B52"></path><path id="eIx2T8u56vV242" d="M576.4 205.1c-.3-.2-14.2-4.6-14.1 9.7.1 14.2 14.4 11.2 14.4 10.8.1-.4-.3-20.5-.3-20.5z" fill="#FFC5B0"></path><path id="eIx2T8u56vV243" d="M572.3 220.2s-.2.2-.7.4c-.3.1-.6.2-1 .2s-.7-.1-1-.2c-.9-.6-1.7-1.4-2.2-2.3-.5-1-.8-2-.7-3.1 0-1.2.2-2.4.7-3.6.1-.5.4-.9.7-1.2.3-.3.7-.6 1.2-.7.3-.1.6-.1.9.1.3.1.5.3.6.6.2.4 0 .7.2.7s.3-.2.2-.8c-.1-.4-.3-.7-.6-.9-.4-.3-.9-.4-1.4-.4-.6.1-1.1.4-1.6.8-.4.4-.8.9-1 1.4-.6 1.2-.9 2.6-.8 4 .1 2.9 1.6 5.6 3.7 6.1.4.1.8.1 1.2.1.4-.1.8-.2 1.1-.4.5-.4.6-.7.5-.8z" fill="#F6957F"></path><path id="eIx2T8u56vV244" d="M673 252.8c.4-.1.8-.1 1.2-.2 1.1-.2 2.1-.7 2.9-1.5 1.3-1.3 2.2-2.9 2.5-4.6.5-2.3.1-4.8-1.2-6.8-1.5-2.5-3.3-4.8-5.5-6.7-2.6-2.3-4.9-4.8-6.9-7.6-1.1-1.6-1.8-3.4-2.2-5.3-.3-2-.1-4 .5-5.9 1.3-3.8 3.9-7.1 5.4-10.8.8-1.8 1.1-3.7 1.1-5.6 0-1.9-.5-3.8-1.3-5.6-1.5-3.4-3.7-6.4-6.4-8.9-2.5-2.5-5.2-4.7-7.5-6.9-2.2-2-4.2-4.2-5.8-6.7-2.4-3.7-3.4-8.1-2.7-12.5.2-1.2.7-2.3 1.3-3.3.2-.4.5-.7.7-1-.7 1.4-1.3 2.9-1.6 4.5-.5 4.2.6 8.5 3 12 1.7 2.4 3.6 4.6 5.8 6.5 2.2 2.2 5 4.3 7.6 6.8 2.8 2.6 5.1 5.7 6.7 9.2.8 1.9 1.3 3.9 1.4 6 0 2.1-.4 4.3-1.2 6.2-1.7 3.9-4.2 7.1-5.4 10.7-.6 1.7-.8 3.5-.6 5.3.2 1.8.9 3.5 2 5 1.9 2.7 4.2 5.3 6.7 7.5 2.2 2 4.1 4.4 5.6 7 .6 1.2 1 2.5 1.3 3.8.2 1.2.1 2.4-.2 3.5-.4 1.9-1.4 3.6-2.8 4.8-.9.8-2 1.3-3.2 1.4-.5 0-.9-.1-1.2-.3z" fill="#B55B52"></path><path id="eIx2T8u56vV245" d="M651 168.3c-2.5 2.7-2.6 4.9-6 6.3-3.3 1.4-6.9 2-10.5 1.8-3.6-.2-7.1-1.1-10.4-2.8-3.2-1.7-6-4-8.2-6.8-1.4 2.3-3.3 4.3-5.6 5.7-2.3 1.4-4.9 2.2-7.6 2.4-2.7.1-5.4-.4-7.8-1.5-2.4-1.2-4.6-2.9-6.1-5.1 2.8 9.9 1.9 20.5-2.3 29.9-.8 2-2 3.8-3.6 5.2-1.7 1.3-5.9 2.4-7.8 1.4-1.9-1-.9-3.3-1.6-5.2-3.8-10.2-3.5-21.5.9-31.5s12.5-17.8 22.6-21.9c10.1-4.1 21.4-4.1 31.5 0 10 4.2 18.1 12.1 22.5 22.1z" fill="#B55B52"></path></g></g><path id="eIx2T8u56vV246" d="M340.7 133.8c1.1-2.1 2.8-3.8 5-4.9 2.1-1.1 4.5-1.5 6.9-1.1 2.8-2.1 6.2-3.3 9.7-3.3 3.5 0 6.9 1.2 9.7 3.4 2.1-1.3 4.4-2 6.8-2.1 2.4-.1 4.8.5 6.9 1.6 2.1 1.1 4 2.8 5.3 4.8 1.3 2 2.1 4.4 2.2 6.8 2.4-.5 4.9-.1 7.2 1 2.2 1.1 4.1 2.8 5.2 5 1.1 2.2 1.6 4.7 1.3 7.1-.3 2.5-1.5 4.7-3.2 6.5 2.7.8 4.9 2.6 6.3 5 1.4 2.4 1.9 5.2 1.4 7.9s-2.1 5.1-4.3 6.8c-2.2 1.7-5 2.4-7.8 2.2l-56.2-33.6c-1.7-1.7-2.8-3.8-3.2-6.2-.5-2.3-.2-4.7.8-6.9z" fill="#E0E0E0" stroke="none" stroke-width="1"></path><path id="eIx2T8u56vV247" d="M400.9 182c-1.1-11.9-6.7-22.9-15.6-30.9-8.9-8-20.5-12.3-32.4-12.2h-2.5c-26.5 1.9-39.7 25.6-37.1 52.1l5.1 88.5.3 4.3 61.5 11.4-.4-22.6s25.5-4.3 25.4-29.9c0-12.4-2.1-37.8-4.3-60.7z" fill="#FFBE9D" stroke="none" stroke-width="1"></path><path id="eIx2T8u56vV248" d="M380 272.5c-11.9.2-23.5-3.1-33.6-9.3 0 0 8.2 18.3 33.6 15.6v-6.3z" fill="#EB996E" stroke="none" stroke-width="1"></path><path id="eIx2T8u56vV249" d="M390.9 205.6c0 1-.3 1.9-1 2.6-.6.7-1.5 1.1-2.5 1.2-.5 0-.9 0-1.4-.2-.4-.1-.9-.4-1.2-.7-.4-.3-.6-.7-.9-1.1-.2-.4-.3-.9-.4-1.3 0-.9.3-1.9 1-2.6.6-.7 1.5-1.1 2.5-1.2.5 0 .9 0 1.4.2.4.1.9.4 1.2.7.4.3.6.7.9 1.1.2.4.3.8.4 1.3z" fill="#263238" stroke="none" stroke-width="1"></path><path id="eIx2T8u56vV250" d="M395.6 194.5c-.4.5-3.3-1.5-7.2-1.5-3.9.1-6.8 2.1-7.2 1.6-.2-.2.2-1.1 1.5-2 1.7-1.2 3.7-1.9 5.8-1.9 2 0 4 .6 5.7 1.7 1.1 1.1 1.6 1.9 1.4 2.1z" fill="#263238" stroke="none" stroke-width="1"></path><path id="eIx2T8u56vV251" d="M354.3 206.6c0 1-.3 1.9-1 2.6-.6.7-1.5 1.1-2.5 1.2-.5 0-.9 0-1.4-.2-.4-.1-.9-.4-1.2-.7-.4-.3-.6-.7-.9-1.1-.2-.4-.3-.9-.4-1.3 0-1 .3-1.9 1-2.6.6-.7 1.5-1.1 2.5-1.2.5 0 .9 0 1.4.2.4.1.9.4 1.2.7.4.3.6.7.9 1.1.3.3.4.8.4 1.3z" fill="#263238" stroke="none" stroke-width="1"></path><path id="eIx2T8u56vV252" d="M357 195.8c-.4.5-3.3-1.5-7.2-1.5-3.9.1-6.8 2.1-7.2 1.6-.2-.2.2-1.1 1.5-2 1.7-1.2 3.7-1.8 5.8-1.9 2 0 4 .6 5.7 1.7 1.2 1.1 1.6 1.9 1.4 2.1z" fill="#263238" stroke="none" stroke-width="1"></path><path id="eIx2T8u56vV253" d="M371.7 224.7c2.1-.7 4.2-1.1 6.4-1.2 1-.1 1.9-.3 2.1-1 .1-1-.2-2.1-.7-3-1-2.4-2-4.9-3.1-7.6-4.3-10.8-7.4-19.7-6.9-19.9.4-.2 4.2 8.5 8.5 19.3 1 2.7 2 5.2 3 7.6.6 1.2.8 2.6.6 3.9-.1.4-.4.7-.6.9-.3.3-.6.4-1 .6-.5.2-1.1.2-1.6.3-4.2.3-6.7.4-6.7.1z" fill="#263238" stroke="none" stroke-width="1"></path><path id="eIx2T8u56vV254" d="M360.2 227.6c.6 0 .7 4.2 4.4 7.2s8.2 2.4 8.3 3c0 .3-1 .8-2.9.9-2.5.1-4.9-.7-6.9-2.3-1.9-1.5-3.1-3.7-3.4-6-.3-1.7.2-2.8.5-2.8z" fill="#263238" stroke="none" stroke-width="1"></path><path id="eIx2T8u56vV255" d="M357.7 180.4c-.4 1.1-4.3.6-8.9 1.2-4.6.6-8.3 1.9-8.9 1-.3-.5.4-1.5 1.8-2.5 2-1.3 4.3-2.1 6.6-2.4 2.4-.3 4.7 0 7 .8 1.8.6 2.7 1.4 2.4 1.9z" fill="#E0E0E0" stroke="none" stroke-width="1"></path><path id="eIx2T8u56vV256" d="M394 183.2c-.7.9-3.4 0-6.6 0-3.3 0-6 .7-6.6-.2-.3-.5.1-1.4 1.3-2.2 1.6-1.1 3.5-1.6 5.4-1.5 1.9 0 3.8.6 5.3 1.7 1.1.8 1.5 1.8 1.2 2.2z" fill="#E0E0E0" stroke="none" stroke-width="1"></path><path id="eIx2T8u56vV257" d="M398.3 170.3s-7-15.9-14.7-19.5c-9.4-4.4-13.3 5.9-22.2 3.6-8.9-2.4-18-6.5-26.9.5-9.8 7.7-5.1 12.9-5.6 24.2-1.8 46-10 59.1-12.7 37.6-.3-2.4-6.9-4.1-8-14.2-1.5-13-2.2-28.7.6-38 2.3-7.8 6.7-13.2 14.6-19.3 12.4-9.5 29.6-10 41.4-9 11.6 1 34.2 14 33.5 34.1z" fill="#E0E0E0" stroke="none" stroke-width="1"></path><path id="eIx2T8u56vV258" d="M317.7 215.8c0-.9-.3-1.8-.7-2.7-.4-.8-1-1.6-1.7-2.2-.7-.6-1.5-1.1-2.4-1.4-.9-.3-1.8-.4-2.8-.3-4.8.5-10 3.3-9.6 13.1.8 17.4 18.2 13.1 18.2 12.5.1-.4-.6-11.8-1-19z" fill="#FFBE9D" stroke="none" stroke-width="1"></path><path id="eIx2T8u56vV259" d="M314.7 228.5s-.3.2-.8.5c-.7.3-1.5.4-2.3.1-1.9-.6-3.6-3.4-3.8-6.5-.1-1.5.1-3 .6-4.4.1-.6.4-1.1.8-1.5.4-.4.9-.8 1.4-1 .3-.1.7-.1 1 .1.3.1.6.4.8.7.3.5.2.8.3.9.1 0 .4-.3.2-1-.1-.4-.4-.8-.7-1.1-.5-.3-1.1-.5-1.6-.4-.7.2-1.4.5-1.9 1s-.9 1.1-1.2 1.8c-.7 1.5-1 3.2-.8 4.9.3 3.5 2.2 6.7 4.8 7.3.5.1 1 .1 1.4 0 .5-.1.9-.3 1.3-.6.4-.4.5-.8.5-.8z" fill="#EB996E" stroke="none" stroke-width="1"></path><path id="eIx2T8u56vV260" d="M317.6 181.9c2.2 1.7 4.7 2.8 7.4 3.3 2.7.2 5.8-1.4 6.3-4.1.2-1.2-.1-2.6.7-3.6.8-.9 2.7-.8 4.2-.7 2.6.2 5.1-.6 7.2-2.1 2.1-1.5 3.6-3.6 4.3-6.1 1.3 1.9 4.3 1.8 6.3.5 1.8-1.5 3.4-3.2 4.7-5.1.7-1 1.6-1.7 2.6-2.3 1-.5 2.2-.8 3.4-.8 1.2.4 2.5.7 3.8.8 2.3-.2 3.4-2.9 3.7-5.2.3-2.3.5-4.9 2.5-6.2 1.9-1.3 4.1-.6 6.2-.3 2.1.3 4.9-.3 5.4-2.3.1-.6 0-1.1-.1-1.7-.1-.5-.4-1-.7-1.5-1.4-2.1-3.6-3.6-6-4.4-2.4-.7-5-.6-7.4.3-.9-2.9-2.6-5.5-5-7.4-2.4-1.9-5.2-3.1-8.3-3.3-3-.3-6.1.4-8.7 1.8-2.7 1.5-4.8 3.7-6.2 6.3-1.9-1.7-4.1-2.8-6.6-3.4-2.4-.6-5-.6-7.4 0-2.4.6-4.7 1.8-6.6 3.4-1.9 1.6-3.3 3.7-4.3 6.1-2.1-.5-4.4-.4-6.5.3-2.1.7-3.9 2.1-5.2 3.8-1.3 1.8-2.1 3.9-2.2 6.1-.1 2.2.4 4.4 1.5 6.3-3.1 1.8-5.8 5-5.8 8.6 0 3.6 3.6 7.2 7 6.2-.7 1.4-.8 3.1-.3 4.6.5 1.5 1.5 2.8 2.9 3.5 1.4.8 3 1 4.5.6s2.9-1.3 3.7-2.6l-1 .6z" fill="#E0E0E0" stroke="none" stroke-width="1"></path><path id="eIx2T8u56vV261" d="M306.3 175.3c-.1.6 0 1.2.2 1.8.2.6.5 1.1.9 1.5.9 1.1 2.1 1.8 3.5 2 .9.1 1.8 0 2.6-.2.8-.3 1.6-.7 2.3-1.3l-.7-.1c.9 1.6 2.1 3.1 3.5 4.3 1 .9 2.1 1.5 3.3 1.9 1.1.4 2.3.5 3.5.3 1-.1 2-.4 2.8-.9.9-.5 1.6-1.2 2.2-2 .7-1.1 1.2-2.4 1.4-3.7.2-.9.2-1.4.1-1.4-.2.4-.4.8-.5 1.3-.4 1.2-.9 2.3-1.6 3.3-1.6 2.5-7 3.9-10.5.4-1.3-1.2-2.5-2.5-3.4-4l-.3-.5-.4.4c-.6.5-1.2.9-1.9 1.2-.7.2-1.5.3-2.3.2-1.2-.1-2.4-.7-3.2-1.6-.7-.9-1.2-1.9-1.5-2.9z" fill="#FFF" stroke="none" stroke-width="1"></path><path id="eIx2T8u56vV262" d="M338.7 135s.5.1 1.2.4c1.1.5 2.1 1.2 2.7 2.3l.2.3.2-.3c2.2-3 5-5.4 8.3-7 2.1-1 4.5-1.6 6.9-1.6 2.6 0 5.2.7 7.4 2 1.8 1 3.3 2.4 4.5 4.1 1.1 1.6 1.8 3.4 2 5.2v.6l.5-.2c2.4-.7 5-.4 7.3.8 1.8.9 3.2 2.4 4 4.2.7 1.6 1.1 3.4 1.2 5.2.2-.4.3-.9.2-1.4 0-1.7-.5-3.5-1.4-5-.9-1.5-2.1-2.8-3.7-3.6-2.4-1.4-5.2-1.7-7.9-1l.6.4c-.2-2-1-4-2.1-5.7-1.4-2-3.3-3.7-5.6-4.8-2.2-1.1-4.7-1.7-7.2-1.7-2.5.1-4.9.7-7.1 1.8-3.4 1.7-6.3 4.3-8.4 7.4h.5c-.8-1.1-1.9-1.9-3.1-2.2-.2-.2-.7-.3-1.2-.2z" fill="#FFF" stroke="none" stroke-width="1"></path><path id="eIx2T8u56vV263" d="M354.2 230.3c.3 0 .4-1.8 1.8-3.4 1.5-1.5 3.3-1.8 3.3-2.1 0-.3-.5-.3-1.3-.1-1 .2-2 .8-2.7 1.6-.7.8-1.2 1.7-1.3 2.8-.1.7.1 1.2.2 1.2z" fill="#EB996E" stroke="none" stroke-width="1"></path><path id="eIx2T8u56vV264" d="M352.6 225.5c.2.1.9-.5 1.8-.9s1.8-.6 1.8-.9c0-.3-1-.7-2.3 0-1.2.7-1.6 1.6-1.3 1.8z" fill="#EB996E" stroke="none" stroke-width="1"></path><path id="eIx2T8u56vV265" d="M512.2 343.2s-3.9 15.8-6.5 20.1c-1.5 2.4-2.5 5.1-3 7.9l-1.6 25.3 20.7 20.4 40.1-29.9s14.4-14 10.5-19.4c0 0-1.9-2.6-5.3 0 0 0 15-11.6 11.5-16.2s-8.6 2-14.1 6.6c-5.4 4.6-7.2 5.9-7.2 5.9l15.6-15.1s4.4-3.9.5-7c-3.9-3.2-9.7 4.8-12.4 6.4-2.7 1.6-18.1 16.3-18.1 16.3s10.6-13.5 11.4-14.3c.8-.7 10.4-8 6.8-12.1-3.6-4.2-12.8 6-15.8 8.3-3 2.3-14.5 16-17 17.3-2.5 1.4-7.2 5.4-10 4.1-2.8-1.3 3-11.8 2.1-15.6-.9-3.8-2.4-11-8.2-9z" fill="#FFBE9D" stroke="none" stroke-width="1"></path><path id="eIx2T8u56vV266" d="M522.1 392c.6-1.2 1.1-2.4 1.5-3.7.6-3.2.2-6.4-1.1-9.4-1.4-3.6-3.3-6.5-4.3-8.9-.4-.9-.7-2-.7-3 0-.7.2-1.1.2-1.1.2 1.3.6 2.6 1.2 3.8 1.7 2.8 3.3 5.8 4.6 8.8 1.4 3.1 1.7 6.6.8 10-.3 1.4-1.1 2.6-2.2 3.5z" fill="#EB996E" stroke="none" stroke-width="1"></path><path id="eIx2T8u56vV267" d="M550 383.8c-.1 0 .5-1.5 2.5-2.8 2-1.3 5-2.3 7.2-4.7 1-1.2 1.8-2.6 2.6-4 .6-1.2 1.4-2.3 2.4-3.3 1.6-1.6 3.3-1.8 3.3-1.6-1 .6-1.9 1.3-2.7 2.1-.8 1-1.5 2.1-2.1 3.3-.7 1.5-1.6 2.9-2.6 4.2-1.2 1.2-2.6 2.1-4.1 2.8-1.3.7-2.5 1.2-3.5 1.7-1.2.8-2.1 1.5-3 2.3z" fill="#EB996E" stroke="none" stroke-width="1"></path><path id="eIx2T8u56vV268" d="M435.6 618H307.3v-46.4l128.3-14.4V618z" fill="#263238" stroke="none" stroke-width="1"></path><path id="eIx2T8u56vV269" d="M380 281.7l-9.3 5.8-53.3-22.9-2.4 11.8 48.2 100.1 2.9 190.8 52.2-4.3L386 305.3l-6-23.6z" fill="#f7565e" stroke="none" stroke-width="1"></path><path id="eIx2T8u56vV270" d="M330.1 286.8c.6.4 1.2.8 1.9 1.1l5.2 2.9c4.4 2.4 10.4 5.8 17.1 9.7l8.4 4.9.4.2.2-.3c2.6-4.7 4.1-9 5.5-11.9.7-1.5 1.2-2.6 1.6-3.4.2-.4.4-.8.5-1.2-.3.3-.6.7-.8 1.1-.4.8-1.1 1.9-1.8 3.3-1.5 2.9-3.1 7.1-5.7 11.7l.6-.1c-2.6-1.6-5.4-3.3-8.4-4.9-6.6-3.8-12.8-7.2-17.2-9.5-2.2-1.2-4.1-2.1-5.3-2.7-.8-.5-1.5-.7-2.2-.9z" fill="#263238" stroke="none" stroke-width="1"></path><path id="eIx2T8u56vV271" d="M540.3 435.2s-10.8 9.4-25.3 20.9c-9.7 7.7-21 16.2-31.9 23.5-8.2 5.5-16.2 10.3-23.1 13.5-5 2.3-9.3 3.7-12.7 3.9h-.8l1 8.3.3 2.4.1.5v.2l.2 1.6 1.1 8.6 12.6 99.8h-43.6v-.2l-6.1-54.5-.4-3.6-5.2-46.6-.1-1.2v-.1l-.2-1.7-1.1-9.8-3-26.5v-.8l-5.5-49.2-2.9-26.3v-.2l-11.5-100.6-.1-1-2-14.1v-.2c.8.4 8.8 11.6 10.9 14.4h.1l27.2 10.4c3.5 1.3 6.6 3.5 9 6.3 6 6.8 16.5 21.6 22.9 45.7 4.7 17.9 9.5 33.5 13 43.8 2.8 8.5 4.7 13.5 4.7 13.5l11-8.2 19.3-14.4 3.1 3.1 2.1 2.1 18.6 18.4 18.3 18.3z" fill="#EBEBEB" stroke="none" stroke-width="1"></path><path id="eIx2T8u56vV272" d="M431.2 336.7v.4c0 .3 0 .8.1 1.3.1 1.2.3 2.9.6 5 .5 4.4 1.2 10.7 2.1 18.3 1.8 15.5 4 36.9 6.3 60.6 2.2 23.7 4.1 45.2 5.4 60.7.7 7.7 1.2 14 1.6 18.4.2 2.1.4 3.8.5 5 0 .5.1 1 .1 1.3V507.6v-1.3c0-1.2-.2-2.9-.3-5-.3-4.4-.8-10.7-1.3-18.4-1.2-15.6-2.9-37-5.2-60.7-2.2-23.7-4.6-45.1-6.5-60.6-.9-7.7-1.8-14-2.4-18.3-.3-2.1-.5-3.8-.7-4.9l-.2-1.3c0-.1 0-.2-.1-.4z" fill="#263238" stroke="none" stroke-width="1"></path><path id="eIx2T8u56vV273" d="M300.7 458.5c2.8-2.3 5.8-4.3 8.9-6 3.3-1.5 6.7-2.6 10.2-3.4-1.1-.1-2.2 0-3.3.2-5.1 1-9.9 3.3-13.8 6.8-.8.6-1.5 1.4-2 2.4z" fill="#263238" stroke="none" stroke-width="1"></path><path id="eIx2T8u56vV274" d="M262 316.8s10.8-8.5 21.8-17.3c10.9-8.8 29.1-21.9 29.1-21.9l3.3-11s9.6 10.1 18 28.5c12.1 26.3 26.1 64.8 28.9 81.3L380 618H255l29.1-171.7L262 316.8z" fill="#EBEBEB" stroke="none" stroke-width="1"></path><path id="eIx2T8u56vV275" d="M364 392l-.6-1.2-1.8-3.3-6.7-12.1c-5.8-10.2-13.7-24.3-22.4-39.8l-1.2-2.1v.3c.9-3.2 1.8-6.3 2.7-9.3l.1-.3-.2-.2-6.7-4.7.1.2c-4.1-12.1-7.7-22.6-10.3-30.1-1.3-3.6-2.3-6.5-3-8.7-.3-.9-.6-1.6-.8-2.3-.1-.3-.2-.5-.3-.8 0 .3.1.6.2.8.2.6.4 1.4.7 2.4.7 2.1 1.6 5 2.8 8.7l10 30.2v.1l.1.1 6.7 4.8-.2-.5c-.9 3-1.8 6.1-2.8 9.3v.2l.1.1 1.2 2.1c8.8 15.5 16.8 29.4 22.6 39.7l6.9 12c.8 1.4 1.4 2.4 1.9 3.3.3.4.6.7.9 1.1z" fill="#263238" stroke="none" stroke-width="1"></path><path id="eIx2T8u56vV276" d="M393.4 397.8c.1-.3.2-.7.2-1.1.1-.8.3-1.9.6-3.2.5-2.8 1.1-6.8 1.9-11.6 1.5-9.9 3.6-23.5 5.9-38.4.2-1.6.5-3.1.7-4.6v-.2l-5.7-10.3-.2.6 5.7-1.9.4-.1-.1-.4-8.3-22c-1-2.6-1.8-4.7-2.4-6.2-.3-.7-.5-1.2-.7-1.6l-.3-.6c0 .2.1.4.2.6l.6 1.6c.6 1.6 1.3 3.7 2.2 6.3l8 22.1.2-.5-5.7 1.8-.5.1.2.4 5.7 10.3v-.3c-.2 1.5-.5 3.1-.7 4.6-2.2 15-4.1 28.5-5.6 38.5-.7 4.9-1.2 8.8-1.6 11.7-.2 1.3-.3 2.4-.4 3.3-.3.4-.3.8-.3 1.1z" fill="#263238" stroke="none" stroke-width="1"></path><path id="eIx2T8u56vV277" d="M382.1 297.1c-1.2 1.8-2.1 3.7-2.9 5.7h.7c-.7-1.4-1.6-2.9-2.7-4.5-1.7-2.7-3.4-5.1-4.6-6.8-.6-1-1.2-1.9-2-2.8.3 1.1.8 2.1 1.5 3.1 1 1.8 2.6 4.3 4.3 6.9 1 1.6 2 3.1 2.7 4.4l.4.7.3-.7c1-1.9 1.8-3.9 2.3-6z" fill="#263238" stroke="none" stroke-width="1"></path><path id="eIx2T8u56vV278" d="M396.5 564.8v-.7c0-.5-.1-1.2-.2-2.1-.1-1.9-.4-4.6-.7-8-.6-7-1.5-17.1-2.6-29.5-2.3-24.9-5.5-59.3-9-97.3s-6.9-72.4-9.3-97.3c-1.2-12.4-2.2-22.5-2.9-29.5l-.8-8c-.1-.9-.2-1.6-.2-2.1 0-.2 0-.5-.1-.7v.7c0 .5 0 1.2.1 2.1.2 1.9.4 4.6.7 8 .6 7 1.5 17.1 2.6 29.5 2.3 24.9 5.5 59.3 9 97.3s6.9 72.3 9.3 97.3c1.2 12.4 2.2 22.5 2.9 29.5.4 3.4.6 6.1.8 8 .1.9.2 1.6.2 2.1.1.2.2.5.2.7z" fill="#263238" stroke="none" stroke-width="1"></path><g id="eIx2T8u56vV279" opacity=".2"><path id="eIx2T8u56vV280" d="M314.1 281.2L326 324l5 1.9-3.4 10.7 34 51.1-30.6-54 2.7-9.3-6.7-4.7-12.9-38.5z" opacity=".2" fill="#000" stroke="none" stroke-width="1"></path></g><g id="eIx2T8u56vV281" opacity=".2"><path id="eIx2T8u56vV282" d="M369.3 291.3l-3.1 22.3-30.3-23.5 26.9 14.9 6.5-13.7z" opacity=".2" fill="#000" stroke="none" stroke-width="1"></path></g><g id="eIx2T8u56vV283" opacity=".2"><path id="eIx2T8u56vV284" d="M447.9 508.3l1.3 10.1s-6.1 7.9-12.1 6.2c-6-1.7-30.9-12.5-30.9-12.5l.4-3.8s14.6-6 15.4-5.8c.8.2 25.9 5.8 25.9 5.8z" opacity=".2" fill="#000" stroke="none" stroke-width="1"></path></g><g id="eIx2T8u56vV285" opacity=".2"><path id="eIx2T8u56vV286" d="M399.9 530.8l-.7 9.4s-45.2-5.2-64.6-12.6c0 0-38-14.1-48.8-27.4 17.2 6.9 34.8 12.6 52.8 17.1l61.3 13.5z" opacity=".2" fill="#000" stroke="none" stroke-width="1"></path></g><path id="eIx2T8u56vV287" d="M364.4 466.3l56.6-74.8c.6-.8 1.4-1.4 2.3-1.7.9-.3 1.9-.3 2.9 0l86.7 29.6c.7.2 1.4.7 1.9 1.2s.9 1.2 1.1 1.9c.2.7.2 1.5.1 2.2-.2.7-.5 1.4-1 2l-70.5 84.8c-.6.7-1.4 1.3-2.4 1.5-.9.2-1.9.2-2.8-.1l-81-29.5c-.7-.3-1.3-.7-1.8-1.2s-.9-1.2-1.1-1.9c-.2-.7-.2-1.5-.1-2.2.1-.7.5-1.4.9-2l8.2-9.8z" fill="#455A64" stroke="none" stroke-width="1"></path><path id="eIx2T8u56vV288" d="M479.3 417c0 .5-.2.9-.5 1.3s-.7.7-1.1.9c-.4.2-.9.2-1.4.1-.5-.1-.9-.3-1.2-.7-.3-.3-.5-.8-.6-1.3-.1-.5 0-1 .2-1.4.2-.4.5-.8.9-1.1.4-.3.9-.4 1.3-.4.3 0 .6.1.9.2.3.1.6.3.8.5.2.2.4.5.5.8.2.4.3.7.2 1.1z" fill="#263238" stroke="none" stroke-width="1"></path><path id="eIx2T8u56vV289" d="M461.8 411c0 .5-.2.9-.5 1.3s-.7.7-1.1.8c-.4.2-.9.2-1.4.1-.5-.1-.9-.4-1.2-.7-.3-.3-.5-.8-.6-1.3-.1-.5 0-.9.2-1.4.2-.5.5-.8.9-1 .4-.2.9-.4 1.3-.4.3 0 .6.1.9.2.3.1.5.3.8.6.2.2.4.5.5.8.2.4.2.7.2 1z" fill="#263238" stroke="none" stroke-width="1"></path><path id="eIx2T8u56vV290" d="M411.6 479.5l4.5-1s1.9-7.5 3.9-9c2.1-1.5 22.3-9.9 26.8-12.2 4.5-2.2 21.9-9.5 23.9-5.2 2.3 4.8-4.9 8.4-8.7 10.1-3.8 1.7-14.8 5.5-12.7 8.2 2.1 2.7 27.3 2.5 27.3 2.5l2.9-3.4s4.5 4.5 3.7 8.8c-.4 2.5-1.3 4.9-2.6 7.1h-1.8c.5.8.7 1.7.7 2.6 0 .9-.3 1.8-.7 2.6-1.5 2.1-3.2 4-5 5.8 0 0-3 5.9-11.7 7.9-1 .2-41 2.3-41 2.3l-14.5 3.3 5-30.4z" fill="#FFBE9D" stroke="none" stroke-width="1"></path><path id="eIx2T8u56vV291" d="M306.4 337c.5 1 12.3 111.5 12.3 111.5l93.2 28.3-8.9 54.8S277.1 509 264.1 485.4c-11.1-20.1-13.7-105.5-14.2-130.7-.2-6.1.5-12.2 2.1-18.2 1.8-7.1 5-15.6 10.1-19.6 9.4-7.5 44.3 20.1 44.3 20.1z" fill="#EBEBEB" stroke="none" stroke-width="1"></path><path id="eIx2T8u56vV292" d="M309 360s0 .6.1 1.6c.1 1.1.3 2.7.5 4.7.4 4.2 1.1 10.2 1.9 18 1.6 15.5 4.1 37.6 6.9 64.1v.2h.2l93.2 28.3-.3-.5c0 .4-.1.8-.2 1.1-3.1 18.8-6 36.9-8.7 53.6l.5-.3c-37.9-7.2-70.2-15.1-92.9-22.1-2.8-.8-5.5-1.8-8-2.6l-3.6-1.2-3.4-1.3c-2.2-.8-4.2-1.6-6-2.3l-4.9-2.2c-1.3-.5-2.6-1.1-3.9-1.8l-2.8-1.5-1.6-.9-.6-.3c.2.1.4.2.5.3l1.6.9 2.7 1.5c1.2.7 2.5 1.3 3.8 1.9l4.9 2.2c1.8.8 3.9 1.5 6 2.4l3.4 1.3 3.6 1.2c2.5.8 5.1 1.8 8 2.7 22.5 7.2 54.9 15.2 92.9 22.4l.4.1v-.4c2.7-16.7 5.7-34.8 8.7-53.6 0-.4.1-.8.2-1.1v-.4l-.4-.1-93.2-28.2.2.3c-3-26.6-5.5-48.6-7.2-64.1-.9-7.7-1.6-13.8-2.1-18-.2-2-.4-3.6-.6-4.7.2-.8.2-1.2.2-1.2z" fill="#263238" stroke="none" stroke-width="1"></path><path id="eIx2T8u56vV293" d="M268 314.4c0 .2 2.6 0 6.8.5 2.4.3 4.8.9 7.2 1.6 2.8 1 5.6 2.2 8.2 3.7 2.6 1.5 5 3.3 7.3 5.3 1.8 1.7 3.4 3.5 4.9 5.4 2.5 3.3 3.7 5.7 3.8 5.7-.2-.6-.4-1.1-.7-1.6-.3-.7-.7-1.3-1-1.9-.5-.8-1-1.6-1.6-2.4-1.4-2-3.1-3.9-4.9-5.6-2.3-2.1-4.7-3.9-7.4-5.5-2.7-1.5-5.5-2.7-8.4-3.7-2.4-.7-4.8-1.2-7.3-1.5-1-.1-1.9-.2-2.9-.2h-2.2c-.7 0-1.3.1-1.8.2z" fill="#263238" stroke="none" stroke-width="1"></path><path id="eIx2T8u56vV294" d="M562.8 427.5v-40.1l-4.1 1.8-4.7 27.1 10.3 73v-2.4l-1.5-59.4z" fill="#9A70C8" stroke="none" stroke-width="1"></path><path id="eIx2T8u56vV295" d="M558 391.7l-3.8 22.6 12.3 94.2-31.3 19.7" fill="none" stroke="#263238" stroke-width=".7" stroke-linejoin="round"></path><path id="eIx2T8u56vV296" d="M660.5 432l25.5-13.1 1.9 7.8-27.4 5.3z" fill="#9A70C8" stroke="none" stroke-width="1"></path><path id="eIx2T8u56vV297" d="M999.4 618.2h.7" fill="#FFF" stroke="#000" stroke-width="1.012" stroke-miterlimit="10"></path><g id="eIx2T8u56vV298" transform="rotate(-3.178 4365.44 -212.45) scale(1.36)" stroke="none" stroke-width="1"><path id="eIx2T8u56vV299" d="M109.136 172.825c-2.574-7.399-10.54-13.113-18.209-11.479a17.137 17.137 0 00-10.706 8.236 30.636 30.636 0 00-2.252 4.234 34.41 34.41 0 00-3.153-3.629 17.196 17.196 0 00-12.276-5.636c-7.837.115-14.335 7.463-15.198 15.249-.862 7.785 2.921 15.532 8.313 21.232a44.061 44.061 0 0027.641 14.323c8.48-2.986 18.505-13.229 22.481-19.985 3.977-6.756 5.945-15.133 3.359-22.545z" fill="#f7565e"></path><path id="eIx2T8u56vV300" d="M109.316 187.095h-.257l-.747.116-2.895.373-10.63 1.287.155-.154c-.553 3.538-1.196 7.721-1.904 12.25l-.116.747-.322-.682-8.274-17.205-2.69-5.611h.464l-5.61 12.662v.116h-.13l-18.736 2.021-5.314.54-1.403.116a2.852 2.852 0 01-.489 0c.154-.052.314-.083.476-.09l1.403-.193 5.289-.669 18.723-2.201-.193.129 5.572-12.675.219-.502.244.502 2.638 5.687c2.947 6.164 5.74 12.007 8.223 17.231l-.438.064 2.008-12.25v-.142h.129l10.655-1.119 2.908-.283h.759l.283-.065z" fill="#FAFAFA"></path></g></svg>