<svg id="eHkuJhdrA921" xmlns="http://www.w3.org/2000/svg" viewBox="0 0 1123 705" shape-rendering="geometricPrecision" text-rendering="geometricPrecision"><style>@keyframes eHkuJhdrA922_tk__tk{0%,to{transform:translate(568.907516px,430px) skewX(0deg) skewY(0deg)}50%{transform:translate(568.907516px,430px) skewX(-5deg) skewY(-2deg)}}@keyframes eHkuJhdrA9216_tr__tr{0%,to{transform:translate(392.389px,385.566px) rotate(0deg)}50%{transform:translate(392.389px,385.566px) rotate(5deg)}}@keyframes eHkuJhdrA9254_tr__tr{0%,to{transform:translate(200.019577px,424.063309px) rotate(-3deg)}50%{transform:translate(200.019577px,424.063309px) rotate(8deg)}}@keyframes eHkuJhdrA9257_tr__tr{0%,50%,to{transform:translate(1048.150024px,116.872196px) rotate(0deg)}}@keyframes eHkuJhdrA9257_ts__ts{0%,to{transform:scale(.8,.8)}50%{transform:scale(1,1)}}@keyframes eHkuJhdrA9260_tr__tr{0%{transform:translate(131.795048px,136.647999px) rotate(0deg)}50%{transform:translate(131.795048px,136.647999px) rotate(90deg)}to{transform:translate(131.795048px,136.647999px) rotate(180deg)}}@keyframes eHkuJhdrA9260_ts__ts{0%,99.333333%,to{transform:scale(1,1)}49.333333%{transform:scale(.7,.7)}}@keyframes eHkuJhdrA9263_ts__ts{0%,to{transform:translate(546.438995px,197.949852px) scale(1,1)}50%{transform:translate(546.438995px,197.949852px) scale(.8,.8)}}@keyframes eHkuJhdrA9269_to__to{0%,to{transform:translate(999.661011px,418.005508px)}50%{transform:translate(999.661011px,412px)}}@keyframes eHkuJhdrA9273_tr__tr{0%,to{transform:translate(736.175793px,478.915771px) rotate(0deg)}33.333333%{transform:translate(736.175793px,478.915771px) rotate(-3deg)}63.333333%{transform:translate(736.175793px,478.915771px) rotate(-1deg)}}@keyframes eHkuJhdrA9277_tr__tr{0%,to{transform:translate(761.712158px,406.0625px) rotate(0deg)}50%{transform:translate(761.712158px,406.0625px) rotate(-2deg)}}@keyframes eHkuJhdrA92114_tr__tr{0%,to{transform:translate(686.268982px,80.644001px) rotate(0deg)}50%{transform:translate(686.268982px,80.644001px) rotate(13deg)}}@keyframes eHkuJhdrA92125_ts__ts{0%,to{transform:translate(205.474998px,254.822006px) scale(1,1)}50%{transform:translate(205.474998px,254.822006px) scale(1.1,1.1)}}@keyframes eHkuJhdrA92126_to__to{0%,to{transform:translate(1068.155029px,635.134491px)}50%{transform:translate(1068.155029px,621px)}}@keyframes eHkuJhdrA92130_ts__ts{0%,to{transform:translate(814.012512px,14.120906px) scale(1,1)}50%{transform:translate(814.012512px,14.120906px) scale(1.1,1.1)}}@keyframes eHkuJhdrA92133_ts__ts{0%,to{transform:translate(76.152203px,340.091507px) scale(1,1)}50%{transform:translate(76.152203px,340.091507px) scale(.9,.9)}}@keyframes eHkuJhdrA92136_ts__ts{0%,to{transform:translate(1105.204956px,19.025205px) scale(1,1)}50%{transform:translate(1105.204956px,19.025205px) scale(.9,.9)}}@keyframes eHkuJhdrA92139_ts__ts{0%,to{transform:translate(45.974449px,26.1443px) scale(1,1)}50%{transform:translate(45.974449px,26.1443px) scale(1.1,1.1)}}@keyframes eHkuJhdrA92142_ts__ts{0%,to{transform:translate(430.467499px,128.025501px) scale(1,1)}50%{transform:translate(430.467499px,128.025501px) scale(1.3,1.3)}}</style><defs><linearGradient id="eHkuJhdrA922-fill" x1="359.697" y1="303" x2="623.697" y2="729" spreadMethod="pad" gradientUnits="userSpaceOnUse"><stop id="eHkuJhdrA922-fill-0" offset="0%" stop-color="#FFF4F3"/><stop id="eHkuJhdrA922-fill-1" offset="100%" stop-color="#FFD5C4"/></linearGradient></defs><g transform="translate(568.908 430)" style="animation:eHkuJhdrA922_tk__tk 3000ms linear infinite normal forwards"><path id="eHkuJhdrA922" d="M147.015 699.997c-5.372-43.189-.316-74.829 19.276-113.588s54.668-70.557 96.696-81.156c47.558-12.024 102.068 2.214 143.622-23.889 42.66-26.735 57.986-88.592 105.544-105.361 22.12-7.752 47.084-3.48 68.888-12.814 20.856-8.859 32.864-29.267 40.764-49.833 20.698-54.421 27.176-120.707 70.942-163.104 79.632-77.36 238.422-12.498 260.226 89.541 11.218 52.364-7.742 104.57-20.066 154.878-5.53 22.464-12.166 43.505-4.424 65.495 8.216 23.255 24.964 39.233 39.5 58.533 17.854 23.73 25.28 54.263 24.806 83.688-.474 38.917-15.642 71.349-44.24 97.768" transform="translate(-568.908 -408.166)" fill="url(#eHkuJhdrA922-fill)" stroke="none" stroke-width="1"/></g><path id="eHkuJhdrA923" d="M552.127 701.263l.474-71.348c-1.738-43.189-4.898-89.7-32.548-123.08-28.124-34.013-85.636-44.296-104.912-83.846h-56.722c-19.276 39.55-76.63 49.833-104.912 83.846-27.65 33.38-30.81 79.891-32.548 123.08l-1.264 71.348" fill="#6542A6" stroke="none" stroke-width="1"/><path id="eHkuJhdrA924" d="M513.575 604.603c1.422-29.425-21.33-120.865-21.33-120.865 3.002 1.266 11.692 5.063 23.7 13.289 0 0 14.852 8.701 20.382 17.718 12.482 20.566 19.592 66.919 23.226 94.446 3.634 27.527 5.372 63.913 5.846 92.072h-59.566c-.158 0 6.478-70.082 7.742-96.66z" fill="#472A8C" stroke="none" stroke-width="1"/><path id="eHkuJhdrA925" d="M338.353 701.263c-2.054-26.577-3.95-53.63-6.004-80.207-2.212-29.425-5.056-79.733-22.436-103.463-8.532-11.707-21.804-21.357-36.34-20.566-12.324.633-22.91 8.701-31.284 17.718-19.118 20.566-30.178 66.919-35.866 94.446-5.688 27.527-8.216 63.913-8.848 92.072h140.778z" fill="#472A8C" stroke="none" stroke-width="1"/><path id="eHkuJhdrA926" d="M332.033 458.109c10.428 21.357 33.022 35.279 56.722 35.121 19.592-.158 47.558-13.922 51.034-35.595" fill="none" stroke="#472A8C" stroke-width="2.286" stroke-linecap="round" stroke-linejoin="round" stroke-miterlimit="10"/><path id="eHkuJhdrA927" d="M422.883 455.578c3.318 4.904 7.268 9.492 11.692 13.447" fill="none" stroke="#472A8C" stroke-width="2.286" stroke-linecap="round" stroke-linejoin="round" stroke-miterlimit="10"/><path id="eHkuJhdrA928" d="M405.188 472.98s5.529 15.346 5.371 14.713" fill="none" stroke="#472A8C" stroke-width="2.286" stroke-linecap="round" stroke-linejoin="round" stroke-miterlimit="10"/><path id="eHkuJhdrA929" d="M381.329 492.597c1.264-4.587 2.844-15.029 2.844-15.029" fill="none" stroke="#472A8C" stroke-width="2.286" stroke-linecap="round" stroke-linejoin="round" stroke-miterlimit="10"/><path id="eHkuJhdrA9210" d="M357.155 483.58c2.37-4.272 4.74-8.543 7.11-12.656" fill="none" stroke="#472A8C" stroke-width="2.286" stroke-linecap="round" stroke-linejoin="round" stroke-miterlimit="10"/><path id="eHkuJhdrA9211" d="M339.617 466.652c3.95-3.48 8.058-6.802 12.008-10.283" fill="none" stroke="#472A8C" stroke-width="2.286" stroke-linecap="round" stroke-linejoin="round" stroke-miterlimit="10"/><path id="eHkuJhdrA9212" d="M202.947 662.82c43.608 8.543 88.796 8.385 132.246-.316" fill="none" stroke="#6542A6" stroke-width="2.286" stroke-linecap="round" stroke-linejoin="round" stroke-miterlimit="10"/><path id="eHkuJhdrA9213" d="M416.405 629.282c12.482 9.018 25.122 17.877 37.604 26.894" fill="none" stroke="#472A8C" stroke-width="2.286" stroke-linecap="round" stroke-linejoin="round" stroke-miterlimit="10"/><path id="eHkuJhdrA9214" d="M413.087 637.983l14.694 13.764" fill="none" stroke="#472A8C" stroke-width="2.286" stroke-linecap="round" stroke-linejoin="round" stroke-miterlimit="10"/><path id="eHkuJhdrA9215" d="M349.888 439.6l-1.58-102.829 77.104.474-3.002 102.83c-.632 19.617-16.59 35.279-36.34 35.279-19.75 0-35.866-15.979-36.182-35.754z" fill="#FC7F7A" stroke="none" stroke-width="1"/><g transform="translate(392.389 385.566)" style="animation:eHkuJhdrA9216_tr__tr 3000ms linear infinite normal forwards"><g id="eHkuJhdrA9216" transform="translate(-392.389 -385.566)"><path id="eHkuJhdrA9217" d="M358.893 258.936c-19.75 27.843-20.54 68.975-13.904 100.615 6.952 32.273 31.284 55.528 62.884 54.105 39.816-1.899 62.884-25.312 66.518-65.812 2.37-27.368 1.58-56.952-12.324-80.207-11.06-18.509-34.128-32.431-54.984-32.431-19.75-.158-38.078 9.492-48.19 23.73z" fill="#FF958A" stroke="none" stroke-width="1"/><path id="eHkuJhdrA9218" d="M350.362 354.964c-10.586-5.221-20.856-11.707-26.702-20.566-5.846-8.86-6.636-20.566.632-28.635 2.37-2.689 5.53-4.904 9.48-5.537 2.528-.474 5.214-.158 7.742.159 4.582.632 9.006 1.898 13.272 3.48" fill="#FF958A" stroke="none" stroke-width="1"/><path id="eHkuJhdrA9219" d="M412.93 321.742a3.162 3.162 0 003.16-3.164 3.162 3.162 0 00-3.16-3.164 3.162 3.162 0 00-3.16 3.164 3.162 3.162 0 003.16 3.164z" fill="#050405" stroke="none" stroke-width="1"/><path id="eHkuJhdrA9220" d="M452.745 321.742a3.163 3.163 0 003.161-3.164 3.163 3.163 0 00-3.161-3.164 3.162 3.162 0 00-3.16 3.164 3.162 3.162 0 003.16 3.164z" fill="#050405" stroke="none" stroke-width="1"/><path id="eHkuJhdrA9221" d="M421.619 354.331c6.794 4.271 15.958 4.271 22.91.158" fill="none" stroke="#B22961" stroke-width="2.133" stroke-linecap="round" stroke-linejoin="round" stroke-miterlimit="10"/><path id="eHkuJhdrA9222" d="M436.629 344.048c4.898-2.215 6.952-4.904 7.9-8.859.949-3.955-1.105-7.594-2.686-11.232-1.58-3.797-3.634-7.277-5.214-11.074" fill="none" stroke="#B22961" stroke-width="2.133" stroke-linecap="round" stroke-linejoin="round" stroke-miterlimit="10"/><path id="eHkuJhdrA9223" d="M427.781 340.094a21.31 21.31 0 001.896 3.797" fill="none" stroke="#B22961" stroke-width="2.133" stroke-linecap="round" stroke-linejoin="round" stroke-miterlimit="10"/><path id="eHkuJhdrA9224" d="M392.389 349.902c7.679 0 13.904-6.233 13.904-13.922 0-7.688-6.225-13.921-13.904-13.921s-13.904 6.233-13.904 13.921c0 7.689 6.225 13.922 13.904 13.922z" fill="#D3426F" stroke="none" stroke-width="1"/><path id="eHkuJhdrA9225" d="M475.655 334.873c0 6.802-1.264 14.712-1.264 14.712s-.316 0-.474.159c-.632.158-1.264.158-1.896.158-7.584 0-13.904-6.17-13.904-13.922 0-7.752 6.162-13.921 13.904-13.921 1.106 0 2.054.158 3.16.316.158 0 .474.158.474.158v12.34z" fill="#D3426F" stroke="none" stroke-width="1"/><path id="eHkuJhdrA9226" d="M326.819 317.629c1.738-3.481 5.372-6.012 9.322-6.328 3.95-.317 7.9 1.74 10.112 5.062" fill="none" stroke="#B22961" stroke-width="2.133" stroke-linecap="round" stroke-linejoin="round" stroke-miterlimit="10"/><path id="eHkuJhdrA9227" d="M346.727 338.985c9.322 3.481 15.8 12.498 15.8 22.939 0 13.606-10.902 24.521-24.49 24.521s-24.49-10.915-24.49-24.521a24.572 24.572 0 019.164-19.142" fill="none" stroke="#193139" stroke-width="2.286" stroke-linecap="round" stroke-linejoin="round" stroke-miterlimit="10"/><path id="eHkuJhdrA9228" d="M319.077 323.165c-1.58 1.107-3.792.633-5.688.158-10.27-2.689-20.856-5.695-28.756-12.656-7.9-6.961-12.324-17.718-11.534-28.318.79-10.441 6.794-20.566 15.642-26.261-9.322-14.871-11.376-42.398 4.898-58.692 13.114-13.131 34.286-14.871 50.56-5.537 2.528-4.746 29.546-21.674 53.088-.633 13.114 11.865 17.854 35.12 4.74 46.827l-53.562 64.862s-15.326-6.961-25.28 4.272c-5.056 5.695-4.108 15.978-4.108 15.978z" fill="#922319" stroke="none" stroke-width="1"/><path id="eHkuJhdrA9229" d="M439.157 245.014c-1.896 9.65-9.638 22.781-16.906 29.425-.79.791-2.528 2.215-2.528 2.215l-1.264 1.107s-2.212 9.651-10.902 16.77c-8.058 6.644-21.488 3.48-21.488 3.48l-2.054.791s-27.334 6.17-40.606 2.531c-5.056-1.423-9.796-2.531-14.062.633.158-13.605 1.58-30.058 12.324-46.669 10.744-16.453 35.708-28.476 55.458-27.685 22.594.791 42.502 15.187 42.028 17.402z" fill="#922319" stroke="none" stroke-width="1"/><path id="eHkuJhdrA9230" d="M472.022 289.627c-9.48-.475-23.858-5.695-32.548-24.046-4.424-9.176-9.006-16.295-11.06-26.262 9.48 1.741 17.538 7.436 24.49 14.08 10.586 9.967 19.118 20.883 19.118 36.228z" fill="#922319" stroke="none" stroke-width="1"/><path id="eHkuJhdrA9231" d="M348.94 372.366l.158 5.537c-12.008-6.961-20.698-27.053-19.75-37.177 4.582 3.796 9.48 7.751 14.22 10.283 1.106 9.017 3.318 12.656 5.372 21.357z" fill="#922319" stroke="none" stroke-width="1"/><path id="eHkuJhdrA9232" d="M447.847 261.151c1.422 6.96-1.738 14.554-7.584 18.509s-13.904 4.113-19.908.316c-5.372-3.48-8.69-9.333-11.534-15.187 5.214-6.328 13.272-16.294 21.488-15.662 8.058.633 15.958 3.955 17.538 12.024z" fill="#922319" stroke="none" stroke-width="1"/><path id="eHkuJhdrA9233" d="M387.175 277.919c1.896 7.752 1.264 16.295-2.844 23.098-4.108 6.802-11.692 11.706-19.592 11.548-7.9-.316-15.642-6.17-17.064-14.08 3.634-6.169 11.376-13.763 18.328-15.187 7.11-1.582 14.062-5.853 21.172-5.379z" fill="#922319" stroke="none" stroke-width="1"/><path id="eHkuJhdrA9234" d="M305.49 224.923c.316-.633.474-1.424.632-2.215.632-2.689 2.528-4.904 4.898-6.012 3.634-1.74 8.374-.949 11.692-3.164 2.212-1.423 3.634-3.955 4.108-6.486.79-3.322 0-7.435-2.844-9.334-3.634-2.373-8.532-.474-11.534 2.532-3.318 3.164-5.688 7.119-9.48 9.808-3.318 2.215-7.584 3.48-9.322 7.435-3.476 7.278 8.532 14.397 11.85 7.436z" fill="#A83731" stroke="none" stroke-width="1"/><path id="eHkuJhdrA9235" d="M376.115 192.176c1.738 1.74 2.844 4.271 5.056 5.695 3.634 2.057 8.374 0 12.166 1.74 2.212 1.108 3.635 3.322 4.741 5.537.474.949.948 1.899.79 3.006 0 2.531-2.686 4.271-5.214 4.746-3.16.475-6.637-.475-9.165-2.531-1.422-1.266-2.528-2.69-4.108-3.797-2.212-1.582-4.898-2.057-7.584-2.531-4.582-.633-13.272-2.848-11.692-9.334 1.422-6.486 11.06-6.486 15.01-2.531z" fill="#A83731" stroke="none" stroke-width="1"/><path id="eHkuJhdrA9236" d="M397.761 256.879c2.528.158 5.214.949 7.584.158 4.266-1.265 6.004-6.328 9.796-8.701 1.422-.949 3.002-1.265 4.74-1.582 2.37-.474 5.056-.474 7.11.633 2.054 1.108 3.792 3.639 3.16 6.012-.79 2.689-4.108 3.955-6.952 4.113-2.844.158-5.846-.316-8.532.791-2.212.949-3.792 2.848-5.214 4.588-3.318 3.797-7.11 7.752-12.008 9.175-3.95 1.266-13.114.159-13.43-5.378-.474-5.696 9.164-9.967 13.746-9.809z" fill="#A83731" stroke="none" stroke-width="1"/><path id="eHkuJhdrA9237" d="M314.811 318.577c-14.378 1.424-29.704-3.164-38.868-14.396-9.164-11.233-9.796-29.267.158-39.55 5.846-5.854 14.22-8.701 22.436-9.492" fill="none" stroke="#922319" stroke-width="2" stroke-miterlimit="10"/><path id="eHkuJhdrA9238" d="M294.587 261.626c-10.902-9.967-18.644-24.205-18.644-39.076-.158-14.871 7.9-29.9 21.33-36.386 10.112-4.746 22.12-4.271 32.39 0 10.27 4.272 18.802 12.182 25.122 21.515" fill="none" stroke="#922319" stroke-width="2" stroke-miterlimit="10"/><path id="eHkuJhdrA9239" d="M342.936 195.972c1.422-7.119 7.11-12.656 13.588-15.662 6.478-3.005 13.904-3.638 21.014-3.638 2.844 0 5.688.158 8.374.949 2.37.791 4.74 2.057 6.794 3.48a47.852 47.852 0 0116.273 19.143c1.738 3.48 3.003 7.277 3.477 11.232.948 8.701-2.37 17.876-8.69 23.888" fill="none" stroke="#922319" stroke-width="2" stroke-miterlimit="10"/><path id="eHkuJhdrA9240" d="M397.604 231.093c21.646 4.271 38.709 21.515 47.715 41.765" opacity=".59" fill="none" stroke="#681612" stroke-width="2" stroke-linecap="round" stroke-linejoin="round" stroke-miterlimit="10"/><path id="eHkuJhdrA9241" d="M357.945 234.099c-3.95-6.645-8.058-13.447-10.428-20.883-2.37-7.435-3.002-15.661-.316-22.939" opacity=".59" fill="none" stroke="#681612" stroke-width="2" stroke-linecap="round" stroke-linejoin="round" stroke-miterlimit="10"/><path id="eHkuJhdrA9242" d="M370.427 228.72c-1.422-9.492-1.264-19.142.316-28.634 1.106-6.487 3.634-13.922 9.954-16.137" opacity=".59" fill="none" stroke="#681612" stroke-width="2" stroke-linecap="round" stroke-linejoin="round" stroke-miterlimit="10"/><path id="eHkuJhdrA9243" d="M381.961 227.771c7.11-12.024 10.27-26.42 8.532-40.183" opacity=".59" fill="none" stroke="#681612" stroke-width="2" stroke-linecap="round" stroke-linejoin="round" stroke-miterlimit="10"/><path id="eHkuJhdrA9244" d="M286.372 245.331c6.952 8.068 20.698 11.707 31.284 12.814 3.95.475 14.062.475 13.588-.949" opacity=".59" fill="none" stroke="#681612" stroke-width="2" stroke-linecap="round" stroke-linejoin="round" stroke-miterlimit="10"/><path id="eHkuJhdrA9245" d="M289.374 211.634c15.8 13.605 32.706 25.945 50.402 37.019" opacity=".59" fill="none" stroke="#681612" stroke-width="2" stroke-linecap="round" stroke-linejoin="round" stroke-miterlimit="10"/><path id="eHkuJhdrA9246" d="M305.016 193.758c18.17 9.334 29.862 27.368 40.764 44.612" opacity=".59" fill="none" stroke="#681612" stroke-width="2" stroke-linecap="round" stroke-linejoin="round" stroke-miterlimit="10"/><path id="eHkuJhdrA9247" d="M324.449 290.892c-4.424-11.074.158-23.73 6.794-33.696 7.742-11.549 18.644-21.357 31.6-26.261 12.956-4.905 28.124-4.905 40.448 1.74" opacity=".59" fill="none" stroke="#681612" stroke-width="2" stroke-linecap="round" stroke-linejoin="round" stroke-miterlimit="10"/><path id="eHkuJhdrA9248" d="M276.102 293.582c7.426 3.164 15.168 6.328 23.226 7.119 8.058.791 16.905-1.266 22.435-7.277" opacity=".59" fill="none" stroke="#681612" stroke-width="2" stroke-linecap="round" stroke-linejoin="round" stroke-miterlimit="10"/><path id="eHkuJhdrA9249" d="M277.523 273.332c16.432-3.006 30.178-2.215 44.872 5.695" opacity=".59" fill="none" stroke="#681612" stroke-width="2" stroke-linecap="round" stroke-linejoin="round" stroke-miterlimit="10"/><path id="eHkuJhdrA9250" d="M356.208 236.155c12.166 5.063 24.49 9.967 35.549 17.086 11.06 7.119 19.592 13.13 25.438 24.995" opacity=".59" fill="none" stroke="#681612" stroke-width="2" stroke-linecap="round" stroke-linejoin="round" stroke-miterlimit="10"/><path id="eHkuJhdrA9251" d="M325.713 271.117c16.906 13.764 39.026 18.668 60.356 22.939" opacity=".59" fill="none" stroke="#681612" stroke-width="2" stroke-linecap="round" stroke-linejoin="round" stroke-miterlimit="10"/><path id="eHkuJhdrA9252" d="M339.775 248.653c18.802 8.069 38.868 21.674 52.614 36.861" opacity=".59" fill="none" stroke="#681612" stroke-width="2" stroke-linecap="round" stroke-linejoin="round" stroke-miterlimit="10"/><path id="eHkuJhdrA9253" d="M442.633 247.071c12.482 11.232 19.908 22.781 23.226 39.234" opacity=".59" fill="none" stroke="#681612" stroke-width="2" stroke-linecap="round" stroke-linejoin="round" stroke-miterlimit="10"/></g></g><g transform="rotate(-3 8197.172 -3607.188)" style="animation:eHkuJhdrA9254_tr__tr 3000ms linear infinite normal forwards"><g id="eHkuJhdrA9254" transform="translate(-200.02 -424.063)"><path id="eHkuJhdrA9255" d="M265.943 385.31c-6.065-13.729-23.864-20.065-38.63-16.369-11.075 2.772-20.436 10.164-27.291 19.405-6.856-9.241-16.085-16.633-27.292-19.405-14.766-3.696-32.565 2.64-38.629 16.369-5.274 12.013-1.055 26.006 5.273 37.358 11.734 20.99 43.245 45.676 61.175 57.556 18.458-13.597 48.254-36.566 59.988-57.556 6.46-11.352 10.679-25.345 5.406-37.358z" fill="#FFC6C4" stroke="none" stroke-width="1"/><path id="eHkuJhdrA9256" d="M140.429 425.705h33.884l7.383-22.046s10.152 30.627 12.393 40.527c3.032-9.9 6.592-20.989 9.493-30.89l8.569 16.105 11.734-27.458c0 8.053.396 17.03 1.451 25.082.131-.132 36.388-.396 36.388-.396" fill="none" stroke="#FFF" stroke-width="2" stroke-linecap="round" stroke-linejoin="round" stroke-miterlimit="10"/></g></g><g style="animation:eHkuJhdrA9257_tr__tr 3000ms linear infinite normal forwards"><g transform="matrix(.8 0 0 .8 1048.15 116.872)" style="animation:eHkuJhdrA9257_ts__ts 3000ms linear infinite normal forwards"><g id="eHkuJhdrA9257" transform="translate(-1048.15 -116.872)" fill="#FFF4F3" stroke="none" stroke-width="1"><path id="eHkuJhdrA9258" d="M1055.52 84.441h-14.7v64.862h14.7V84.441z"/><path id="eHkuJhdrA9259" d="M1080.54 124.259v-14.712h-64.78v14.712h64.78z"/></g></g></g><g style="animation:eHkuJhdrA9260_tr__tr 3000ms linear infinite normal forwards"><g transform="translate(131.795 136.648)" style="animation:eHkuJhdrA9260_ts__ts 3000ms linear infinite normal forwards"><g id="eHkuJhdrA9260" transform="translate(-131.795 -136.648)" fill="#FFF4F3" stroke="none" stroke-width="1"><path id="eHkuJhdrA9261" d="M139.115 104.217h-14.694v64.862h14.694v-64.862z"/><path id="eHkuJhdrA9262" d="M164.185 143.988v-14.713h-64.78v14.713h64.78z"/></g></g></g><g transform="translate(546.439 197.95)" style="animation:eHkuJhdrA9263_ts__ts 3000ms linear infinite normal forwards"><g id="eHkuJhdrA9263" transform="translate(-546.439 -197.95)"><path id="eHkuJhdrA9264" d="M553.707 201.352h-14.694v24.204h14.694v-24.204z" fill="#F7565E" stroke="none" stroke-width="1"/><path id="eHkuJhdrA9265" d="M546.439 90.137c-32.232 0-58.46 26.261-58.46 58.534 0 32.273 26.228 58.534 58.46 58.534s58.46-26.261 58.46-58.534c0-32.431-26.228-58.534-58.46-58.534zm0 104.728c-25.596 0-46.293-20.724-46.293-46.194 0-25.629 20.697-46.353 46.293-46.353s46.294 20.724 46.294 46.353c-.158 25.47-20.856 46.194-46.294 46.194z" fill="#FFC6C4" stroke="none" stroke-width="1"/><path id="eHkuJhdrA9266" d="M546.439 305.763c-6.636 0-12.166-5.379-12.166-12.181v-72.298h24.174v72.298c0 6.802-5.372 12.181-12.008 12.181z" fill="#FFC6C4" stroke="none" stroke-width="1"/><path id="eHkuJhdrA9267" d="M533.642 139.812l16.59 18.984" fill="none" stroke="#FFC6C4" stroke-width="2.46" stroke-linecap="round" stroke-linejoin="round" stroke-miterlimit="10"/><path id="eHkuJhdrA9268" d="M547.071 140.761l13.588 15.82" fill="none" stroke="#FFC6C4" stroke-width="2.46" stroke-linecap="round" stroke-linejoin="round" stroke-miterlimit="10"/></g></g><g transform="translate(999.661 418.006)" style="animation:eHkuJhdrA9269_to__to 3000ms linear infinite normal forwards"><g id="eHkuJhdrA9269" transform="translate(-999.661 -428)" stroke="none" stroke-width="1"><path id="eHkuJhdrA9270" d="M1018.39 383.281v-13.922h-37.134v13.922a4.25 4.25 0 01-4.266 4.271c-4.424 0-8.058 3.639-8.058 8.069v65.178c0 7.594 6.162 13.763 13.746 13.763h33.972c7.58 0 13.74-6.169 13.74-13.763v-65.178c0-4.43-3.63-8.069-8.05-8.069-2.06 0-3.95-2.056-3.95-4.271z" fill="#FFC6C4"/><path id="eHkuJhdrA9271" d="M978.096 411.124v44.771c0 5.221 4.266 9.492 9.48 9.492h23.224c5.22 0 9.48-4.271 9.48-9.492v-44.771c.16-3.005-42.184-3.005-42.184 0z" fill="#F7565E"/><path id="eHkuJhdrA9272" d="M1023.76 361.449h-47.876v17.877h47.876v-17.877z" fill="#FFF4F3"/></g></g><g transform="translate(736.176 478.916)" style="animation:eHkuJhdrA9273_tr__tr 3000ms linear infinite normal forwards"><g id="eHkuJhdrA9273" transform="translate(-736.176 -478.916)" stroke="none" stroke-width="1"><path id="eHkuJhdrA9274" d="M739.817 436.134c-27.038 35.663-57.77 83.064-91.657 112.14-49.852-9.71-82.003-18.776-134.755-35.106l-24.591 44.819c42.664 19.262 163.841 74.573 185.527 79.297 27.851-32.822 82.589-100.516 109.644-134.123" fill="#FC7F7A"/><path id="eHkuJhdrA9275" d="M732.763 594.556c24.918-24.571 68.918-72.558 82.057-107.472 7.727-20.79 6.076-48.304-14.258-61.423-10.484-6.716-23.765-7.713-35.753-5.24-21.608 4.61-115.369 91.771-111.545 95.695l79.499 78.44z" fill="#004487"/><path id="eHkuJhdrA9276" d="M536.895 525.787c-24.796-17.671-39.478-35.109-66.902-45.797-6.023-2.323-12.518-4.325-18.993-3.955-6.476.37-13.088 3.273-16.517 8.839-2.961 4.929-2.907 11.415-.967 16.778 1.941 5.363 5.773 10.077 9.757 14.157 6.373 6.433 9.863 7.986 17.799 12.35-3.477-.129-6.807-1.525-10.285-1.813-3.48-.445-7.579.696-8.974 3.872-.931 2.064-.435 4.75.53 6.798 3.058 6.62 10.04 10.2 16.545 13.468 17.293 8.399 38.012 10.916 56.848 14.872" fill="#FC7F7A"/></g></g><g transform="translate(761.712 406.063)" style="animation:eHkuJhdrA9277_tr__tr 3000ms linear infinite normal forwards"><g id="eHkuJhdrA9277" transform="translate(-761.712 -406.063)"><path id="eHkuJhdrA9278" d="M828.378 426.536c-12.051-24.105-29.482-49.114-39.014-74.348-14.619 9.14-34.261 22.118-50.163 28.895 6.969 20.984 15.357 41.639 25.161 61.491 15.862-11.523 45.586-9.239 64.016-16.038z" fill="#FC7F7A" stroke="none" stroke-width="1"/><path id="eHkuJhdrA9279" d="M774.319 367.026c-15.546 11.679-37.463 17.082-56.439 15.342-37.793-3.64-45.435-48.507-45.828-76.664-.279-14.553-.271-32.588 7.204-45.624 10.591-18.44 37.515-29.896 59.507-26.283 24.367 4.069 39.568 26.882 48.912 48.478 8.7 20.178 12.861 45.456 2.605 66.108-3.415 7.306-9.052 13.523-15.961 18.643z" fill="#FF958A" stroke="none" stroke-width="1"/><path id="eHkuJhdrA9280" d="M678.949 336.971c-7.761-2.15-16.636-5.398-18.911-12.973-2.115-7.26 2.88-14.579 6.936-20.941 4.056-6.204 7.477-12.877 10.264-19.703" fill="#FF958A" stroke="none" stroke-width="1"/><path id="eHkuJhdrA9281" d="M683.415 304.028a3.162 3.162 0 003.133-3.19 3.162 3.162 0 00-3.186-3.138 3.162 3.162 0 00-3.133 3.19 3.161 3.161 0 003.186 3.138z" fill="#050405" stroke="none" stroke-width="1"/><path id="eHkuJhdrA9282" d="M715.469 320.53c7.679-.064 13.852-6.348 13.788-14.037-.064-7.688-6.341-13.869-14.02-13.805-7.678.064-13.851 6.348-13.787 14.037.064 7.688 6.341 13.869 14.019 13.805z" fill="#D3426F" stroke="none" stroke-width="1"/><path id="eHkuJhdrA9283" d="M680.797 350.088c5.374.271 10.726-2.146 14.169-6.13" fill="none" stroke="#B22961" stroke-width="2.133" stroke-linecap="round" stroke-linejoin="round" stroke-miterlimit="10"/><path id="eHkuJhdrA9284" d="M755.842 292.35c1.228-4.282 7.062-5.754 10.714-3.57 3.812 2.341 5.275 7.233 4.52 11.511" fill="none" stroke="#B22961" stroke-width="2.133" stroke-linecap="round" stroke-linejoin="round" stroke-miterlimit="10"/><path id="eHkuJhdrA9285" d="M762.063 223.637c-7.487-7.373-9.483-19.38-5.931-29.219 3.552-9.838 12.336-17.505 22.423-20.595 3.625-1.138 7.571-1.645 11.058-.25 2.696 1.085 4.765 2.966 6.836 5.005a163.053 163.053 0 0110.045 10.833c2.873 3.456 5.747 7.071 7.047 11.332 1.46 4.576.87 9.643-.354 14.4-3.075 10.309-10.583 19.389-20.341 24.058" fill="#193139" stroke="none" stroke-width="1"/><path id="eHkuJhdrA9286" d="M761.949 190.889c.496 2.686 3.045 5.196 5.889 5.172 3.792-.032 7.548-4.335 10.881-2.622 3.809 2.025 1.809 8.528 4.991 11.191 1.432 1.254 3.644 1.235 5.376.43 1.731-.806 2.982-2.398 3.917-3.988 1.714-2.862 2.31-7.138-.392-9.014-3.177-2.031-8.051.858-10.914-1.492-1.433-1.253-1.766-3.307-2.727-4.881-1.122-1.889-3.342-2.82-5.558-3.276-6.172-1.214-13.107.9-11.463 8.48z" fill="#264E59" stroke="none" stroke-width="1"/><path id="eHkuJhdrA9287" d="M755.981 214.196c-4.487-7.557-5.671-16.881-2.738-25.132 2.935-8.093 10.465-14.642 18.986-15.979 8.522-1.178 17.882 3.332 21.582 11.211" fill="none" stroke="#193139" stroke-width="2.286" stroke-linecap="round" stroke-linejoin="round" stroke-miterlimit="10"/><path id="eHkuJhdrA9288" d="M791.871 235.886c5.366-.677 10.889-1.514 15.288-4.557 4.87-3.363 7.825-9.083 9.04-14.947 2.125-10.459-2.088-23.08-12.071-26.478" fill="none" stroke="#193139" stroke-width="2.286" stroke-linecap="round" stroke-linejoin="round" stroke-miterlimit="10"/><path id="eHkuJhdrA9289" d="M765.015 217.6c1.982-8.717 4.119-17.753 8.953-25.387 4.835-7.634 13-13.714 22.01-13.315" fill="none" stroke="#10272D" stroke-width="2.286" stroke-linecap="round" stroke-linejoin="round" stroke-miterlimit="10"/><path id="eHkuJhdrA9290" d="M795.11 226.367c7.184-10.026 11.509-21.928 12.514-34.118" fill="none" stroke="#10272D" stroke-width="2.286" stroke-linecap="round" stroke-linejoin="round" stroke-miterlimit="10"/><path id="eHkuJhdrA9291" d="M778.013 222.555c2.154-6.979 4.466-13.96 8.205-20.319 3.739-6.359 9.065-11.941 15.836-14.687" fill="none" stroke="#10272D" stroke-width="2.286" stroke-linecap="round" stroke-linejoin="round" stroke-miterlimit="10"/><path id="eHkuJhdrA9292" d="M813.995 293.131c-.676-24.2-16.183-45.903-36.051-59.976-36.877-26.271-80.64-6.764-101.069 25.522 17.246 21.847 45.151 33.322 72.602 28.347 4.26-.827 7.381-5.441 11.796-6.585 16.716-3.936 24.346 20.522 16.22 31.348-5.157 6.846-14.297 9.77-18.404 9.962 9.442 14.318 25.573 35.067 25.573 35.067 4.72-2.413 30.669-17.026 29.333-63.685z" fill="#193139" stroke="none" stroke-width="1"/><path id="eHkuJhdrA9293" d="M759.089 321.749c-3.582 25.184 3.297 35.411 14.458 66.484 22.54-6.674 22.438-18.855 43.683-29.157 3.934-1.932 7.557-3.227 10.867-4.204 2.049-.65-.463-17.715 1.272-18.046 3.311-.819 10.873 15.413 13.71 14.599 7.253-1.801 13.549-4.701 20.581-14.094 1.169-11.4-5.406-23.053-12.876-28.37-11.763-8.445-21.144-15.486-24.719-27.321-5.687-18.779-11.515-35.659-26.472-48.191-14.162-11.905-30.978-19.992-49.613-18.887-18.478 1.103-67.118 23.182-73.265 43.958 17.522-2.044 40.255-4.448 57.95-4.596 8.532-.071 17.381.014 25.307 3.112 11.889 4.647 20.354 15.492 24.718 27.321 4.366 11.988 4.947 24.797 4.58 37.615-7.425.22-22.596-.128-30.181-.223z" fill="#193139" stroke="none" stroke-width="1"/><path id="eHkuJhdrA9294" d="M740.94 229.507c4.552-3.518 11.832-2.155 14.875 2.724 3.043 4.879 1.048 12.015-4.145 14.59-4.878 2.413-10.735 1.038-15.449 4.242-3.613 2.561-4.197 8.261-7.813 10.506-5.972 3.847-9.307 1.818-11.575-4.966-1.945-5.837-.867-9.169 3.853-11.581 4.091-2.091 7.277 1.047 11.981-3.264 3.607-3.352 4.191-9.053 8.273-12.251z" fill="#264E59" stroke="none" stroke-width="1"/><path id="eHkuJhdrA9295" d="M798.334 234.092c11.569 4.175 18.304 15.984 23.139 27.335 4.834 11.35 9.203 23.654 19.062 31.166 4.134 3.129 9.208 5.302 13.343 8.432 9.859 7.511 14.23 20.131 18.122 32.123" fill="none" stroke="#193139" stroke-width="2.286" stroke-linecap="round" stroke-linejoin="round" stroke-miterlimit="10"/><path id="eHkuJhdrA9296" d="M677.5 257.881c.849 7.112 5.167 13.246 10.735 17.788 5.568 4.541 12.07 7.493 18.571 10.128 4.122 1.706 8.243 3.254 12.513 3.693 7.907.883 15.787-1.555 23.192-4.148 10.87-3.888 22.519-9.048 27.647-19.374" fill="none" stroke="#193139" stroke-width="2.286" stroke-linecap="round" stroke-linejoin="round" stroke-miterlimit="10"/><path id="eHkuJhdrA9297" d="M669.437 276.3c.891-6.81 3.522-13.477 7.743-18.891" fill="none" stroke="#193139" stroke-width="2.286" stroke-linecap="round" stroke-linejoin="round" stroke-miterlimit="10"/><path id="eHkuJhdrA9298" d="M808.182 240.339c10.355 10.197 13.796 24.881 21.475 36.208 6.717 9.753 19.702 13.125 29.554 19.846 9.851 6.563 19.096 16.294 19.671 28.313" fill="none" stroke="#193139" stroke-width="2.286" stroke-linecap="round" stroke-linejoin="round" stroke-miterlimit="10"/><path id="eHkuJhdrA9299" d="M835.036 353.231c-3.096-11.207-6.032-22.257-9.127-33.463" fill="none" stroke="#193139" stroke-width="2.286" stroke-linecap="round" stroke-linejoin="round" stroke-miterlimit="10"/><path id="eHkuJhdrA92100" d="M685.323 248.64c9.699 7.196 20.648 12.8 31.437 18.248 11.742 5.914 23.801 11.983 36.769 13.299" fill="none" stroke="#10272D" stroke-width="2.286" stroke-linecap="round" stroke-linejoin="round" stroke-miterlimit="10"/><path id="eHkuJhdrA92101" d="M702.759 236.312c24.521 3.593 47.083 18.593 59.744 40.003" fill="none" stroke="#10272D" stroke-width="2.286" stroke-linecap="round" stroke-linejoin="round" stroke-miterlimit="10"/><path id="eHkuJhdrA92102" d="M720.678 225.089c13.139 2.896 25.366 10.23 34.3 20.439 9.254 10.839 14.739 24.399 23.209 35.877 4.314 5.66 9.255 10.84 12.153 17.302 2.254 5.044 3.091 10.732 4.4 16.1 3.281 14.528 9.558 28.239 18.504 40.03" fill="none" stroke="#10272D" stroke-width="2.286" stroke-linecap="round" stroke-linejoin="round" stroke-miterlimit="10"/><path id="eHkuJhdrA92103" d="M744.478 217.93c15.247 9.523 31.131 19.516 40.582 34.941 5.124 8.184 8.045 17.336 11.754 26.323 8.228 20.34 20.077 39.226 34.592 55.558" fill="none" stroke="#10272D" stroke-width="2.286" stroke-linecap="round" stroke-linejoin="round" stroke-miterlimit="10"/><path id="eHkuJhdrA92104" d="M792.941 231.605c19.576 16.924 18.573 48.257 33.759 69.33 4.476 6.291 10.366 11.462 15 17.752 5.434 7.39 8.823 15.905 12.212 24.42" fill="none" stroke="#10272D" stroke-width="2.286" stroke-linecap="round" stroke-linejoin="round" stroke-miterlimit="10"/><path id="eHkuJhdrA92105" d="M783.071 317.594c1.405 16.916 5.81 33.491 12.89 48.936.644 1.419 1.923 3.148 3.339 2.504" fill="none" stroke="#10272D" stroke-width="2.286" stroke-linecap="round" stroke-linejoin="round" stroke-miterlimit="10"/><path id="eHkuJhdrA92106" d="M763.215 296.745c29.704 18.193 2.054 64.704-17.38 90.491-13.588 18.034-30.336 44.454-50.086 59.957-10.27 8.069-24.806-1.107-22.594-13.763 4.108-22.306 10.586-49.833 17.222-64.546" fill="none" stroke="#9EC9F3" stroke-width="2.286" stroke-linecap="round" stroke-linejoin="round" stroke-miterlimit="10"/><path id="eHkuJhdrA92107" d="M765.269 303.706a4.743 4.743 0 004.74-4.746 4.743 4.743 0 00-4.74-4.746 4.743 4.743 0 00-4.74 4.746 4.743 4.743 0 004.74 4.746z" fill="#004DC0" stroke="none" stroke-width="1"/><path id="eHkuJhdrA92108" d="M677.579 449.092c-9.796 29.9-25.28 57.743-42.344 84.162-12.482 19.142-26.07 37.81-43.766 52.048-17.854 14.238-40.448 23.572-63.042 21.515-26.386-2.373-48.032-22.622-56.722-53.471" fill="none" stroke="#9EC9F3" stroke-width="2.286" stroke-linecap="round" stroke-linejoin="round" stroke-miterlimit="10"/><path id="eHkuJhdrA92109" d="M681.371 410.966c-2.37-1.582-5.056-2.531-7.9-3.006-2.212 7.119-4.582 15.345-4.898 22.781-.158 5.062 0 10.283 2.528 14.712 4.424 7.594 15.484 12.34 23.384 8.227 11.218-5.854 19.118-16.453 26.386-25.629l-7.584-5.537c-3.95 5.063-9.48 11.865-13.746 15.662-3.95 3.481-9.954 7.594-15.168 6.17-4.424-1.266-6.162-6.17-6.794-10.758-.632-5.853 2.054-15.187 3.792-22.622z" transform="translate(0 1)" fill="#004DC0" stroke="none" stroke-width="1"/></g></g><path id="eHkuJhdrA92110" d="M916.773 700.445c-4.743-38.247-11.325-107.644-18.055-156.79-7.401-53.886-33.095-103.507-72.593-140.989-6.052-5.803-11.946-11.449-17.365-17.1-19.322 13.451-38.982 24.372-59.75 34.987 8.688 18.754 5.278 26.693 1.334 46.343-5.164 25.04-27.903 45.638-32.433 70.83-6.046 32.957-18.976 130.994-15.538 164.347l214.399-1.787.001.159z" fill="#004DC0" stroke="none" stroke-width="1"/><path id="eHkuJhdrA92111" d="M732.078 701.984c45.735-29.332 110.599-152.324 110.599-152.324l-78.857-39.369c-14.063 18.944-48.996 93.117-63.06 111.902-67.07 9.893-98.512 9.997-154.522 19.798-32.661 5.651-60.772 26.294-76.011 55.689-2.177 4.289-2.175 4.447-2.179 3.973l264.03.331z" fill="#FF958A" stroke="none" stroke-width="1"/><path id="eHkuJhdrA92112" d="M830.268 615.419c12.21-32.692 30.755-101.508 27.916-138.821-1.606-22.135-14.765-46.389-38.651-49.67-12.18-1.639-24.783 2.895-34.674 10.414-17.744 13.278-28.797 33.146-37.321 53.151-1.859 4.445-39.954 78.328-34.725 80.183-.158.002 117.455 44.743 117.455 44.743z" fill="#004487" stroke="none" stroke-width="1"/><path id="eHkuJhdrA92113" d="M723.933 539.892c40.199 7.891 79.333 20.696 116.138 38.425" fill="none" stroke="#004DC0" stroke-width="2.286" stroke-linecap="round" stroke-linejoin="round" stroke-miterlimit="10"/><g transform="translate(686.269 80.644)" style="animation:eHkuJhdrA92114_tr__tr 3000ms linear infinite normal forwards"><g id="eHkuJhdrA92114" transform="translate(-686.269 -80.644)" fill="none" stroke="#FFF" stroke-width="2" stroke-miterlimit="10"><path id="eHkuJhdrA92115" d="M680.739 105.956c9.163 0 16.59-7.437 16.59-16.61 0-9.175-7.427-16.612-16.59-16.612-9.162 0-16.59 7.437-16.59 16.611s7.428 16.611 16.59 16.611z"/><path id="eHkuJhdrA92116" d="M691.799 88.554c9.162 0 16.59-7.437 16.59-16.611s-7.428-16.611-16.59-16.611c-9.162 0-16.59 7.437-16.59 16.611s7.428 16.611 16.59 16.611z"/></g></g><path id="eHkuJhdrA92117" d="M1093.91 379.642c9.16 0 16.59-7.437 16.59-16.611s-7.43-16.611-16.59-16.611-16.59 7.437-16.59 16.611 7.43 16.611 16.59 16.611z" fill="none" stroke="#FFF" stroke-width="2" stroke-miterlimit="10"/><path id="eHkuJhdrA92118" d="M1104.97 362.24c9.16 0 16.59-7.437 16.59-16.611s-7.43-16.611-16.59-16.611-16.59 7.437-16.59 16.611 7.43 16.611 16.59 16.611z" fill="none" stroke="#FFF" stroke-width="2" stroke-miterlimit="10"/><path id="eHkuJhdrA92119" d="M36.649 510.688c8.36-3.753 12.1-13.581 8.351-21.953-3.748-8.371-13.564-12.115-21.925-8.362-8.36 3.753-12.1 13.582-8.351 21.953 3.748 8.372 13.564 12.116 21.925 8.362z" fill="none" stroke="#FFF" stroke-width="2" stroke-miterlimit="10"/><path id="eHkuJhdrA92120" d="M36.946 482.47c3.235-8.583-1.091-18.168-9.664-21.407-8.572-3.239-18.144 1.093-21.38 9.676-3.234 8.583 1.092 18.167 9.665 21.407 8.572 3.239 18.144-1.093 21.38-9.676z" fill="none" stroke="#FFF" stroke-width="2" stroke-miterlimit="10"/><path id="eHkuJhdrA92121" d="M937.173 88.554c6.021 0 10.902-4.887 10.902-10.916 0-6.028-4.881-10.915-10.902-10.915-6.021 0-10.902 4.887-10.902 10.915 0 6.03 4.881 10.916 10.902 10.916z" fill="none" stroke="#FFF" stroke-width="2" stroke-miterlimit="10"/><path id="eHkuJhdrA92122" d="M463.805 22.9c6.021 0 10.902-4.886 10.902-10.915 0-6.028-4.881-10.916-10.902-10.916-6.021 0-10.902 4.888-10.902 10.916 0 6.029 4.881 10.916 10.902 10.916z" fill="none" stroke="#FFF" stroke-width="2" stroke-miterlimit="10"/><path id="eHkuJhdrA92123" d="M105.935 540.056c6.021 0 10.902-4.887 10.902-10.916 0-6.028-4.881-10.915-10.902-10.915-6.02 0-10.902 4.887-10.902 10.915 0 6.029 4.881 10.916 10.902 10.916z" fill="none" stroke="#FFF" stroke-width="2" stroke-miterlimit="10"/><path id="eHkuJhdrA92124" d="M1008.91 265.738c6.02 0 10.9-4.887 10.9-10.916 0-6.029-4.88-10.916-10.9-10.916-6.03 0-10.907 4.887-10.907 10.916 0 6.029 4.877 10.916 10.907 10.916z" fill="none" stroke="#FFF" stroke-width="2" stroke-miterlimit="10"/><g transform="translate(205.475 254.822)" style="animation:eHkuJhdrA92125_ts__ts 3000ms linear infinite normal forwards"><path id="eHkuJhdrA92125" d="M0 10.916c6.021 0 10.902-4.887 10.902-10.916 0-6.029-4.881-10.916-10.902-10.916-6.021 0-10.902 4.887-10.902 10.916 0 6.029 4.881 10.916 10.902 10.916z" fill="none" stroke="#FFF" stroke-width="2" stroke-miterlimit="10"/></g><g transform="translate(1068.155 635.134)" style="animation:eHkuJhdrA92126_to__to 3000ms linear infinite normal forwards"><path id="eHkuJhdrA92126" d="M-.005 10.916c6.03 0 10.91-4.887 10.91-10.916 0-6.028-4.88-10.915-10.91-10.915-6.02 0-10.9 4.887-10.9 10.915 0 6.029 4.88 10.916 10.9 10.916z" fill="none" stroke="#FFF" stroke-width="2" stroke-miterlimit="10"/></g><path id="eHkuJhdrA92127" d="M1107.66 214.639c0 3.955-3.16 7.278-7.27 7.278a7.255 7.255 0 01-7.27-7.278c0-3.954 3.16-7.277 7.27-7.277 4.11.159 7.27 3.323 7.27 7.277z" fill="none" stroke="#FFF" stroke-width="2" stroke-miterlimit="10"/><path id="eHkuJhdrA92128" d="M66.91 659.814c4.013 0 7.267-3.258 7.267-7.277s-3.254-7.277-7.268-7.277c-4.014 0-7.268 3.258-7.268 7.277s3.254 7.277 7.268 7.277z" fill="none" stroke="#FFF" stroke-width="2" stroke-miterlimit="10"/><path id="eHkuJhdrA92129" d="M261.407 35.874c4.014 0 7.268-3.258 7.268-7.278 0-4.018-3.254-7.277-7.268-7.277-4.014 0-7.268 3.259-7.268 7.277 0 4.02 3.254 7.278 7.268 7.278z" fill="none" stroke="#FFF" stroke-width="2" stroke-miterlimit="10"/><g transform="translate(814.013 14.12)" style="animation:eHkuJhdrA92130_ts__ts 3000ms linear infinite normal forwards"><g id="eHkuJhdrA92130" transform="translate(-814.013 -14.12)" fill="none" stroke="#FFF" stroke-width="2" stroke-miterlimit="10"><path id="eHkuJhdrA92131" d="M813.934 4.866v18.51"/><path id="eHkuJhdrA92132" d="M823.255 14.042H804.77"/></g></g><g transform="translate(76.152 340.092)" style="animation:eHkuJhdrA92133_ts__ts 3000ms linear infinite normal forwards"><g id="eHkuJhdrA92133" transform="translate(-76.152 -340.092)" fill="none" stroke="#FFF" stroke-width="2" stroke-miterlimit="10"><path id="eHkuJhdrA92134" d="M76.073 330.837v18.509"/><path id="eHkuJhdrA92135" d="M85.395 340.013H66.91"/></g></g><g transform="translate(1105.205 19.025)" style="animation:eHkuJhdrA92136_ts__ts 3000ms linear infinite normal forwards"><g id="eHkuJhdrA92136" transform="translate(-1105.205 -19.025)" fill="none" stroke="#FFF" stroke-width="2" stroke-miterlimit="10"><path id="eHkuJhdrA92137" d="M1105.29 9.77v18.51"/><path id="eHkuJhdrA92138" d="M1114.45 19.105h-18.49"/></g></g><g transform="translate(45.974 26.144)" style="animation:eHkuJhdrA92139_ts__ts 3000ms linear infinite normal forwards"><g id="eHkuJhdrA92139" transform="translate(-45.974 -26.144)" fill="none" stroke="#FFF" stroke-width="2" stroke-miterlimit="10"><path id="eHkuJhdrA92140" d="M45.895 16.89v18.509"/><path id="eHkuJhdrA92141" d="M55.218 26.224H36.73"/></g></g><g transform="translate(430.467 128.026)" style="animation:eHkuJhdrA92142_ts__ts 3000ms linear infinite normal forwards"><g id="eHkuJhdrA92142" transform="translate(-430.467 -128.026)" fill="none" stroke="#FFF" stroke-width="2" stroke-miterlimit="10"><path id="eHkuJhdrA92143" d="M430.467 118.771v18.509"/><path id="eHkuJhdrA92144" d="M439.789 128.104h-18.643"/></g></g><path id="eHkuJhdrA92145" d="M1112.4 500.19v18.51" fill="none" stroke="#FFF" stroke-width="2" stroke-miterlimit="10"/><path id="eHkuJhdrA92146" d="M1121.56 509.366h-18.49" fill="none" stroke="#FFF" stroke-width="2" stroke-miterlimit="10"/><path id="eHkuJhdrA92147" d="M1001.53 701.938H120.853c-.698 0-1.164-.4-1.164-1s.466-1 1.164-1h880.677c.7 0 1.17.4 1.17 1s-.47 1-1.17 1z" fill="#193139" stroke="none" stroke-width="1"/></svg>