<svg xmlns="http://www.w3.org/2000/svg" width="81" height="80" viewBox="0 0 81 80" fill="none"><g clip-path="url(#clip0)"><path d="M67.9075 44.6224C67.8935 43.9834 67.3745 43.4756 66.7426 43.4756C66.7341 43.4756 66.7256 43.4756 66.7171 43.4756C66.0736 43.4896 65.5631 44.0255 65.5771 44.6725C65.7567 53.1362 65.367 62.1108 66.0578 68.7631C66.3984 72.0394 64.3417 75.1064 61.1676 76.0562C57.5248 77.1456 53.8534 77.6827 50.2664 77.6553C50.2634 77.6553 50.2604 77.6553 50.2573 77.6553C49.6175 77.6553 49.0967 78.1741 49.0918 78.818C49.087 79.4656 49.6048 79.9941 50.2482 79.999C50.3435 80.0002 50.4388 80.0002 50.5341 80.0002C54.2644 80.0002 58.0644 79.4296 61.8323 78.3022C66.0809 77.0315 68.8332 72.9171 68.3761 68.5195C67.7023 62.0327 68.0871 53.0874 67.9075 44.6224Z" fill="white"></path><path d="M45.015 77.1913C28.3483 74.3263 13.5063 56.6383 15.8057 37.1626C21.348 37.5941 26.5903 36.645 31.452 34.3263C37.9485 31.2276 43.4088 25.5739 45.8321 21.2153V21.2147C45.8333 21.2123 45.8357 21.208 45.8369 21.2068C45.84 21.2007 45.8418 21.1946 45.8448 21.1885C45.863 21.1543 45.8813 21.1195 45.8958 21.0829L49.2521 12.8938C49.2636 12.8663 49.2825 12.8377 49.3086 12.8078C49.3086 12.7864 49.4348 12.6985 49.5435 12.6985H53.8474C54.041 12.6985 54.2025 12.8792 54.1539 13.0849C54.1533 13.0873 54.1539 13.0891 54.1533 13.091C53.0643 17.4061 53.009 22.2377 54.7725 26.3862C55.0256 26.9826 55.711 27.2578 56.3022 27.0039C56.8941 26.7494 57.1691 26.0609 56.9159 25.4658C56.1936 23.766 55.7947 21.8678 55.7249 19.8085C63.4901 21.8892 64.8614 31.3331 65.3604 39.2525C65.4011 39.8982 65.9541 40.3889 66.5975 40.348C67.2398 40.3065 67.7278 39.7499 67.6871 39.1041C67.1967 31.327 66.0087 23.4358 60.0658 19.2811C59.0879 15.1478 56.6021 8.32228 50.55 5.27052L50.9154 3.87586C51.2905 2.44276 50.6058 0.632456 48.5977 0.10084C46.9763 -0.327627 45.31 0.648936 44.8833 2.27857L44.482 3.81239C44.0383 3.81483 43.5867 3.83863 43.1338 3.88319L42.7514 2.44764C42.3283 0.859507 40.7342 -0.174429 38.8767 0.32606C37.2571 0.762461 36.2925 2.44154 36.726 4.06996L37.1503 5.6648C36.8844 5.79847 36.6185 5.93946 36.3569 6.08656L35.6321 4.9336C34.7622 3.54994 32.9356 3.03053 31.3051 4.06691C29.8877 4.96717 29.4634 6.85987 30.3594 8.28443L31.4029 9.94459C30.434 10.9474 29.4179 12.1791 28.429 13.6787C28.0751 11.0353 27.9768 8.80995 27.9525 7.54591C27.9306 6.44605 27.3327 5.42555 26.3906 4.88356C24.4189 3.74891 22.2051 3.69642 20.1563 4.73585C19.0006 5.32179 18.3292 6.53883 18.4451 7.83705C18.9842 13.8612 18.3796 19.7468 17.7573 23.7056C16.0485 26.6023 14.8405 29.9104 14.1285 33.1422C9.19513 55.3663 25.6628 76.2422 44.6223 79.5015C44.6884 79.5131 44.7546 79.5186 44.8195 79.5186C45.3774 79.5186 45.8703 79.1151 45.9674 78.5438C46.0755 77.906 45.6494 77.3006 45.015 77.1913ZM16.1627 34.8414C17.4654 27.7949 21.1027 21.1091 25.7587 18.6873C23.6535 23.6397 22.6543 29.2274 22.355 34.6492C20.3439 34.9287 18.2691 34.9934 16.1627 34.8414ZM44.3813 18.6268C42.8813 17.3463 41.167 16.3075 39.2373 15.6007C40.1891 14.2549 41.3934 13.1935 42.9171 12.6253C44.4244 12.0631 45.7325 12.0241 46.8889 12.5081L44.3813 18.6268ZM35.7353 28.9668C35.8961 25.3108 36.5068 20.9926 38.0554 17.6674C40.0228 18.3223 41.8451 19.4374 43.3341 20.8235C42.3562 22.3317 39.8334 25.8357 35.7353 28.9668ZM55.7868 17.4074C55.8524 16.6206 55.9689 15.7649 56.1401 14.889C56.596 15.8961 56.9608 16.8947 57.2522 17.8285C56.7611 17.6539 56.23 17.5038 55.7868 17.4074ZM33.5172 8.92225L32.3298 7.0326C31.8175 6.21778 33.1615 5.39137 33.661 6.18605L34.5595 7.61488C35.1337 8.52796 36.3144 8.81666 37.248 8.27345C37.6286 8.05128 38.0202 7.84315 38.4105 7.65394C39.2743 7.23585 39.7217 6.25868 39.4746 5.33094L38.9774 3.46449C38.8779 3.09034 39.108 2.69056 39.4795 2.59046C40.0543 2.43544 40.3985 2.67652 40.4993 3.05372L40.957 4.77369C41.215 5.74232 42.1243 6.36244 43.1223 6.2422C43.6571 6.17933 44.1894 6.15064 44.7054 6.15736H44.7333C45.6439 6.15736 46.4373 5.54762 46.6686 4.66566L47.1372 2.87611C47.2355 2.50196 47.6325 2.2682 48.0041 2.36769C48.8011 2.57887 48.6912 3.16419 48.6609 3.27955L48.225 4.9452C47.9816 5.87355 48.4344 6.8495 49.3013 7.26515C50.8905 8.02809 52.2059 9.11085 53.2931 10.3547H49.5423C49.1368 10.3547 48.7404 10.4494 48.3828 10.6257C46.5399 9.62782 44.4323 9.56068 42.1067 10.4274C35.1015 13.0397 33.4116 23.1343 33.36 30.6141C30.6653 32.2987 27.7704 33.5127 24.717 34.2134C25.2427 26.006 27.5148 17.2005 33.2458 11.4027C33.9051 10.7362 34.0168 9.71571 33.5172 8.92225ZM20.767 7.62709C20.7373 7.29261 20.9091 6.97889 21.2059 6.82875C22.5748 6.13417 23.9297 6.16773 25.2324 6.91786C25.4788 7.05946 25.6215 7.33473 25.6215 7.5923C25.653 9.20362 25.7993 12.3121 26.4064 15.8876C24.1682 16.5968 22.1863 18.1056 20.6104 19.8146C20.974 16.2428 21.1561 11.9758 20.767 7.62709Z" fill="white"></path><path d="M60.8666 58.2872C58.7311 56.8559 56.485 51.1235 57.8229 44.0849C59.2094 36.793 57.8672 31.2089 57.8096 30.9746C57.6542 30.3465 57.0223 29.9644 56.3976 30.1195C55.7724 30.2757 55.3918 30.9111 55.5472 31.5391C55.5575 31.5812 56.3739 34.984 56.0273 39.8387C54.9158 39.7618 53.3533 40.0517 51.7757 41.6466C49.2425 41.7253 48.0636 40.623 47.8087 40.3459C47.2271 39.2723 45.5918 39.6855 45.5918 40.9123C45.5918 41.2413 45.7247 41.5391 45.9402 41.754C46.1594 42.025 47.2812 43.2853 49.5551 43.7877C47.8876 45.1195 46.387 45.7933 46.3676 45.8018C45.7775 46.0606 45.508 46.7509 45.7654 47.3442C46.0228 47.9381 46.71 48.2084 47.2994 47.9503C47.4329 47.8917 50.612 46.4781 53.1755 43.5679C54.2038 42.4003 55.1496 42.158 55.7778 42.1684C55.5368 43.8554 54.0933 49.5396 56.2883 55.4759C56.2337 56.3633 55.9017 60.2574 54.2141 62.8965C53.8657 63.441 54.0229 64.1661 54.5638 64.5164C55.1071 64.8668 55.827 64.7081 56.1748 64.1642C57.2195 62.5309 57.8205 60.5717 58.1659 58.9164C58.6084 59.4621 59.0813 59.9077 59.5736 60.2372C60.109 60.5961 60.8326 60.4515 61.1902 59.9125C61.5471 59.3742 61.4026 58.6467 60.8666 58.2872Z" fill="white"></path></g><defs><clipPath id="clip0"><rect width="79.5652" height="80" fill="white" transform="translate(0.966797)"></rect></clipPath></defs></svg>