<svg xmlns="http://www.w3.org/2000/svg" width="81" height="80" viewBox="0 0 81 80" fill="none"><g clip-path="url(#clip0)"><path d="M70.5946 0.3125C65.2705 0.3125 60.9395 4.64417 60.9395 9.96765C60.9395 14.8944 64.6498 18.9685 69.4227 19.5496V28.9557H67.3396C65.0404 28.9557 63.1697 30.8258 63.1697 33.125C63.1697 34.2926 63.6525 35.3485 64.4276 36.106V73.7396C64.4276 77.0166 67.0936 79.6826 70.3706 79.6826H70.818C74.095 79.6826 76.761 77.0166 76.761 73.7396V61.0065C76.761 60.3589 76.2367 59.8346 75.5891 59.8346C74.9415 59.8346 74.4172 60.3589 74.4172 61.0065V73.7396C74.4172 75.7245 72.8029 77.3389 70.818 77.3389H70.3706C68.3864 77.3389 66.7714 75.7245 66.7714 73.7396V42.9303H74.4172V55.5377C74.4172 56.1847 74.9421 56.7096 75.5891 56.7096C76.2367 56.7096 76.761 56.1847 76.761 55.5377C76.761 54.8328 76.761 37.6678 76.761 36.106C77.5367 35.3485 78.0195 34.292 78.0195 33.125C78.0195 30.8258 76.1488 28.9551 73.8496 28.9551H71.7665V19.549C76.5394 18.9685 80.2498 14.8944 80.2498 9.96765C80.2498 4.64355 75.9181 0.3125 70.5946 0.3125V0.3125ZM74.4172 37.2559V40.5865H66.7714V37.2559C66.9252 37.2766 67.1559 37.2943 67.3396 37.2943H73.8496C74.0345 37.2943 74.2744 37.2754 74.4172 37.2559ZM75.6758 33.125C75.6758 34.1339 74.8475 34.9512 73.8496 34.9512H67.3396C66.3551 34.9512 65.5134 34.1455 65.5134 33.125C65.5134 32.1185 66.3325 31.2988 67.3396 31.2988H73.8496C74.8567 31.2988 75.6758 32.1179 75.6758 33.125ZM70.5946 17.2791C66.5632 17.2791 63.2832 13.999 63.2832 9.96765C63.2832 5.93628 66.5632 2.65625 70.5946 2.65625C74.626 2.65625 77.906 5.93628 77.906 9.96765C77.906 13.999 74.626 17.2791 70.5946 17.2791Z" fill="white"></path><path d="M70.5957 4.50879C67.5854 4.50879 65.1367 6.95813 65.1367 9.96777C65.1367 12.978 67.5854 15.4268 70.5957 15.4268C73.6053 15.4268 76.0547 12.978 76.0547 9.96777C76.0547 6.95813 73.6053 4.50879 70.5957 4.50879ZM70.5957 13.083C68.8782 13.083 67.4805 11.6853 67.4805 9.96777C67.4805 8.25024 68.8776 6.85254 70.5957 6.85254C72.3132 6.85254 73.7109 8.24963 73.7109 9.96777C73.7109 11.6853 72.3132 13.083 70.5957 13.083Z" fill="white"></path><path d="M12.2861 65.643C12.2861 68.2846 12.8361 71.6092 13.9207 75.5246C15.5576 81.4352 24.1227 80.8945 25.0071 74.8233C25.5271 71.2509 25.7908 68.3462 25.7908 66.1899C25.7908 62.6468 27.4259 58.5757 30.9379 58.5757C34.451 58.5757 36.085 62.6462 36.085 66.1899C36.085 68.3475 36.3486 71.2521 36.8693 74.8233C37.753 80.8902 46.3212 81.4249 47.9557 75.5246C49.0397 71.6086 49.5902 68.284 49.5902 65.643C49.5902 56.7734 61.6263 47.1554 61.6263 29.9716C61.6263 20.0302 56.038 11.7264 47.7213 9.30937C47.1006 9.12932 46.4499 9.48637 46.2693 10.1077C46.0886 10.7297 46.4463 11.3797 47.0676 11.5603C54.3735 13.6838 59.2826 21.0824 59.2826 29.9716C59.2826 46.6751 47.2465 55.7071 47.2465 65.643C47.2465 68.0722 46.7252 71.1868 45.6968 74.899C44.7342 78.3731 39.7074 78.0502 39.1886 74.4858C38.6844 71.0257 38.4293 68.2345 38.4293 66.1899C38.4293 61.2143 35.8225 56.232 30.9385 56.232C26.0398 56.232 23.4476 61.232 23.4476 66.1899C23.4476 68.2333 23.1919 71.0245 22.6877 74.4858C22.1683 78.0533 17.1415 78.37 16.1796 74.899C15.1517 71.1868 14.6305 68.0728 14.6305 65.643C14.6299 55.7071 2.59375 46.6751 2.59375 29.9716C2.59375 15.1773 16.0105 6.00859 27.8049 13.8559C29.7086 15.1224 32.1683 15.1224 34.0714 13.8559C36.5995 12.1738 39.2704 11.2216 42.0096 11.0251C42.6554 10.9793 43.1406 10.4184 43.0948 9.77263C43.0485 9.12688 42.4869 8.63798 41.8424 8.68742C38.6936 8.91264 35.6425 9.99541 32.7732 11.9046C31.6581 12.6462 30.2176 12.6468 29.1031 11.9046C15.7383 3.01115 0.25 13.3011 0.25 29.9716C0.25 47.1548 12.2861 56.7734 12.2861 65.643Z" fill="white"></path></g><defs><clipPath id="clip0"><rect width="80" height="80" fill="white" transform="translate(0.25)"></rect></clipPath></defs></svg>