<svg xmlns="http://www.w3.org/2000/svg" width="81" height="80" viewBox="0 0 81 80" fill="none"><g clip-path="url(#clip0)"><path d="M47.5778 32.1375C47.3459 31.529 47.1873 30.901 47.1064 30.2714C46.9112 28.749 45.6476 27.5829 44.1015 27.4987C42.2027 27.3968 40.6711 29.0255 40.89 30.9025C41.0272 32.0792 41.313 33.2435 41.7396 34.3625C41.8145 34.5596 41.8866 34.7567 41.9557 34.954C42.4723 36.4309 44.0086 37.2733 45.516 36.9358L45.6355 36.9091C47.424 36.5089 48.4633 34.6352 47.8583 32.9055C47.7704 32.6535 47.676 32.3952 47.5778 32.1375ZM45.1243 34.6228C45.1087 34.6263 44.9892 34.653 45.0048 34.6496C44.6489 34.7289 44.2887 34.5276 44.1673 34.1805C44.0912 33.9631 44.0119 33.7458 43.9291 33.5284C43.5714 32.5903 43.332 31.6155 43.2172 30.6313C43.167 30.2015 43.5144 29.8371 43.9318 29.8371C43.9457 29.8371 43.9599 29.8374 43.9741 29.8381C44.3911 29.861 44.731 30.1683 44.7824 30.5696C44.8869 31.3829 45.0909 32.1912 45.3884 32.9719C45.4787 33.209 45.5656 33.4467 45.6466 33.6788C45.79 34.0885 45.5446 34.5287 45.1243 34.6228Z" fill="white"></path><path d="M46.6561 50.4177C47.2713 50.6191 47.9327 50.2833 48.1337 49.6685C49.0057 47.0031 49.4311 44.2419 49.3978 41.4616C49.3745 39.5145 47.5677 38.0767 45.6644 38.503L45.5318 38.5327C44.1298 38.8463 43.123 40.1088 43.1377 41.5346C43.1797 45.5378 42.0018 49.379 39.6364 52.951C38.7538 54.2844 39.0596 56.0922 40.3327 57.0665L40.4296 57.1409C41.8431 58.2225 43.8707 57.8716 44.8453 56.4025C45.077 56.0531 45.3025 55.6973 45.5153 55.3451C45.85 54.7914 45.6722 54.0712 45.1184 53.7366C44.565 53.4022 43.8444 53.5796 43.51 54.1335C43.3142 54.4576 43.1066 54.7852 42.8929 55.1072C42.6633 55.4535 42.1853 55.5343 41.8537 55.2805L41.7569 55.2061C41.4578 54.9773 41.3844 54.5548 41.5899 54.2444C44.2185 50.2747 45.5274 45.9902 45.4806 41.5101C45.4771 41.1833 45.7138 40.8926 46.0435 40.8189L46.1761 40.7892C46.6272 40.6893 47.0497 41.0296 47.0553 41.4897C47.0853 44.0124 46.6992 46.5192 45.9071 48.9401C45.7058 49.5548 46.0413 50.2163 46.6561 50.4177Z" fill="white"></path><path d="M70.6407 22.206C68.573 17.0284 64.2795 13.2645 58.8612 11.8792C53.4208 10.4881 47.7904 11.7239 43.4206 15.3423C42.5836 16.0357 41.3702 15.9605 40.6581 15.1713C38.3899 12.6574 36.7892 9.70106 35.9005 6.38459L34.4971 1.14709C34.3162 0.471706 33.7017 0 33.0024 0H27.9005C26.8834 0 26.1426 0.963718 26.4062 1.94759L28.1515 8.46088C28.319 9.08566 28.9609 9.45646 29.5863 9.28918C30.2113 9.12174 30.5821 8.47931 30.4146 7.85438L28.9377 2.34291H32.3919L33.6375 6.99094C34.623 10.6687 36.3998 13.9491 38.9188 16.7409C40.4748 18.4651 43.1085 18.6433 44.918 17.1443C48.7404 13.9805 53.6254 12.9591 58.2811 14.1492C62.9661 15.3469 66.6781 18.6004 68.4651 23.075C73.3583 35.3277 72.4296 47.3423 65.8501 56.9058C61.0412 63.8944 53.3978 68.249 44.8802 68.8532C37.1019 69.4053 29.576 66.7788 23.8618 61.5931C22.8923 60.681 22.3381 59.3892 22.3381 58.0329C22.3381 57.3859 21.8138 56.8614 21.1667 56.8614C20.5196 56.8614 19.9952 57.3859 19.9952 58.0329C19.9952 58.1414 19.9977 58.2498 20.0026 58.3577C19.1538 58.0104 18.2224 57.8743 17.2745 57.9751C15.497 58.163 13.956 59.1535 13.0466 60.6927C11.7429 62.8992 12.1265 65.7345 13.9794 67.5876L24.0491 77.6572H19.3309L11.55 69.8763C8.69114 67.0175 8.10635 62.5756 10.1278 59.0745C11.3692 56.9242 13.3656 55.4286 15.7488 54.8632C18.1223 54.3001 20.6572 54.6984 22.5299 55.9288C25.0141 57.5608 27.9886 58.113 30.6897 57.4432C33.5151 56.743 36.0393 55.0909 37.7979 52.7913C38.6086 51.7309 39.311 50.5616 39.885 49.3158C41.9913 44.7456 42.1279 39.7672 40.2803 34.9188C39.1529 31.9606 38.9314 28.7949 39.6332 25.7327C41.3014 24.7182 42.7046 23.299 43.6999 21.6176C44.0294 21.0609 43.8453 20.3423 43.2885 20.0128C42.7318 19.6834 42.0133 19.8674 41.6837 20.4243C41.1475 21.3302 40.4638 22.1413 39.6676 22.8232C39.4355 22.1251 39.0234 21.4845 38.4519 20.97C35.9481 18.7155 33.9093 16.0471 32.392 13.0388C32.1009 12.461 31.3963 12.2292 30.8187 12.5204C30.2411 12.8117 30.0088 13.5161 30.3003 14.0939C31.9488 17.3624 34.1638 20.2617 36.8842 22.7113C37.4377 23.2097 37.6658 23.9639 37.4794 24.6795C36.5209 28.3586 36.7324 32.1879 38.0911 35.7533C39.7094 39.9996 39.594 44.3504 37.7573 48.3354C37.2553 49.4245 36.6429 50.4449 35.9369 51.3684C34.5005 53.2468 32.437 54.5966 30.1263 55.1692C28.0566 55.6821 25.7564 55.2453 23.8167 53.9709C21.4153 52.3932 18.1973 51.8746 15.2082 52.5837C12.191 53.2995 9.66626 55.1887 8.09901 57.9032C5.54836 62.3209 6.28622 67.9257 9.89337 71.533L17.9072 79.5469C18.1995 79.8391 18.5879 80 19.0012 80H25.9704C26.5985 80 27.1595 79.6251 27.3998 79.0449C27.64 78.4646 27.5083 77.8028 27.0644 77.3589L15.636 65.9307C14.5394 64.834 14.304 63.1701 15.0636 61.8843C15.5921 60.9898 16.4877 60.4139 17.5206 60.3047C18.5696 60.1936 19.5847 60.5785 20.3048 61.3601C20.9402 62.0499 21.602 62.7065 22.2878 63.3291C22.3222 63.3609 22.3655 63.4009 22.395 63.4258C28.4189 68.8427 36.4726 71.7986 45.0458 71.1902C54.2783 70.5353 62.5647 65.8127 67.78 58.2337C74.818 48.0043 75.8339 35.2093 70.6407 22.206Z" fill="white"></path></g><defs><clipPath id="clip0"><rect width="80" height="80" fill="white" transform="translate(0.25)"></rect></clipPath></defs></svg>