<svg xmlns="http://www.w3.org/2000/svg" width="81" height="80" viewBox="0 0 81 80" fill="none"><g clip-path="url(#clip0)"><path d="M44.9375 77.361C42.9989 77.361 41.4219 75.784 41.4219 73.8454V59.8481C41.4219 59.2009 41.9466 58.6762 42.5938 58.6762C43.2409 58.6762 43.7656 59.2009 43.7656 59.8481V73.8454C43.7656 74.4917 44.2912 75.0173 44.9375 75.0173C45.5838 75.0173 46.1094 74.4917 46.1094 73.8454V47.3204C45.4195 47.7203 44.6188 47.9495 43.7656 47.9495V55.1607C43.7656 55.8079 43.2409 56.3326 42.5938 56.3326C41.9466 56.3326 41.4219 55.8079 41.4219 55.1607V47.3204C40.9809 47.0648 40.5853 46.7393 40.25 46.3593C39.9147 46.7393 39.5191 47.0648 39.0781 47.3204V73.8456C39.0781 75.7842 37.5011 77.3612 35.5625 77.3612C33.6239 77.3612 32.0469 75.7842 32.0469 73.8456V43.262C32.0469 40.775 30.308 38.0812 28.2945 34.9621C26.4109 32.0442 24.2544 28.7037 22.8095 24.567H20.3569C19.6794 27.5492 16.465 29.815 12.6136 29.815C8.47984 29.815 5.07984 27.2043 4.76297 23.8995C2.61375 21.68 0.25 18.4793 0.25 13.319C0.25 10.4175 1.42125 7.71215 3.54781 5.70152C5.63609 3.72715 8.40734 2.6398 11.3509 2.6398C15.7425 2.6398 19.8611 5.13965 22.5866 6.79371C23.4875 7.34059 24.6034 8.01777 24.9859 8.0973C25.2516 8.04543 25.9786 7.62715 26.5664 7.28902C29.0478 5.86105 33.2008 3.47121 40.25 3.47121C42.3155 3.47121 44.3102 3.68371 46.1787 4.10309C46.8103 4.2448 47.2073 4.87152 47.0656 5.50309C46.9241 6.13465 46.2977 6.53168 45.6656 6.38996C43.9653 6.00855 42.1431 5.81496 40.25 5.81496C33.827 5.81496 30.0138 8.00918 27.7353 9.32043C26.5594 9.99715 25.7823 10.4442 24.9797 10.4442C24.0837 10.4442 23.0625 9.82433 21.3705 8.7973C15.087 4.98355 12.8387 4.98355 11.3509 4.98355C9.00859 4.98355 6.80922 5.8434 5.15797 7.40465C3.50437 8.96809 2.59375 11.0686 2.59375 13.319C2.59375 16.2493 3.42219 18.6286 5.31391 20.987C6.45469 18.6965 9.17234 17.0604 12.3625 16.9786C9.89937 16.9875 8.05531 16.4015 6.86266 15.2343C6.02437 14.4136 5.5625 13.3264 5.5625 12.1731C5.5625 10.8098 6.13859 9.58683 7.18453 8.72965C8.21625 7.88418 9.6475 7.4373 11.3236 7.4373C14.6822 7.4373 17.8586 9.22637 19.4531 10.2928C20.1294 10.7451 23.5028 13.0871 23.5028 14.7818C23.5028 23.2175 27.2516 29.0246 30.2638 33.6907C32.4781 37.1212 34.3908 40.0839 34.3908 43.2617C34.3908 44.554 35.4422 45.6054 36.7345 45.6054C38.0269 45.6054 39.0783 44.554 39.0783 43.2617C39.0783 36.8386 37.7964 31.5789 35.1594 27.182C34.8264 26.627 35.0066 25.9071 35.5616 25.5743C36.1166 25.2414 36.8364 25.4215 37.1692 25.9765C38.5238 28.235 39.5487 30.6909 40.2527 33.379C42.3214 25.464 46.67 21.3428 49.5725 18.5918C51.6539 16.6192 52.4048 15.8023 52.027 15.0457C51.9603 14.9118 51.8484 14.6878 50.9939 14.7731C50.0948 14.8628 48.8412 15.2732 47.5141 15.7078C45.3014 16.4323 42.7934 17.2536 40.25 17.2536C37.7066 17.2536 35.1986 16.4323 32.9859 15.7078C31.6587 15.2732 30.4052 14.8628 29.5061 14.7731C28.6514 14.6876 28.5397 14.9118 28.473 15.0457C28.0953 15.8023 28.8463 16.6192 30.9277 18.592C31.9895 19.5984 33.3113 20.8511 34.6164 22.4067C35.0323 22.9025 34.9677 23.6417 34.4719 24.0576C33.9759 24.4736 33.2369 24.4089 32.8209 23.9131C31.6019 22.4601 30.387 21.3089 29.3153 20.2931C27.1 18.1936 25.1869 16.3804 26.3758 13.9989C27.12 12.5081 28.6155 12.3284 29.7386 12.4411C30.8917 12.5561 32.2 12.9845 33.715 13.4806C35.7611 14.1506 38.0802 14.91 40.2497 14.91C42.4192 14.91 44.7384 14.1506 46.7844 13.4806C48.2994 12.9845 49.6077 12.5561 50.7608 12.4411C51.8841 12.3289 53.3794 12.5082 54.1236 13.9989C55.3127 16.3804 53.3995 18.1936 51.1842 20.2931C49.2575 22.119 46.8598 24.3915 44.8967 27.9532C42.5581 32.1962 41.4214 37.2037 41.4214 43.2617C41.4214 44.554 42.4728 45.6054 43.7652 45.6054C45.0575 45.6054 46.1089 44.554 46.1089 43.2617C46.1089 40.0839 48.0214 37.1212 50.2359 33.6907C53.2481 29.0246 56.9969 23.2176 56.9969 14.7818C56.9969 13.087 60.3703 10.745 61.0466 10.2928C62.6411 9.22637 65.8175 7.4373 69.1761 7.4373C70.8522 7.4373 72.2834 7.88418 73.3152 8.72965C74.3614 9.58699 74.9375 10.8098 74.9375 12.1731C74.9375 13.3264 74.4756 14.4136 73.6372 15.2343C72.4541 16.3925 70.6239 16.9787 68.1947 16.9787C68.1756 16.9787 68.1566 16.9787 68.1373 16.9786C71.3273 17.0604 74.045 18.6968 75.1859 20.9868C77.0778 18.6279 77.9062 16.2484 77.9062 13.319C77.9062 11.0686 76.9956 8.96793 75.342 7.40449C73.6908 5.84324 71.4914 4.9834 69.1491 4.9834C67.6614 4.9834 65.4131 4.9834 59.1295 8.79715C57.4375 9.82418 56.4163 10.444 55.5203 10.444C54.7177 10.444 53.9408 9.99699 52.7647 9.32012C51.977 8.86684 50.9967 8.30277 49.8041 7.76777C49.2136 7.50293 48.9495 6.80949 49.2144 6.21887C49.4794 5.6284 50.1728 5.36449 50.7633 5.62918C52.0636 6.21246 53.1005 6.80918 53.9337 7.28871C54.5216 7.62699 55.2486 8.04527 55.5142 8.09715C55.8967 8.01777 57.0127 7.34043 57.9136 6.79355C60.6391 5.13949 64.7577 2.63965 69.1492 2.63965C72.093 2.63965 74.8642 3.72699 76.9523 5.70137C79.0788 7.71215 80.25 10.4175 80.25 13.319C80.25 18.4736 77.8897 21.6765 75.7369 23.8995C75.4202 27.2045 72.02 29.815 67.8863 29.815C64.035 29.815 60.8205 27.5493 60.143 24.567H57.6903C56.2455 28.7037 54.0891 32.0442 52.2053 34.9621C50.1919 38.0811 48.453 40.7748 48.453 43.262V73.8456C48.4531 75.784 46.8761 77.361 44.9375 77.361ZM34.3906 47.3204V73.8456C34.3906 74.4918 34.9162 75.0175 35.5625 75.0175C36.2088 75.0175 36.7344 74.4918 36.7344 73.8456V47.9495C35.8812 47.9495 35.0805 47.7203 34.3906 47.3204ZM67.8863 19.3192C64.8364 19.3192 62.3553 21.1476 62.3553 23.3951C62.3553 25.6426 64.8364 27.4712 67.8863 27.4712C70.9359 27.4712 73.417 25.6426 73.417 23.3951C73.417 21.1476 70.9359 19.3192 67.8863 19.3192ZM12.6137 19.3192C9.56406 19.3192 7.08297 21.1476 7.08297 23.3951C7.08297 25.6426 9.56406 27.4712 12.6137 27.4712C15.6636 27.4712 18.1447 25.6426 18.1447 23.3951C18.1447 21.1476 15.6634 19.3192 12.6137 19.3192ZM58.4036 22.2232H60.143C60.8198 19.2442 64.0286 16.98 67.8745 16.9754C67.8702 16.9754 67.8655 16.9753 67.8611 16.9751C67.2141 16.9614 66.7006 16.4256 66.7145 15.7786C66.7284 15.1315 67.2603 14.6229 67.9113 14.632C70.3313 14.6864 71.4688 14.0775 71.9977 13.5595C72.4903 13.0773 72.5936 12.5395 72.5936 12.1732C72.5936 10.6979 71.2842 9.78137 69.1762 9.78137C64.6681 9.78137 59.8983 13.9057 59.3405 14.9279C59.3283 17.6032 58.9759 20.0193 58.4036 22.2232ZM20.357 22.2232H22.0964C21.5241 20.0193 21.1717 17.6032 21.1594 14.9278C20.6016 13.9056 15.8317 9.78121 11.3236 9.78121C9.21563 9.78121 7.90625 10.6978 7.90625 12.1731C7.90625 12.5393 8.00969 13.0771 8.50219 13.5593C9.03125 14.0771 10.1686 14.6843 12.5886 14.6318C13.235 14.6171 13.7714 15.1315 13.7853 15.7784C13.7991 16.4254 13.2858 16.9612 12.6388 16.975C12.6344 16.9751 12.6297 16.9751 12.6253 16.9753C16.4714 16.98 19.6802 19.2442 20.357 22.2232Z" fill="white"></path></g><defs><clipPath id="clip0"><rect width="80" height="80" fill="white" transform="translate(0.25)"></rect></clipPath></defs></svg>