<svg xmlns="http://www.w3.org/2000/svg" width="81" height="80" viewBox="0 0 81 80" fill="none"><path d="M58.8179 22.0115C59.3679 21.7556 59.6076 21.1022 59.3514 20.552C58.0024 17.6481 54.4584 16.1492 51.2653 17.7506C49.0115 14.1586 44.4017 12.6889 40.4586 14.5214C39.9081 14.777 39.6696 15.4301 39.9243 15.9806C40.1807 16.5309 40.8344 16.7688 41.3843 16.5141C44.369 15.1263 47.8226 16.3305 49.4604 19.1093C47.931 20.8379 47.4666 23.3716 48.4998 25.5952C48.6863 25.9959 49.0826 26.2312 49.4971 26.2312C50.2909 26.2312 50.8335 25.4022 50.4927 24.6689C49.6129 22.7759 50.4369 20.5203 52.33 19.6407C54.223 18.7609 56.4792 19.5852 57.3588 21.4783C57.6146 22.0288 58.2677 22.2665 58.8179 22.0115Z" fill="white"></path><path d="M29.1158 25.9884C29.6672 26.2414 30.3188 25.999 30.572 25.4476C30.825 24.8959 30.5835 24.2437 30.0315 23.9905C26.9069 22.558 23.0282 23.6371 21.2718 27.0701C19.3276 26.4784 17.1763 26.5404 15.1927 27.4614C14.6419 27.7173 14.4037 28.3703 14.6592 28.9215C14.9151 29.4717 15.5685 29.71 16.1184 29.4547C19.2944 27.979 23.0776 29.3618 24.5532 32.5372C24.7389 32.9376 25.1358 33.173 25.55 33.173C26.344 33.173 26.8866 32.3448 26.5459 31.6107C25.8161 30.0413 24.6631 28.8051 23.2897 27.9579C24.5276 25.6997 27.0608 25.046 29.1158 25.9884Z" fill="white"></path><path d="M48.2043 35.1188C47.7114 35.4731 47.5983 36.1596 47.9526 36.6523C48.306 37.1449 48.9928 37.2583 49.4852 36.904C51.5228 35.4431 54.355 35.9073 55.8171 37.9446C56.0316 38.2439 56.3685 38.4026 56.7108 38.4026C57.5909 38.4023 58.1291 37.397 57.6024 36.6631C55.432 33.639 51.2284 32.9484 48.2043 35.1188Z" fill="white"></path><path d="M38.9959 29.4581C38.589 31.9323 36.2582 33.6056 33.7828 33.1993C33.1835 33.1006 32.6189 33.5066 32.5205 34.1056C32.4224 34.704 32.8278 35.2695 33.4262 35.3682C33.7961 35.4287 34.1656 35.4584 34.5329 35.4584C37.7182 35.4584 40.614 33.1629 41.1639 29.8142C41.2623 29.2154 40.8566 28.6499 40.2582 28.5521C39.6595 28.4525 39.0943 28.8594 38.9959 29.4581Z" fill="white"></path><path d="M74.3448 28.0091C74.8748 24.5053 72.5851 20.6886 69.1771 19.3276C69.2999 18.0488 69.0058 16.6977 68.314 15.428C68.024 14.8951 67.3566 14.6983 66.8231 14.9891C66.2907 15.2797 66.0939 15.9462 66.3845 16.4792C66.9814 17.5752 67.1565 18.7732 66.8645 19.7671C66.6865 20.3713 67.0528 20.9988 67.6624 21.1448C70.6871 21.8708 72.8378 25.3905 72.0657 28.1784C71.9374 28.6443 72.1277 29.1399 72.5361 29.399C74.504 30.6496 75.1741 34.005 73.66 36.7107C73.1835 35.6043 72.3745 34.2456 70.8997 32.9633C70.442 32.565 69.7482 32.6131 69.3495 33.0711C68.9517 33.5288 68.9999 34.2224 69.4579 34.6211C70.8798 35.8576 71.804 37.3582 72.1671 39.2036C72.1777 39.2577 72.1553 39.3112 72.173 39.364C73.5449 43.3655 69.5128 48.2654 66.0813 46.7207C66.0128 46.6898 65.9438 46.7307 65.8733 46.7148C65.1107 46.2468 64.2716 45.924 63.346 45.924H57.9212C57.3142 45.924 56.8225 46.4152 56.8225 47.0224C56.8225 47.6287 57.3142 48.1208 57.9212 48.1208H63.3448C65.1289 48.1208 66.437 49.8012 65.9967 51.5321C65.982 51.5885 65.9053 52.0104 65.5945 53.679C65.0352 55.8121 63.1112 57.2983 60.9038 57.2983H53.9379C51.7302 57.2983 49.8066 55.8121 49.2472 53.679C48.9364 52.0104 48.8603 51.5885 48.8462 51.5321C48.4053 49.8033 49.7108 48.1208 51.4967 48.1208H53.2132C53.8207 48.1208 54.3119 47.6287 54.3119 47.0224C54.3119 46.4152 53.8207 45.924 53.2132 45.924H51.4967C48.286 45.924 45.942 48.9346 46.707 52.0374C47.0052 53.6349 47.0953 54.134 47.1097 54.1881C47.9059 57.313 50.7137 59.4954 53.9379 59.4954H60.2235L63.093 72.6823C63.2235 73.2819 63.0778 73.8985 62.6938 74.3759C61.6098 75.7208 59.4053 75.1723 59.133 73.4088C58.5172 69.4284 54.8454 65.7677 46.8542 61.169C41.4414 58.0544 39.8089 53.5606 40.4617 49.6913C42.4649 50.6076 42.1285 51.5577 43.1702 51.5577C44.0486 51.5577 44.5892 50.553 44.0616 49.8191C43.142 48.5374 41.8227 47.7753 40.412 47.3738C40.306 47.2712 40.2405 47.1329 40.0936 47.0782C39.8068 46.9725 39.5051 46.9963 39.2484 47.1155C37.6761 46.9595 36.0457 47.283 34.6641 48.2748C34.1702 48.6282 34.0577 49.3147 34.412 49.808C34.7657 50.3003 35.4523 50.4134 35.9449 50.0594C36.662 49.5444 37.4802 49.3511 38.3024 49.3C38.1679 50.1179 38.1203 51.2345 38.236 52.4842C29.7645 54.1399 24.6943 51.7257 21.4795 44.4472C21.2146 43.3458 20.9628 41.5521 21.2055 40.8C21.3914 40.2224 21.0738 39.6032 20.4972 39.4163C19.9193 39.2301 19.3003 39.5476 19.1138 40.1252C18.7598 41.2227 18.9393 42.793 19.1329 43.8984C17.0586 44.0544 15.5101 42.9366 15.2193 42.1649C15.1085 41.8696 14.8755 41.6361 14.5806 41.5247C13.959 41.2897 13.6849 41.6552 13.0588 41.8288C9.92488 42.7022 6.82029 38.5929 7.716 34.8029C7.98422 33.6678 6.62846 33.6678 5.91048 31.0873C5.14373 28.3311 6.24626 25.6034 8.37053 25.008C8.99186 24.8332 9.33146 24.161 9.09967 23.5561C7.8012 20.1722 10.0433 15.906 13.1064 15.7844C13.659 15.7626 14.1094 15.3334 14.1579 14.7832C14.454 11.4274 17.9314 8.59576 20.8048 9.42038C21.2812 9.55699 21.7907 9.35781 22.048 8.93331C23.427 6.65627 26.6015 5.485 29.0592 6.33048C28.647 6.95387 28.2789 7.77261 28.2166 8.65716C27.9869 8.70651 27.7378 8.73707 27.5336 8.80405C25.9105 9.33607 24.823 10.3937 24.7768 10.438C24.3444 10.864 24.3391 11.5593 24.7645 11.9918C25.1899 12.4254 25.8855 12.4307 26.318 12.005C26.4384 11.8863 29.3057 9.13219 32.226 12.005C32.4405 12.2156 32.7184 12.3199 32.9963 12.3199C33.9728 12.3199 34.4678 11.1281 33.7672 10.438C32.6306 9.32109 31.4884 8.79435 30.4334 8.59635C30.5886 7.84605 31.2619 7.00792 31.5277 6.74441C31.5436 6.72854 31.5369 6.70416 31.5512 6.688C34.3112 3.70268 38.7554 4.00086 40.3959 6.32637C40.5774 6.58312 40.8603 6.75058 41.1717 6.78495C41.4846 6.81873 41.7969 6.71885 42.0304 6.50851C44.5786 4.2065 49.4496 4.92742 50.8771 7.85634C51.1071 8.3296 51.6418 8.57255 52.1497 8.43624C55.088 7.64776 58.6406 9.59723 59.3595 12.4072C59.4949 12.9357 59.997 13.287 60.5381 13.2277C61.4388 13.1334 62.3994 13.2973 63.3201 13.7009C63.8748 13.9451 64.5231 13.6924 64.7675 13.1375C65.0111 12.5811 64.7587 11.9333 64.2035 11.6889C63.2279 11.2606 62.2058 11.0297 61.2038 11.0065C59.8609 7.73295 56.0025 5.61896 52.4141 6.14247C50.1515 2.84017 44.9611 1.93035 41.4452 4.19945C38.632 1.53817 33.5524 1.7491 30.5559 4.57108C27.3148 2.97971 22.9046 4.1454 20.6153 7.14071C16.9225 6.63307 12.9631 9.62132 12.1014 13.7053C8.31971 14.5194 5.76007 19.0887 6.73304 23.31C2.99302 25.297 2.35025 31.1742 5.46365 34.8796C4.6217 40.2286 9.17694 45.275 13.7351 43.921C14.9549 45.4401 17.5539 46.4795 19.8221 46.1102C23.709 54.1969 30.0019 56.3115 38.6191 54.6487C39.37 57.2677 41.2449 60.4754 45.7587 63.0733C53.0108 67.2472 56.4658 70.538 56.9614 73.7443C57.2828 75.818 59.0334 77.3233 61.1248 77.3233C63.8151 77.3233 65.8122 74.8383 65.2411 72.2152L62.4174 59.2407C65.3451 58.5871 67.3425 56.2621 67.7479 54.1182C67.9597 52.2213 68.6997 51.3176 67.8381 49.1102C72.2955 48.7369 75.4682 43.7683 74.4479 39.3388C77.4274 36.1619 77.4717 30.6625 74.3448 28.0091Z" fill="white"></path></svg>