<svg xmlns="http://www.w3.org/2000/svg" width="81" height="80" viewBox="0 0 81 80" fill="none"><g clip-path="url(#clip0)"><path d="M2.42425 56.8717C1.59802 56.3544 1.03164 55.5436 0.8293 54.5887C0.626338 53.6312 0.816019 52.657 1.36334 51.8459L27.122 13.6713C28.1334 12.1726 30.1021 11.6874 31.7012 12.5425C37.3456 15.5612 44.0977 15.562 49.7635 12.5444C51.3675 11.6901 53.3385 12.1738 54.3483 13.6689L60.3006 22.4811C60.6628 23.0175 60.5219 23.7459 59.9855 24.1081C59.4491 24.4706 58.7207 24.3293 58.3585 23.793L52.4062 14.9807C52.0696 14.4825 51.4068 14.3245 50.8651 14.6129C47.6882 16.3049 44.2054 17.151 40.7263 17.1513C37.2437 17.1515 33.7651 16.3041 30.5961 14.6094C30.0602 14.3226 29.4018 14.4829 29.0649 14.9822L3.30609 53.1568C3.11735 53.4365 3.05204 53.7724 3.12204 54.1027C3.19141 54.4304 3.38547 54.7083 3.66811 54.8852C14.9577 61.954 27.9442 65.6402 41.2217 65.5333C54.2022 65.4327 66.8634 61.75 77.8366 54.8829C78.1169 54.7074 78.3091 54.4315 78.3783 54.1057C78.4483 53.7748 78.3827 53.4381 78.1933 53.1578L61.0484 27.7755C60.6862 27.2391 60.8272 26.5107 61.3635 26.1485C61.9001 25.7862 62.6283 25.9273 62.9905 26.4636L80.1351 51.8459C80.6835 52.6578 80.8738 53.6329 80.6707 54.5915C80.4688 55.5449 79.9037 56.3539 79.0795 56.8697C67.7386 63.9668 54.1493 67.8781 40.7352 67.8781C27.3211 67.8781 13.9345 64.0787 2.42425 56.8717ZM45.1241 58.5752C38.9888 58.5752 31.9487 57.1936 26.7514 54.9693C26.1564 54.7147 25.8805 54.0259 26.1352 53.4309C26.3897 52.8357 27.0786 52.5597 27.6736 52.8147C32.5986 54.9222 39.2852 56.2316 45.1242 56.2316C48.2019 56.2316 51.0723 55.6983 53.6558 54.6465C55.3361 53.9624 56.4217 52.35 56.4217 50.5385V44.2288C56.4217 42.8964 57.1315 41.6427 58.2738 40.9572L61.3532 39.1096V36.6671C61.3532 36.0199 61.8777 35.4952 62.5251 35.4952C63.1724 35.4952 63.6969 36.0199 63.6969 36.6671V39.773C63.6969 40.1848 63.481 40.5661 63.1279 40.7779L59.4795 42.9667C59.0389 43.2311 58.7652 43.7148 58.7652 44.2287V50.5383C58.7652 53.3073 57.1065 55.7719 54.5394 56.817C51.674 57.9837 48.5063 58.5752 45.1241 58.5752ZM23.1479 52.8395C22.9086 52.8395 22.6672 52.7664 22.4589 52.6147C18.6496 49.8393 16.753 46.1992 16.8219 41.7956C16.8691 38.777 18.0797 35.9569 20.2308 33.855C22.3761 31.7588 25.2221 30.6043 28.2445 30.6043H28.2448C33.6626 30.6043 37.5548 33.635 39.0127 38.9493C39.7155 39.2048 40.3997 39.5285 40.9853 39.981C41.49 38.851 42.2973 37.8612 43.3423 37.1356C43.8743 36.7664 44.6041 36.8983 44.9731 37.4297C45.3422 37.9612 45.2108 38.6915 44.6791 39.0606C43.4613 39.9063 42.7329 41.2964 42.7307 42.7789L42.7287 44.0985C45.5131 43.0156 48.9582 43.0212 51.7342 44.1006V41.5253C51.7342 40.1929 52.444 38.9393 53.5863 38.2537L56.6657 36.4061V33.9636C56.6657 33.3164 57.1902 32.7917 57.8376 32.7917C58.4849 32.7917 59.0094 33.3164 59.0094 33.9636V37.0697C59.0094 37.4813 58.7935 37.8628 58.4404 38.0745L54.792 40.2633C54.3514 40.5277 54.0777 41.0113 54.0777 41.5253V46.0099C54.0777 46.4413 53.8407 46.8377 53.4608 47.0419C53.0815 47.2461 52.6198 47.2255 52.2598 46.9873C49.6725 45.2777 45.4638 45.1716 42.6784 46.6992C42.5325 47.6211 42.054 48.459 41.317 49.0582L37.2448 52.3694C36.7426 52.7775 36.0045 52.7015 35.5963 52.1994C35.188 51.6972 35.2641 50.9591 35.7663 50.5508L39.8386 47.2397C40.183 46.9597 40.381 46.5447 40.3819 46.1011L40.3852 43.9298C40.383 43.9006 40.3819 43.8712 40.3819 43.8415C40.3819 42.2894 39.7514 41.6197 37.6839 40.975C37.2861 40.851 36.984 40.5251 36.8906 40.1188C35.8122 35.4279 32.8225 32.9481 28.2445 32.9481C25.8377 32.9481 23.5734 33.8654 21.8684 35.5313C20.1626 37.1983 19.2024 39.436 19.1649 41.8324C19.1079 45.4802 20.6368 48.3876 23.8387 50.7205C24.3618 51.1016 24.4768 51.8345 24.0957 52.3576C23.8668 52.6725 23.5098 52.8395 23.1479 52.8395Z" fill="white"></path></g><defs><clipPath id="clip0"><rect width="80" height="80" fill="white" transform="translate(0.75)"></rect></clipPath></defs></svg>