<svg xmlns="http://www.w3.org/2000/svg" width="81" height="80" viewBox="0 0 81 80" fill="none"><g clip-path="url(#clip0)"><path d="M45.0023 12.791C45.6496 12.791 46.1741 12.2663 46.1741 11.6191C46.1741 10.972 45.6496 10.4473 45.0023 10.4473H35.498C34.8507 10.4473 34.3262 10.972 34.3262 11.6191V24.194C34.3262 24.8412 34.8507 25.3659 35.498 25.3659H45.0023C45.6496 25.3659 46.1741 24.8412 46.1741 24.194C46.1741 23.5468 45.6496 23.0221 45.0023 23.0221H36.6699V19.0785H45.0023C45.6496 19.0785 46.1741 18.5538 46.1741 17.9066C46.1741 17.2595 45.6496 16.7348 45.0023 16.7348H36.6699V12.791H45.0023Z" fill="white"></path><path d="M24.9336 28.6963C24.2863 28.6963 23.7617 29.221 23.7617 29.8682V37.2914C23.7617 37.9386 24.2863 38.4633 24.9336 38.4633C25.5809 38.4633 26.1055 37.9386 26.1055 37.2914V31.04H28.6725V37.2914C28.6725 37.9386 29.197 38.4633 29.8444 38.4633C30.4917 38.4633 31.0163 37.9386 31.0163 37.2914V31.04H33.5834V37.2914C33.5834 37.9386 34.108 38.4633 34.7553 38.4633C35.4027 38.4633 35.9272 37.9386 35.9272 37.2914V29.8682C35.9272 29.221 35.4027 28.6963 34.7553 28.6963H24.9336Z" fill="white"></path><path d="M55.5641 29.8408C56.2114 29.8408 56.7359 29.3161 56.7359 28.6689C56.7359 28.0218 56.2114 27.4971 55.5641 27.4971H48.1406C47.4933 27.4971 46.9688 28.0218 46.9688 28.6689V38.4905C46.9688 39.1377 47.4933 39.6624 48.1406 39.6624H55.5641C56.2114 39.6624 56.7359 39.1377 56.7359 38.4905C56.7359 37.8433 56.2114 37.3186 55.5641 37.3186H49.3125V34.7516H55.5641C56.2114 34.7516 56.7359 34.2269 56.7359 33.5797C56.7359 32.9325 56.2114 32.4079 55.5641 32.4079H49.3125V29.8408H55.5641Z" fill="white"></path><path d="M40.2485 55.8466C40.8959 55.8466 41.4204 55.3221 41.4204 54.6747V49.5869H43.2177V54.6747C43.2177 55.3221 43.7423 55.8466 44.3896 55.8466C45.037 55.8466 45.5615 55.3221 45.5615 54.6747V48.415C45.5615 47.7677 45.037 47.2432 44.3896 47.2432H36.1074C35.4601 47.2432 34.9355 47.7677 34.9355 48.415V54.6747C34.9355 55.3221 35.4601 55.8466 36.1074 55.8466C36.7548 55.8466 37.2793 55.3221 37.2793 54.6747V49.5869H39.0766V54.6747C39.0766 55.3221 39.6012 55.8466 40.2485 55.8466Z" fill="white"></path><path d="M28.8964 48.5762C29.5437 48.5762 30.0683 48.0516 30.0683 47.4043C30.0683 46.757 29.5437 46.2324 28.8964 46.2324H22.6367C21.9894 46.2324 21.4648 46.757 21.4648 47.4043V55.6865C21.4648 56.3338 21.9894 56.8584 22.6367 56.8584H28.8964C29.5437 56.8584 30.0683 56.3338 30.0683 55.6865C30.0683 55.0391 29.5437 54.5146 28.8964 54.5146H23.8086V52.7173H28.8964C29.5437 52.7173 30.0683 52.1927 30.0683 51.5454C30.0683 50.8981 29.5437 50.3735 28.8964 50.3735H23.8086V48.5762H28.8964Z" fill="white"></path><path d="M51.6016 56.8584H57.8612C58.5086 56.8584 59.0331 56.3338 59.0331 55.6865C59.0331 55.0391 58.5086 54.5146 57.8612 54.5146H52.7734V52.7173H57.8612C58.5086 52.7173 59.0331 52.1927 59.0331 51.5454C59.0331 50.8981 58.5086 50.3735 57.8612 50.3735H52.7734V48.5762H57.8612C58.5086 48.5762 59.0331 48.0516 59.0331 47.4043C59.0331 46.757 58.5086 46.2324 57.8612 46.2324H51.6016C50.9542 46.2324 50.4297 46.757 50.4297 47.4043V55.6865C50.4297 56.3338 50.9542 56.8584 51.6016 56.8584Z" fill="white"></path><path d="M17.9141 42.7559C17.9141 43.4032 18.4386 43.9277 19.0859 43.9277H61.4125C62.0598 43.9277 62.5844 43.4032 62.5844 42.7559C62.5844 42.1085 62.0598 41.584 61.4125 41.584H19.0859C18.4387 41.584 17.9141 42.1087 17.9141 42.7559Z" fill="white"></path><path d="M19.0859 74.0332H61.4125C62.0598 74.0332 62.5844 73.5087 62.5844 72.8613C62.5844 72.214 62.0598 71.6895 61.4125 71.6895H19.0859C18.4386 71.6895 17.9141 72.214 17.9141 72.8613C17.9141 73.5087 18.4387 74.0332 19.0859 74.0332Z" fill="white"></path><path d="M25.1148 67.5766C25.7621 67.5766 26.2866 67.052 26.2866 66.4047V62.1094C26.2866 61.462 25.7621 60.9375 25.1148 60.9375H19.4316C18.7843 60.9375 18.2598 61.462 18.2598 62.1094V66.4047C18.2598 67.052 18.7843 67.5766 19.4316 67.5766C20.079 67.5766 20.6035 67.052 20.6035 66.4047V63.2812H23.9429V66.4047C23.9429 67.0519 24.4676 67.5766 25.1148 67.5766Z" fill="white"></path><path d="M36.6371 62.5869C37.2845 62.5869 37.809 62.0624 37.809 61.415C37.809 60.7677 37.2845 60.2432 36.6371 60.2432H32.3418C31.6945 60.2432 31.1699 60.7677 31.1699 61.415V67.0982C31.1699 67.7455 31.6945 68.27 32.3418 68.27H36.6371C37.2845 68.27 37.809 67.7455 37.809 67.0982C37.809 66.4508 37.2845 65.9263 36.6371 65.9263H33.5137V62.5869H36.6371Z" fill="white"></path><path d="M49.5462 67.5766C50.1936 67.5766 50.7181 67.052 50.7181 66.4047V62.1094C50.7181 61.462 50.1936 60.9375 49.5462 60.9375H43.8633C43.2159 60.9375 42.6914 61.462 42.6914 62.1094V66.4047C42.6914 67.052 43.2159 67.5766 43.8633 67.5766C44.5106 67.5766 45.0352 67.052 45.0352 66.4047V63.2812H48.3744V66.4047C48.3744 67.0519 48.8989 67.5766 49.5462 67.5766Z" fill="white"></path><path d="M61.0668 62.5869C61.7141 62.5869 62.2387 62.0624 62.2387 61.415C62.2387 60.7677 61.7141 60.2432 61.0668 60.2432H56.7715C56.1241 60.2432 55.5996 60.7677 55.5996 61.415V67.0982C55.5996 67.7455 56.1241 68.27 56.7715 68.27H61.0668C61.7141 68.27 62.2387 67.7455 62.2387 67.0982C62.2387 66.4508 61.7141 65.9263 61.0668 65.9263H57.9434V62.5869H61.0668Z" fill="white"></path><path d="M66.884 16.9385C66.2366 16.9385 65.7121 17.4632 65.7121 18.1104V77.6558H41.3223C40.6749 77.6558 40.1504 78.1803 40.1504 78.8277C40.1504 79.475 40.6749 79.9996 41.3223 79.9996H65.7487C67.0209 79.9996 68.0559 78.9646 68.0559 77.6924V18.1104C68.0559 17.4632 67.5312 16.9385 66.884 16.9385Z" fill="white"></path><path d="M65.748 5.30016H61.658V2.62094C61.658 1.17578 60.4824 0 59.0373 0H50.0374C48.5923 0 47.4165 1.17578 47.4165 2.62094V5.30016H33.0821V2.62094C33.0821 1.17578 31.9063 0 30.4612 0H28.304C27.6566 0 27.1321 0.524687 27.1321 1.17188C27.1321 1.81906 27.6566 2.34375 28.304 2.34375H30.4612C30.614 2.34375 30.7382 2.46813 30.7382 2.62094V5.30016H21.1841V2.62094C21.1841 2.46813 21.3085 2.34375 21.4612 2.34375H23.6184C24.2657 2.34375 24.7902 1.81906 24.7902 1.17188C24.7902 0.524687 24.2657 0 23.6184 0H21.4612C20.016 0 18.8404 1.17578 18.8404 2.62094V5.30016H14.7505C13.4784 5.30016 12.4434 6.33516 12.4434 7.60734V77.693C12.4434 78.9652 13.4784 80.0002 14.7505 80.0002H36.636C37.2834 80.0002 37.8079 79.4756 37.8079 78.8283C37.8079 78.1809 37.2834 77.6564 36.636 77.6564H14.7873V7.64391H65.7115V13.4252C65.7115 14.0723 66.236 14.597 66.8834 14.597C67.5307 14.597 68.0552 14.0723 68.0552 13.4252V7.60734C68.0552 6.33516 67.0202 5.30016 65.748 5.30016ZM49.7602 5.30016V2.62094C49.7602 2.46813 49.8846 2.34375 50.0374 2.34375H59.0373C59.1901 2.34375 59.3143 2.46813 59.3143 2.62094V5.30016H49.7602Z" fill="white"></path></g><defs><clipPath id="clip0"><rect width="80" height="80" fill="white" transform="translate(0.25)"></rect></clipPath></defs></svg>