<svg xmlns="http://www.w3.org/2000/svg" width="80" height="80" viewBox="0 0 80 80" fill="none"><path d="M63.4618 21.0856C62.3418 20.1316 61.1833 19.2368 60.0182 18.4256C58.2854 17.2196 56.1754 16.6746 54.074 16.8894C50.7213 17.233 49.027 19.1324 47.8924 20.3013C46.0345 22.2153 44.1137 24.1947 44.1137 27.8177V34.4876C43.8079 34.2349 43.626 33.8535 43.626 33.4561V20.0876C43.626 19.4407 43.1011 18.9158 42.4541 18.9158C41.8066 18.9158 41.2823 19.4407 41.2823 20.0876V33.4561C41.2823 34.5896 41.8182 35.6796 42.7154 36.3724C43.7554 37.1744 51.5117 43.1577 52.5353 43.9474C52.5432 43.9535 52.5506 43.9603 52.5579 43.967C53.1029 44.4089 53.1896 45.1981 52.7678 45.7455C52.3351 46.3064 51.53 46.4102 50.9691 45.9781L41.3561 38.5623C40.5578 37.9465 39.4427 37.9459 38.6437 38.5623C31.5698 44.0195 33.6327 42.4283 29.0307 45.9781C28.4863 46.398 27.6708 46.326 27.2216 45.7297C26.8011 45.1681 26.9146 44.3722 27.4645 43.9474C28.3575 43.259 34.624 38.425 35.4302 37.803C35.4302 37.803 37.2698 36.384 37.2845 36.373C38.1823 35.6803 38.7182 34.5902 38.7182 33.4567V5.50087C38.7182 5.14686 38.8592 4.81728 39.1155 4.57314C39.3713 4.32838 39.7088 4.20326 40.0634 4.22035C40.7354 4.25209 41.2823 4.85756 41.2823 5.56984V14.6195C41.2823 15.2665 41.8066 15.7914 42.4541 15.7914C43.1011 15.7914 43.626 15.2665 43.626 14.6195V5.56984C43.626 3.59108 42.1099 1.96999 40.1739 1.87905C39.1741 1.83266 38.2214 2.18606 37.4975 2.87697C36.7834 3.55812 36.3744 4.51454 36.3744 5.50087V33.4561C36.3744 33.8535 36.1919 34.2349 35.8862 34.4876V27.8183C35.8862 23.7711 33.4948 21.7783 31.4337 19.6006C28.4313 16.4298 23.5607 15.9354 19.9823 18.4256C18.8165 19.2368 17.658 20.1316 16.5387 21.0856C6.02782 30.0424 0 43.2382 0 57.2885V65.5093C0 70.7321 2.71728 77.6199 9.24925 78.1075C9.46348 78.124 9.67833 78.1326 9.895 78.1326H23.7774C26.4977 78.1326 29.024 76.9076 30.7079 74.7707C33.421 71.3284 35.144 67.181 35.6945 62.853C35.9216 61.0708 35.8862 59.9655 35.8862 58.1723V43.6496L39.9999 40.4764L44.1137 43.6496V59.8349C44.1137 67.8604 48.3654 74.9935 51.8615 76.9833C53.1707 77.7291 54.6642 78.1326 56.223 78.1326H70.1055C73.1554 78.1326 76.0387 76.517 77.6311 73.9163C79.1301 71.4681 79.9998 68.5549 79.9998 65.5087V57.2885C79.9998 43.2382 73.972 30.0424 63.4618 21.0856ZM9.895 75.7888C6.26769 75.7888 4.06799 73.1008 2.97485 69.6261C4.94933 69.5425 6.95494 69.6145 8.97337 69.548C13.8855 69.3856 17.42 68.1808 19.7778 65.8645C21.3275 64.3423 22.2625 62.4295 23.7182 61.2783C25.0079 60.2591 26.8414 59.7207 29.4891 59.5852C30.8056 59.5175 32.1667 59.534 33.5424 59.451V59.8343C33.5424 64.7024 31.8835 69.4924 28.8665 73.3199C27.6299 74.8892 25.7745 75.7888 23.7768 75.7888H9.895ZM33.5424 45.4575V57.1017C32.1777 57.1927 30.7794 57.1725 29.3688 57.2445C27.3828 57.3465 24.4848 57.6846 22.265 59.44C20.4919 60.8419 19.5221 62.8305 18.136 64.1922C16.2164 66.0775 13.1939 67.0632 8.89586 67.2055C6.80358 67.2744 4.64538 67.1878 2.46276 67.3049C2.38464 66.7117 2.34375 66.1117 2.34375 65.5087V57.2885C2.34375 54.7506 2.55126 52.2427 2.95471 49.7861L3.80065 51.1703C4.01305 51.5182 4.39208 51.7306 4.80041 51.7306H8.16588C8.81346 51.7306 9.33775 51.2057 9.33775 50.5588C9.33775 49.9118 8.81346 49.3869 8.16588 49.3869H5.45775L3.63952 46.412C4.62829 42.3337 6.16942 38.4329 8.21348 34.8172L10.6085 38.1235V42.9788C10.6085 43.2071 10.6756 43.4305 10.8001 43.6209L12.8729 46.7837C13.2269 47.3245 13.9532 47.4771 14.4952 47.1219C15.0366 46.7673 15.188 46.0409 14.8333 45.4996L12.9529 42.6291V41.0678H15.8709C16.5179 41.0678 17.0428 40.5435 17.0428 39.8959C17.0428 39.249 16.5179 38.7241 15.8709 38.7241H12.9522V37.7438C12.9522 37.4967 12.8747 37.2562 12.7295 37.056L9.52879 32.6383C11.8609 29.0122 14.7204 25.7144 18.0584 22.8696C19.1204 21.9651 20.2179 21.1173 21.3208 20.3495C23.9746 18.5026 27.5115 18.8675 29.732 21.2125C31.7822 23.378 33.5424 24.7947 33.5424 27.8183V36.2991C29.345 39.5371 26.2524 41.9229 26.0333 42.0914C24.5422 43.2413 24.1491 45.3982 25.2563 47.0108C25.26 47.0163 25.2636 47.0224 25.2673 47.0279C26.4587 48.7417 28.8226 49.0982 30.4626 47.8335L33.4399 45.5368L33.5424 45.4575ZM49.5379 47.8335C49.5391 47.8342 49.5409 47.8354 49.5421 47.8366C51.1297 49.0567 53.3996 48.7637 54.6233 47.1774C55.8666 45.5667 55.5236 43.2925 53.9672 42.0914L46.4574 36.2991V27.8183C46.4574 24.7959 48.2158 23.3792 50.2685 21.2125C52.4895 18.8663 56.0271 18.5038 58.6791 20.3495C63.2018 23.497 67.2905 27.6914 70.4711 32.6389L67.2704 37.0566C67.1257 37.2562 67.0476 37.4973 67.0476 37.7438V38.7247H64.1295C63.4819 38.7247 62.9576 39.2496 62.9576 39.8965C62.9576 40.5435 63.4819 41.0684 64.1295 41.0684H67.0476V42.6291L65.1671 45.4996C64.8125 46.0409 64.9632 46.7673 65.5046 47.1219C65.703 47.2519 65.9258 47.3141 66.1461 47.3141C66.5282 47.3141 66.9023 47.1274 67.1275 46.7844L69.1997 43.6215C69.3248 43.4305 69.3913 43.2071 69.3913 42.9794V38.1241L71.787 34.8178C73.8304 38.4335 75.3722 42.3343 76.3603 46.4127L74.5421 49.3875H71.834C71.1864 49.3875 70.6615 49.9118 70.6615 50.5594C70.6615 51.2063 71.1864 51.7312 71.834 51.7312H75.1994C75.6078 51.7312 75.9868 51.5188 76.1992 51.1703L77.0451 49.7867C77.4486 52.2433 77.6561 54.7513 77.6561 57.2885V65.5093C77.6561 66.1123 77.6152 66.7123 77.5371 67.3055C75.3539 67.1884 73.1987 67.275 71.104 67.2055C67.7043 67.0932 65.136 66.4639 63.2512 65.2816C62.7025 64.938 61.9799 65.1034 61.6356 65.6521C61.292 66.2002 61.4574 66.9235 62.0055 67.2671C64.251 68.6758 67.2014 69.4216 71.0265 69.548C73.0443 69.6145 75.0481 69.5431 77.0244 69.6267C75.9172 73.1259 73.8042 75.7894 70.1048 75.7894H56.2224C54.5995 75.7894 53.0706 75.1955 51.8908 74.1311C50.2666 72.6656 46.4574 67.2866 46.4574 59.4516C49.6483 59.645 53.7017 59.2392 56.281 61.279C56.9139 61.7794 57.4529 62.4356 57.8966 63.0117C58.2915 63.5244 59.027 63.6203 59.5403 63.2254C60.053 62.8299 60.1488 62.0944 59.7533 61.5817C58.1206 59.4613 56.2053 57.5308 50.631 57.2445C49.2205 57.1725 47.8222 57.1927 46.4574 57.1023V45.4575L49.5379 47.8335Z" fill="white"></path></svg>